<svg xmlns="http://www.w3.org/2000/svg" width="141" height="140" viewBox="0 0 141 140">
  <g id="Grupo_151339" data-name="Grupo 151339" transform="translate(-572 -8315)">
    <g id="Elipse_6238" data-name="Elipse 6238" transform="translate(572 8315)" fill="#fff" stroke="#f40b74" stroke-width="9">
      <ellipse cx="70.5" cy="70" rx="70.5" ry="70" stroke="none"/>
      <ellipse cx="70.5" cy="70" rx="66" ry="65.5" fill="none"/>
    </g>
    <g id="Grupo_150823" data-name="Grupo 150823" transform="translate(6930.082 11454.867)">
      <path id="Trazado_209281" data-name="Trazado 209281" d="M32.307,581.082a8.428,8.428,0,0,0-3.371,16.154l1.124-2.573a5.619,5.619,0,0,1,2.247-10.771,5.555,5.555,0,0,1,2.247.475,1.4,1.4,0,0,0,1.967-1.287V572.771h7.143a8.26,8.26,0,0,0-.119,1.4,8.452,8.452,0,0,0,6.742,8.259l.562-2.752a5.637,5.637,0,0,1-4.495-5.508,5.555,5.555,0,0,1,.475-2.247,1.4,1.4,0,0,0-1.287-1.967H36.521v-7.143a8.257,8.257,0,0,0,1.4.119,8.428,8.428,0,1,0,0-16.856,8.26,8.26,0,0,0-1.4.119v-7.143H60.4a7.031,7.031,0,0,1,7.023,7.023v23.879H58.4a1.406,1.406,0,0,0-1.287,1.967,5.555,5.555,0,0,1,.475,2.247H60.4a8.256,8.256,0,0,0-.119-1.4h8.547a1.405,1.405,0,0,0,1.4-1.4V546.082a9.845,9.845,0,0,0-9.832-9.833H9.833A9.845,9.845,0,0,0,0,546.082v50.452a9.845,9.845,0,0,0,9.833,9.833H25.284v-2.809H9.833a7.031,7.031,0,0,1-7.023-7.023V572.771H11.83a1.512,1.512,0,0,0,1.4-1.618,1.488,1.488,0,0,0-.111-.466,5.618,5.618,0,1,1,10.288,0,1.456,1.456,0,0,0,1.287,2.085h9.021V581.2a8.09,8.09,0,0,0-1.4-.118M9.833,539.058H33.712v9.021a1.406,1.406,0,0,0,1.967,1.287,5.555,5.555,0,0,1,2.247-.475,5.619,5.619,0,1,1,0,11.237,5.555,5.555,0,0,1-2.247-.475,1.4,1.4,0,0,0-1.967,1.287v8.9H26.579a8.255,8.255,0,0,0,.11-1.288v-.117a8.428,8.428,0,0,0-16.856,0v.117a8.237,8.237,0,0,0,.11,1.288H2.809V546.082a7.032,7.032,0,0,1,7.023-7.023" transform="translate(-6330.082 -3648.967)" fill="#206897"/>
      <path id="Trazado_209282" data-name="Trazado 209282" d="M217.706,792.045,205.9,783.913,201.362,771.8a1.4,1.4,0,0,0-1.806-.826c-.027.01-.052.02-.077.031l-9.13,4.038a1.406,1.406,0,0,0-.745,1.787c.152.393.294.691.444,1a10.756,10.756,0,0,1,.459,1.055,5.621,5.621,0,1,1-10.864,1.689,1.4,1.4,0,0,0-1.9-1.388l-9.76,3.676a1.4,1.4,0,0,0-.82,1.808l3.5,9.358a7.892,7.892,0,0,0-1.363.377,8.446,8.446,0,1,0,7.2,15.214l2.512,6.709a1.406,1.406,0,0,0,1.808.823h0l13.918-5.244a7.544,7.544,0,0,0,4.449,3.972l.888-2.669a4.74,4.74,0,0,1-2.686-2.3l4.235-1.594a9.8,9.8,0,0,0,9.25,6.519v-2.809A7.068,7.068,0,0,1,203.856,806a1.4,1.4,0,0,0-.412-.993l-4.891-4.891a2.083,2.083,0,0,1-.193-2.71,2.046,2.046,0,0,1,1.51-.823,2.01,2.01,0,0,1,1.613.6l9.807,9.807,1.986-1.986-2.9-2.9a9.8,9.8,0,0,0-.125-6.567l-2.632-7.031,8.488,5.845a4.222,4.222,0,0,1,1.8,3.453V815.95h2.809V797.805a7.038,7.038,0,0,0-3.005-5.76m-9.678,7.713-4.56-4.558a4.881,4.881,0,0,0-6.99,6.816c.028.03.058.059.087.087l4.443,4.443-19.851,7.477-2.677-7.154a1.4,1.4,0,0,0-1.01-.878,1.389,1.389,0,0,0-.3-.034,1.4,1.4,0,0,0-.983.4,5.619,5.619,0,1,1-5.883-9.327,5.421,5.421,0,0,1,1.389-.315,5.135,5.135,0,0,1,.881-.03,1.4,1.4,0,0,0,1.389-1.895L170.29,785l6.689-2.519a8.431,8.431,0,1,0,16.164-4.576c-.129-.346-.246-.62-.358-.864l6.461-2.861,8.372,22.347a7.015,7.015,0,0,1,.41,3.236" transform="translate(-6466.513 -3844.387)" fill="#206897"/>
    </g>
  </g>
</svg>
