<svg xmlns="http://www.w3.org/2000/svg" xmlns:xlink="http://www.w3.org/1999/xlink" width="831.576" height="608.359" viewBox="0 0 831.576 608.359">
  <defs>
    <clipPath id="clip-path">
      <rect id="Rectángulo_299150" data-name="Rectángulo 299150" width="193.748" height="193.748" transform="translate(398.603 123.218)" fill="none"/>
    </clipPath>
    <clipPath id="clip-path-2">
      <rect id="Rectángulo_299151" data-name="Rectángulo 299151" width="76.719" height="46.529" transform="translate(457.118 202.969)" fill="none"/>
    </clipPath>
    <clipPath id="clip-path-3">
      <rect id="Rectángulo_299152" data-name="Rectángulo 299152" width="193.748" height="193.748" transform="translate(235.273 123.218)" fill="none"/>
    </clipPath>
    <clipPath id="clip-path-4">
      <rect id="Rectángulo_299153" data-name="Rectángulo 299153" width="76.738" height="46.529" transform="translate(293.778 202.969)" fill="none"/>
    </clipPath>
    <clipPath id="clip-path-5">
      <rect id="Rectángulo_299154" data-name="Rectángulo 299154" width="193.748" height="193.747" transform="translate(316.938 255.092)" fill="none"/>
    </clipPath>
    <clipPath id="clip-path-6">
      <rect id="Rectángulo_299155" data-name="Rectángulo 299155" width="71.621" height="46.529" transform="translate(378.002 334.842)" fill="none"/>
    </clipPath>
    <clipPath id="clip-path-7">
      <rect id="Rectángulo_299156" data-name="Rectángulo 299156" width="68.752" height="68.753" transform="translate(379.436 227.959)" fill="none"/>
    </clipPath>
    <clipPath id="clip-path-8">
      <rect id="Rectángulo_299160" data-name="Rectángulo 299160" width="95.731" height="139.734" transform="translate(34.309 149.023)" fill="none"/>
    </clipPath>
    <clipPath id="clip-path-9">
      <rect id="Rectángulo_299162" data-name="Rectángulo 299162" width="244.77" height="187.833" transform="translate(0 420.526)" fill="none"/>
    </clipPath>
    <clipPath id="clip-path-10">
      <rect id="Rectángulo_299163" data-name="Rectángulo 299163" width="181.672" height="139.734" transform="translate(34.309 446.859)" fill="none"/>
    </clipPath>
    <clipPath id="clip-path-11">
      <rect id="Rectángulo_299164" data-name="Rectángulo 299164" width="225.538" height="48.598" transform="translate(106.643 75.092)" fill="none"/>
    </clipPath>
    <clipPath id="clip-path-12">
      <rect id="Rectángulo_299165" data-name="Rectángulo 299165" width="8.698" height="10.31" transform="translate(326.832 109.842)" fill="none"/>
    </clipPath>
    <clipPath id="clip-path-13">
      <rect id="Rectángulo_299166" data-name="Rectángulo 299166" width="201.26" height="22.529" transform="translate(15.491 355.818)" fill="none"/>
    </clipPath>
    <clipPath id="clip-path-14">
      <rect id="Rectángulo_299167" data-name="Rectángulo 299167" width="216.386" height="22.529" transform="translate(598.507 370.763)" fill="none"/>
    </clipPath>
    <clipPath id="clip-path-15">
      <rect id="Rectángulo_299168" data-name="Rectángulo 299168" width="227.295" height="22.529" transform="translate(300.17 16.693)" fill="none"/>
    </clipPath>
    <clipPath id="clip-path-16">
      <rect id="Rectángulo_299158" data-name="Rectángulo 299158" width="120.68" height="211.734" transform="translate(684.92 80.768)" fill="none"/>
    </clipPath>
  </defs>
  <g id="Grupo_151395" data-name="Grupo 151395" transform="translate(-390 -6546.857)">
    <path id="Trazado_207188" data-name="Trazado 207188" d="M543.638,54.435H283.995a8.724,8.724,0,0,1-8.724-8.723V9.723A8.723,8.723,0,0,1,283.995,1H543.638a8.722,8.722,0,0,1,8.723,8.723V45.712a8.723,8.723,0,0,1-8.723,8.723" transform="translate(390 6546.857)" fill="#fff"/>
    <path id="Trazado_209576" data-name="Trazado 209576" d="M8.723,0H268.366a8.724,8.724,0,0,1,8.724,8.724V44.712a8.723,8.723,0,0,1-8.723,8.723H8.723A8.723,8.723,0,0,1,0,44.712V8.723A8.723,8.723,0,0,1,8.723,0Z" transform="translate(665.271 6547.857)" fill="none" stroke="#f40b74" stroke-linecap="round" stroke-width="2" stroke-dasharray="10.095 10.095"/>
    <path id="Trazado_207189" data-name="Trazado 207189" d="M823.275,407.089h-234.3a8.3,8.3,0,0,1-8.3-8.3V361.955a8.3,8.3,0,0,1,8.3-8.3h234.3a8.3,8.3,0,0,1,8.3,8.3v36.833a8.3,8.3,0,0,1-8.3,8.3" transform="translate(390 6546.857)" fill="#fff"/>
    <path id="Trazado_209577" data-name="Trazado 209577" d="M8.3,0H231.025a8.3,8.3,0,0,1,8.3,8.3V45.134a8.3,8.3,0,0,1-8.3,8.3H8.3a8.3,8.3,0,0,1-8.3-8.3V8.3A8.3,8.3,0,0,1,8.3,0Z" transform="translate(970.674 6900.512)" fill="none" stroke="#f40b74" stroke-linecap="round" stroke-width="2" stroke-dasharray="9.907 9.907"/>
    <path id="Trazado_207190" data-name="Trazado 207190" d="M221.2,391.886H8.915A7.915,7.915,0,0,1,1,383.971V346.366a7.915,7.915,0,0,1,7.915-7.915H221.2a7.915,7.915,0,0,1,7.915,7.915v37.605a7.915,7.915,0,0,1-7.915,7.915" transform="translate(390 6546.857)" fill="#fff"/>
    <path id="Trazado_209578" data-name="Trazado 209578" d="M7.915,0H220.2a7.915,7.915,0,0,1,7.915,7.915v37.6a7.915,7.915,0,0,1-7.915,7.915H7.915A7.915,7.915,0,0,1,0,45.52V7.915A7.915,7.915,0,0,1,7.915,0Z" transform="translate(391 6885.309)" fill="none" stroke="#f40b74" stroke-linecap="round" stroke-width="2" stroke-dasharray="10.175 10.175"/>
    <g id="Grupo_150403" data-name="Grupo 150403" transform="translate(390 6546.857)" style="mix-blend-mode: multiply;isolation: isolate">
      <g id="Grupo_150402" data-name="Grupo 150402">
        <g id="Grupo_150401" data-name="Grupo 150401" clip-path="url(#clip-path)">
          <path id="Trazado_207191" data-name="Trazado 207191" d="M591.351,220.092a95.874,95.874,0,1,1-95.874-95.874,95.874,95.874,0,0,1,95.874,95.874" fill="#83abc5"/>
          <circle id="Elipse_6329" data-name="Elipse 6329" cx="95.874" cy="95.874" r="95.874" transform="translate(399.13 315.49) rotate(-89.716)" fill="none" stroke="#206897" stroke-miterlimit="10" stroke-width="2"/>
        </g>
      </g>
    </g>
    <g id="Grupo_150406" data-name="Grupo 150406" transform="translate(390 6546.857)" style="isolation: isolate">
      <g id="Grupo_150405" data-name="Grupo 150405">
        <g id="Grupo_150404" data-name="Grupo 150404" clip-path="url(#clip-path-2)">
          <text id="Medios_" data-name="Medios " transform="translate(459.667 220.079)" fill="#12263f" font-size="20" font-family="Roboto-Black, Roboto" font-weight="800"><tspan x="0" y="0">Medios </tspan></text>
          <text id="pagados" transform="translate(457.127 244.079)" fill="#12263f" font-size="20" font-family="Roboto-Black, Roboto" font-weight="800"><tspan x="0" y="0">pagados</tspan></text>
        </g>
      </g>
    </g>
    <g id="Grupo_150409" data-name="Grupo 150409" transform="translate(390 6546.857)" style="mix-blend-mode: multiply;isolation: isolate">
      <g id="Grupo_150408" data-name="Grupo 150408">
        <g id="Grupo_150407" data-name="Grupo 150407" clip-path="url(#clip-path-3)">
          <path id="Trazado_207192" data-name="Trazado 207192" d="M428.021,220.092a95.873,95.873,0,1,1-95.874-95.874,95.874,95.874,0,0,1,95.874,95.874" fill="#fbaed1"/>
          <circle id="Elipse_6330" data-name="Elipse 6330" cx="95.874" cy="95.874" r="95.874" transform="translate(235.806 315.497) rotate(-89.721)" fill="none" stroke="#f40b74" stroke-miterlimit="10" stroke-width="2"/>
        </g>
      </g>
    </g>
    <g id="Grupo_150412" data-name="Grupo 150412" transform="translate(390 6546.857)" style="isolation: isolate">
      <g id="Grupo_150411" data-name="Grupo 150411">
        <g id="Grupo_150410" data-name="Grupo 150410" clip-path="url(#clip-path-4)">
          <text id="Medios_2" data-name="Medios " transform="translate(296.336 220.079)" fill="#12263f" font-size="20" font-family="Roboto-Black, Roboto" font-weight="800"><tspan x="0" y="0">Medios </tspan></text>
          <text id="ganados" transform="translate(293.776 244.079)" fill="#12263f" font-size="20" font-family="Roboto-Black, Roboto" font-weight="800"><tspan x="0" y="0">ganados</tspan></text>
        </g>
      </g>
    </g>
    <g id="Grupo_150415" data-name="Grupo 150415" transform="translate(390 6546.857)" style="mix-blend-mode: multiply;isolation: isolate">
      <g id="Grupo_150414" data-name="Grupo 150414">
        <g id="Grupo_150413" data-name="Grupo 150413" clip-path="url(#clip-path-5)">
          <path id="Trazado_207193" data-name="Trazado 207193" d="M509.686,351.966a95.874,95.874,0,1,1-95.874-95.874,95.874,95.874,0,0,1,95.874,95.874" fill="#fdd7ae"/>
          <circle id="Elipse_6331" data-name="Elipse 6331" cx="95.874" cy="95.874" r="95.874" transform="translate(317.697 447.598) rotate(-89.856)" fill="none" stroke="#f9860b" stroke-miterlimit="10" stroke-width="2"/>
        </g>
      </g>
    </g>
    <g id="Grupo_150418" data-name="Grupo 150418" transform="translate(390 6546.857)" style="isolation: isolate">
      <g id="Grupo_150417" data-name="Grupo 150417">
        <g id="Grupo_150416" data-name="Grupo 150416" clip-path="url(#clip-path-6)">
          <text id="Medios_3" data-name="Medios " transform="translate(378.001 351.952)" fill="#12263f" font-size="20" font-family="Roboto-Black, Roboto" font-weight="800"><tspan x="0" y="0">Medios </tspan></text>
          <text id="propios" transform="translate(379.841 375.952)" fill="#12263f" font-size="20" font-family="Roboto-Black, Roboto" font-weight="800"><tspan x="0" y="0">p</tspan><tspan y="0" letter-spacing="-0.017em">r</tspan><tspan y="0">opios</tspan></text>
        </g>
      </g>
    </g>
    <g id="Grupo_150421" data-name="Grupo 150421" transform="translate(390 6546.857)" style="mix-blend-mode: multiply;isolation: isolate">
      <g id="Grupo_150420" data-name="Grupo 150420">
        <g id="Grupo_150419" data-name="Grupo 150419" clip-path="url(#clip-path-7)">
          <path id="Trazado_207194" data-name="Trazado 207194" d="M447.188,262.335a33.376,33.376,0,1,1-33.376-33.376A33.376,33.376,0,0,1,447.188,262.335Z" fill="none" stroke="#206897" stroke-miterlimit="10" stroke-width="2"/>
        </g>
      </g>
    </g>
    <path id="Trazado_207202" data-name="Trazado 207202" d="M169.346,316.494H14.421A13.421,13.421,0,0,1,1,303.074V137.111a13.42,13.42,0,0,1,13.421-13.42H169.346a13.42,13.42,0,0,1,13.42,13.42V303.074a13.42,13.42,0,0,1-13.42,13.42" transform="translate(390 6546.857)" fill="#fbaed1"/>
    <path id="Trazado_209579" data-name="Trazado 209579" d="M13.42,0H168.346a13.42,13.42,0,0,1,13.42,13.42V179.382A13.421,13.421,0,0,1,168.345,192.8H13.42A13.42,13.42,0,0,1,0,179.383V13.42A13.42,13.42,0,0,1,13.42,0Z" transform="translate(391 6670.548)" fill="none" stroke="#f40b74" stroke-width="2"/>
    <g id="Grupo_150427" data-name="Grupo 150427" transform="translate(390 6546.857)" style="isolation: isolate">
      <g id="Grupo_150426" data-name="Grupo 150426">
        <g id="Grupo_150425" data-name="Grupo 150425" clip-path="url(#clip-path-8)">
          <text id="Compartido" transform="translate(34.31 164.422)" fill="#12263f" font-size="18" font-family="Roboto-Black, Roboto" font-weight="800"><tspan x="0" y="0">Compa</tspan><tspan y="0" letter-spacing="0.024em">r</tspan><tspan y="0">tido</tspan></text>
          <text id="Menciones" transform="translate(34.31 212.422)" fill="#12263f" font-size="16" font-family="Roboto-Regular, Roboto"><tspan x="0" y="0">Menciones</tspan></text>
          <text id="Compartidos" transform="translate(34.31 236.422)" fill="#12263f" font-size="16" font-family="Roboto-Regular, Roboto"><tspan x="0" y="0">Compa</tspan><tspan y="0" letter-spacing="0.025em">r</tspan><tspan y="0">tidos</tspan></text>
          <text id="Comentarios" transform="translate(34.31 260.422)" fill="#12263f" font-size="16" font-family="Roboto-Regular, Roboto"><tspan x="0" y="0">Comentarios</tspan></text>
          <text id="Evaluaciones" transform="translate(34.31 284.422)" fill="#12263f" font-size="16" font-family="Roboto-Regular, Roboto"><tspan x="0" y="0" letter-spacing="-0.012em">E</tspan><tspan y="0" letter-spacing="-0.007em">v</tspan><tspan y="0">aluaciones</tspan></text>
        </g>
      </g>
    </g>
    <path id="Trazado_207203" data-name="Trazado 207203" d="M25.061,209.3l-2.883,1.516.55-3.211L20.4,205.326l3.223-.468,1.442-2.921,1.442,2.921,3.223.468L27.394,207.6l.55,3.211Z" transform="translate(390 6546.857)" fill="#fff"/>
    <path id="Trazado_207204" data-name="Trazado 207204" d="M25.061,233.169l-2.883,1.516.55-3.211L20.4,229.2l3.223-.468,1.442-2.921,1.442,2.921,3.223.468-2.332,2.274.55,3.211Z" transform="translate(390 6546.857)" fill="#fff"/>
    <path id="Trazado_207205" data-name="Trazado 207205" d="M25.061,257.043l-2.883,1.516.55-3.211L20.4,253.074l3.223-.468,1.442-2.921,1.442,2.921,3.223.468-2.332,2.274.55,3.211Z" transform="translate(390 6546.857)" fill="#fff"/>
    <path id="Trazado_207206" data-name="Trazado 207206" d="M25.061,280.916l-2.883,1.516.55-3.211L20.4,276.947l3.223-.468,1.442-2.921,1.442,2.921,3.223.468-2.332,2.274.55,3.211Z" transform="translate(390 6546.857)" fill="#fff"/>
    <g id="Grupo_150430" data-name="Grupo 150430" transform="translate(390 6546.857)" style="mix-blend-mode: multiply;isolation: isolate">
      <g id="Grupo_150429" data-name="Grupo 150429">
        <g id="Grupo_150428" data-name="Grupo 150428" clip-path="url(#clip-path-9)">
          <path id="Trazado_207207" data-name="Trazado 207207" d="M228.543,607.359H16.227A15.227,15.227,0,0,1,1,592.132V436.753a15.227,15.227,0,0,1,15.227-15.227H228.543a15.227,15.227,0,0,1,15.227,15.227V592.132a15.227,15.227,0,0,1-15.227,15.227" fill="#fdd7ae"/>
          <rect id="Rectángulo_299161" data-name="Rectángulo 299161" width="242.77" height="185.833" rx="15.227" transform="translate(1 421.526)" fill="none" stroke="#f9860b" stroke-miterlimit="10" stroke-width="2"/>
        </g>
      </g>
    </g>
    <g id="Grupo_150433" data-name="Grupo 150433" transform="translate(390 6546.857)" style="isolation: isolate">
      <g id="Grupo_150432" data-name="Grupo 150432">
        <g id="Grupo_150431" data-name="Grupo 150431" clip-path="url(#clip-path-10)">
          <text id="Medios_de_la_empresa" data-name="Medios de la empresa" transform="translate(34.31 462.257)" fill="#12263f" font-size="18" font-family="Roboto-Black, Roboto" font-weight="800"><tspan x="0" y="0">Medios de la emp</tspan><tspan y="0" letter-spacing="-0.008em">r</tspan><tspan y="0">esa</tspan></text>
          <text id="Página_web" data-name="Página web" transform="translate(34.31 510.257)" fill="#12263f" font-size="16" font-family="Roboto-Regular, Roboto"><tspan x="0" y="0" letter-spacing="-0.005em">P</tspan><tspan y="0">ágina web</tspan></text>
          <text id="Aplicación_móvil" data-name="Aplicación móvil" transform="translate(34.31 534.257)" fill="#12263f" font-size="16" font-family="Roboto-Regular, Roboto"><tspan x="0" y="0">Aplicación m</tspan><tspan y="0" letter-spacing="-0.007em">ó</tspan><tspan y="0">vil</tspan></text>
          <text id="Blog_personal" data-name="Blog personal" transform="translate(34.31 558.257)" fill="#12263f" font-size="16" font-family="Roboto-Regular, Roboto"><tspan x="0" y="0">Blog personal</tspan></text>
          <text id="Perfiles_en_redes_sociales" data-name="Perfiles en redes sociales" transform="translate(34.31 582.257)" fill="#12263f" font-size="16" font-family="Roboto-Regular, Roboto"><tspan x="0" y="0" letter-spacing="-0.006em">P</tspan><tspan y="0">e</tspan><tspan y="0" letter-spacing="0.007em">r</tspan><tspan y="0">files en </tspan><tspan y="0" letter-spacing="-0.011em">r</tspan><tspan y="0">edes sociales</tspan></text>
        </g>
      </g>
    </g>
    <path id="Trazado_207208" data-name="Trazado 207208" d="M25.061,507.131l-2.883,1.516.55-3.211L20.4,503.162l3.223-.468,1.442-2.921,1.442,2.921,3.223.468-2.332,2.274.55,3.211Z" transform="translate(390 6546.857)" fill="#fff"/>
    <path id="Trazado_207209" data-name="Trazado 207209" d="M25.061,531l-2.883,1.516.55-3.211L20.4,527.036l3.223-.468,1.442-2.921,1.442,2.921,3.223.468-2.332,2.274.55,3.211Z" transform="translate(390 6546.857)" fill="#fff"/>
    <path id="Trazado_207210" data-name="Trazado 207210" d="M25.061,554.878l-2.883,1.516.55-3.211L20.4,550.909l3.223-.468,1.442-2.921,1.442,2.921,3.223.468-2.332,2.274.55,3.211Z" transform="translate(390 6546.857)" fill="#fff"/>
    <path id="Trazado_207211" data-name="Trazado 207211" d="M25.061,578.752l-2.883,1.516.55-3.211L20.4,574.783l3.223-.468,1.442-2.921,1.442,2.921,3.223.468-2.332,2.274.55,3.211Z" transform="translate(390 6546.857)" fill="#fff"/>
    <path id="Trazado_207212" data-name="Trazado 207212" d="M243.77,490.442H418.338V456.555" transform="translate(390 6546.857)" fill="none" stroke="#f9860b" stroke-miterlimit="10" stroke-width="2"/>
    <path id="Trazado_207213" data-name="Trazado 207213" d="M422.688,463.036l-4.349-1.848-4.349,1.848,4.349-10.31Z" transform="translate(390 6546.857)" fill="#f9860b"/>
    <g id="Grupo_150436" data-name="Grupo 150436" transform="translate(390 6546.857)" style="mix-blend-mode: multiply;isolation: isolate">
      <g id="Grupo_150435" data-name="Grupo 150435">
        <g id="Grupo_150434" data-name="Grupo 150434" clip-path="url(#clip-path-11)">
          <path id="Trazado_207214" data-name="Trazado 207214" d="M107.643,123.69v-47.6H331.18v37.137" fill="none" stroke="#f40b74" stroke-miterlimit="10" stroke-width="2"/>
        </g>
      </g>
    </g>
    <g id="Grupo_150439" data-name="Grupo 150439" transform="translate(390 6546.857)" style="mix-blend-mode: multiply;isolation: isolate">
      <g id="Grupo_150438" data-name="Grupo 150438">
        <g id="Grupo_150437" data-name="Grupo 150437" clip-path="url(#clip-path-12)">
          <path id="Trazado_207215" data-name="Trazado 207215" d="M326.832,109.842l4.349,1.848,4.349-1.848-4.349,10.31Z" fill="#f40b74"/>
        </g>
      </g>
    </g>
    <path id="Trazado_207216" data-name="Trazado 207216" d="M499.826,120.152V76.092H651.61" transform="translate(390 6546.857)" fill="none" stroke="#206897" stroke-miterlimit="10" stroke-width="2"/>
    <path id="Trazado_207217" data-name="Trazado 207217" d="M495.477,112.361l4.349,1.848,4.349-1.848-4.349,10.31Z" transform="translate(390 6546.857)" fill="#206897"/>
    <g id="Grupo_150442" data-name="Grupo 150442" transform="translate(390 6546.857)" style="isolation: isolate">
      <g id="Grupo_150441" data-name="Grupo 150441">
        <g id="Grupo_150440" data-name="Grupo 150440" clip-path="url(#clip-path-13)">
          <text id="Contenido_compartido" data-name="Contenido compartido" transform="translate(15.492 372.927)" fill="#12263f" font-size="20" font-family="Roboto-Black, Roboto" font-weight="800"><tspan x="0" y="0">Contenido compa</tspan><tspan y="0" letter-spacing="0.022em">r</tspan><tspan y="0">tido</tspan></text>
        </g>
      </g>
    </g>
    <g id="Grupo_150445" data-name="Grupo 150445" transform="translate(386 6546.857)" style="isolation: isolate">
      <g id="Grupo_150444" data-name="Grupo 150444">
        <g id="Grupo_150443" data-name="Grupo 150443" clip-path="url(#clip-path-14)">
          <text id="Inversión_en_comunidad" data-name="Inversión en comunidad" transform="translate(598.507 387.873)" fill="#12263f" font-size="20" font-family="Roboto-Black, Roboto" font-weight="800"><tspan x="0" y="0">In</tspan><tspan y="0" letter-spacing="-0.006em">v</tspan><tspan y="0">ersión en comunidad</tspan></text>
        </g>
      </g>
    </g>
    <g id="Grupo_150448" data-name="Grupo 150448" transform="translate(390 6546.857)" style="isolation: isolate">
      <g id="Grupo_150447" data-name="Grupo 150447">
        <g id="Grupo_150446" data-name="Grupo 150446" clip-path="url(#clip-path-15)">
          <text id="Contenido_promocionado" data-name="Contenido promocionado" transform="translate(300.17 33.802)" fill="#12263f" font-size="20" font-family="Roboto-Black, Roboto" font-weight="800"><tspan x="0" y="0">Contenido p</tspan><tspan y="0" letter-spacing="-0.018em">r</tspan><tspan y="0">omocionado</tspan></text>
        </g>
      </g>
    </g>
    <path id="Trazado_207218" data-name="Trazado 207218" d="M229.117,368.135h55.829l59.368-59.368" transform="translate(390 6546.857)" fill="none" stroke="#f40b74" stroke-miterlimit="10" stroke-width="2"/>
    <path id="Trazado_207219" data-name="Trazado 207219" d="M345.283,313.95l-1.769-4.382-4.381-1.768,10.365-4.215Z" transform="translate(390 6546.857)" fill="#f40b74"/>
    <path id="Trazado_207220" data-name="Trazado 207220" d="M482.252,300.429l80.465,80.465h17.958" transform="translate(390 6546.857)" fill="none" stroke="#f40b74" stroke-miterlimit="10" stroke-width="2"/>
    <path id="Trazado_207221" data-name="Trazado 207221" d="M487.625,299.927l-4.382,1.769-1.768,4.381-4.215-10.365Z" transform="translate(390 6546.857)" fill="#f40b74"/>
    <path id="Trazado_209580" data-name="Trazado 209580" d="M0,0V149.571" transform="translate(803.812 6601.292)" fill="#fff"/>
    <path id="Trazado_209581" data-name="Trazado 209581" d="M0,0V149.571" transform="translate(803.812 6601.292)" fill="none" stroke="#f40b74" stroke-width="2"/>
    <path id="Trazado_207222" data-name="Trazado 207222" d="M409.468,199.923l4.349,1.848,4.349-1.848-4.349,10.31Z" transform="translate(390 6546.857)" fill="#f40b74"/>
    <path id="Trazado_207195" data-name="Trazado 207195" d="M817.777,315.966H667.211a15.6,15.6,0,0,1-15.6-15.6V71.036a15.6,15.6,0,0,1,15.6-15.6H817.777a15.6,15.6,0,0,1,15.6,15.6v229.33a15.6,15.6,0,0,1-15.6,15.6" transform="translate(376.624 6546.857)" fill="#83abc5"/>
    <g id="Grupo_150424" data-name="Grupo 150424" transform="translate(380 6546.857)" style="isolation: isolate">
      <g id="Grupo_150423" data-name="Grupo 150423">
        <g id="Grupo_150422" data-name="Grupo 150422" clip-path="url(#clip-path-16)">
          <text id="Publicidad" transform="translate(684.92 96.167)" fill="#12263f" font-size="18" font-family="Roboto-Black, Roboto" font-weight="800"><tspan x="0" y="0">Publicidad</tspan></text>
          <text id="Pago_por_clic" data-name="Pago por clic" transform="translate(684.92 144.167)" fill="#12263f" font-size="16" font-family="Roboto-Regular, Roboto"><tspan x="0" y="0" letter-spacing="-0.005em">P</tspan><tspan y="0">ago por clic</tspan></text>
          <text id="Anuncios_display" data-name="Anuncios display" transform="translate(684.92 168.167)" fill="#12263f" font-size="16" font-family="Roboto-Regular, Roboto"><tspan x="0" y="0">Anuncios displ</tspan><tspan y="0" letter-spacing="-0.008em">a</tspan><tspan y="0">y</tspan></text>
          <text id="Reorientación" transform="translate(684.92 192.167)" fill="#12263f" font-size="16" font-family="Roboto-Regular, Roboto"><tspan x="0" y="0">Reorientación</tspan></text>
          <text id="Influencers" transform="translate(684.92 216.167)" fill="#12263f" font-size="16" font-family="Roboto-Regular, Roboto"><tspan x="0" y="0">Influencers</tspan></text>
          <text id="Promociones" transform="translate(684.92 240.167)" fill="#12263f" font-size="16" font-family="Roboto-Regular, Roboto"><tspan x="0" y="0">P</tspan><tspan y="0" letter-spacing="-0.009em">r</tspan><tspan y="0">omociones</tspan></text>
          <text id="Anuncios_en_" data-name="Anuncios en " transform="translate(684.92 264.167)" fill="#12263f" font-size="16" font-family="Roboto-Regular, Roboto"><tspan x="0" y="0">Anuncios en </tspan></text>
          <text id="redes_sociales" data-name="redes sociales" transform="translate(684.92 288.167)" fill="#12263f" font-size="16" font-family="Roboto-Regular, Roboto"><tspan x="0" y="0" letter-spacing="-0.009em">r</tspan><tspan y="0">edes sociales</tspan></text>
        </g>
      </g>
    </g>
    <path id="Trazado_209582" data-name="Trazado 209582" d="M15.6,0H166.165a15.6,15.6,0,0,1,15.6,15.6V244.93a15.6,15.6,0,0,1-15.6,15.6H15.6A15.6,15.6,0,0,1,0,244.931V15.6A15.6,15.6,0,0,1,15.6,0Z" transform="translate(1028.234 6602.292)" fill="none" stroke="#206897" stroke-width="2"/>
    <path id="Trazado_207196" data-name="Trazado 207196" d="M675.671,141.04l-2.883,1.516.55-3.211-2.332-2.274,3.223-.468,1.442-2.921,1.442,2.921,3.223.468L678,139.345l.55,3.211Z" transform="translate(380 6546.857)" fill="#fff"/>
    <path id="Trazado_207197" data-name="Trazado 207197" d="M675.671,164.914l-2.883,1.516.55-3.211-2.332-2.274,3.223-.468,1.442-2.921,1.442,2.921,3.223.468L678,163.219l.55,3.211Z" transform="translate(380 6546.857)" fill="#fff"/>
    <path id="Trazado_207198" data-name="Trazado 207198" d="M675.671,188.787l-2.883,1.516.55-3.211-2.332-2.274,3.223-.468,1.442-2.921,1.442,2.921,3.223.468L678,187.092l.55,3.211Z" transform="translate(380 6546.857)" fill="#fff"/>
    <path id="Trazado_207199" data-name="Trazado 207199" d="M675.671,212.661l-2.883,1.516.55-3.211-2.332-2.274,3.223-.468,1.442-2.921,1.442,2.921,3.223.468L678,210.966l.55,3.211Z" transform="translate(380 6546.857)" fill="#fff"/>
    <path id="Trazado_207200" data-name="Trazado 207200" d="M675.671,236.535l-2.883,1.516.55-3.211-2.332-2.274,3.223-.468,1.442-2.921,1.442,2.921,3.223.468L678,234.84l.55,3.211Z" transform="translate(380 6546.857)" fill="#fff"/>
    <path id="Trazado_207201" data-name="Trazado 207201" d="M675.671,261.408l-2.883,1.516.55-3.211-2.332-2.274,3.223-.468,1.442-2.921,1.442,2.921,3.223.468L678,259.713l.55,3.211Z" transform="translate(380 6546.857)" fill="#fff"/>
  </g>
</svg>
