<svg xmlns="http://www.w3.org/2000/svg" xmlns:xlink="http://www.w3.org/1999/xlink" width="420.171" height="340.026" viewBox="0 0 420.171 340.026">
  <defs>
    <filter id="Trazado_157133" x="17.479" y="10.516" width="374.246" height="324.995" filterUnits="userSpaceOnUse">
      <feOffset dy="3" input="SourceAlpha"/>
      <feGaussianBlur stdDeviation="3" result="blur"/>
      <feFlood flood-opacity="0.161"/>
      <feComposite operator="in" in2="blur"/>
      <feComposite in="SourceGraphic"/>
    </filter>
    <radialGradient id="radial-gradient" cx="0.473" cy="0.169" r="1.287" gradientTransform="matrix(0.707, 0.707, -0.707, 0.707, 0.274, -0.091)" gradientUnits="objectBoundingBox">
      <stop offset="0" stop-color="#ffd673"/>
      <stop offset="0.457" stop-color="#ffb600"/>
      <stop offset="0.973" stop-color="#ff6b00"/>
    </radialGradient>
    <clipPath id="clip-path">
      <rect id="Rectángulo_299378" data-name="Rectángulo 299378" width="306.522" height="243.388" fill="none"/>
    </clipPath>
    <clipPath id="clip-path-3">
      <rect id="Rectángulo_299375" data-name="Rectángulo 299375" width="7.605" height="12.23" fill="none"/>
    </clipPath>
    <clipPath id="clip-path-4">
      <rect id="Rectángulo_299376" data-name="Rectángulo 299376" width="21.306" height="14.41" fill="none"/>
    </clipPath>
  </defs>
  <g id="Grupo_150774" data-name="Grupo 150774" transform="translate(-179.829 -1049)">
    <g id="Grupo_150491" data-name="Grupo 150491" transform="translate(951.861 11407)">
      <path id="Trazado_104230" data-name="Trazado 104230" d="M371.519-3043.95a26.473,26.473,0,0,1-26.473,26.473H222.021c0-.281-.021-.558-.021-.837a148.593,148.593,0,0,1,148.594-148.592c.311,0,.616.021.925.023Z" transform="translate(-742.368 -7000.497)" fill="#f9860b"/>
      <path id="Trazado_104231" data-name="Trazado 104231" d="M370.047-3223.527A26.473,26.473,0,0,1,396.52-3250H519.545c0,.282.021.558.021.838a148.592,148.592,0,0,1-148.594,148.592c-.311,0-.616-.021-.925-.023Z" transform="translate(-1134.059 -7108)" fill="#07a5b6"/>
      <g transform="matrix(1, 0, 0, 1, -772.03, -10358)" filter="url(#Trazado_157133)">
        <path id="Trazado_157133-2" data-name="Trazado 157133" d="M-190,306.995H158.087c4.506,0,8.16-4.79,8.16-10.7V0H-181.841C-186.347,0-190,4.79-190,10.7Z" transform="translate(216.48 16.52)" fill="#fff"/>
      </g>
      <circle id="Elipse_5768" data-name="Elipse 5768" cx="26.478" cy="26.478" r="26.478" transform="translate(-772.032 -10072.479) rotate(-90)" fill="url(#radial-gradient)"/>
      <circle id="Elipse_5767" data-name="Elipse 5767" cx="26.478" cy="26.478" r="26.478" transform="translate(-426.754 -10275.277) rotate(-45)" fill="url(#radial-gradient)"/>
    </g>
    <g id="Grupo_150578" data-name="Grupo 150578" transform="translate(241 1101.704)">
      <g id="Grupo_150577" data-name="Grupo 150577" clip-path="url(#clip-path)">
        <path id="Trazado_207900" data-name="Trazado 207900" d="M130.142,325.15v15.308h47.076V325.15Z" transform="translate(-51.354 -128.304)" fill="#f5f5f5"/>
        <path id="Trazado_207901" data-name="Trazado 207901" d="M126.88,318.081v4.28h50.7v-4.28h-50.7Z" transform="translate(-50.067 -125.514)" fill="#e1e1e1"/>
        <path id="Trazado_207902" data-name="Trazado 207902" d="M168.107,337.668h23.7V322.36h1.646v-4.28H167.119v3.884Z" transform="translate(-65.945 -125.514)" fill="#e1e1e1"/>
        <rect id="Rectángulo_299358" data-name="Rectángulo 299358" width="9.547" height="2.304" transform="translate(85.373 199.315)" fill="#e1e1e1"/>
        <rect id="Rectángulo_299359" data-name="Rectángulo 299359" width="12.259" height="4.866" transform="translate(84.144 204.5)" fill="#fff"/>
        <path id="Trazado_207903" data-name="Trazado 207903" d="M95.767,361.22v23.353h71.819V361.22Z" transform="translate(-37.789 -142.537)" fill="#f5f5f5"/>
        <path id="Trazado_207904" data-name="Trazado 207904" d="M90.789,350.435v6.529h77.344v-6.529H90.789Z" transform="translate(-35.825 -138.281)" fill="#e1e1e1"/>
        <path id="Trazado_207905" data-name="Trazado 207905" d="M153.685,380.318h36.161V356.964h2.511v-6.529H152.178v5.925Z" transform="translate(-60.049 -138.281)" fill="#e1e1e1"/>
        <rect id="Rectángulo_299360" data-name="Rectángulo 299360" width="14.565" height="3.516" transform="translate(68.022 222.449)" fill="#e1e1e1"/>
        <rect id="Rectángulo_299361" data-name="Rectángulo 299361" width="18.702" height="7.423" transform="translate(66.147 230.359)" fill="#fff"/>
        <g id="Grupo_150576" data-name="Grupo 150576">
          <g id="Grupo_150575" data-name="Grupo 150575" clip-path="url(#clip-path)">
            <path id="Trazado_207906" data-name="Trazado 207906" d="M306.522,399.692c0,.087-68.623.157-153.253.157C68.608,399.85,0,399.78,0,399.692s68.608-.157,153.268-.157c84.63,0,153.253.07,153.253.157" transform="translate(0 -157.656)" fill="#375a64"/>
            <path id="Trazado_207907" data-name="Trazado 207907" d="M278.459,199.653H6.316a5.259,5.259,0,0,1-5.259-5.259V5.5A5.259,5.259,0,0,1,6.316.241H278.459A5.259,5.259,0,0,1,283.718,5.5V194.394a5.259,5.259,0,0,1-5.259,5.259" transform="translate(-0.417 -0.095)" fill="#fafafa"/>
            <path id="Trazado_207908" data-name="Trazado 207908" d="M21.284,199.945H6.711a5.84,5.84,0,0,1-5.84-5.84V6.418A5.84,5.84,0,0,1,6.711.578H21.284a5.84,5.84,0,0,1,5.84,5.84V194.1a5.84,5.84,0,0,1-5.84,5.84" transform="translate(-0.344 -0.228)" fill="#f40b74"/>
            <path id="Trazado_207909" data-name="Trazado 207909" d="M409.569,28.518a.887.887,0,0,1,.137-.082,1.167,1.167,0,0,0,.325-.3,2.641,2.641,0,0,0,.445-1.562,4.937,4.937,0,0,1,.217-1.175,1.627,1.627,0,0,1,.927-1.057,1.66,1.66,0,0,1,1.547.2,2.342,2.342,0,0,1,.732,1.493,5.524,5.524,0,0,1,.064.739,1.674,1.674,0,0,0,.082.647,2.476,2.476,0,0,0,.754.985l.3.247h-.383c-1.549-.005-2.886-.067-3.779-.1l-1.37-.039,1.52-.039c.928-.031,2.165-.093,3.629-.1l-.082.245a2.7,2.7,0,0,1-.858-1.1,1.95,1.95,0,0,1-.1-.739,5.364,5.364,0,0,0-.062-.7,2.1,2.1,0,0,0-.621-1.315,1.321,1.321,0,0,0-2.069.713,4.976,4.976,0,0,0-.239,1.115,4.067,4.067,0,0,1-.185.965,1.9,1.9,0,0,1-.379.648,1.028,1.028,0,0,1-.386.278.23.23,0,0,1-.111.024.228.228,0,0,0-.052.005" transform="translate(-161.614 -9.565)" fill="#1a2e35"/>
            <path id="Trazado_207910" data-name="Trazado 207910" d="M414.426,24.922a1.1,1.1,0,1,0,1.1-1.105,1.1,1.1,0,0,0-1.1,1.105" transform="translate(-163.532 -9.398)" fill="#ff4f5b" fill-rule="evenodd"/>
            <path id="Trazado_207911" data-name="Trazado 207911" d="M412.676,32.466h1.52a.748.748,0,0,1-.829.773.632.632,0,0,1-.691-.773" transform="translate(-162.837 -12.811)" fill="#1a2e35" fill-rule="evenodd"/>
            <path id="Trazado_207912" data-name="Trazado 207912" d="M437.091,31.212h-6.246a2.733,2.733,0,0,1-2.733-2.733V22.234a2.733,2.733,0,0,1,2.733-2.733h6.246a2.733,2.733,0,0,1,2.733,2.733V28.48a2.733,2.733,0,0,1-2.733,2.733" transform="translate(-168.932 -7.695)" fill="#ff4f5b" fill-rule="evenodd"/>
            <path id="Trazado_207913" data-name="Trazado 207913" d="M23.574,68.381a.212.212,0,0,1-.142-.054l-3.764-3.407L15.9,68.327a.21.21,0,1,1-.281-.311l3.9-3.535a.209.209,0,0,1,.282,0l3.9,3.535a.21.21,0,0,1-.14.366" transform="translate(-6.137 -25.422)" fill="#fafafa"/>
            <path id="Trazado_207914" data-name="Trazado 207914" d="M23.2,73.041h-5.67a.209.209,0,0,1-.21-.21V68.886a.209.209,0,1,1,.419,0v3.735h5.251V68.886a.21.21,0,1,1,.42,0v3.945a.21.21,0,0,1-.209.21" transform="translate(-6.835 -27.099)" fill="#fafafa"/>
            <path id="Trazado_207915" data-name="Trazado 207915" d="M23.5,116.434H16.11a.21.21,0,0,1-.209-.209v-4.714a1.061,1.061,0,0,1,1.06-1.061h1.922a1.192,1.192,0,0,1,1.1.733l.331.788H22.65a1.062,1.062,0,0,1,1.061,1.061v3.193a.21.21,0,0,1-.21.209m-7.18-.42h6.971v-2.983a.642.642,0,0,0-.641-.641H20.175a.21.21,0,0,1-.193-.129l-.385-.917a.774.774,0,0,0-.714-.475H16.961a.642.642,0,0,0-.641.641Z" transform="translate(-6.275 -43.583)" fill="#fafafa"/>
            <path id="Trazado_207916" data-name="Trazado 207916" d="M30.708,164.421H8.552a1.928,1.928,0,0,1-1.928-1.928V144.562a1.928,1.928,0,0,1,1.928-1.928H30.708a1.928,1.928,0,0,1,1.928,1.928v17.931a1.928,1.928,0,0,1-1.928,1.928" transform="translate(-2.614 -56.283)" fill="#fafafa"/>
            <path id="Trazado_207917" data-name="Trazado 207917" d="M17.693,161.938a.56.56,0,0,1-.552-.647l.309-1.965a.14.14,0,0,0-.039-.119L16.006,157.8a.559.559,0,0,1,.308-.947l1.964-.313a.137.137,0,0,0,.1-.074l.905-1.772a.581.581,0,0,1,1,0l.905,1.771a.139.139,0,0,0,.1.074l1.965.313a.559.559,0,0,1,.308.947l-1.4,1.408a.138.138,0,0,0-.039.12l.309,1.965a.559.559,0,0,1-.805.585l-1.773-.9a.14.14,0,0,0-.126,0l-1.773.9a.555.555,0,0,1-.254.061m2.09-1.4a.559.559,0,0,1,.254.061l1.773.9a.14.14,0,0,0,.2-.146l-.309-1.965a.558.558,0,0,1,.157-.482l1.4-1.408a.139.139,0,0,0-.077-.236l-1.964-.313a.559.559,0,0,1-.41-.3l-.905-1.771a.139.139,0,0,0-.248,0l-.905,1.771a.559.559,0,0,1-.41.3l-1.963.313a.139.139,0,0,0-.077.236l1.4,1.409a.558.558,0,0,1,.157.481l-.309,1.965a.14.14,0,0,0,.2.146l1.773-.9a.557.557,0,0,1,.254-.061" transform="translate(-6.252 -60.931)" fill="#ff4f5b"/>
            <path id="Trazado_207918" data-name="Trazado 207918" d="M23.614,206.849h-8.3a.21.21,0,0,1-.21-.21v-5.233a.21.21,0,0,1,.21-.209h8.3a.21.21,0,0,1,.209.209v5.233a.21.21,0,0,1-.209.21m-8.091-.42H23.4v-4.814h-7.88Z" transform="translate(-5.96 -79.392)" fill="#fafafa"/>
            <path id="Trazado_207919" data-name="Trazado 207919" d="M19.565,205.377a.21.21,0,0,1-.139-.053l-4.251-3.762a.21.21,0,0,1,.278-.315l4.108,3.637,3.91-3.632a.21.21,0,1,1,.286.307l-4.049,3.762a.208.208,0,0,1-.143.056" transform="translate(-5.96 -79.391)" fill="#fafafa"/>
            <path id="Trazado_207920" data-name="Trazado 207920" d="M15.511,208.237a.21.21,0,0,1-.148-.358l2.525-2.525a.21.21,0,0,1,.3.3l-2.525,2.525a.208.208,0,0,1-.148.061" transform="translate(-6.038 -81.008)" fill="#fafafa"/>
            <path id="Trazado_207921" data-name="Trazado 207921" d="M27.354,208.41a.208.208,0,0,1-.148-.061l-2.7-2.7a.21.21,0,0,1,.3-.3l2.7,2.7a.21.21,0,0,1,0,.3.207.207,0,0,1-.148.061" transform="translate(-9.646 -81.007)" fill="#fafafa"/>
            <path id="Trazado_207922" data-name="Trazado 207922" d="M123.863,25.033c4.31-3.379,8.12-7.532,13.066-9.884,8.5-4.043,18.543-1.992,27.62.511s18.667,5.4,27.725,2.827A24.8,24.8,0,0,0,209.215.242H53.4A39.6,39.6,0,0,0,85.722,34.661q.538.093,1.081.174a49.136,49.136,0,0,0,37.06-9.8" transform="translate(-21.071 -0.095)" fill="#ff4f5b"/>
            <path id="Trazado_207923" data-name="Trazado 207923" d="M341.636,16.221c4.387,3.983,10.785,5.066,16.671,4.385,3.959-.458,7.987-1.721,10.848-4.5a13.884,13.884,0,0,0,3.7-12.466,14.991,14.991,0,0,0-1.116-3.4H339.3c-3.591,4.695-2.043,12,2.337,15.98" transform="translate(-133.1 -0.095)" fill="#ff4f5b"/>
            <path id="Trazado_207924" data-name="Trazado 207924" d="M123.863,25.033c4.31-3.379,8.12-7.532,13.066-9.884,8.5-4.043,18.543-1.992,27.62.511s18.667,5.4,27.725,2.827A24.8,24.8,0,0,0,209.215.242H53.4A39.6,39.6,0,0,0,85.722,34.661q.538.093,1.081.174a49.136,49.136,0,0,0,37.06-9.8" transform="translate(-21.071 -0.095)" fill="#75cdd6"/>
            <path id="Trazado_207925" data-name="Trazado 207925" d="M341.636,16.221c4.387,3.983,10.785,5.066,16.671,4.385,3.959-.458,7.987-1.721,10.848-4.5a13.884,13.884,0,0,0,3.7-12.466,14.991,14.991,0,0,0-1.116-3.4H339.3c-3.591,4.695-2.043,12,2.337,15.98" transform="translate(-133.1 -0.095)" fill="#75cdd6"/>
            <path id="Trazado_207926" data-name="Trazado 207926" d="M396.784,27.512c0-.017.087-.049.254-.033a1,1,0,0,1,.622.331,1.088,1.088,0,0,1,.22,1.035,1.114,1.114,0,0,1-2.1.068,1.084,1.084,0,0,1,.154-1.046.993.993,0,0,1,.6-.371c.165-.026.255,0,.255.016.019.051-.394.039-.687.475a.893.893,0,0,0-.072.826.857.857,0,0,0,1.6-.051.9.9,0,0,0-.125-.82,1.4,1.4,0,0,0-.716-.429" transform="translate(-156.144 -10.841)" fill="#1a2e35"/>
            <path id="Trazado_207927" data-name="Trazado 207927" d="M395.858,25.09a2.564,2.564,0,0,1-.238-.5l.05.03-.907.151.064-.067c-.012.171-.024.357-.037.554l0,.05-.049.022a2.211,2.211,0,0,0-.492.3l-.044.035-.054-.024-.509-.223.126-.032-.548.738,0-.143.361.423.047.054-.028.069a2.149,2.149,0,0,0-.139.548l-.009.074-.072.028-.518.2.083-.139c.041.286.085.595.13.909l-.123-.117.553.046.083.007.033.077a2.124,2.124,0,0,0,.285.484l.052.067-.035.079-.229.506-.044-.173.733.555-.181,0,.426-.357.067-.057.082.034a2.124,2.124,0,0,0,.541.143l.119.093h0v.006l0,.008.006.016.013.033.024.065.049.131.1.259-.156-.093.911-.123-.124.131c.017-.186.033-.371.05-.553l.008-.087.08-.033a2.137,2.137,0,0,0,.486-.281l.068-.053.078.035.5.232-.168.042.561-.728,0,.168-.354-.428-.051-.062.03-.072a2.144,2.144,0,0,0,.149-.545l.01-.076.071-.026.521-.189-.078.13c-.04-.319-.077-.622-.114-.912l.1.1-.552-.056-.065-.007-.023-.058a2.15,2.15,0,0,0-.281-.5l-.036-.048.024-.051.239-.5.026.1-.718-.573.081,0-.437.343-.024.018-.025-.011c-.364-.159-.566-.174-.561-.2a.318.318,0,0,1,.151,0,1.916,1.916,0,0,1,.446.11l-.048.007.413-.371.038-.034.044.032.744.539.055.04-.028.065-.222.509-.012-.1a2.324,2.324,0,0,1,.323.536l-.087-.064.553.042.088.007.013.09.133.909.014.1-.092.035-.518.2.081-.1a2.377,2.377,0,0,1-.157.613l-.021-.134.36.424.069.081-.065.087-.553.734-.066.088-.1-.046-.506-.228.145-.017a2.378,2.378,0,0,1-.549.322l.087-.119q-.024.273-.047.553l-.01.114-.115.016-.911.125-.115.016-.041-.109-.1-.259-.049-.13-.024-.065-.013-.033-.006-.016,0-.008v-.006h0l.118.094h0a2.362,2.362,0,0,1-.616-.163l.149-.023-.426.357-.089.074-.092-.07-.73-.558-.091-.07.047-.1.232-.5.017.145a2.4,2.4,0,0,1-.318-.551l.116.085-.553-.051-.109-.01-.013-.107c-.041-.316-.081-.624-.118-.912l-.013-.1.1-.036.521-.19-.081.1a2.342,2.342,0,0,1,.167-.61l.019.123-.352-.429-.059-.072.056-.071.565-.724.051-.067.074.035.5.238-.1.012a2.334,2.334,0,0,1,.544-.305l-.053.071c.022-.2.042-.381.061-.552l.007-.061.057-.006.914-.1.039,0,.011.034a3.3,3.3,0,0,1,.151.536" transform="translate(-154.945 -9.676)" fill="#1a2e35"/>
            <path id="Trazado_207928" data-name="Trazado 207928" d="M278.761,199.558l.156-.012a4.339,4.339,0,0,0,.463-.04,4.737,4.737,0,0,0,1.737-.576,4.846,4.846,0,0,0,2.472-4.065c.016-.7,0-1.449.005-2.244-.007-6.368-.016-15.757-.028-27.848-.011-24.185-.027-59.179-.046-102.418q0-16.215-.01-33.937,0-8.85,0-18.052,0-2.3,0-4.621a6.137,6.137,0,0,0-.255-2.26A4.75,4.75,0,0,0,280.072.453a7.963,7.963,0,0,0-2.307-.187h-4.746L191.846.28,5.848.291a4.74,4.74,0,0,0-4.524,3.3,10.494,10.494,0,0,0-.217,3.016V21.946q0,12.22,0,24.274,0,24.1,0,47.457c0,31.114-.006,61.126-.009,89.716q0,5.361,0,10.654a8.945,8.945,0,0,0,.05,1.3,4.681,4.681,0,0,0,.343,1.233,4.758,4.758,0,0,0,1.595,1.965,4.7,4.7,0,0,0,2.369.862c.852.038,1.739.011,2.606.019l20.607,0,39.4.007,70.728.018,139.965.1-139.965.1-70.728.018-39.4.007-20.607,0c-.875-.008-1.733.02-2.626-.019a4.953,4.953,0,0,1-2.5-.91,5.026,5.026,0,0,1-1.685-2.074,4.964,4.964,0,0,1-.362-1.3,9.151,9.151,0,0,1-.053-1.337q0-5.293,0-10.654c0-28.589-.005-58.6-.008-89.716q0-23.335,0-47.457,0-12.051,0-24.274V5.069a5.551,5.551,0,0,1,.23-1.563A5.03,5.03,0,0,1,5.848,0l186,.012,81.173.013h4.746a8.156,8.156,0,0,1,2.373.2,4.989,4.989,0,0,1,3.338,3.186,6.392,6.392,0,0,1,.266,2.336q0,2.321,0,4.621,0,9.2,0,18.052-.005,17.7-.01,33.937c-.019,43.24-.035,78.233-.046,102.418-.012,12.091-.021,21.48-.027,27.848-.005.8.006,1.544-.013,2.245a4.875,4.875,0,0,1-2.509,4.089,4.713,4.713,0,0,1-1.75.565,4.971,4.971,0,0,1-.621.036" transform="translate(-0.322)" fill="#1a2e35"/>
            <path id="Trazado_207929" data-name="Trazado 207929" d="M19.433,30.9h0a4.787,4.787,0,1,1,4.787-4.787A4.787,4.787,0,0,1,19.433,30.9" transform="translate(-5.779 -8.415)" fill="#fff"/>
            <path id="Trazado_207930" data-name="Trazado 207930" d="M115.031,225.063h0a10.739,10.739,0,1,1,10.739-10.739,10.739,10.739,0,0,1-10.739,10.739" transform="translate(-41.153 -80.334)" fill="#f40b74"/>
            <path id="Trazado_207931" data-name="Trazado 207931" d="M115.376,218.165a.252.252,0,0,0,.367-.183c.033-.128.114-.453.15-.588a.355.355,0,0,0-.106-.408,2.114,2.114,0,0,1-.483-1.437,3.469,3.469,0,0,1,3.607-3.508,2.742,2.742,0,0,1,3.048,2.808c0,2.112-.935,3.895-2.323,3.895a1.134,1.134,0,0,1-1.156-1.411,15.646,15.646,0,0,0,.647-2.6.981.981,0,0,0-.988-1.1c-.784,0-1.413.811-1.413,1.9a2.82,2.82,0,0,0,.234,1.159l-.942,3.992a8.217,8.217,0,0,0-.022,2.784.1.1,0,0,0,.174.042,7.815,7.815,0,0,0,1.322-2.4c.09-.326.516-2.013.516-2.013a2.1,2.1,0,0,0,1.789.913c2.356,0,3.953-2.147,3.953-5.021a4.378,4.378,0,0,0-4.638-4.2c-3.48,0-5.236,2.5-5.236,4.576a2.821,2.821,0,0,0,1.5,2.8" transform="translate(-44.935 -83.177)" fill="#fff"/>
            <path id="Trazado_207932" data-name="Trazado 207932" d="M108.256,248.393v9.092h-.935v-8.261h-2.143v-.831Z" transform="translate(-41.503 -98.015)" fill="#1a2e35"/>
            <path id="Trazado_207933" data-name="Trazado 207933" d="M119.761,254.809c0,1.546-1.078,2.754-3.3,2.754a4.693,4.693,0,0,1-3.26-1.169l.455-.741a3.938,3.938,0,0,0,2.792,1.053c1.546,0,2.364-.753,2.364-1.858,0-1.168-.728-1.9-3.039-1.9h-1.935l.467-4.559h4.975v.831h-4.156l-.312,2.9h1.169c2.741,0,3.78,1.078,3.78,2.689" transform="translate(-44.669 -98.015)" fill="#1a2e35"/>
            <path id="Trazado_207934" data-name="Trazado 207934" d="M125.99,252.888c0-2.9,1.52-4.624,3.624-4.624s3.637,1.728,3.637,4.624-1.533,4.624-3.637,4.624-3.624-1.728-3.624-4.624m6.3,0c0-2.429-1.091-3.767-2.675-3.767s-2.676,1.338-2.676,3.767,1.091,3.767,2.676,3.767,2.675-1.338,2.675-3.767" transform="translate(-49.715 -97.965)" fill="#1a2e35"/>
            <path id="Trazado_207935" data-name="Trazado 207935" d="M116.7,273.455v3.13h-.322v-2.844h-.738v-.286Z" transform="translate(-45.632 -107.905)" fill="#1a2e35"/>
            <path id="Trazado_207936" data-name="Trazado 207936" d="M120.666,275.663c0,.532-.371.947-1.136.947a1.611,1.611,0,0,1-1.122-.4l.156-.255a1.356,1.356,0,0,0,.961.362c.532,0,.814-.259.814-.639,0-.4-.251-.653-1.047-.653h-.666l.161-1.569H120.5v.286h-1.431l-.107,1h.4c.943,0,1.3.371,1.3.925" transform="translate(-46.724 -107.905)" fill="#1a2e35"/>
            <path id="Trazado_207937" data-name="Trazado 207937" d="M122.665,274.266c0-.509.286-.849.707-.849s.706.336.706.849-.291.85-.706.85-.707-.34-.707-.85m1.189,0c0-.406-.192-.648-.482-.648s-.483.246-.483.648.188.649.483.649.482-.242.482-.649m1.413-.827h.264l-2.137,3.13h-.264Zm-.683,2.3c0-.51.291-.849.706-.849s.706.34.706.849-.286.849-.706.849-.706-.34-.706-.849m1.189,0c0-.4-.188-.648-.483-.648s-.483.242-.483.648.192.648.483.648.483-.246.483-.648" transform="translate(-48.403 -107.89)" fill="#1a2e35"/>
            <path id="Trazado_207938" data-name="Trazado 207938" d="M201.176,224.936h0a10.675,10.675,0,1,1,10.675-10.675,10.675,10.675,0,0,1-10.675,10.675" transform="translate(-75.171 -80.334)" fill="#f40b74"/>
            <path id="Trazado_207939" data-name="Trazado 207939" d="M203.7,209.977a6.805,6.805,0,1,0,6.805,6.805,6.8,6.8,0,0,0-6.805-6.805m0,1.184a5.588,5.588,0,0,1,3.427,1.176,6.877,6.877,0,0,1-2.828,2.086,26.108,26.108,0,0,0-1.978-3.083,5.573,5.573,0,0,1,1.378-.179m-2.536.611a25.225,25.225,0,0,1,2.006,3.052,18.045,18.045,0,0,1-4.925.627,5.637,5.637,0,0,1,2.919-3.679m-3.086,5.01c0-.049.007-.1.008-.145a19.036,19.036,0,0,0,5.642-.75q.2.4.38.812a8.762,8.762,0,0,0-4.728,3.675,5.594,5.594,0,0,1-1.3-3.592M203.7,222.4a5.586,5.586,0,0,1-3.45-1.192,7.637,7.637,0,0,1,4.309-3.418,22.276,22.276,0,0,1,1.159,4.23,5.576,5.576,0,0,1-2.018.38m3.121-.949a23.418,23.418,0,0,0-1.089-3.912,11.294,11.294,0,0,1,3.515.112,5.626,5.626,0,0,1-2.426,3.8m-1.543-5.031c-.138-.319-.282-.637-.435-.953a8.042,8.042,0,0,0,3.146-2.314,5.6,5.6,0,0,1,1.316,3.309,12.149,12.149,0,0,0-4.028-.042" transform="translate(-77.694 -82.857)" fill="#fff"/>
            <path id="Trazado_207940" data-name="Trazado 207940" d="M193.435,256.526c0,1.52-1.1,2.689-3.3,2.689a4.729,4.729,0,0,1-3.273-1.168l.455-.741a3.981,3.981,0,0,0,2.819,1.052c1.506,0,2.337-.7,2.337-1.831,0-1.091-.766-1.8-2.455-1.8h-.649v-.689l2.52-3.156H187.24v-.831h5.845v.662l-2.572,3.235c1.948.1,2.922,1.13,2.922,2.584" transform="translate(-73.736 -98.667)" fill="#1a2e35"/>
            <path id="Trazado_207941" data-name="Trazado 207941" d="M199.886,254.54c0-2.9,1.52-4.624,3.624-4.624s3.637,1.728,3.637,4.624-1.533,4.624-3.637,4.624-3.624-1.728-3.624-4.624m6.3,0c0-2.429-1.091-3.767-2.675-3.767s-2.676,1.338-2.676,3.767,1.091,3.767,2.676,3.767,2.675-1.338,2.675-3.767" transform="translate(-78.875 -98.616)" fill="#1a2e35"/>
            <path id="Trazado_207942" data-name="Trazado 207942" d="M214.09,254.54c0-2.9,1.52-4.624,3.624-4.624s3.637,1.728,3.637,4.624-1.533,4.624-3.637,4.624-3.624-1.728-3.624-4.624m6.3,0c0-2.429-1.091-3.767-2.675-3.767s-2.676,1.338-2.676,3.767,1.091,3.767,2.676,3.767,2.675-1.338,2.675-3.767" transform="translate(-84.48 -98.616)" fill="#1a2e35"/>
            <path id="Trazado_207943" data-name="Trazado 207943" d="M202.806,275.107v3.13h-.322v-2.844h-.738v-.286Z" transform="translate(-79.609 -108.557)" fill="#1a2e35"/>
            <path id="Trazado_207944" data-name="Trazado 207944" d="M206.769,277.316c0,.532-.371.947-1.136.947a1.614,1.614,0,0,1-1.122-.4l.157-.255a1.356,1.356,0,0,0,.961.362c.532,0,.814-.259.814-.639,0-.4-.251-.653-1.047-.653h-.666l.161-1.569H206.6v.286h-1.431l-.107,1h.4c.944,0,1.3.371,1.3.925" transform="translate(-80.7 -108.557)" fill="#1a2e35"/>
            <path id="Trazado_207945" data-name="Trazado 207945" d="M208.769,275.919c0-.509.286-.849.707-.849s.707.336.707.849-.291.85-.707.85-.707-.34-.707-.85m1.19,0c0-.406-.193-.648-.483-.648s-.482.246-.482.648.188.649.482.649.483-.242.483-.649m1.412-.827h.264l-2.137,3.13h-.264Zm-.684,2.3c0-.51.291-.849.707-.849s.706.34.706.849-.286.849-.706.849-.707-.34-.707-.849m1.189,0c0-.4-.188-.648-.482-.648s-.483.242-.483.648.192.648.483.648.482-.246.482-.648" transform="translate(-82.38 -108.542)" fill="#1a2e35"/>
            <path id="Trazado_207946" data-name="Trazado 207946" d="M278.248,225.827h0a11.121,11.121,0,1,1,11.121-11.121,11.121,11.121,0,0,1-11.121,11.121" transform="translate(-105.408 -80.334)" fill="#f9860b"/>
            <path id="Trazado_207947" data-name="Trazado 207947" d="M281.522,212.981c1.628,0,1.821.006,2.464.035a3.375,3.375,0,0,1,1.132.21,2.02,2.02,0,0,1,1.157,1.158,3.375,3.375,0,0,1,.21,1.132c.03.643.036.836.036,2.464s-.006,1.821-.036,2.464a3.374,3.374,0,0,1-.21,1.132,2.016,2.016,0,0,1-1.157,1.157,3.343,3.343,0,0,1-1.132.21c-.643.03-.836.036-2.464.036s-1.821-.006-2.464-.036a3.342,3.342,0,0,1-1.132-.21,2.02,2.02,0,0,1-1.158-1.157,3.374,3.374,0,0,1-.21-1.132c-.029-.643-.035-.836-.035-2.464s.006-1.821.035-2.464a3.374,3.374,0,0,1,.21-1.132,2.023,2.023,0,0,1,1.158-1.158,3.374,3.374,0,0,1,1.132-.21c.643-.029.836-.035,2.464-.035m0-1.1c-1.656,0-1.863.007-2.514.037a4.479,4.479,0,0,0-1.48.283,3.116,3.116,0,0,0-1.783,1.784,4.455,4.455,0,0,0-.283,1.48c-.03.651-.037.858-.037,2.514s.007,1.863.037,2.514a4.455,4.455,0,0,0,.283,1.48,3.116,3.116,0,0,0,1.783,1.784,4.479,4.479,0,0,0,1.48.283c.651.03.858.037,2.514.037s1.863-.007,2.514-.037a4.471,4.471,0,0,0,1.48-.283,3.12,3.12,0,0,0,1.784-1.784,4.472,4.472,0,0,0,.283-1.48c.03-.651.037-.858.037-2.514s-.007-1.863-.037-2.514a4.472,4.472,0,0,0-.283-1.48,3.12,3.12,0,0,0-1.784-1.784,4.472,4.472,0,0,0-1.48-.283c-.651-.03-.858-.037-2.514-.037" transform="translate(-108.682 -83.608)" fill="#fff"/>
            <path id="Trazado_207948" data-name="Trazado 207948" d="M283.455,216.783a3.131,3.131,0,1,0,3.131,3.131,3.131,3.131,0,0,0-3.131-3.131m0,5.163a2.032,2.032,0,1,1,2.032-2.032,2.032,2.032,0,0,1-2.032,2.032" transform="translate(-110.615 -85.542)" fill="#fff"/>
            <path id="Trazado_207949" data-name="Trazado 207949" d="M291.127,216.1a.732.732,0,1,1-.731-.732.732.732,0,0,1,.731.732" transform="translate(-114.301 -84.984)" fill="#fff"/>
            <path id="Trazado_207950" data-name="Trazado 207950" d="M279.18,257.839c0,1.546-1.078,2.754-3.3,2.754a4.7,4.7,0,0,1-3.26-1.169l.455-.74a3.941,3.941,0,0,0,2.792,1.052c1.546,0,2.365-.753,2.365-1.858,0-1.168-.728-1.9-3.04-1.9h-1.935l.467-4.559H278.7v.831h-4.156l-.312,2.9h1.17c2.74,0,3.78,1.078,3.78,2.688" transform="translate(-107.575 -99.211)" fill="#1a2e35"/>
            <path id="Trazado_207951" data-name="Trazado 207951" d="M285.408,255.918c0-2.9,1.52-4.624,3.624-4.624s3.637,1.728,3.637,4.624-1.532,4.624-3.637,4.624-3.624-1.728-3.624-4.624m6.3,0c0-2.429-1.091-3.767-2.675-3.767s-2.676,1.338-2.676,3.767,1.091,3.767,2.676,3.767,2.675-1.338,2.675-3.767" transform="translate(-112.622 -99.16)" fill="#1a2e35"/>
            <path id="Trazado_207952" data-name="Trazado 207952" d="M280.169,276.485v3.13h-.322v-2.844h-.738v-.286Z" transform="translate(-110.136 -109.1)" fill="#1a2e35"/>
            <path id="Trazado_207953" data-name="Trazado 207953" d="M284.132,278.694c0,.532-.371.948-1.135.948a1.614,1.614,0,0,1-1.122-.4l.156-.255a1.356,1.356,0,0,0,.961.362c.532,0,.814-.259.814-.639,0-.4-.25-.653-1.046-.653h-.666l.16-1.569h1.713v.286h-1.431l-.108,1h.4c.943,0,1.3.37,1.3.925" transform="translate(-111.227 -109.101)" fill="#1a2e35"/>
            <path id="Trazado_207954" data-name="Trazado 207954" d="M286.132,277.3c0-.509.286-.849.706-.849s.706.336.706.849-.29.85-.706.85-.706-.34-.706-.85m1.189,0c0-.406-.192-.648-.483-.648s-.483.246-.483.648.188.649.483.649.483-.242.483-.649m1.413-.827H289l-2.138,3.13H286.6Zm-.684,2.3c0-.51.291-.849.707-.849s.706.34.706.849-.286.849-.706.849-.707-.34-.707-.849m1.19,0c0-.4-.188-.648-.483-.648s-.483.242-.483.648.193.648.483.648.483-.245.483-.648" transform="translate(-112.907 -109.086)" fill="#1a2e35"/>
            <path id="Trazado_207955" data-name="Trazado 207955" d="M116.036,110.833h0a11.691,11.691,0,1,1,11.69-11.691,11.691,11.691,0,0,1-11.69,11.691" transform="translate(-41.174 -34.508)" fill="#206897"/>
            <path id="Trazado_207956" data-name="Trazado 207956" d="M119.748,109.223h2.846V102.1h1.985l.212-2.386h-2.2V98.352c0-.563.113-.785.657-.785h1.54V95.091h-1.971c-2.118,0-3.072.932-3.072,2.718v1.9h-1.48v2.416h1.48Z" transform="translate(-46.668 -37.523)" fill="#fff"/>
            <path id="Trazado_207957" data-name="Trazado 207957" d="M110.395,149.182v.9h-6.917v-.718l4.1-4.015c1.113-1.1,1.324-1.761,1.324-2.437,0-1.141-.8-1.845-2.31-1.845a3.348,3.348,0,0,0-2.691,1.1l-.718-.62a4.429,4.429,0,0,1,3.494-1.409c2,0,3.268,1.014,3.268,2.663,0,.944-.3,1.789-1.62,3.085l-3.353,3.3Z" transform="translate(-40.715 -55.298)" fill="#1a2e35"/>
            <path id="Trazado_207958" data-name="Trazado 207958" d="M123.605,147.236c0,1.676-1.17,2.986-3.579,2.986a5.089,5.089,0,0,1-3.536-1.268l.493-.8a4.273,4.273,0,0,0,3.029,1.142c1.676,0,2.564-.817,2.564-2.015,0-1.268-.789-2.057-3.3-2.057h-2.1l.507-4.944h5.4v.9h-4.508l-.338,3.141h1.268c2.972,0,4.1,1.169,4.1,2.916" transform="translate(-45.967 -55.353)" fill="#1a2e35"/>
            <path id="Trazado_207959" data-name="Trazado 207959" d="M130.358,145.152c0-3.141,1.648-5.015,3.93-5.015s3.945,1.874,3.945,5.015-1.662,5.015-3.945,5.015-3.93-1.874-3.93-5.015m6.833,0c0-2.634-1.184-4.085-2.9-4.085s-2.9,1.451-2.9,4.085,1.184,4.086,2.9,4.086,2.9-1.451,2.9-4.086" transform="translate(-51.439 -55.298)" fill="#1a2e35"/>
            <path id="Trazado_207960" data-name="Trazado 207960" d="M117.88,167.458v3.394h-.349v-3.084h-.8v-.311Z" transform="translate(-46.062 -66.078)" fill="#1a2e35"/>
            <path id="Trazado_207961" data-name="Trazado 207961" d="M122.177,169.854c0,.578-.4,1.028-1.232,1.028a1.75,1.75,0,0,1-1.217-.436l.17-.276a1.471,1.471,0,0,0,1.043.393c.578,0,.883-.282.883-.694,0-.436-.271-.708-1.135-.708h-.723l.174-1.7H122v.311h-1.552l-.116,1.081h.437c1.023,0,1.411.4,1.411,1" transform="translate(-47.244 -66.079)" fill="#1a2e35"/>
            <path id="Trazado_207962" data-name="Trazado 207962" d="M124.346,168.339c0-.553.31-.921.766-.921s.766.363.766.921-.316.921-.766.921-.766-.368-.766-.921m1.29,0c0-.441-.208-.7-.524-.7s-.524.266-.524.7.2.7.524.7.524-.262.524-.7m1.532-.9h.286l-2.317,3.394h-.286Zm-.742,2.5c0-.553.315-.921.766-.921s.766.369.766.921-.311.921-.766.921-.766-.369-.766-.921m1.29,0c0-.436-.2-.7-.524-.7s-.524.262-.524.7.209.7.524.7.524-.267.524-.7" transform="translate(-49.067 -66.063)" fill="#1a2e35"/>
            <path id="Trazado_207963" data-name="Trazado 207963" d="M201.583,109.281h0a11.643,11.643,0,1,1,11.643-11.643,11.643,11.643,0,0,1-11.643,11.643" transform="translate(-74.95 -33.933)" fill="#206897"/>
            <rect id="Rectángulo_299362" data-name="Rectángulo 299362" width="2.409" height="7.785" transform="translate(121.353 61.109)" fill="#fff"/>
            <path id="Trazado_207964" data-name="Trazado 207964" d="M201.494,97.383a1.437,1.437,0,1,0-1.425-1.437,1.431,1.431,0,0,0,1.425,1.437" transform="translate(-78.947 -37.293)" fill="#fff"/>
            <path id="Trazado_207965" data-name="Trazado 207965" d="M209.288,104.483c0-1.095.5-1.747,1.468-1.747.886,0,1.312.626,1.312,1.747v4.086h2.4V103.64c0-2.085-1.182-3.093-2.833-3.093a2.715,2.715,0,0,0-2.346,1.286v-1.049h-2.311v7.785h2.311Z" transform="translate(-81.673 -39.676)" fill="#fff"/>
            <path id="Trazado_207966" data-name="Trazado 207966" d="M201.1,138.819v9.861h-1.014v-8.96h-2.325v-.9Z" transform="translate(-78.035 -54.778)" fill="#1a2e35"/>
            <path id="Trazado_207967" data-name="Trazado 207967" d="M214.7,145.878c0,1.747-1.479,2.832-3.832,2.832s-3.8-1.085-3.8-2.832a2.461,2.461,0,0,1,1.9-2.423,2.225,2.225,0,0,1-1.549-2.17c0-1.605,1.366-2.606,3.451-2.606s3.479,1,3.479,2.606a2.233,2.233,0,0,1-1.578,2.17,2.483,2.483,0,0,1,1.93,2.423m-1.042-.014c0-1.211-1.043-1.972-2.789-1.972s-2.776.76-2.776,1.972,1.029,1.986,2.776,1.986,2.789-.761,2.789-1.986m-2.789-2.775c1.535,0,2.451-.69,2.451-1.761,0-1.113-.972-1.789-2.451-1.789s-2.437.676-2.437,1.775.9,1.775,2.437,1.775" transform="translate(-81.708 -54.723)" fill="#1a2e35"/>
            <rect id="Rectángulo_299363" data-name="Rectángulo 299363" width="1.271" height="0.301" transform="translate(122.435 102.426)" fill="#1a2e35"/>
            <path id="Trazado_207968" data-name="Trazado 207968" d="M208.147,168.5h-.679v.892h-.349V168.5H205.2v-.252L207,166h.388l-1.736,2.192h1.475v-.786h.339v.786h.679Z" transform="translate(-80.973 -65.503)" fill="#1a2e35"/>
            <path id="Trazado_207969" data-name="Trazado 207969" d="M210.278,166.881c0-.553.31-.921.766-.921s.766.363.766.921-.315.921-.766.921-.766-.369-.766-.921m1.29,0c0-.441-.208-.7-.524-.7s-.524.266-.524.7.2.7.524.7.524-.262.524-.7m1.533-.9h.286l-2.318,3.394h-.286Zm-.742,2.5c0-.553.315-.921.766-.921s.766.369.766.921-.311.921-.766.921-.766-.369-.766-.921m1.29,0c0-.436-.2-.7-.524-.7s-.524.262-.524.7.208.7.524.7.524-.267.524-.7" transform="translate(-82.975 -65.488)" fill="#1a2e35"/>
            <path id="Trazado_207970" data-name="Trazado 207970" d="M278.593,110.087h0A10.591,10.591,0,1,1,289.184,99.5a10.591,10.591,0,0,1-10.591,10.591" transform="translate(-105.753 -35.082)" fill="#3eb9c6"/>
            <path id="Trazado_207971" data-name="Trazado 207971" d="M276.175,106.955a6.585,6.585,0,0,0,10.131-5.848,4.705,4.705,0,0,0,1.155-1.2,4.664,4.664,0,0,1-1.33.364,2.323,2.323,0,0,0,1.018-1.281,4.635,4.635,0,0,1-1.471.562,2.317,2.317,0,0,0-3.945,2.112,6.572,6.572,0,0,1-4.772-2.42,2.318,2.318,0,0,0,.717,3.092,2.309,2.309,0,0,1-1.049-.29,2.318,2.318,0,0,0,1.857,2.3,2.308,2.308,0,0,1-1.045.039A2.316,2.316,0,0,0,279.6,106a4.651,4.651,0,0,1-3.428.959" transform="translate(-108.978 -38.996)" fill="#fff"/>
            <path id="Trazado_207972" data-name="Trazado 207972" d="M272.235,146.4v.9h-6.917v-.718l4.1-4.015c1.113-1.1,1.324-1.761,1.324-2.437,0-1.141-.8-1.845-2.31-1.845a3.348,3.348,0,0,0-2.691,1.1l-.718-.62a4.429,4.429,0,0,1,3.493-1.409c2,0,3.269,1.014,3.269,2.663,0,.944-.3,1.789-1.62,3.085l-3.353,3.3Z" transform="translate(-104.577 -54.199)" fill="#1a2e35"/>
            <path id="Trazado_207973" data-name="Trazado 207973" d="M285.444,144.451c0,1.676-1.169,2.986-3.578,2.986a5.091,5.091,0,0,1-3.536-1.268l.493-.8a4.271,4.271,0,0,0,3.028,1.142c1.677,0,2.564-.817,2.564-2.015,0-1.268-.789-2.057-3.3-2.057h-2.1l.507-4.944h5.4v.9h-4.508l-.338,3.141h1.268c2.973,0,4.1,1.169,4.1,2.916" transform="translate(-109.829 -54.254)" fill="#1a2e35"/>
            <path id="Trazado_207974" data-name="Trazado 207974" d="M292.2,142.367c0-3.141,1.648-5.015,3.93-5.015s3.945,1.874,3.945,5.015-1.662,5.015-3.945,5.015-3.93-1.874-3.93-5.015m6.833,0c0-2.634-1.184-4.085-2.9-4.085s-2.9,1.451-2.9,4.085,1.183,4.086,2.9,4.086,2.9-1.451,2.9-4.086" transform="translate(-115.301 -54.199)" fill="#1a2e35"/>
            <path id="Trazado_207975" data-name="Trazado 207975" d="M282.48,167.092c0,.567-.413,1-1.232,1a1.764,1.764,0,0,1-1.222-.436l.17-.276a1.488,1.488,0,0,0,1.052.393c.563,0,.873-.262.873-.684s-.286-.674-.917-.674h-.243v-.257l.941-1.178h-1.736v-.311h2.182v.247l-.96,1.208c.727.039,1.092.422,1.092.965" transform="translate(-110.498 -64.979)" fill="#1a2e35"/>
            <path id="Trazado_207976" data-name="Trazado 207976" d="M284.732,165.553c0-.553.31-.921.766-.921s.766.363.766.921-.315.921-.766.921-.766-.368-.766-.921m1.29,0c0-.441-.208-.7-.524-.7s-.524.266-.524.7.2.7.524.7.524-.262.524-.7m1.533-.9h.286l-2.318,3.4h-.286Zm-.742,2.5c0-.553.315-.921.766-.921s.766.369.766.921-.31.921-.766.921-.766-.369-.766-.921m1.29,0c0-.436-.2-.7-.524-.7s-.524.262-.524.7.208.7.524.7.524-.267.524-.7" transform="translate(-112.355 -64.964)" fill="#1a2e35"/>
            <rect id="Rectángulo_299364" data-name="Rectángulo 299364" width="2.389" height="8.003" transform="translate(236.197 114.606)" fill="#f9860b"/>
            <rect id="Rectángulo_299365" data-name="Rectángulo 299365" width="2.389" height="9.162" transform="translate(216.242 113.446)" fill="#f9860b"/>
            <rect id="Rectángulo_299366" data-name="Rectángulo 299366" width="2.389" height="11.072" transform="translate(221.231 111.536)" fill="#f9860b"/>
            <rect id="Rectángulo_299367" data-name="Rectángulo 299367" width="2.389" height="10.464" transform="translate(226.22 112.143)" fill="#f9860b"/>
            <rect id="Rectángulo_299368" data-name="Rectángulo 299368" width="2.389" height="14.005" transform="translate(231.208 108.604)" fill="#f9860b"/>
            <rect id="Rectángulo_299369" data-name="Rectángulo 299369" width="2.389" height="13.937" transform="translate(241.186 108.671)" fill="#f9860b"/>
            <rect id="Rectángulo_299370" data-name="Rectángulo 299370" width="2.389" height="9.36" transform="translate(246.174 113.249)" fill="#ff4f5b"/>
            <rect id="Rectángulo_299371" data-name="Rectángulo 299371" width="2.389" height="13.323" transform="translate(251.164 109.285)" fill="#ff4f5b"/>
            <rect id="Rectángulo_299372" data-name="Rectángulo 299372" width="2.389" height="16.324" transform="translate(256.152 106.284)" fill="#ff4f5b"/>
            <rect id="Rectángulo_299373" data-name="Rectángulo 299373" width="2.389" height="13.391" transform="translate(261.141 109.217)" fill="#ff4f5b"/>
            <path id="Trazado_207977" data-name="Trazado 207977" d="M402.081,189.691H343.316a4.857,4.857,0,0,1-4.852-4.851V149.707a4.857,4.857,0,0,1,4.852-4.852h58.765a4.857,4.857,0,0,1,4.852,4.852V184.84a4.857,4.857,0,0,1-4.852,4.851m-58.765-44.357a4.377,4.377,0,0,0-4.372,4.372V184.84a4.377,4.377,0,0,0,4.372,4.372h58.765a4.377,4.377,0,0,0,4.372-4.372V149.707a4.377,4.377,0,0,0-4.372-4.372Z" transform="translate(-133.557 -57.16)" fill="#e1e1e1"/>
            <path id="Trazado_207978" data-name="Trazado 207978" d="M381.945,164.069c0,.069-6.8.125-15.181.125s-15.183-.056-15.183-.125,6.8-.125,15.183-.125,15.181.056,15.181.125" transform="translate(-138.733 -64.692)" fill="#e1e1e1"/>
            <path id="Trazado_207979" data-name="Trazado 207979" d="M402.081,100.368H343.316a4.857,4.857,0,0,1-4.852-4.851V60.384a4.857,4.857,0,0,1,4.852-4.852h58.765a4.857,4.857,0,0,1,4.852,4.852V95.517a4.857,4.857,0,0,1-4.852,4.851M343.316,56.011a4.377,4.377,0,0,0-4.372,4.372V95.517a4.377,4.377,0,0,0,4.372,4.372h58.765a4.377,4.377,0,0,0,4.372-4.372V60.384a4.377,4.377,0,0,0-4.372-4.372Z" transform="translate(-133.557 -21.913)" fill="#e1e1e1"/>
            <path id="Trazado_207980" data-name="Trazado 207980" d="M358.972,94.779h0a1.165,1.165,0,0,1-1.165-1.165V71.75a1.165,1.165,0,1,1,2.331,0V93.614a1.165,1.165,0,0,1-1.165,1.165" transform="translate(-141.19 -27.853)" fill="#e1e1e1"/>
            <path id="Trazado_207981" data-name="Trazado 207981" d="M358.972,100.013h0a1.165,1.165,0,0,1-1.165-1.165V84.752a1.165,1.165,0,1,1,2.331,0V98.847a1.165,1.165,0,0,1-1.165,1.165" transform="translate(-141.19 -32.983)" fill="#ff4f5b"/>
            <path id="Trazado_207982" data-name="Trazado 207982" d="M358.092,112.226v1.943h-.2V112.4h-.458v-.177Z" transform="translate(-141.043 -44.284)" fill="#1a2e35"/>
            <path id="Trazado_207983" data-name="Trazado 207983" d="M359.285,113.187c0-.619.324-.989.774-.989s.778.369.778.989-.328.989-.778.989-.774-.37-.774-.989m1.346,0c0-.519-.233-.805-.572-.805s-.572.286-.572.805.233.805.572.805.572-.286.572-.805" transform="translate(-141.773 -44.273)" fill="#1a2e35"/>
            <path id="Trazado_207984" data-name="Trazado 207984" d="M366.667,94.779h0a1.166,1.166,0,0,1-1.165-1.165V71.75a1.165,1.165,0,0,1,2.331,0V93.614a1.166,1.166,0,0,1-1.165,1.165" transform="translate(-144.226 -27.853)" fill="#e1e1e1"/>
            <path id="Trazado_207985" data-name="Trazado 207985" d="M366.667,97.119h0a1.166,1.166,0,0,1-1.165-1.165V77.419a1.165,1.165,0,0,1,2.331,0V95.954a1.166,1.166,0,0,1-1.165,1.165" transform="translate(-144.226 -30.09)" fill="#ff4f5b"/>
            <path id="Trazado_207986" data-name="Trazado 207986" d="M366.041,113.981v.178h-1.363v-.142l.808-.792c.219-.216.261-.347.261-.48,0-.225-.159-.364-.455-.364a.66.66,0,0,0-.53.217l-.142-.122a.872.872,0,0,1,.688-.278c.394,0,.644.2.644.525a.8.8,0,0,1-.319.608l-.661.65Z" transform="translate(-143.878 -44.273)" fill="#1a2e35"/>
            <path id="Trazado_207987" data-name="Trazado 207987" d="M367.36,113.187c0-.619.324-.989.774-.989s.778.369.778.989-.328.989-.778.989-.774-.37-.774-.989m1.346,0c0-.519-.233-.805-.572-.805s-.572.286-.572.805.234.805.572.805.572-.286.572-.805" transform="translate(-144.96 -44.273)" fill="#1a2e35"/>
            <path id="Trazado_207988" data-name="Trazado 207988" d="M374.362,94.779h0a1.166,1.166,0,0,1-1.165-1.165V71.75a1.165,1.165,0,1,1,2.331,0V93.614a1.166,1.166,0,0,1-1.165,1.165" transform="translate(-147.263 -27.853)" fill="#e1e1e1"/>
            <path id="Trazado_207989" data-name="Trazado 207989" d="M374.362,102.183h0a1.166,1.166,0,0,1-1.165-1.165V90.252a1.165,1.165,0,1,1,2.331,0v10.765a1.166,1.166,0,0,1-1.165,1.165" transform="translate(-147.263 -35.154)" fill="#ff4f5b"/>
            <path id="Trazado_207990" data-name="Trazado 207990" d="M373.706,113.611c0,.325-.236.575-.705.575a1.01,1.01,0,0,1-.7-.251l.1-.158a.85.85,0,0,0,.6.225c.322,0,.5-.15.5-.392s-.164-.386-.524-.386h-.139v-.147l.539-.675h-.994v-.178h1.25v.142l-.55.691c.417.022.625.242.625.553" transform="translate(-146.909 -44.284)" fill="#1a2e35"/>
            <path id="Trazado_207991" data-name="Trazado 207991" d="M375.083,113.187c0-.619.324-.989.774-.989s.777.369.777.989-.328.989-.777.989-.774-.37-.774-.989m1.346,0c0-.519-.233-.805-.572-.805s-.572.286-.572.805.234.805.572.805.572-.286.572-.805" transform="translate(-148.007 -44.273)" fill="#1a2e35"/>
            <path id="Trazado_207992" data-name="Trazado 207992" d="M382.057,94.779h0a1.166,1.166,0,0,1-1.165-1.165V71.75a1.165,1.165,0,0,1,2.331,0V93.614a1.166,1.166,0,0,1-1.165,1.165" transform="translate(-150.299 -27.853)" fill="#e1e1e1"/>
            <path id="Trazado_207993" data-name="Trazado 207993" d="M382.057,97.119h0a1.166,1.166,0,0,1-1.165-1.165V77.419a1.165,1.165,0,0,1,2.331,0V95.954a1.166,1.166,0,0,1-1.165,1.165" transform="translate(-150.299 -30.09)" fill="#f40b74"/>
            <path id="Trazado_207994" data-name="Trazado 207994" d="M381.734,113.659h-.389v.511h-.2v-.511h-1.1v-.144l1.03-1.288h.222l-.994,1.254h.844v-.449h.194v.449h.389Z" transform="translate(-149.967 -44.284)" fill="#1a2e35"/>
            <path id="Trazado_207995" data-name="Trazado 207995" d="M383.133,113.187c0-.619.324-.989.774-.989s.777.369.777.989-.328.989-.777.989-.774-.37-.774-.989m1.346,0c0-.519-.233-.805-.572-.805s-.572.286-.572.805.234.805.572.805.572-.286.572-.805" transform="translate(-151.184 -44.273)" fill="#1a2e35"/>
            <path id="Trazado_207996" data-name="Trazado 207996" d="M389.752,94.779h0a1.166,1.166,0,0,1-1.165-1.165V71.75a1.165,1.165,0,0,1,2.331,0V93.614a1.166,1.166,0,0,1-1.165,1.165" transform="translate(-153.336 -27.853)" fill="#e1e1e1"/>
            <path id="Trazado_207997" data-name="Trazado 207997" d="M389.752,99.434h0a1.166,1.166,0,0,1-1.165-1.165V83.286a1.165,1.165,0,0,1,2.331,0V98.269a1.166,1.166,0,0,1-1.165,1.165" transform="translate(-153.336 -32.405)" fill="#f40b74"/>
            <path id="Trazado_207998" data-name="Trazado 207998" d="M389.427,113.6c0,.331-.23.589-.705.589a1,1,0,0,1-.7-.251l.1-.158a.84.84,0,0,0,.6.225c.33,0,.5-.161.5-.4s-.156-.405-.65-.405h-.413l.1-.975h1.064v.178h-.889l-.067.619h.25c.585,0,.808.231.808.575" transform="translate(-153.114 -44.284)" fill="#1a2e35"/>
            <path id="Trazado_207999" data-name="Trazado 207999" d="M390.756,113.187c0-.619.324-.989.774-.989s.778.369.778.989-.328.989-.778.989-.774-.37-.774-.989m1.346,0c0-.519-.233-.805-.572-.805s-.572.286-.572.805.234.805.572.805.572-.286.572-.805" transform="translate(-154.192 -44.273)" fill="#1a2e35"/>
            <path id="Trazado_208000" data-name="Trazado 208000" d="M397.447,94.779h0a1.166,1.166,0,0,1-1.165-1.165V71.75a1.165,1.165,0,1,1,2.331,0V93.614a1.166,1.166,0,0,1-1.165,1.165" transform="translate(-156.372 -27.853)" fill="#e1e1e1"/>
            <path id="Trazado_208001" data-name="Trazado 208001" d="M397.447,102.013h0a1.149,1.149,0,0,1-1.165-1.062V90.185a1.192,1.192,0,0,1,1.165-1.268,1.166,1.166,0,0,1,1.165,1.165v10.765a1.166,1.166,0,0,1-1.165,1.165" transform="translate(-156.372 -35.086)" fill="#f40b74"/>
            <path id="Trazado_208002" data-name="Trazado 208002" d="M397,113.578a.606.606,0,0,1-.664.6c-.516,0-.8-.358-.8-.972,0-.661.361-1.006.889-1.006a.89.89,0,0,1,.461.106l-.081.161a.68.68,0,0,0-.377-.091c-.42,0-.689.269-.689.8,0,.044,0,.1.008.158a.621.621,0,0,1,.594-.333.589.589,0,0,1,.656.583m-.2.005c0-.255-.189-.42-.489-.42a.45.45,0,0,0-.5.425c0,.214.178.417.514.417a.425.425,0,0,0,.475-.422" transform="translate(-156.08 -44.273)" fill="#1a2e35"/>
            <path id="Trazado_208003" data-name="Trazado 208003" d="M398.333,113.187c0-.619.324-.989.774-.989s.777.369.777.989-.328.989-.777.989-.774-.37-.774-.989m1.346,0c0-.519-.233-.805-.572-.805s-.572.286-.572.805.234.805.572.805.572-.286.572-.805" transform="translate(-157.182 -44.273)" fill="#1a2e35"/>
            <path id="Trazado_208004" data-name="Trazado 208004" d="M405.142,94.779h0a1.165,1.165,0,0,1-1.165-1.165V71.75a1.165,1.165,0,1,1,2.331,0V93.614a1.165,1.165,0,0,1-1.165,1.165" transform="translate(-159.409 -27.853)" fill="#e1e1e1"/>
            <path id="Trazado_208005" data-name="Trazado 208005" d="M405.142,96.4h0a1.165,1.165,0,0,1-1.165-1.165V75.586a1.165,1.165,0,1,1,2.331,0V95.23a1.165,1.165,0,0,1-1.165,1.165" transform="translate(-159.409 -29.366)" fill="#f40b74"/>
            <path id="Trazado_208006" data-name="Trazado 208006" d="M404.561,112.226v.142l-.814,1.8h-.217l.8-1.766h-1v.364h-.2v-.541Z" transform="translate(-159.076 -44.284)" fill="#1a2e35"/>
            <path id="Trazado_208007" data-name="Trazado 208007" d="M405.834,113.187c0-.619.324-.989.774-.989s.778.369.778.989-.328.989-.778.989-.774-.37-.774-.989m1.346,0c0-.519-.233-.805-.572-.805s-.572.286-.572.805.234.805.572.805.572-.286.572-.805" transform="translate(-160.141 -44.273)" fill="#1a2e35"/>
            <path id="Trazado_208008" data-name="Trazado 208008" d="M412.837,94.779h0a1.166,1.166,0,0,1-1.165-1.165V71.75a1.165,1.165,0,0,1,2.331,0V93.614a1.166,1.166,0,0,1-1.165,1.165" transform="translate(-162.445 -27.853)" fill="#e1e1e1"/>
            <path id="Trazado_208009" data-name="Trazado 208009" d="M412.837,103.63h0a1.166,1.166,0,0,1-1.165-1.165V93.918a1.165,1.165,0,0,1,2.331,0v8.546a1.166,1.166,0,0,1-1.165,1.165" transform="translate(-162.445 -36.6)" fill="#ff4f5b"/>
            <path id="Trazado_208010" data-name="Trazado 208010" d="M412.232,113.617c0,.344-.291.558-.755.558s-.75-.214-.75-.558a.485.485,0,0,1,.375-.478.438.438,0,0,1-.306-.427c0-.317.269-.514.68-.514s.686.2.686.514a.44.44,0,0,1-.311.427.489.489,0,0,1,.38.478m-.205,0c0-.239-.205-.389-.55-.389s-.547.15-.547.389.2.391.547.391.55-.15.55-.391m-.55-.547c.3,0,.483-.136.483-.347s-.191-.353-.483-.353-.48.134-.48.35.177.35.48.35" transform="translate(-162.073 -44.273)" fill="#1a2e35"/>
            <path id="Trazado_208011" data-name="Trazado 208011" d="M413.669,113.187c0-.619.325-.989.775-.989s.777.369.777.989-.328.989-.777.989-.775-.37-.775-.989m1.347,0c0-.519-.233-.805-.572-.805s-.572.286-.572.805.234.805.572.805.572-.286.572-.805" transform="translate(-163.233 -44.273)" fill="#1a2e35"/>
            <path id="Trazado_208012" data-name="Trazado 208012" d="M420.532,94.779h0a1.166,1.166,0,0,1-1.165-1.165V71.75a1.165,1.165,0,1,1,2.331,0V93.614a1.166,1.166,0,0,1-1.165,1.165" transform="translate(-165.482 -27.853)" fill="#e1e1e1"/>
            <path id="Trazado_208013" data-name="Trazado 208013" d="M420.532,107.077h0a1.149,1.149,0,0,1-1.165-1.062v-3a1.191,1.191,0,0,1,1.165-1.268,1.165,1.165,0,0,1,1.165,1.165v3a1.166,1.166,0,0,1-1.165,1.165" transform="translate(-165.482 -40.15)" fill="#ff4f5b"/>
            <path id="Trazado_208014" data-name="Trazado 208014" d="M419.761,113.17c0,.66-.361,1-.888,1a.9.9,0,0,1-.461-.105l.081-.161a.687.687,0,0,0,.378.091c.418,0,.688-.269.688-.8,0-.045,0-.1-.008-.159a.623.623,0,0,1-.595.333.588.588,0,0,1-.655-.583.605.605,0,0,1,.663-.6c.517,0,.8.358.8.972m-.274-.386c0-.214-.178-.417-.514-.417a.426.426,0,0,0-.475.422c0,.255.19.42.489.42a.451.451,0,0,0,.5-.425" transform="translate(-165.061 -44.273)" fill="#1a2e35"/>
            <path id="Trazado_208015" data-name="Trazado 208015" d="M421.187,113.187c0-.619.324-.989.774-.989s.778.369.778.989-.328.989-.778.989-.774-.37-.774-.989m1.346,0c0-.519-.233-.805-.572-.805s-.572.286-.572.805.234.805.572.805.572-.286.572-.805" transform="translate(-166.2 -44.273)" fill="#1a2e35"/>
            <path id="Trazado_208016" data-name="Trazado 208016" d="M428.227,94.779h0a1.166,1.166,0,0,1-1.165-1.165V71.75a1.165,1.165,0,1,1,2.331,0V93.614a1.166,1.166,0,0,1-1.165,1.165" transform="translate(-168.518 -27.853)" fill="#e1e1e1"/>
            <path id="Trazado_208017" data-name="Trazado 208017" d="M428.227,102.013h0a1.149,1.149,0,0,1-1.165-1.062V90.185a1.192,1.192,0,0,1,1.165-1.268,1.166,1.166,0,0,1,1.165,1.165v10.765a1.166,1.166,0,0,1-1.165,1.165" transform="translate(-168.518 -35.086)" fill="#ff4f5b"/>
            <path id="Trazado_208018" data-name="Trazado 208018" d="M425.8,112.226v1.943h-.2V112.4h-.458v-.177Z" transform="translate(-167.76 -44.284)" fill="#1a2e35"/>
            <path id="Trazado_208019" data-name="Trazado 208019" d="M426.994,113.187c0-.619.324-.989.774-.989s.778.369.778.989-.328.989-.778.989-.774-.37-.774-.989m1.346,0c0-.519-.233-.805-.572-.805s-.572.286-.572.805.234.805.572.805.572-.286.572-.805" transform="translate(-168.491 -44.273)" fill="#1a2e35"/>
            <path id="Trazado_208020" data-name="Trazado 208020" d="M430.027,113.187c0-.619.324-.989.774-.989s.777.369.777.989-.328.989-.777.989-.774-.37-.774-.989m1.346,0c0-.519-.233-.805-.572-.805s-.572.286-.572.805.234.805.572.805.572-.286.572-.805" transform="translate(-169.688 -44.273)" fill="#1a2e35"/>
            <path id="Trazado_208021" data-name="Trazado 208021" d="M370.471,271.488a7.838,7.838,0,0,1-7.845,0,7.841,7.841,0,0,1-2.87-2.87,7.735,7.735,0,0,1-.784-1.891,7.9,7.9,0,0,1,0-4.064,7.86,7.86,0,0,1,2.03-3.514,7.865,7.865,0,0,1,1.624-1.246,7.876,7.876,0,0,1,3.925-1.055V255.3a9.377,9.377,0,0,0-4.7,1.255,9.606,9.606,0,0,0-1.946,1.493A9.316,9.316,0,0,0,358.417,260a9.177,9.177,0,0,0-.943,2.264,9.459,9.459,0,0,0,0,4.863,9.207,9.207,0,0,0,.943,2.268,9.3,9.3,0,0,0,1.489,1.946,9.413,9.413,0,0,0,1.946,1.489,9.209,9.209,0,0,0,2.268.943,9.459,9.459,0,0,0,4.863,0,9.464,9.464,0,0,0,4.191-2.417l-1.1-1.1a7.669,7.669,0,0,1-1.606,1.232" transform="translate(-140.934 -100.743)" fill="#f40b74"/>
            <path id="Trazado_208022" data-name="Trazado 208022" d="M381.746,262.262a9.388,9.388,0,0,0-.938-2.263,9.4,9.4,0,0,0-3.439-3.439,9.379,9.379,0,0,0-2.264-.938,9.517,9.517,0,0,0-2.431-.317v1.545a7.851,7.851,0,0,1,6.79,3.924,7.844,7.844,0,0,1-1.246,9.468s-.015.014-.019.014l1.1,1.1s.014-.01.019-.015a9.423,9.423,0,0,0,2.431-9.076" transform="translate(-147.057 -100.743)" fill="#e1e1e1"/>
            <path id="Trazado_208023" data-name="Trazado 208023" d="M368.858,271.207a.844.844,0,0,1-.925.832c-.72,0-1.111-.5-1.111-1.354,0-.921.5-1.4,1.239-1.4a1.245,1.245,0,0,1,.642.147l-.112.225a.947.947,0,0,0-.527-.128c-.584,0-.96.375-.96,1.111,0,.062,0,.139.012.22a.866.866,0,0,1,.828-.464.821.821,0,0,1,.914.813m-.275.008c0-.357-.263-.585-.681-.585a.627.627,0,0,0-.7.593c0,.3.248.581.716.581a.593.593,0,0,0,.662-.588" transform="translate(-144.747 -106.259)" fill="#1a2e35"/>
            <path id="Trazado_208024" data-name="Trazado 208024" d="M372.481,271.233c0,.461-.321.82-.983.82a1.4,1.4,0,0,1-.972-.348l.136-.22a1.173,1.173,0,0,0,.832.314c.461,0,.7-.225.7-.554,0-.348-.216-.565-.906-.565h-.576l.139-1.359h1.483v.248H371.1l-.093.863h.348c.817,0,1.127.322,1.127.8" transform="translate(-146.209 -106.274)" fill="#1a2e35"/>
            <path id="Trazado_208025" data-name="Trazado 208025" d="M374.21,270.025c0-.441.248-.736.611-.736s.612.291.612.736-.252.736-.612.736-.611-.294-.611-.736m1.03,0c0-.352-.166-.561-.418-.561s-.418.213-.418.561.162.562.418.562.418-.21.418-.562m1.223-.716h.229l-1.851,2.71h-.228Zm-.592,1.994c0-.442.252-.736.611-.736s.611.294.611.736-.248.736-.611.736-.611-.294-.611-.736m1.03,0c0-.348-.163-.561-.418-.561s-.418.209-.418.561.166.561.418.561.418-.213.418-.561" transform="translate(-147.663 -106.261)" fill="#1a2e35"/>
            <path id="Trazado_208026" data-name="Trazado 208026" d="M420.637,264.7a9.455,9.455,0,0,1-.318,2.428,9.2,9.2,0,0,1-.942,2.264,9.326,9.326,0,0,1-3.437,3.437,9.2,9.2,0,0,1-2.264.942,9.454,9.454,0,0,1-4.861,0,9.216,9.216,0,0,1-2.264-.942,9.33,9.33,0,0,1-3.437-3.437,9.2,9.2,0,0,1-.943-2.264,9.716,9.716,0,0,1-.3-1.777h1.557a8.073,8.073,0,0,0,.236,1.377,7.8,7.8,0,0,0,.783,1.891,7.941,7.941,0,0,0,2.874,2.873,7.835,7.835,0,0,0,7.842,0,7.933,7.933,0,0,0,2.873-2.873,7.835,7.835,0,0,0,0-7.842,7.835,7.835,0,0,0-6.8-3.924V255.3a9.5,9.5,0,0,1,2.433.317,9.2,9.2,0,0,1,2.264.943A9.317,9.317,0,0,1,419.377,260a9.207,9.207,0,0,1,.942,2.264,9.473,9.473,0,0,1,.318,2.433" transform="translate(-158.579 -100.743)" fill="#e1e1e1"/>
            <path id="Trazado_208027" data-name="Trazado 208027" d="M412.556,269.067v.2l-1.135,2.512h-.3l1.115-2.462h-1.394v.507h-.274v-.755Z" transform="translate(-162.009 -106.174)" fill="#1a2e35"/>
            <path id="Trazado_208028" data-name="Trazado 208028" d="M416.1,270.979c0,.461-.321.821-.983.821a1.4,1.4,0,0,1-.972-.349l.136-.22a1.174,1.174,0,0,0,.832.314c.461,0,.7-.225.7-.554,0-.348-.216-.565-.906-.565h-.576l.139-1.359h1.483v.248h-1.239l-.093.863h.348c.817,0,1.127.321,1.127.8" transform="translate(-163.422 -106.173)" fill="#1a2e35"/>
            <path id="Trazado_208029" data-name="Trazado 208029" d="M417.833,269.772c0-.441.248-.736.611-.736s.612.29.612.736-.252.736-.612.736-.611-.294-.611-.736m1.03,0c0-.352-.166-.561-.418-.561s-.418.212-.418.561.162.561.418.561.418-.209.418-.561m1.223-.716h.229l-1.851,2.71h-.228Zm-.592,1.994c0-.441.252-.736.611-.736s.611.294.611.736-.248.736-.611.736-.611-.294-.611-.736m1.03,0c0-.348-.163-.561-.418-.561s-.418.209-.418.561.166.561.418.561.418-.213.418-.561" transform="translate(-164.876 -106.161)" fill="#1a2e35"/>
            <path id="Trazado_208030" data-name="Trazado 208030" d="M419.075,264.7a7.825,7.825,0,0,1-1.05,3.919,7.94,7.94,0,0,1-2.874,2.873,7.835,7.835,0,0,1-7.842,0,7.933,7.933,0,0,1-2.873-2.873,7.772,7.772,0,0,1-.784-1.891,8.133,8.133,0,0,1-.236-1.377h0c-.018-.216-.031-.433-.031-.653a7.838,7.838,0,0,1,3.924-6.793,7.765,7.765,0,0,1,1.891-.785,7.853,7.853,0,0,1,2.031-.267V255.3a9.392,9.392,0,0,0-9.393,9.393c0,.22.008.437.024.653h0a9.716,9.716,0,0,0,.3,1.777,9.2,9.2,0,0,0,.943,2.264,9.326,9.326,0,0,0,3.438,3.437,9.2,9.2,0,0,0,2.264.942,9.454,9.454,0,0,0,4.861,0,9.216,9.216,0,0,0,2.264-.942,9.33,9.33,0,0,0,3.437-3.437,9.2,9.2,0,0,0,.943-2.264,9.482,9.482,0,0,0,.317-2.428Z" transform="translate(-158.564 -100.741)" fill="#f40b74"/>
            <path id="Trazado_208031" data-name="Trazado 208031" d="M402.909,273.15h-60.63a4.084,4.084,0,0,1-4.08-4.08V235.035a4.084,4.084,0,0,1,4.08-4.08h60.63a4.084,4.084,0,0,1,4.08,4.08V269.07a4.085,4.085,0,0,1-4.08,4.08m-60.63-41.732a3.62,3.62,0,0,0-3.616,3.616V269.07a3.62,3.62,0,0,0,3.616,3.617h60.63a3.621,3.621,0,0,0,3.617-3.617V235.035a3.621,3.621,0,0,0-3.617-3.616Z" transform="translate(-133.453 -91.134)" fill="#e1e1e1"/>
            <path id="Trazado_208032" data-name="Trazado 208032" d="M377.6,246.67c0,.067-6.34.12-14.158.12s-14.16-.054-14.16-.12,6.339-.12,14.16-.12,14.158.054,14.158.12" transform="translate(-137.828 -97.288)" fill="#e1e1e1"/>
            <path id="Trazado_208033" data-name="Trazado 208033" d="M103.132,52.1l.287-.645a2.475,2.475,0,0,0,1.475.492c.7,0,.989-.249.989-.581,0-.964-2.655-.332-2.655-1.992,0-.722.575-1.334,1.8-1.334a2.823,2.823,0,0,1,1.487.4l-.262.645a2.484,2.484,0,0,0-1.232-.351c-.69,0-.97.268-.97.607,0,.95,2.649.332,2.649,1.972,0,.716-.581,1.328-1.807,1.328a2.879,2.879,0,0,1-1.762-.536" transform="translate(-40.696 -18.958)" fill="#1a2e35"/>
            <path id="Trazado_208034" data-name="Trazado 208034" d="M109.8,51.58a1.817,1.817,0,1,1,1.813,1.749A1.715,1.715,0,0,1,109.8,51.58m2.828,0a1.013,1.013,0,1,0-1.015,1.066.993.993,0,0,0,1.015-1.066" transform="translate(-43.325 -19.666)" fill="#1a2e35"/>
            <path id="Trazado_208035" data-name="Trazado 208035" d="M116.6,51.58a1.724,1.724,0,0,1,1.845-1.742,1.535,1.535,0,0,1,1.455.791l-.613.358a.965.965,0,0,0-.849-.473,1.067,1.067,0,0,0,0,2.132.964.964,0,0,0,.849-.472l.613.357a1.55,1.55,0,0,1-1.455.8A1.73,1.73,0,0,1,116.6,51.58" transform="translate(-46.009 -19.666)" fill="#1a2e35"/>
            <path id="Trazado_208036" data-name="Trazado 208036" d="M123.006,47.871a.486.486,0,0,1,.51-.479.475.475,0,0,1,.511.46.511.511,0,0,1-1.021.019m.108,1.04h.8v3.408h-.8Z" transform="translate(-48.538 -18.701)" fill="#1a2e35"/>
            <path id="Trazado_208037" data-name="Trazado 208037" d="M128.927,51.287v2h-.753V52.87a1.208,1.208,0,0,1-1.073.46c-.779,0-1.27-.428-1.27-1.021,0-.568.383-1.015,1.417-1.015h.881v-.051c0-.466-.281-.74-.849-.74a1.686,1.686,0,0,0-1.034.338l-.313-.581a2.4,2.4,0,0,1,1.443-.421c.983,0,1.551.466,1.551,1.449m-.8.932v-.4h-.823c-.542,0-.69.2-.69.453,0,.287.243.472.651.472a.869.869,0,0,0,.861-.53" transform="translate(-49.653 -19.666)" fill="#1a2e35"/>
            <rect id="Rectángulo_299374" data-name="Rectángulo 299374" width="0.798" height="4.737" transform="translate(80.296 28.883)" fill="#1a2e35"/>
            <path id="Trazado_208038" data-name="Trazado 208038" d="M142.819,52.619l-.007-2.962-1.468,2.451h-.37L139.506,49.7v2.923h-.791V48.151h.683l1.774,2.962,1.743-2.962h.683l.007,4.468Z" transform="translate(-54.737 -19)" fill="#1a2e35"/>
            <path id="Trazado_208039" data-name="Trazado 208039" d="M151.666,51.836h-2.675a1.031,1.031,0,0,0,1.1.817,1.223,1.223,0,0,0,.926-.371l.427.492a1.914,1.914,0,0,1-3.255-1.194,1.7,1.7,0,0,1,1.762-1.742,1.662,1.662,0,0,1,1.724,1.762c0,.064-.007.16-.013.236m-2.681-.53h1.934a.928.928,0,0,0-.964-.83.942.942,0,0,0-.97.83" transform="translate(-58.477 -19.666)" fill="#1a2e35"/>
            <path id="Trazado_208040" data-name="Trazado 208040" d="M158.37,47.708v4.736H157.6V52a1.407,1.407,0,0,1-1.13.485,1.746,1.746,0,0,1,0-3.491,1.4,1.4,0,0,1,1.1.46V47.708Zm-.785,3.032a1.016,1.016,0,1,0-1.015,1.066,1,1,0,0,0,1.015-1.066" transform="translate(-61.064 -18.825)" fill="#1a2e35"/>
            <path id="Trazado_208041" data-name="Trazado 208041" d="M162.279,47.871a.486.486,0,0,1,.51-.479.475.475,0,0,1,.511.46.511.511,0,0,1-1.021.019m.108,1.04h.8v3.408h-.8Z" transform="translate(-64.035 -18.701)" fill="#1a2e35"/>
            <path id="Trazado_208042" data-name="Trazado 208042" d="M168.2,51.287v2h-.753V52.87a1.208,1.208,0,0,1-1.073.46c-.779,0-1.27-.428-1.27-1.021,0-.568.383-1.015,1.417-1.015h.881v-.051c0-.466-.281-.74-.849-.74a1.686,1.686,0,0,0-1.034.338l-.313-.581a2.4,2.4,0,0,1,1.443-.421c.983,0,1.551.466,1.551,1.449m-.8.932v-.4h-.823c-.542,0-.69.2-.69.453,0,.287.243.472.651.472a.869.869,0,0,0,.861-.53" transform="translate(-65.15 -19.666)" fill="#1a2e35"/>
            <path id="Trazado_208043" data-name="Trazado 208043" d="M175.151,48.151h1.819a2.24,2.24,0,1,1,0,4.468h-1.819Zm1.794,4.06a1.83,1.83,0,1,0,0-3.651h-1.322v3.651Z" transform="translate(-69.114 -19)" fill="#1a2e35"/>
            <path id="Trazado_208044" data-name="Trazado 208044" d="M186.053,51.246v2.081h-.433V52.8a1.261,1.261,0,0,1-1.156.556c-.759,0-1.225-.4-1.225-.977,0-.517.332-.95,1.3-.95H185.6v-.2c0-.575-.326-.888-.951-.888a1.71,1.71,0,0,0-1.117.4l-.2-.338a2.132,2.132,0,0,1,1.366-.453,1.192,1.192,0,0,1,1.359,1.3m-.453,1.073v-.549h-1.053c-.651,0-.861.255-.861.6,0,.389.313.632.849.632a1.074,1.074,0,0,0,1.066-.683" transform="translate(-72.305 -19.708)" fill="#1a2e35"/>
            <path id="Trazado_208045" data-name="Trazado 208045" d="M189.152,52.943l.2-.357a2.029,2.029,0,0,0,1.194.377c.639,0,.9-.217.9-.549,0-.874-2.176-.185-2.176-1.513,0-.549.472-.958,1.328-.958a2.277,2.277,0,0,1,1.187.313l-.2.364a1.722,1.722,0,0,0-.989-.287c-.607,0-.875.236-.875.555,0,.906,2.176.223,2.176,1.513,0,.581-.51.957-1.385.957a2.245,2.245,0,0,1-1.366-.415" transform="translate(-74.639 -19.707)" fill="#1a2e35"/>
            <path id="Trazado_208046" data-name="Trazado 208046" d="M198.167,50.5v1.947h-.453v-1.9a.938.938,0,0,0-1.009-1.073,1.1,1.1,0,0,0-1.174,1.213v1.762h-.453V47.708h.453v1.966a1.417,1.417,0,0,1,1.257-.613,1.286,1.286,0,0,1,1.378,1.437" transform="translate(-76.977 -18.825)" fill="#1a2e35"/>
            <path id="Trazado_208047" data-name="Trazado 208047" d="M205.618,50.766a1.629,1.629,0,0,1-1.672,1.711,1.454,1.454,0,0,1-1.3-.7v.664h-.434V47.708h.453v2.017a1.467,1.467,0,0,1,1.277-.664,1.624,1.624,0,0,1,1.672,1.7m-.453,0a1.252,1.252,0,1,0-1.251,1.309,1.233,1.233,0,0,0,1.251-1.309" transform="translate(-79.794 -18.825)" fill="#1a2e35"/>
            <path id="Trazado_208048" data-name="Trazado 208048" d="M208.8,51.648a1.708,1.708,0,1,1,1.711,1.711,1.651,1.651,0,0,1-1.711-1.711m2.956,0a1.249,1.249,0,1,0-1.245,1.309,1.225,1.225,0,0,0,1.245-1.309" transform="translate(-82.394 -19.708)" fill="#1a2e35"/>
            <path id="Trazado_208049" data-name="Trazado 208049" d="M218.294,51.246v2.081h-.434V52.8a1.26,1.26,0,0,1-1.155.556c-.76,0-1.226-.4-1.226-.977,0-.517.332-.95,1.3-.95h1.066v-.2c0-.575-.326-.888-.951-.888a1.709,1.709,0,0,0-1.117.4l-.2-.338a2.132,2.132,0,0,1,1.366-.453,1.193,1.193,0,0,1,1.36,1.3m-.453,1.073v-.549h-1.053c-.651,0-.861.255-.861.6,0,.389.313.632.849.632a1.074,1.074,0,0,0,1.066-.683" transform="translate(-85.028 -19.708)" fill="#1a2e35"/>
            <path id="Trazado_208050" data-name="Trazado 208050" d="M223.854,49.943v.44c-.038,0-.076-.006-.108-.006a1.086,1.086,0,0,0-1.13,1.239v1.71h-.453V49.968h.434v.657a1.267,1.267,0,0,1,1.257-.683" transform="translate(-87.665 -19.707)" fill="#1a2e35"/>
            <path id="Trazado_208051" data-name="Trazado 208051" d="M229.1,47.708v4.737h-.433v-.664a1.455,1.455,0,0,1-1.3.7,1.708,1.708,0,0,1,0-3.415,1.465,1.465,0,0,1,1.276.664V47.708Zm-.446,3.058a1.249,1.249,0,1,0-1.245,1.309,1.228,1.228,0,0,0,1.245-1.309" transform="translate(-89.059 -18.825)" fill="#1a2e35"/>
            <path id="Trazado_208052" data-name="Trazado 208052" d="M224.93,182.8c0,.087-34.573.157-77.212.157-42.654,0-77.22-.07-77.22-.157s34.566-.157,77.22-.157c42.638,0,77.212.07,77.212.157" transform="translate(-27.819 -72.072)" fill="#ececec"/>
            <path id="Trazado_208053" data-name="Trazado 208053" d="M164.366,216.248c-.087,0-.157-33.274-.157-74.309s.07-74.317.157-74.317.157,33.267.157,74.317-.07,74.309-.157,74.309" transform="translate(-64.797 -26.684)" fill="#ececec"/>
            <path id="Trazado_208054" data-name="Trazado 208054" d="M247.134,216.248c-.087,0-.157-33.274-.157-74.309s.07-74.317.157-74.317.157,33.267.157,74.317-.07,74.309-.157,74.309" transform="translate(-97.457 -26.684)" fill="#ececec"/>
            <path id="Trazado_208055" data-name="Trazado 208055" d="M394.688,82.377s-8.387,2.664-11.845,10.339c-3.4,7.538-8.643,20.846-8.643,20.846s-2.018-.344-1.513,1.609l-10.219-8.391-5.424,4.942,2.271,2.759s-.631,5.747,4.037,9.2,17.03,11.839,20.815,6.437,5.289-23.226,5.289-23.226Z" transform="translate(-140.889 -32.506)" fill="#f9860b"/>
            <path id="Trazado_208056" data-name="Trazado 208056" d="M360.79,131.757a25.449,25.449,0,0,0,2.963-2.69,25.44,25.44,0,0,0,2.742-2.916,50.846,50.846,0,0,0-5.706,5.605" transform="translate(-142.366 -49.778)" fill="#1a2e35"/>
            <path id="Trazado_208057" data-name="Trazado 208057" d="M359.118,129.1a6.572,6.572,0,0,0,2.486,2.416c.056-.07-.5-.6-1.185-1.267a6.371,6.371,0,0,0-1.3-1.149" transform="translate(-141.705 -50.942)" fill="#1a2e35"/>
            <path id="Trazado_208058" data-name="Trazado 208058" d="M361.638,127.025c-.051.07.5.558,1.234,1.089a4.388,4.388,0,0,0,1.419.834c.051-.07-.5-.558-1.234-1.089a4.4,4.4,0,0,0-1.419-.834" transform="translate(-142.7 -50.121)" fill="#1a2e35"/>
            <path id="Trazado_208059" data-name="Trazado 208059" d="M364.661,123.991c-.059.064.487.6,1.219,1.2a4.694,4.694,0,0,0,1.418.953c.051-.071-.494-.607-1.219-1.2a4.773,4.773,0,0,0-1.418-.952" transform="translate(-143.893 -48.924)" fill="#1a2e35"/>
            <path id="Trazado_208060" data-name="Trazado 208060" d="M387.846,141.409a10.772,10.772,0,0,0-4.878-4.757c-.05.082,1.262.889,2.605,2.209s2.192,2.6,2.273,2.548" transform="translate(-151.118 -53.921)" fill="#1a2e35"/>
            <path id="Trazado_208061" data-name="Trazado 208061" d="M389.632,137.778a7.084,7.084,0,0,0-3.9-4.108c-.048.084,1.075.722,2.147,1.865s1.662,2.287,1.748,2.243" transform="translate(-152.21 -52.744)" fill="#1a2e35"/>
            <path id="Trazado_208062" data-name="Trazado 208062" d="M451.592,79.241s-1.359-4.882-3.984-5.266a7.922,7.922,0,0,0-6.632-5.021c-3.07-.451-14.638-1.592-16.512.943a10.472,10.472,0,0,0-2.093,3.967s-5.621.771-4.849,7.6L448.6,83.026Z" transform="translate(-164.725 -26.953)" fill="#f9860b"/>
            <path id="Trazado_208063" data-name="Trazado 208063" d="M400.855,369.764l.2,11.576s-11.633,3.127-11.8,5.27l22.394,1.378.421-18.049Z" transform="translate(-153.6 -145.908)" fill="#ff4f5b"/>
            <path id="Trazado_208064" data-name="Trazado 208064" d="M419.53,387.459a.918.918,0,0,1,.615,1.058.882.882,0,0,1-1.044.619.968.968,0,0,1-.645-1.124.915.915,0,0,1,1.157-.524" transform="translate(-165.107 -152.874)" fill="#ececec"/>
            <path id="Trazado_208065" data-name="Trazado 208065" d="M411.622,398.109l.042-1.8-21.228-.9s-1.252.666-1.253,1.367Z" transform="translate(-153.571 -156.029)" fill="#1a2e35"/>
            <path id="Trazado_208066" data-name="Trazado 208066" d="M408.156,388.623c0,.11.549.17,1.082.532s.812.829.914.787c.1-.019-.05-.678-.7-1.105s-1.314-.315-1.293-.214" transform="translate(-161.057 -153.312)" fill="#1a2e35"/>
            <path id="Trazado_208067" data-name="Trazado 208067" d="M404.234,390.2c-.027.106.444.3.809.772s.463.963.571.96c.1.019.191-.622-.273-1.2s-1.1-.639-1.107-.534" transform="translate(-159.51 -153.954)" fill="#1a2e35"/>
            <path id="Trazado_208068" data-name="Trazado 208068" d="M401.391,393.6c.1.025.262-.52-.009-1.125s-.779-.854-.827-.764c-.064.089.263.418.478.918s.249.958.358.971" transform="translate(-158.055 -154.56)" fill="#1a2e35"/>
            <path id="Trazado_208069" data-name="Trazado 208069" d="M408.56,384.074c.044.1.55-.041,1.169.012s1.1.258,1.158.165c.065-.078-.4-.493-1.129-.545s-1.251.282-1.2.369" transform="translate(-161.215 -151.407)" fill="#1a2e35"/>
            <path id="Trazado_208070" data-name="Trazado 208070" d="M408.565,379.314a2.106,2.106,0,0,0,1.125.015,5.061,5.061,0,0,0,1.184-.34,5.424,5.424,0,0,0,.652-.331,1.379,1.379,0,0,0,.344-.259.478.478,0,0,0,.061-.582.6.6,0,0,0-.476-.26,1.47,1.47,0,0,0-.423.051,4.024,4.024,0,0,0-.7.227,3.982,3.982,0,0,0-1.05.662c-.53.473-.715.88-.678.9.049.038.309-.3.846-.69a4.489,4.489,0,0,1,1.013-.547,4.167,4.167,0,0,1,.65-.188c.239-.058.441-.056.5.051.021.041.024.057-.027.125a1.118,1.118,0,0,1-.253.189,5.907,5.907,0,0,1-.6.329,6.271,6.271,0,0,1-1.1.4,7.787,7.787,0,0,0-1.07.249" transform="translate(-161.219 -148.983)" fill="#1a2e35"/>
            <path id="Trazado_208071" data-name="Trazado 208071" d="M407.863,378.387a1.793,1.793,0,0,0,.317-1.081,3.651,3.651,0,0,0-.405-1.922.931.931,0,0,0-.707-.581.527.527,0,0,0-.476.305,1.542,1.542,0,0,0-.123.41,2.494,2.494,0,0,0-.015.757,2.584,2.584,0,0,0,.459,1.171c.428.59.883.73.893.693.038-.055-.341-.273-.667-.838a2.59,2.59,0,0,1-.336-1.064,2.3,2.3,0,0,1,.032-.65c.039-.238.133-.429.222-.4.111,0,.3.183.387.375a3.8,3.8,0,0,1,.268.615,4.047,4.047,0,0,1,.2,1.127c.019.66-.106,1.069-.047,1.086" transform="translate(-160.378 -147.896)" fill="#1a2e35"/>
            <path id="Trazado_208072" data-name="Trazado 208072" d="M455.335,370.635l1.9,11.42s-11.047,4.8-10.9,6.948l22.354-1.929-2.236-17.916Z" transform="translate(-176.124 -145.669)" fill="#ff4f5b"/>
            <path id="Trazado_208073" data-name="Trazado 208073" d="M474.868,387.375a.918.918,0,0,1,.764.957.882.882,0,0,1-.941.766.968.968,0,0,1-.8-1.017.914.914,0,0,1,1.067-.688" transform="translate(-186.99 -152.851)" fill="#ececec"/>
            <path id="Trazado_208074" data-name="Trazado 208074" d="M468.665,397.587l-.223-1.787-21.13,2.234s-1.141.843-1.039,1.537Z" transform="translate(-176.096 -156.182)" fill="#1a2e35"/>
            <path id="Trazado_208075" data-name="Trazado 208075" d="M463.723,390.248c.018.108.568.087,1.148.367s.926.7,1.02.644c.1-.034-.15-.663-.858-.99s-1.346-.118-1.31-.021" transform="translate(-182.984 -153.929)" fill="#1a2e35"/>
            <path id="Trazado_208076" data-name="Trazado 208076" d="M460.073,392.407c-.012.109.484.232.914.644s.6.885.707.866c.1,0,.1-.643-.447-1.145s-1.184-.469-1.173-.365" transform="translate(-181.544 -154.818)" fill="#1a2e35"/>
            <path id="Trazado_208077" data-name="Trazado 208077" d="M457.759,396.2c.1.01.182-.553-.174-1.112s-.9-.73-.931-.634c-.05.1.322.374.608.838s.387.912.5.908" transform="translate(-180.193 -155.64)" fill="#1a2e35"/>
            <path id="Trazado_208078" data-name="Trazado 208078" d="M463.481,385.617c.059.093.538-.122,1.158-.16s1.125.093,1.169-.007-.466-.429-1.2-.374-1.2.462-1.131.541" transform="translate(-182.887 -151.948)" fill="#1a2e35"/>
            <path id="Trazado_208079" data-name="Trazado 208079" d="M462.92,380.744a2.109,2.109,0,0,0,1.115-.151,5.042,5.042,0,0,0,1.121-.51,5.376,5.376,0,0,0,.6-.423,1.383,1.383,0,0,0,.3-.306.477.477,0,0,0-.025-.585.6.6,0,0,0-.509-.187,1.464,1.464,0,0,0-.41.112,4.028,4.028,0,0,0-.663.329,3.957,3.957,0,0,0-.941.809c-.455.546-.578.975-.538.991s.261-.344.736-.807a4.5,4.5,0,0,1,.922-.69,4.151,4.151,0,0,1,.615-.281c.228-.093.428-.12.5-.023.027.037.032.053-.008.128a1.1,1.1,0,0,1-.223.224,5.826,5.826,0,0,1-.546.414,6.19,6.19,0,0,1-1.025.553,7.8,7.8,0,0,0-1.021.4" transform="translate(-182.667 -149.386)" fill="#1a2e35"/>
            <path id="Trazado_208080" data-name="Trazado 208080" d="M462.014,380.148a1.793,1.793,0,0,0,.154-1.116,3.636,3.636,0,0,0-.683-1.842.929.929,0,0,0-.785-.47.524.524,0,0,0-.426.372,1.491,1.491,0,0,0-.061.424,2.5,2.5,0,0,0,.1.751,2.585,2.585,0,0,0,.626,1.09c.51.521.981.591.986.554.029-.059-.377-.22-.783-.731a2.605,2.605,0,0,1-.489-1,2.319,2.319,0,0,1-.063-.647c0-.242.068-.444.16-.431.11-.016.322.137.438.314a3.74,3.74,0,0,1,.355.569,4.051,4.051,0,0,1,.361,1.085c.116.65.053,1.072.114,1.081" transform="translate(-181.599 -148.653)" fill="#1a2e35"/>
            <path id="Trazado_208081" data-name="Trazado 208081" d="M445.43,182.324c.149-.01,6.273,122.311,6.273,122.311H434.725l-5.008-56.381-4.145-45.824-2.59,42.359-3.082,59.7-15.573-.556,1.406-122.31h20.161Z" transform="translate(-159.547 -71.667)" fill="#1a2e35"/>
            <path id="Trazado_208082" data-name="Trazado 208082" d="M444.683,31.758l-2.319,26.893-6.314,3.726-7.034-3.406c-.084-1.573-.093-9.053-.093-9.053s-5.6-.871-5.673-6.474c-.034-2.721.355-8.345.765-13.411a10.37,10.37,0,1,1,20.668,1.725" transform="translate(-167.013 -8.088)" fill="#ffc09d"/>
            <path id="Trazado_208083" data-name="Trazado 208083" d="M432.6,67.61a13.029,13.029,0,0,0,7.3-2.076s-1.727,4.033-7.318,3.528Z" transform="translate(-170.697 -25.86)" fill="#ff9b6c"/>
            <path id="Trazado_208084" data-name="Trazado 208084" d="M427.145,42.851a.8.8,0,0,0,.772.808.765.765,0,0,0,.824-.722.8.8,0,0,0-.771-.808.767.767,0,0,0-.826.722" transform="translate(-168.55 -16.624)" fill="#1a2e35"/>
            <path id="Trazado_208085" data-name="Trazado 208085" d="M426.484,40.366c.1.1.705-.344,1.567-.342s1.492.433,1.585.328c.046-.047-.055-.235-.33-.435a2.193,2.193,0,0,0-1.27-.391,2.111,2.111,0,0,0-1.247.4c-.265.2-.355.392-.306.439" transform="translate(-168.285 -15.596)" fill="#1a2e35"/>
            <path id="Trazado_208086" data-name="Trazado 208086" d="M440.437,43.035a.8.8,0,0,0,.772.807.765.765,0,0,0,.825-.721.8.8,0,0,0-.771-.808.766.766,0,0,0-.826.722" transform="translate(-173.795 -16.696)" fill="#1a2e35"/>
            <path id="Trazado_208087" data-name="Trazado 208087" d="M440.465,40.631c.1.1.707-.344,1.567-.342s1.492.433,1.586.328c.046-.047-.054-.235-.331-.435a2.191,2.191,0,0,0-1.269-.391,2.11,2.11,0,0,0-1.247.4c-.264.2-.354.392-.306.438" transform="translate(-173.802 -15.701)" fill="#1a2e35"/>
            <path id="Trazado_208088" data-name="Trazado 208088" d="M433.881,47.051a5.684,5.684,0,0,0-1.4-.252c-.22-.022-.428-.066-.465-.216a1.118,1.118,0,0,1,.147-.652l.65-1.674a28.814,28.814,0,0,0,1.461-4.379,28.767,28.767,0,0,0-1.81,4.252q-.326.881-.623,1.684a1.271,1.271,0,0,0-.114.863.55.55,0,0,0,.361.321,1.5,1.5,0,0,0,.373.052,5.613,5.613,0,0,0,1.418,0" transform="translate(-170.343 -15.735)" fill="#1a2e35"/>
            <path id="Trazado_208089" data-name="Trazado 208089" d="M437.708,52.711c-.14-.008-.142.926-.942,1.59s-1.8.561-1.8.691c-.013.059.222.182.643.193a2.328,2.328,0,0,0,1.5-.524,2.027,2.027,0,0,0,.73-1.333c.036-.391-.068-.622-.133-.617" transform="translate(-171.636 -20.8)" fill="#1a2e35"/>
            <path id="Trazado_208090" data-name="Trazado 208090" d="M440.1,35.184c.085.234.944.124,1.955.245,1.013.1,1.827.4,1.962.187.06-.1-.082-.321-.412-.547a3.423,3.423,0,0,0-2.983-.329c-.371.15-.558.333-.521.444" transform="translate(-173.662 -13.629)" fill="#1a2e35"/>
            <path id="Trazado_208091" data-name="Trazado 208091" d="M427,36.217c.151.2.745-.008,1.458-.017.713-.035,1.317.131,1.457-.073.061-.1-.035-.3-.3-.48a2.11,2.11,0,0,0-2.348.072c-.252.2-.335.4-.268.5" transform="translate(-168.485 -13.939)" fill="#1a2e35"/>
            <path id="Trazado_208092" data-name="Trazado 208092" d="M446.349,22.035a2.12,2.12,0,0,0-1.756-2.23,2.587,2.587,0,0,0-3.7-3.253,3.355,3.355,0,0,0-5.915-1.2,3.565,3.565,0,0,0-6.013.952,3.909,3.909,0,0,0-5.771.822,5.178,5.178,0,0,0-1.918-.3,2.312,2.312,0,0,0-2.016,1.279,1.523,1.523,0,0,0,.575,1.807,2,2,0,0,0-2.373,1.529,1.987,1.987,0,0,0,1.53,2.082,1.048,1.048,0,0,0-.578.973,1.982,1.982,0,0,0,1.31,1.45,7.168,7.168,0,0,0,5.114-.079c1.653-.556,3.187-1.423,4.826-2.021s4.385-1.67,6.03-1.09a3.007,3.007,0,0,1,.659.349,4.405,4.405,0,0,1,1.629,2.841l.016.113c.219,1.6.18,3.224.414,4.82a7.247,7.247,0,0,0,1.968,4.32c.486.452,1.344.763,1.744.233a1.373,1.373,0,0,0,.2-.732c.216-2.784.82-5.343,1.139-8.066a7.846,7.846,0,0,1,1.521-1.846,4.369,4.369,0,0,0,1.371-2.746" transform="translate(-164.722 -5.539)" fill="#1a2e35"/>
            <path id="Trazado_208093" data-name="Trazado 208093" d="M437.542,20.421a1.44,1.44,0,0,1-.076-.746,2.872,2.872,0,0,1,.9-1.84,2.933,2.933,0,0,1,2.946-.581,2.27,2.27,0,0,1,1.382,1.24,1.594,1.594,0,0,1,.041,1.033,1.223,1.223,0,0,1-.727.8,1.153,1.153,0,0,1-1.088-.123,1.083,1.083,0,0,1-.4-.989,1.389,1.389,0,0,1,.457-.895,2.148,2.148,0,0,1,.815-.45,3.43,3.43,0,0,1,2.985.49,2.073,2.073,0,0,1,.727.952,1.626,1.626,0,0,1,.045.9c-.13.495-.406.648-.406.633a1.99,1.99,0,0,0,.271-.66,1.552,1.552,0,0,0-.1-.806,1.91,1.91,0,0,0-.689-.819,3.222,3.222,0,0,0-2.736-.381,1.334,1.334,0,0,0-1.025,1.066.735.735,0,0,0,.263.672.805.805,0,0,0,.75.074,1.059,1.059,0,0,0,.487-1.379,1.959,1.959,0,0,0-1.169-1.057,2.7,2.7,0,0,0-2.665.461,2.862,2.862,0,0,0-.927,1.669c-.075.461-.03.726-.061.73" transform="translate(-172.62 -6.742)" fill="#375a64"/>
            <path id="Trazado_208094" data-name="Trazado 208094" d="M448.846,16.61a1.316,1.316,0,0,1,.506-.1,5.5,5.5,0,0,1,1.408.036,3.272,3.272,0,0,1,1.885.96,2.1,2.1,0,0,1,.3,2.537,1.745,1.745,0,0,1-.306.349l-.181-.3a1.477,1.477,0,0,1,1.337.176,1.667,1.667,0,0,1,.713,1.01,2.393,2.393,0,0,1-.435,1.938,3.737,3.737,0,0,1-.959.9c-.257.169-.412.237-.424.219s.116-.127.343-.326a4.479,4.479,0,0,0,.839-.932,2.193,2.193,0,0,0,.326-1.719,1.353,1.353,0,0,0-.588-.8,1.145,1.145,0,0,0-1.018-.135l-.92.368.739-.668a1.4,1.4,0,0,0,.238-.273,1.678,1.678,0,0,0,.229-1.13,1.9,1.9,0,0,0-.472-.992,3.134,3.134,0,0,0-1.69-.932c-1.124-.217-1.867-.116-1.866-.188" transform="translate(-177.114 -6.505)" fill="#375a64"/>
            <path id="Trazado_208095" data-name="Trazado 208095" d="M460.891,26.487c.043-.01.143.186.143.533a1.906,1.906,0,0,1-1.674,1.864c-.346.036-.551-.042-.545-.085-.01-.1.845-.081,1.467-.771a3.457,3.457,0,0,0,.609-1.541" transform="translate(-181.048 -10.451)" fill="#375a64"/>
            <path id="Trazado_208096" data-name="Trazado 208096" d="M422.709,21.078a1.522,1.522,0,0,1,.523-.427,3.665,3.665,0,0,1,4.323.571,2.114,2.114,0,0,1,.665,1.545,1.292,1.292,0,0,1-1.321,1.217.988.988,0,0,1-.8-.606,1.444,1.444,0,0,1-.057-.94,1.805,1.805,0,0,1,1.21-1.176,2.317,2.317,0,0,1,1.512.028,3.287,3.287,0,0,1,1.11.674,5.472,5.472,0,0,1,1.1,1.474,2.166,2.166,0,0,1,.272.613,2.791,2.791,0,0,1-.39-.542,6.314,6.314,0,0,0-1.148-1.355,2.464,2.464,0,0,0-2.352-.582,1.489,1.489,0,0,0-.979.956c-.136.453.077,1.066.556,1.1a.953.953,0,0,0,.937-.886,1.8,1.8,0,0,0-.553-1.3,3.394,3.394,0,0,0-2.3-1,3.765,3.765,0,0,0-1.717.33,6.4,6.4,0,0,1-.587.3" transform="translate(-166.8 -7.968)" fill="#375a64"/>
            <path id="Trazado_208097" data-name="Trazado 208097" d="M455.392,43.171c.1-.041,3.85-1.139,3.727,2.692s-3.943,2.917-3.946,2.807.219-5.5.219-5.5" transform="translate(-179.61 -16.966)" fill="#ffc09d"/>
            <path id="Trazado_208098" data-name="Trazado 208098" d="M457.18,48.074c.018-.012.065.049.177.1a.666.666,0,0,0,.5.026,1.652,1.652,0,0,0,.811-1.457,2.2,2.2,0,0,0-.156-.961.77.77,0,0,0-.486-.529.34.34,0,0,0-.4.17c-.055.105-.033.183-.054.189s-.08-.067-.044-.225a.429.429,0,0,1,.159-.235.509.509,0,0,1,.372-.086.94.94,0,0,1,.678.616,2.267,2.267,0,0,1,.2,1.075,1.734,1.734,0,0,1-1.027,1.623.715.715,0,0,1-.607-.12c-.116-.1-.133-.185-.12-.191" transform="translate(-180.401 -17.783)" fill="#ff9b6c"/>
            <path id="Trazado_208099" data-name="Trazado 208099" d="M403.64,133.414l1.714-18.072-1.93-14.879a19.59,19.59,0,0,1,9.554-17.923l14.946,4.116,14.645-4.116,6.32,4.214-5.313,30.089,2.3,19.834c.542,3.615-.669,8.758-.669,8.758l-39.878.343-.759-.37a33.084,33.084,0,0,1-.928-11.993" transform="translate(-159.178 -32.57)" fill="#f9860b"/>
            <path id="Trazado_208100" data-name="Trazado 208100" d="M443.466,75.831s-2.761-.506-4.556.92-7.5,5.811-7.5,5.811-5.108-9.4-9.249-7.928-4.832,10.124-4.832,10.124l18.453,1.153,11.366-.233Z" transform="translate(-164.677 -29.389)" fill="#f9860b"/>
            <path id="Trazado_208101" data-name="Trazado 208101" d="M411.542,167.818c.024-.018-.235-.315-.6-.942a10.058,10.058,0,0,1-1.153-2.89,10.174,10.174,0,0,1,.05-4.751,14.353,14.353,0,0,1,3.049-5.3l-.1.052a5.4,5.4,0,0,0,2.638-.941,5.984,5.984,0,0,0,1.945-2.267l-.155.092,5.292.464,5.983.516-.133-.108a5.354,5.354,0,0,0,.854,1.626,6.068,6.068,0,0,0,1.313,1.188,8.11,8.11,0,0,0,3.086,1.181l-.114-.178a12.862,12.862,0,0,0-.378,5.541,10.5,10.5,0,0,0,1.409,4.051,5.834,5.834,0,0,0,1.929,1.974,3.457,3.457,0,0,0,.653.327,1.071,1.071,0,0,0,.234.088c.013-.027-.313-.145-.842-.487a5.97,5.97,0,0,1-1.837-1.987,10.5,10.5,0,0,1-1.323-4,12.756,12.756,0,0,1,.417-5.426l.046-.151-.16-.028a7.874,7.874,0,0,1-2.958-1.153,5.808,5.808,0,0,1-1.239-1.13,5.067,5.067,0,0,1-.8-1.527l-.033-.1-.1-.008-5.983-.524-5.293-.457-.1-.009-.05.1a5.709,5.709,0,0,1-1.833,2.145,5.122,5.122,0,0,1-2.491.9l-.062.006-.037.046a26.863,26.863,0,0,0-1.9,2.675,9.552,9.552,0,0,0-1.159,2.752,10.217,10.217,0,0,0,.014,4.849,9.6,9.6,0,0,0,1.242,2.9,5.462,5.462,0,0,0,.68.894" transform="translate(-161.517 -59.407)" fill="#1a2e35"/>
            <g id="Grupo_150571" data-name="Grupo 150571" transform="translate(271.516 96.053)" opacity="0.3">
              <g id="Grupo_150570" data-name="Grupo 150570">
                <g id="Grupo_150569" data-name="Grupo 150569" clip-path="url(#clip-path-3)">
                  <path id="Trazado_208102" data-name="Trazado 208102" d="M449.344,158.66a10.087,10.087,0,0,0,2.612,5.783c.838.782,1.919,1.253,2.8,1.981a2.972,2.972,0,0,1,1.247,2.985,2.469,2.469,0,0,1-2.9,1.417,4.926,4.926,0,0,1-2.754-2.1,10.4,10.4,0,0,1-1.012-10.067" transform="translate(-448.489 -158.66)"/>
                </g>
              </g>
            </g>
            <path id="Trazado_208103" data-name="Trazado 208103" d="M403.8,179.994a2.055,2.055,0,0,0,.408.079l1.177.163c1.023.14,2.508.307,4.346.482,3.675.352,8.773.675,14.409.7s10.738-.269,14.416-.6c1.839-.162,3.325-.318,4.349-.45l1.178-.156a2.058,2.058,0,0,0,.409-.076,2.055,2.055,0,0,0-.415.013l-1.185.1c-1.027.094-2.515.217-4.353.351-3.678.269-8.77.52-14.4.5s-10.715-.309-14.391-.6c-1.838-.146-3.326-.28-4.352-.381l-1.184-.105a2.032,2.032,0,0,0-.415-.015" transform="translate(-159.34 -71.023)" fill="#1a2e35"/>
            <path id="Trazado_208104" data-name="Trazado 208104" d="M463.864,185.179a4.791,4.791,0,0,0,.8-3.981c-.093.008-.042.926-.266,2.017s-.615,1.92-.533,1.964" transform="translate(-183.036 -71.5)" fill="#1a2e35"/>
            <path id="Trazado_208105" data-name="Trazado 208105" d="M458.579,184.657a8.523,8.523,0,0,0,.423-3.235,8.525,8.525,0,0,0-.423,3.235" transform="translate(-180.934 -71.589)" fill="#1a2e35"/>
            <path id="Trazado_208106" data-name="Trazado 208106" d="M450.232,185.786a7.762,7.762,0,0,0,.2-3.92,30.289,30.289,0,0,0-.2,3.92" transform="translate(-177.645 -71.764)" fill="#1a2e35"/>
            <path id="Trazado_208107" data-name="Trazado 208107" d="M443.524,185.5a8.825,8.825,0,0,0,.355-3.3,8.825,8.825,0,0,0-.355,3.3" transform="translate(-174.991 -71.896)" fill="#1a2e35"/>
            <path id="Trazado_208108" data-name="Trazado 208108" d="M434.762,185.683a6.088,6.088,0,0,0,.2-3.372,18.717,18.717,0,0,0-.2,3.372" transform="translate(-171.538 -71.94)" fill="#1a2e35"/>
            <path id="Trazado_208109" data-name="Trazado 208109" d="M428.632,184.941a5.553,5.553,0,0,0,.042-2.63,5.575,5.575,0,0,0-.042,2.63" transform="translate(-169.083 -71.94)" fill="#1a2e35"/>
            <path id="Trazado_208110" data-name="Trazado 208110" d="M420.6,185.012a5.5,5.5,0,0,0,.232-3.371,7.115,7.115,0,0,0-.165,1.682,7.018,7.018,0,0,0-.067,1.688" transform="translate(-165.954 -71.675)" fill="#1a2e35"/>
            <path id="Trazado_208111" data-name="Trazado 208111" d="M414.436,184.144a9.917,9.917,0,0,0,.367-3.5,9.917,9.917,0,0,0-.367,3.5" transform="translate(-163.513 -71.281)" fill="#1a2e35"/>
            <path id="Trazado_208112" data-name="Trazado 208112" d="M408.715,184.533a11.664,11.664,0,0,0-.607-3.777,11.708,11.708,0,0,0,.607,3.777" transform="translate(-161.024 -71.326)" fill="#1a2e35"/>
            <path id="Trazado_208113" data-name="Trazado 208113" d="M469.481,185.584a6.845,6.845,0,0,0,1.583-5.058c-.1,0-.139,1.2-.583,2.595s-1.08,2.411-1,2.463" transform="translate(-185.254 -71.235)" fill="#1a2e35"/>
            <g id="Grupo_150574" data-name="Grupo 150574" transform="translate(266.026 86.434)" opacity="0.3">
              <g id="Grupo_150573" data-name="Grupo 150573">
                <g id="Grupo_150572" data-name="Grupo 150572" clip-path="url(#clip-path-4)">
                  <path id="Trazado_208114" data-name="Trazado 208114" d="M460.6,155.9c-.911,1.315-2.808,1.44-4.384,1.165a19.137,19.137,0,0,1-9.781-5.4,57.049,57.049,0,0,1-7.015-8.888,82.977,82.977,0,0,0,9.7,8.135,27.771,27.771,0,0,0,11.606,4.8" transform="translate(-439.42 -142.772)"/>
                </g>
              </g>
            </g>
            <path id="Trazado_208115" data-name="Trazado 208115" d="M409.161,104.239a1.58,1.58,0,0,0-.1.351c-.056.266-.128.6-.216,1.018-.178.887-.418,2.173-.693,3.766-.553,3.184-1.239,7.6-1.928,12.48s-1.245,9.315-1.6,12.528c-.177,1.607-.3,2.909-.38,3.809-.031.423-.056.767-.075,1.039a1.553,1.553,0,0,0,0,.364,1.574,1.574,0,0,0,.068-.358l.134-1.032c.119-.938.281-2.224.48-3.8.41-3.2,1-7.628,1.69-12.511s1.339-9.3,1.836-12.488c.246-1.565.447-2.845.593-3.78.065-.419.117-.76.159-1.029a1.563,1.563,0,0,0,.034-.363" transform="translate(-159.481 -41.133)" fill="#1a2e35"/>
            <path id="Trazado_208116" data-name="Trazado 208116" d="M397.206,101.878c1.922.353,2.13-1.869,5.7-1.3a32.887,32.887,0,0,1,13.755,5.662l-3.626,8.494-6.8-4.669-4.01,3.189a1.874,1.874,0,0,1-2.663-.34l-2.451-3.258s-3.255,4.013-3.62,4.045a1.078,1.078,0,0,1-1.01-1.647c.439-.541,4.823-8.16,4.823-8.16s-2.838-.579-2.17-1.487c0,0,.155-.878,2.077-.525" transform="translate(-154.802 -39.65)" fill="#ffc09d"/>
            <path id="Trazado_208117" data-name="Trazado 208117" d="M404.87,120.026a5.666,5.666,0,0,0,.051-.62,3.262,3.262,0,0,1,1.553-2.378,5.788,5.788,0,0,0,.547-.3,1.245,1.245,0,0,0-.613.173,2.963,2.963,0,0,0-1.627,2.49,1.24,1.24,0,0,0,.088.631" transform="translate(-159.726 -46.06)" fill="#ff9b6c"/>
            <path id="Trazado_208118" data-name="Trazado 208118" d="M402.495,116.808a4.193,4.193,0,0,1,2.115-2.713,1.05,1.05,0,0,0-.51.171,3.139,3.139,0,0,0-1.564,2.006,1.053,1.053,0,0,0-.041.536" transform="translate(-158.817 -45.02)" fill="#ff9b6c"/>
            <path id="Trazado_208119" data-name="Trazado 208119" d="M402.231,111.467c-.012-.021-.175.039-.4.205a2.693,2.693,0,0,0-1.039,1.854c-.024.278.01.449.033.448a3.972,3.972,0,0,1,1.405-2.507" transform="translate(-158.149 -43.983)" fill="#ff9b6c"/>
            <path id="Trazado_208120" data-name="Trazado 208120" d="M456.682,89.338s3.442,2.216,4.727,8.43c.887,4.29-.118,17.442,1.1,24.721a11.445,11.445,0,0,1-2.833,9.609c-5.189,3.327-9.258,3-12.607,1.153-10.224-5.648-18.239-15.737-21.737-21.423l-2.195-2.423,3.573-10.432,4.091,3.051c6.611,2.036,13.535,7.785,20.563,14.763Z" transform="translate(-166.971 -35.253)" fill="#f9860b"/>
            <path id="Trazado_208121" data-name="Trazado 208121" d="M465.135,121.652a11.909,11.909,0,0,0,.2-1.887c.087-1.168.189-2.782.27-4.568s.118-3.4.1-4.578a8.734,8.734,0,0,0-.126-1.9,16.2,16.2,0,0,0-.1,1.893c-.054,1.265-.121,2.833-.2,4.567-.081,1.784-.148,3.4-.177,4.57a10.737,10.737,0,0,0,.022,1.9" transform="translate(-183.525 -42.902)" fill="#1a2e35"/>
            <path id="Trazado_208122" data-name="Trazado 208122" d="M459.573,138.3a1.346,1.346,0,0,0-.2.122c-.132.082-.315.223-.575.375a13.622,13.622,0,0,1-2.344,1.2,11.008,11.008,0,0,1-4.057.77,11.4,11.4,0,0,1-5.263-1.382,32.5,32.5,0,0,1-5.6-3.632,63.633,63.633,0,0,1-5.667-5.193,117.617,117.617,0,0,1-11.434-13.409l-1.254-1.745.02.142c1.228-3.562,2.413-7,3.52-10.214l-.221.081c8.032,4.867,14.6,9.628,19.28,12.981l5.456,3.958,1.461,1.052.381.266a.648.648,0,0,0,.134.083.765.765,0,0,0-.119-.1l-.366-.287-1.432-1.092c-1.254-.948-3.087-2.323-5.405-4.03-4.646-3.4-11.2-8.193-19.236-13.087l-.16-.1-.061.177-3.531,10.21-.027.077.047.065,1.257,1.75a115.707,115.707,0,0,0,11.481,13.428,62.994,62.994,0,0,0,5.711,5.194,32.367,32.367,0,0,0,5.667,3.627,11.526,11.526,0,0,0,5.363,1.359,10.982,10.982,0,0,0,4.1-.832,12.686,12.686,0,0,0,2.333-1.256c.256-.162.433-.312.559-.4a1.308,1.308,0,0,0,.182-.148" transform="translate(-166.864 -41.453)" fill="#1a2e35"/>
            <path id="Trazado_208123" data-name="Trazado 208123" d="M465.161,129.926c.01.054.513-.032,1.323-.007a8.127,8.127,0,0,1,5.6,2.522c.556.589.825,1.023.872.995a3.327,3.327,0,0,0-.705-1.142,7.353,7.353,0,0,0-5.771-2.6,3.331,3.331,0,0,0-1.323.229" transform="translate(-183.552 -51.176)" fill="#1a2e35"/>
            <path id="Trazado_208124" data-name="Trazado 208124" d="M427.876,120.93a10.54,10.54,0,0,0,.739-1.609l1.667-3.923L432,111.5a10.562,10.562,0,0,0,.665-1.641,9.235,9.235,0,0,0-.866,1.546c-.493.975-1.141,2.341-1.8,3.873s-1.213,2.938-1.584,3.966a9.235,9.235,0,0,0-.532,1.69" transform="translate(-168.837 -43.349)" fill="#1a2e35"/>
            <path id="Trazado_208125" data-name="Trazado 208125" d="M424.206,118.9a9.463,9.463,0,0,0,3.325,2.548,27.26,27.26,0,0,0-3.325-2.548" transform="translate(-167.389 -46.914)" fill="#1a2e35"/>
            <path id="Trazado_208126" data-name="Trazado 208126" d="M425.975,114.245a15.141,15.141,0,0,0,3.57,2.5,15.141,15.141,0,0,0-3.57-2.5" transform="translate(-168.088 -45.078)" fill="#1a2e35"/>
            <path id="Trazado_208127" data-name="Trazado 208127" d="M427.57,109.131a18.092,18.092,0,0,0,3.9,2.74,18.091,18.091,0,0,0-3.9-2.74" transform="translate(-168.717 -43.06)" fill="#1a2e35"/>
            <path id="Trazado_208128" data-name="Trazado 208128" d="M440.293,90.5c.041.048.871-.694,2.385-1.64a22.769,22.769,0,0,1,2.765-1.463,25.406,25.406,0,0,1,3.619-1.245,23.914,23.914,0,0,1,6.9-.7c1.784.087,2.874.312,2.885.251a3.7,3.7,0,0,0-.759-.189,8.525,8.525,0,0,0-.9-.153c-.355-.042-.759-.112-1.209-.131a21.042,21.042,0,0,0-3.166,0,23.268,23.268,0,0,0-3.829.624,23.578,23.578,0,0,0-3.66,1.285,20.3,20.3,0,0,0-2.767,1.54c-.383.239-.7.492-.99.706a7.9,7.9,0,0,0-.711.579,3.674,3.674,0,0,0-.564.542" transform="translate(-173.738 -33.606)" fill="#1a2e35"/>
            <path id="Trazado_208129" data-name="Trazado 208129" d="M418.73,82.247c-.009.052.832.21,2.157.585a28.592,28.592,0,0,1,5,1.945,29.532,29.532,0,0,1,4.544,2.854c1.093.836,1.728,1.411,1.764,1.372a2.244,2.244,0,0,0-.4-.449c-.271-.277-.688-.654-1.222-1.1a24.563,24.563,0,0,0-4.54-2.961,23.912,23.912,0,0,0-5.084-1.879c-.675-.162-1.227-.268-1.612-.318a2.257,2.257,0,0,0-.6-.051" transform="translate(-165.23 -32.451)" fill="#1a2e35"/>
            <path id="Trazado_208130" data-name="Trazado 208130" d="M372.619,104.931l-44.628-8.2a1.5,1.5,0,0,1-1.218-1.286l-3.394-26.432a1.5,1.5,0,0,1,1.689-1.68l28.037,3.755a1.5,1.5,0,0,1,1.291,1.3l3.4,26.7a1.5,1.5,0,0,0,1.162,1.276l15.333,3.464a1.39,1.39,0,0,1-1.675,1.11" transform="translate(-127.6 -26.565)" fill="#375a64"/>
            <path id="Trazado_208131" data-name="Trazado 208131" d="M369.622,74.6c-.008.017.148.079.393.272a2.758,2.758,0,0,1,.773,1.1,24.777,24.777,0,0,1,.839,4.976c.558,4.281,1.323,10.142,2.167,16.616.231,1.627.4,3.2.667,4.745a2.832,2.832,0,0,0,.484,1.1,2.225,2.225,0,0,0,.964.7,12.778,12.778,0,0,0,2.152.478l7.421,1.3,5.007.85,1.365.216a2.7,2.7,0,0,0,.479.054,2.74,2.74,0,0,0-.468-.116l-1.354-.274-4.99-.949-7.409-1.367a12.85,12.85,0,0,1-2.091-.471,1.933,1.933,0,0,1-.835-.6,2.554,2.554,0,0,1-.426-.985c-.256-1.49-.426-3.1-.654-4.716l-2.259-16.6-.405-2.866a7.785,7.785,0,0,0-.542-2.13,2.685,2.685,0,0,0-.847-1.1,1.455,1.455,0,0,0-.432-.222" transform="translate(-145.852 -29.438)" fill="#1a2e35"/>
            <path id="Trazado_208132" data-name="Trazado 208132" d="M323.966,68.185a.988.988,0,0,0,.278.064l.8.121,2.962.411c2.5.347,5.949.865,9.757,1.452s7.263,1.095,9.77,1.411c1.254.159,2.269.278,2.973.346l.811.073a.977.977,0,0,0,.285,0,1.006,1.006,0,0,0-.277-.067l-.8-.131-2.957-.446-9.753-1.5c-3.809-.587-7.267-1.07-9.777-1.361-1.255-.146-2.272-.253-2.976-.312l-.812-.062a.974.974,0,0,0-.285,0" transform="translate(-127.836 -26.903)" fill="#1a2e35"/>
            <path id="Trazado_208133" data-name="Trazado 208133" d="M346.9,79.008a.81.81,0,1,0,.8.819.841.841,0,0,0-.8-.819" transform="translate(-136.565 -31.176)" fill="#fff"/>
            <path id="Trazado_208134" data-name="Trazado 208134" d="M352.352,116.79s-1.371-2.438-2.541-2.561-4.065-.862-4.065-.862a9.995,9.995,0,0,1-1.971-2.34c-.616-1.17-1.478-2.525-1.971-2.34s-.677.308-.369,1.355,1.108,3.163,1.108,3.163H341.5s-1.17-5.318-2.586-5.257c0,0-.677.369-.616.924,0,0-.739-1.54-1.17-1.231s-.431,1.6-.308,2.894.246,2.135.246,2.135l-1.047-.349s-2.525-5.357-3.264-5.234-.739.986-.493,1.662,1.663,4,1.663,4,4.7,2.642,5.665,3.079c.9.407,8.609,4.731,8.609,4.731Z" transform="translate(-131.051 -42.255)" fill="#ffc09d"/>
            <path id="Trazado_208135" data-name="Trazado 208135" d="M446.324,194.894a1.089,1.089,0,0,0-1.506-.885c-3.051,1.286-10.639,4.194-15.742,3.656-6.515-.687-11.474-4.959-15.715-3.813s-7.055,3.405-7.993,2.485.619-9.565.619-9.565l39.877-.343s.856,5.952,1.306,7.838c.245,1.026-.847.628-.847.628" transform="translate(-159.839 -73.564)" fill="#206897"/>
            <path id="Trazado_208136" data-name="Trazado 208136" d="M405.285,198.527a2.264,2.264,0,0,0,.415-.135l1.167-.439a40.009,40.009,0,0,1,4.347-1.418,18.74,18.74,0,0,1,3.1-.519,15.431,15.431,0,0,1,3.589.177c2.516.4,5.157,1.4,8.023,2.162a20.134,20.134,0,0,0,14.8-1.541c.866-.437,1.642-.837,2.344-1.144a11.6,11.6,0,0,1,1.848-.646,10.894,10.894,0,0,1,1.654-.243,4.956,4.956,0,0,0-1.681.124,10.955,10.955,0,0,0-1.889.6c-.715.294-1.5.684-2.373,1.105A20.216,20.216,0,0,1,426,198.05c-2.841-.753-5.5-1.752-8.056-2.144a15.469,15.469,0,0,0-3.656-.15,18.5,18.5,0,0,0-3.134.564,34.663,34.663,0,0,0-4.336,1.52l-1.146.494a2.263,2.263,0,0,0-.391.194" transform="translate(-159.925 -76.851)" fill="#fafafa"/>
            <path id="Trazado_208137" data-name="Trazado 208137" d="M405.285,194.77a2.228,2.228,0,0,0,.424-.1l1.2-.338,4.4-1.3a25.315,25.315,0,0,1,6.606-1.348,12.893,12.893,0,0,1,3.927.457,41.782,41.782,0,0,1,4.045,1.431,23.224,23.224,0,0,0,4.138,1.284,10.079,10.079,0,0,0,4.045-.038,19.963,19.963,0,0,0,3.475-1.129l2.917-1.226a23.565,23.565,0,0,1,2.453-.856,12.823,12.823,0,0,1,1.923-.358l.713-.048.524.013a2.236,2.236,0,0,0,.436-.005,2.232,2.232,0,0,0-.432-.057c-.142-.012-.319-.033-.528-.044l-.723.02a11.894,11.894,0,0,0-1.958.31,22.11,22.11,0,0,0-2.491.819,41.8,41.8,0,0,1-6.369,2.277,9.841,9.841,0,0,1-3.931.019A23.351,23.351,0,0,1,426,193.281a40.617,40.617,0,0,0-4.079-1.435,13.077,13.077,0,0,0-4.018-.449,24.8,24.8,0,0,0-6.659,1.426l-4.366,1.395-1.183.395a2.25,2.25,0,0,0-.406.158" transform="translate(-159.925 -75.412)" fill="#fafafa"/>
            <path id="Trazado_208138" data-name="Trazado 208138" d="M405.986,190.024a5.214,5.214,0,0,0,1.575.364,11.876,11.876,0,0,0,4.36-.607c.9-.253,1.863-.567,2.914-.84a27.287,27.287,0,0,1,3.4-.641,26.933,26.933,0,0,1,7.91.2c2.773.482,5.424,1.184,7.921,1.119a13.888,13.888,0,0,0,3.467-.544c1.058-.289,2.023-.61,2.914-.857a11.978,11.978,0,0,1,4.307-.552,10.857,10.857,0,0,1,1.574.3,1.813,1.813,0,0,0-.387-.16,6.079,6.079,0,0,0-1.174-.258,11.534,11.534,0,0,0-4.378.458,25.5,25.5,0,0,1-6.328,1.326c-2.442.049-5.067-.653-7.864-1.139a26.66,26.66,0,0,0-11.432.5c-1.059.286-2.024.613-2.911.878a12.345,12.345,0,0,1-4.287.7,13.8,13.8,0,0,1-1.584-.242" transform="translate(-160.201 -73.98)" fill="#fafafa"/>
          </g>
        </g>
      </g>
    </g>
  </g>
</svg>
