<svg xmlns="http://www.w3.org/2000/svg" xmlns:xlink="http://www.w3.org/1999/xlink" width="420.171" height="431.63" viewBox="0 0 420.171 431.63">
  <defs>
    <filter id="Trazado_157133" x="17.479" y="10.516" width="374.246" height="416.6" filterUnits="userSpaceOnUse">
      <feOffset dy="3" input="SourceAlpha"/>
      <feGaussianBlur stdDeviation="3" result="blur"/>
      <feFlood flood-opacity="0.161"/>
      <feComposite operator="in" in2="blur"/>
      <feComposite in="SourceGraphic"/>
    </filter>
    <radialGradient id="radial-gradient" cx="0.473" cy="0.169" r="1.287" gradientTransform="matrix(0.707, 0.707, -0.707, 0.707, 0.274, -0.091)" gradientUnits="objectBoundingBox">
      <stop offset="0" stop-color="#ffd673"/>
      <stop offset="0.457" stop-color="#ffb600"/>
      <stop offset="0.973" stop-color="#ff6b00"/>
    </radialGradient>
    <clipPath id="clip-path">
      <rect id="Rectángulo_299435" data-name="Rectángulo 299435" width="347.015" height="345.463" fill="none"/>
    </clipPath>
    <clipPath id="clip-path-3">
      <rect id="Rectángulo_299389" data-name="Rectángulo 299389" width="31.79" height="73.009" fill="none"/>
    </clipPath>
    <clipPath id="clip-path-4">
      <rect id="Rectángulo_299390" data-name="Rectángulo 299390" width="32.613" height="33.689" fill="none"/>
    </clipPath>
    <clipPath id="clip-path-5">
      <rect id="Rectángulo_299393" data-name="Rectángulo 299393" width="11.745" height="5.872" fill="none"/>
    </clipPath>
    <clipPath id="clip-path-6">
      <rect id="Rectángulo_299397" data-name="Rectángulo 299397" width="26.719" height="5.659" fill="none"/>
    </clipPath>
    <clipPath id="clip-path-7">
      <rect id="Rectángulo_299399" data-name="Rectángulo 299399" width="12.721" height="5.871" fill="none"/>
    </clipPath>
    <clipPath id="clip-path-8">
      <rect id="Rectángulo_299401" data-name="Rectángulo 299401" width="16.385" height="5.871" fill="none"/>
    </clipPath>
    <clipPath id="clip-path-9">
      <rect id="Rectángulo_299402" data-name="Rectángulo 299402" width="30.845" height="11.771" fill="none"/>
    </clipPath>
    <clipPath id="clip-path-10">
      <rect id="Rectángulo_299403" data-name="Rectángulo 299403" width="24.464" height="6.56" fill="none"/>
    </clipPath>
    <clipPath id="clip-path-11">
      <rect id="Rectángulo_299404" data-name="Rectángulo 299404" width="2.816" height="7.597" fill="none"/>
    </clipPath>
    <clipPath id="clip-path-12">
      <rect id="Rectángulo_299405" data-name="Rectángulo 299405" width="6.745" height="10.895" fill="none"/>
    </clipPath>
    <clipPath id="clip-path-13">
      <rect id="Rectángulo_299406" data-name="Rectángulo 299406" width="21.737" height="10.459" fill="none"/>
    </clipPath>
    <clipPath id="clip-path-14">
      <rect id="Rectángulo_299407" data-name="Rectángulo 299407" width="10.262" height="16.867" fill="none"/>
    </clipPath>
    <clipPath id="clip-path-15">
      <rect id="Rectángulo_299410" data-name="Rectángulo 299410" width="26.235" height="71.362" fill="none"/>
    </clipPath>
    <clipPath id="clip-path-16">
      <rect id="Rectángulo_299411" data-name="Rectángulo 299411" width="29.914" height="32.465" fill="none"/>
    </clipPath>
    <clipPath id="clip-path-17">
      <rect id="Rectángulo_299412" data-name="Rectángulo 299412" width="4.673" height="16.75" fill="none"/>
    </clipPath>
    <clipPath id="clip-path-18">
      <rect id="Rectángulo_299413" data-name="Rectángulo 299413" width="30.31" height="17.725" fill="none"/>
    </clipPath>
    <clipPath id="clip-path-19">
      <rect id="Rectángulo_299414" data-name="Rectángulo 299414" width="2.543" height="6.665" fill="none"/>
    </clipPath>
    <clipPath id="clip-path-20">
      <rect id="Rectángulo_299415" data-name="Rectángulo 299415" width="5.473" height="5.623" fill="none"/>
    </clipPath>
    <clipPath id="clip-path-21">
      <rect id="Rectángulo_299416" data-name="Rectángulo 299416" width="10.609" height="7.612" fill="none"/>
    </clipPath>
    <clipPath id="clip-path-22">
      <rect id="Rectángulo_299417" data-name="Rectángulo 299417" width="33.609" height="60.172" fill="none"/>
    </clipPath>
    <clipPath id="clip-path-23">
      <rect id="Rectángulo_299418" data-name="Rectángulo 299418" width="12.2" height="6.748" fill="none"/>
    </clipPath>
    <clipPath id="clip-path-24">
      <rect id="Rectángulo_299421" data-name="Rectángulo 299421" width="26.235" height="71.361" fill="none"/>
    </clipPath>
    <clipPath id="clip-path-25">
      <rect id="Rectángulo_299422" data-name="Rectángulo 299422" width="37.753" height="32.465" fill="none"/>
    </clipPath>
    <clipPath id="clip-path-26">
      <rect id="Rectángulo_299423" data-name="Rectángulo 299423" width="48.167" height="12.8" fill="none"/>
    </clipPath>
    <clipPath id="clip-path-28">
      <rect id="Rectángulo_299427" data-name="Rectángulo 299427" width="30.889" height="32.465" fill="none"/>
    </clipPath>
    <clipPath id="clip-path-29">
      <rect id="Rectángulo_299428" data-name="Rectángulo 299428" width="50.465" height="4.412" fill="none"/>
    </clipPath>
    <clipPath id="clip-path-30">
      <rect id="Rectángulo_299431" data-name="Rectángulo 299431" width="25.996" height="70.709" fill="none"/>
    </clipPath>
    <clipPath id="clip-path-31">
      <rect id="Rectángulo_299432" data-name="Rectángulo 299432" width="33.18" height="32.169" fill="none"/>
    </clipPath>
    <clipPath id="clip-path-32">
      <rect id="Rectángulo_299433" data-name="Rectángulo 299433" width="69.762" height="4.047" fill="none"/>
    </clipPath>
  </defs>
  <g id="Grupo_150694" data-name="Grupo 150694" transform="translate(-179.829 -5322.369)">
    <g id="Grupo_150493" data-name="Grupo 150493" transform="translate(951.861 15680.369)">
      <path id="Trazado_104230" data-name="Trazado 104230" d="M371.519-3043.95a26.473,26.473,0,0,1-26.473,26.473H222.021c0-.281-.021-.558-.021-.837a148.593,148.593,0,0,1,148.594-148.592c.311,0,.616.021.925.023Z" transform="translate(-742.368 -6908.892)" fill="#f9860b"/>
      <path id="Trazado_104231" data-name="Trazado 104231" d="M370.047-3223.527A26.473,26.473,0,0,1,396.52-3250H519.545c0,.282.021.558.021.838a148.592,148.592,0,0,1-148.594,148.592c-.311,0-.616-.021-.925-.023Z" transform="translate(-1134.059 -7108)" fill="#07a5b6"/>
      <g transform="matrix(1, 0, 0, 1, -772.03, -10358)" filter="url(#Trazado_157133)">
        <path id="Trazado_157133-2" data-name="Trazado 157133" d="M-190,398.6H158.087c4.506,0,8.16-6.22,8.16-13.892V0H-181.841C-186.347,0-190,6.22-190,13.892Z" transform="translate(216.48 16.52)" fill="#fff"/>
      </g>
      <circle id="Elipse_5768" data-name="Elipse 5768" cx="26.478" cy="26.478" r="26.478" transform="translate(-772.032 -9998.266) rotate(-90)" fill="url(#radial-gradient)"/>
      <circle id="Elipse_5767" data-name="Elipse 5767" cx="26.478" cy="26.478" r="26.478" transform="translate(-426.754 -10275.277) rotate(-45)" fill="url(#radial-gradient)"/>
    </g>
    <g id="Grupo_150693" data-name="Grupo 150693" transform="translate(216.407 5359.537)">
      <g id="Grupo_150692" data-name="Grupo 150692" clip-path="url(#clip-path)">
        <g id="Grupo_150691" data-name="Grupo 150691">
          <g id="Grupo_150690" data-name="Grupo 150690" clip-path="url(#clip-path)">
            <path id="Trazado_208326" data-name="Trazado 208326" d="M258.054,278.565a13.629,13.629,0,0,1,3.33-1.447l.686-3.3,5.568-.1.8,3.269a13.629,13.629,0,0,1,3.378,1.329l2.815-1.844,4.006,3.868-1.745,2.877a13.634,13.634,0,0,1,1.447,3.331l3.3.686.1,5.568-3.27.8a13.65,13.65,0,0,1-1.329,3.378l1.844,2.815-3.867,4.006-2.877-1.745a13.636,13.636,0,0,1-3.331,1.447l-.686,3.3-5.569.1-.8-3.269a13.642,13.642,0,0,1-3.378-1.329l-2.815,1.844-4.006-3.868,1.745-2.877a13.629,13.629,0,0,1-1.447-3.33l-3.3-.686-.1-5.569,3.27-.8a13.655,13.655,0,0,1,1.329-3.378l-1.844-2.815,3.868-4.006Zm2.969,7.418a5.974,5.974,0,1,0,8.447-.148,5.974,5.974,0,0,0-8.447.148" transform="translate(-57.453 -63.272)" fill="#fdd7ae"/>
            <path id="Trazado_208327" data-name="Trazado 208327" d="M247.3,47.892a13.629,13.629,0,0,1,3.33-1.447l.686-3.3,5.568-.1.8,3.269a13.628,13.628,0,0,1,3.378,1.329l2.815-1.844,4.006,3.868-1.745,2.877a13.633,13.633,0,0,1,1.447,3.331l3.3.686.1,5.568-3.27.8a13.651,13.651,0,0,1-1.329,3.378l1.844,2.815-3.867,4.006-2.877-1.745a13.663,13.663,0,0,1-3.331,1.447l-.686,3.3-5.569.1-.8-3.269a13.639,13.639,0,0,1-3.378-1.329l-2.815,1.844L240.9,69.609l1.745-2.877A13.63,13.63,0,0,1,241.2,63.4l-3.3-.686-.1-5.569,3.27-.8a13.652,13.652,0,0,1,1.329-3.378l-1.845-2.814,3.868-4.006Zm2.969,7.418a5.974,5.974,0,1,0,8.447-.148,5.974,5.974,0,0,0-8.447.148" transform="translate(-54.969 -9.951)" fill="#fdd7ae"/>
            <path id="Trazado_208328" data-name="Trazado 208328" d="M70.83,40.154a13.6,13.6,0,0,1,3.329-1.447l.687-3.3,5.567-.1.8,3.269a13.645,13.645,0,0,1,3.379,1.329l2.814-1.844,4.006,3.868L89.67,44.812a13.576,13.576,0,0,1,1.447,3.331l3.3.686.1,5.568-3.269.8a13.649,13.649,0,0,1-1.329,3.378l1.844,2.815L87.888,65.4l-2.877-1.745A13.664,13.664,0,0,1,81.681,65.1L81,68.4l-5.57.1-.8-3.269a13.623,13.623,0,0,1-3.378-1.329l-2.816,1.844-4.006-3.868,1.745-2.877a13.659,13.659,0,0,1-1.447-3.33l-3.3-.686-.1-5.569,3.269-.8a13.654,13.654,0,0,1,1.33-3.378l-1.846-2.814,3.868-4.006ZM73.8,47.572a5.974,5.974,0,1,0,8.447-.148,5.974,5.974,0,0,0-8.447.148" transform="translate(-14.176 -8.163)" fill="#fdd7ae"/>
            <path id="Trazado_208329" data-name="Trazado 208329" d="M197.972,104.658a9.439,9.439,0,0,1,2.3-1l.474-2.28,3.853-.067.554,2.262a9.4,9.4,0,0,1,2.338.92l1.947-1.276,2.772,2.676-1.207,1.991a9.424,9.424,0,0,1,1,2.3l2.28.474.068,3.853-2.262.554a9.442,9.442,0,0,1-.92,2.337l1.276,1.948-2.676,2.772-1.991-1.207a9.484,9.484,0,0,1-2.3,1l-.474,2.28-3.853.068L200.6,122a9.454,9.454,0,0,1-2.337-.92l-1.947,1.276-2.772-2.676,1.207-1.991a9.4,9.4,0,0,1-1-2.3l-2.28-.474-.068-3.853,2.262-.554a9.471,9.471,0,0,1,.92-2.337l-1.276-1.948,2.676-2.772Zm2.054,5.132a4.134,4.134,0,1,0,5.845-.1,4.132,4.132,0,0,0-5.845.1" transform="translate(-44.242 -23.418)" fill="#fdd7ae"/>
            <path id="Trazado_208330" data-name="Trazado 208330" d="M59.971,190.43a26.2,26.2,0,0,1,6.386-2.776l1.315-6.321,10.68-.187,1.537,6.271a26.133,26.133,0,0,1,6.481,2.549l5.4-3.538,7.685,7.419-3.345,5.518a26.149,26.149,0,0,1,2.775,6.388l6.321,1.315.188,10.68-6.271,1.538a26.191,26.191,0,0,1-2.549,6.479l3.537,5.4-7.419,7.685L87.171,235.5a26.146,26.146,0,0,1-6.387,2.776L79.468,244.6l-10.679.187-1.537-6.271a26.157,26.157,0,0,1-6.48-2.549l-5.4,3.538-7.685-7.419,3.346-5.518a26.175,26.175,0,0,1-2.776-6.387l-6.321-1.316-.188-10.68,6.271-1.538a26.182,26.182,0,0,1,2.55-6.479l-3.538-5.4,7.419-7.685Zm5.693,14.228a11.459,11.459,0,1,0,16.2-.285,11.459,11.459,0,0,0-16.2.285" transform="translate(-9.651 -41.872)" fill="#fdd7ae"/>
            <path id="Trazado_208331" data-name="Trazado 208331" d="M253.859,377.671a23.883,23.883,0,0,1,5.82-2.53l1.2-5.762,9.734-.171,1.4,5.716a23.859,23.859,0,0,1,5.907,2.323l4.92-3.225,7,6.763-3.049,5.029a23.839,23.839,0,0,1,2.53,5.822l5.761,1.2.171,9.734-5.716,1.4a23.884,23.884,0,0,1-2.323,5.906l3.225,4.92-6.762,7-5.03-3.049a23.849,23.849,0,0,1-5.822,2.529l-1.2,5.762-9.734.171-1.4-5.716a23.825,23.825,0,0,1-5.906-2.323l-4.92,3.225-7-6.763,3.05-5.03a23.811,23.811,0,0,1-2.53-5.822l-5.761-1.2-.171-9.734,5.716-1.4a23.85,23.85,0,0,1,2.323-5.906l-3.225-4.92,6.762-7Zm5.189,12.968a10.444,10.444,0,1,0,14.768-.26,10.444,10.444,0,0,0-14.768.26" transform="translate(-54.841 -85.343)" fill="#f5f5f5"/>
            <path id="Trazado_208332" data-name="Trazado 208332" d="M333.124,333.667a14.539,14.539,0,0,1,3.544-1.541l.73-3.508,5.928-.1.853,3.48a14.533,14.533,0,0,1,3.6,1.415l3-1.964,4.265,4.118-1.857,3.062a14.552,14.552,0,0,1,1.541,3.546l3.508.73.1,5.928-3.481.853a14.523,14.523,0,0,1-1.415,3.6l1.964,3-4.118,4.266-3.063-1.858a14.534,14.534,0,0,1-3.545,1.541l-.73,3.508-5.928.1-.853-3.481a14.519,14.519,0,0,1-3.6-1.415l-3,1.964-4.266-4.118,1.858-3.063a14.476,14.476,0,0,1-1.541-3.545l-3.509-.73-.1-5.928,3.481-.853a14.526,14.526,0,0,1,1.415-3.6l-1.964-3,4.118-4.266Zm3.16,7.9a6.36,6.36,0,1,0,8.993-.158,6.36,6.36,0,0,0-8.993.158" transform="translate(-74.664 -75.936)" fill="#fdd7ae"/>
            <path id="Trazado_208333" data-name="Trazado 208333" d="M350.03,105.319a21.776,21.776,0,0,1,5.317-2.311l1.1-5.264,8.892-.155,1.28,5.22a21.805,21.805,0,0,1,5.4,2.123l4.495-2.945,6.4,6.178-2.786,4.594a21.8,21.8,0,0,1,2.311,5.319l5.263,1.1.156,8.892-5.221,1.28a21.782,21.782,0,0,1-2.123,5.4l2.946,4.495-6.178,6.4-4.595-2.786a21.807,21.807,0,0,1-5.318,2.31l-1.1,5.264-8.892.156-1.28-5.221a21.842,21.842,0,0,1-5.395-2.123l-4.495,2.945L339.8,140l2.786-4.595a21.8,21.8,0,0,1-2.311-5.318l-5.263-1.095-.156-8.892,5.221-1.281a21.84,21.84,0,0,1,2.123-5.4l-2.945-4.495,6.177-6.4Zm4.741,11.846a9.541,9.541,0,1,0,13.491-.238,9.542,9.542,0,0,0-13.491.238" transform="translate(-77.403 -22.558)" fill="#fdd7ae"/>
            <path id="Trazado_208334" data-name="Trazado 208334" d="M28.031,370.751a20.761,20.761,0,0,0-8.886-3.058,5.921,5.921,0,0,0-4.2.773.864.864,0,0,0-.433.767.932.932,0,0,0,.411.525,12.7,12.7,0,0,0,13.112.993" transform="translate(-3.352 -84.977)" fill="#75cdd6"/>
            <path id="Trazado_208335" data-name="Trazado 208335" d="M28.963,367.175a43.355,43.355,0,0,1-5.739-5.05,14.526,14.526,0,0,1-3.6-6.655,2.685,2.685,0,0,1,.284-2.227c4.575,3.573,8.169,8.194,9.054,13.932" transform="translate(-4.512 -81.652)" fill="#75cdd6"/>
            <path id="Trazado_208336" data-name="Trazado 208336" d="M31.949,367.51a20.766,20.766,0,0,1,.106-7.536,10.189,10.189,0,0,1,4.014-6.218,8.9,8.9,0,0,1-.106,5.908,28.717,28.717,0,0,1-3.98,8.38" transform="translate(-7.318 -81.771)" fill="#75cdd6"/>
            <path id="Trazado_208337" data-name="Trazado 208337" d="M34.5,382.1a13.131,13.131,0,0,0-7.126,3.607,13.482,13.482,0,0,0-4.076,7c2.67-.164,4.936-2.048,6.579-4.159s2.782-4.429,4.587-6.4" transform="translate(-5.386 -88.322)" fill="#75cdd6"/>
            <path id="Trazado_208338" data-name="Trazado 208338" d="M38.77,378.77a17.576,17.576,0,0,1,2.03-16.626,21.169,21.169,0,0,1-2.03,16.626" transform="translate(-8.678 -83.71)" fill="#75cdd6"/>
            <path id="Trazado_208339" data-name="Trazado 208339" d="M43.137,392.94a12.709,12.709,0,0,0-12.153,7c-.151.3-.283.684-.081.953a.9.9,0,0,0,.806.237c2.395-.155,4.518-1.6,6.269-3.237a60.117,60.117,0,0,1,5.214-4.955" transform="translate(-7.119 -90.823)" fill="#75cdd6"/>
            <path id="Trazado_208340" data-name="Trazado 208340" d="M46.294,387.384a22.633,22.633,0,0,1-.226-12.644c.446-1.628,1.193-3.341,2.7-4.1a.533.533,0,0,1,.413-.072.545.545,0,0,1,.261.3,7.619,7.619,0,0,1,.636,3.627,22.715,22.715,0,0,1-.568,3.672c-.474,2.244-.726,4.656-1.957,6.592a13.327,13.327,0,0,0-.783,1.448c-.233.492-.235.665-.448,1.056" transform="translate(-10.466 -85.652)" fill="#75cdd6"/>
            <path id="Trazado_208341" data-name="Trazado 208341" d="M66.871,391.3a16.3,16.3,0,0,1,2.857-13.4c.205-.267.477-.553.812-.521.514.047.647.73.624,1.246a24.219,24.219,0,0,1-4.292,12.68" transform="translate(-15.357 -87.23)" fill="#75cdd6"/>
            <path id="Trazado_208342" data-name="Trazado 208342" d="M68.841,395.351a19.5,19.5,0,0,0,16-3.254,12.957,12.957,0,0,0-8.661-1.063,12.359,12.359,0,0,0-7.338,4.317" transform="translate(-15.913 -90.315)" fill="#75cdd6"/>
            <path id="Trazado_208343" data-name="Trazado 208343" d="M70.393,390.392a18.491,18.491,0,0,1,14.52-8.4,8.943,8.943,0,0,1-4.749,5.251,26.362,26.362,0,0,1-6.97,2.038c-.927.181-2.2.378-2.8,1.107" transform="translate(-16.271 -88.298)" fill="#75cdd6"/>
            <path id="Trazado_208344" data-name="Trazado 208344" d="M66.764,369.253a42.153,42.153,0,0,0,1.857-8.5,14.154,14.154,0,0,0-1.694-8.411,18.516,18.516,0,0,0-.248,17.207" transform="translate(-14.95 -81.443)" fill="#75cdd6"/>
            <path id="Trazado_208345" data-name="Trazado 208345" d="M79.694,364.69c3.286-5.972,9.99-10.742,16.772-11.41-2.616,6.515-9.753,11.55-16.772,11.41" transform="translate(-18.421 -81.661)" fill="#75cdd6"/>
            <path id="Trazado_208346" data-name="Trazado 208346" d="M77.006,369.348c4.9.747,9.076,3.877,13.655,5.773a6.111,6.111,0,0,0,3.087.591,2.417,2.417,0,0,0,1.513-4.275,6.608,6.608,0,0,0-2.243-1.36,24.92,24.92,0,0,0-15.591-.869" transform="translate(-17.8 -85.149)" fill="#75cdd6"/>
            <path id="Trazado_208347" data-name="Trazado 208347" d="M73.317,374.042a5.779,5.779,0,0,1,2.367,1.64A25.547,25.547,0,0,0,86.038,381c.4.1.914.137,1.11-.22.171-.313-.045-.69-.268-.969a14.253,14.253,0,0,0-6.252-4.244c-2.39-.89-4.459-1.962-7.312-1.732" transform="translate(-16.947 -86.405)" fill="#75cdd6"/>
            <path id="Trazado_208348" data-name="Trazado 208348" d="M69.155,346.955a19.6,19.6,0,0,0,15.023,5.111,1.029,1.029,0,0,0,.684-.245c.378-.411-.075-1.046-.516-1.39a17.308,17.308,0,0,0-15.192-3.476" transform="translate(-15.985 -80.076)" fill="#75cdd6"/>
            <path id="Trazado_208349" data-name="Trazado 208349" d="M74.09,344.082a20.94,20.94,0,0,1,18.747-3.093A14.887,14.887,0,0,1,83.9,344.91a28.276,28.276,0,0,1-9.814-.829" transform="translate(-17.126 -78.592)" fill="#75cdd6"/>
            <path id="Trazado_208350" data-name="Trazado 208350" d="M71.368,328.915c-.434-4.409-.152-7.889-.458-12.318-.025-.354-.1-.78-.431-.907-.461-.178-.846.389-1,.86a14.117,14.117,0,0,0,1.88,12.269" transform="translate(-15.911 -72.964)" fill="#75cdd6"/>
            <path id="Trazado_208351" data-name="Trazado 208351" d="M71.716,329.368a25.936,25.936,0,0,0,7.3-7.1c1.442-1.974,2.659-4.338,2.33-6.76a6.989,6.989,0,0,0-5.268,2.616,14.713,14.713,0,0,0-2.686,5.4c-.584,1.94-.993,3.933-1.68,5.839" transform="translate(-16.577 -72.93)" fill="#75cdd6"/>
            <path id="Trazado_208352" data-name="Trazado 208352" d="M81.021,327.622a58.875,58.875,0,0,0,17.973-10.6c-2.147-.864-4.6-.347-6.751.519a21.29,21.29,0,0,0-11.315,10.031" transform="translate(-18.706 -73.178)" fill="#75cdd6"/>
            <path id="Trazado_208353" data-name="Trazado 208353" d="M74.34,335.109a36.523,36.523,0,0,0,9.98.048,42.33,42.33,0,0,0,9.317-3.1,1.094,1.094,0,0,0,.633-.481.728.728,0,0,0-.227-.8,1.917,1.917,0,0,0-.794-.372,17.255,17.255,0,0,0-10.069.6,46.752,46.752,0,0,0-8.839,4.1" transform="translate(-17.184 -76.259)" fill="#75cdd6"/>
            <path id="Trazado_208354" data-name="Trazado 208354" d="M49.2,342.917a17.654,17.654,0,0,1-.161-14.61,11.159,11.159,0,0,1,1.293,7.264c-.251,2.5-1.012,5.065-1.061,7.573" transform="translate(-10.988 -75.888)" fill="#75cdd6"/>
            <path id="Trazado_208355" data-name="Trazado 208355" d="M33.385,341.377a20.379,20.379,0,0,0-15.142,6.451,14.151,14.151,0,0,0,8.292-1.538,42.133,42.133,0,0,0,7.1-4.755" transform="translate(-4.217 -78.909)" fill="#75cdd6"/>
            <path id="Trazado_208356" data-name="Trazado 208356" d="M25.748,338.653c-2.765-.224-5.425-.567-8.084.248a9.694,9.694,0,0,0-6.161,5.224,14.609,14.609,0,0,0,7.579-1.431,43.619,43.619,0,0,0,6.666-4.041" transform="translate(-2.659 -78.218)" fill="#75cdd6"/>
            <path id="Trazado_208357" data-name="Trazado 208357" d="M36.866,337.578c-2.487-1.63-5.041-3.289-7.938-3.964s-6.252-.176-8.271,2.007c2.344,1.375,5.189,1.538,7.907,1.535s6.05-.032,8.613.874" transform="translate(-4.775 -77.05)" fill="#75cdd6"/>
            <path id="Trazado_208358" data-name="Trazado 208358" d="M40.307,333.8c-4.253-4.176-5.864-11.676-4.153-17.384A26.49,26.49,0,0,1,40.307,333.8" transform="translate(-8.201 -73.139)" fill="#75cdd6"/>
            <path id="Trazado_208359" data-name="Trazado 208359" d="M56.965,319.513c.8-1.864,1.366-3.821,2.085-5.719a16.443,16.443,0,0,1,2.973-5.272,7.833,7.833,0,0,1,5.267-2.729,21.209,21.209,0,0,1-10.221,13.75" transform="translate(-13.168 -70.684)" fill="#75cdd6"/>
            <path id="Trazado_208360" data-name="Trazado 208360" d="M50.907,324.591c-1.327-1.827-2.86-4.306-4.66-5.669a7.8,7.8,0,0,0-6.339-1.665,14.764,14.764,0,0,0,11,7.335" transform="translate(-9.225 -73.297)" fill="#75cdd6"/>
            <path id="Trazado_208361" data-name="Trazado 208361" d="M54.087,319.717a31.526,31.526,0,0,1-2.1-6.794,10.6,10.6,0,0,1,1.063-6.907c2.334,4.412,3.085,9.149,1.153,13.751" transform="translate(-11.982 -70.736)" fill="#75cdd6"/>
            <path id="Trazado_208362" data-name="Trazado 208362" d="M56.993,303.2c1.322-4.374,5.327-7.594,9.651-9.072a3.607,3.607,0,0,1,1.691-.254,1.468,1.468,0,0,1,1.247,1.041c.158.744-.457,1.411-1.035,1.905a32.844,32.844,0,0,1-11.555,6.38" transform="translate(-13.174 -67.924)" fill="#75cdd6"/>
            <path id="Trazado_208363" data-name="Trazado 208363" d="M57.035,296.944a31.272,31.272,0,0,1,1.261-8.353,10.556,10.556,0,0,1,5.257-6.348c.437,2.849-.82,5.682-2.335,8.133s-3.342,4.765-4.253,7.5" transform="translate(-13.168 -65.241)" fill="#75cdd6"/>
            <path id="Trazado_208364" data-name="Trazado 208364" d="M54.5,299.279c-1.093-3.188-1.206-7.236-3.115-10.013-1.334-1.941-3.471-3.264-4.621-5.32a8.092,8.092,0,0,0,.269,6.039,17.465,17.465,0,0,0,3.531,5.055c1.412,1.509,2.622,2.643,3.935,4.239" transform="translate(-10.702 -65.634)" fill="#75cdd6"/>
            <path id="Trazado_208365" data-name="Trazado 208365" d="M56.943,397.428c-.085,0-.158-21.265-.165-47.49s.058-47.494.143-47.494.158,21.26.165,47.494-.058,47.49-.143,47.49" transform="translate(-13.124 -69.91)" fill="#75cdd6"/>
            <path id="Trazado_208366" data-name="Trazado 208366" d="M75.568,343.135a4.5,4.5,0,0,1-.8.3l-2.2.743c-1.855.632-4.4,1.547-7.17,2.681-2.739,1.175-5.322,2.128-6.793,3.4a4.985,4.985,0,0,0-1.365,1.806c-.211.5-.249.8-.277.8-.011,0-.008-.078.008-.223a3.385,3.385,0,0,1,.157-.62,4.794,4.794,0,0,1,1.332-1.924,11.937,11.937,0,0,1,2.948-1.831c1.179-.55,2.486-1.124,3.873-1.694,2.775-1.137,5.343-2.023,7.219-2.6.937-.292,1.7-.508,2.233-.65a4.544,4.544,0,0,1,.834-.185" transform="translate(-13.166 -79.315)" fill="#75cdd6"/>
            <path id="Trazado_208367" data-name="Trazado 208367" d="M82.1,323.677a1.323,1.323,0,0,1-.224.239l-.683.641-2.547,2.314-8.479,7.549c-3.309,2.946-6.169,5.761-8.151,7.881-.993,1.059-1.775,1.935-2.307,2.547l-.617.7a1.27,1.27,0,0,1-.23.234,1.3,1.3,0,0,1,.182-.272c.128-.171.316-.426.572-.742.506-.637,1.265-1.538,2.24-2.618a107.3,107.3,0,0,1,8.107-7.962c3.321-2.939,6.343-5.58,8.54-7.482l2.612-2.241.72-.6a1.31,1.31,0,0,1,.265-.193" transform="translate(-13.606 -74.818)" fill="#75cdd6"/>
            <path id="Trazado_208368" data-name="Trazado 208368" d="M68.917,339.333c-.088-.038.6-1.635,1.293-3.654s1.022-3.723,1.111-3.708a12.481,12.481,0,0,1-.82,3.807,24.649,24.649,0,0,1-1.029,2.556,4.036,4.036,0,0,1-.554,1" transform="translate(-15.928 -76.735)" fill="#75cdd6"/>
            <path id="Trazado_208369" data-name="Trazado 208369" d="M53.313,353.619a3.81,3.81,0,0,1-.51-.592L51.5,351.351c-1.1-1.419-2.615-3.377-4.315-5.52s-3.265-4.066-4.4-5.457l-1.335-1.652a3.858,3.858,0,0,1-.461-.631,3.819,3.819,0,0,1,.552.554c.341.369.823.912,1.41,1.59,1.176,1.356,2.768,3.259,4.472,5.4s3.195,4.127,4.248,5.58c.527.727.947,1.319,1.229,1.735a3.887,3.887,0,0,1,.414.663" transform="translate(-9.474 -78.15)" fill="#75cdd6"/>
            <path id="Trazado_208370" data-name="Trazado 208370" d="M51.083,349.55a7.49,7.49,0,0,1-1.707-3.2,9.128,9.128,0,0,1-.388-3.222l.136.012c-.061.246-.105.376-.129.372s-.026-.141-.005-.394l.135.011a14.719,14.719,0,0,0,.545,3.135,23.8,23.8,0,0,0,1.412,3.283" transform="translate(-11.319 -79.313)" fill="#75cdd6"/>
            <path id="Trazado_208371" data-name="Trazado 208371" d="M42.11,342.484a5.46,5.46,0,0,0-1.192-.692,7.972,7.972,0,0,0-3.309-.264,20.448,20.448,0,0,0-3.332.538,10.1,10.1,0,0,1-1.371.329,4.753,4.753,0,0,1,1.313-.539,15.237,15.237,0,0,1,3.367-.634A7.215,7.215,0,0,1,41,341.59a2.11,2.11,0,0,1,1.11.894" transform="translate(-7.606 -78.864)" fill="#75cdd6"/>
            <path id="Trazado_208372" data-name="Trazado 208372" d="M39.368,340.2c-.023.048-.694-.278-1.826-.665a18.385,18.385,0,0,0-9.2-.7c-1.177.211-1.89.431-1.906.381a1.718,1.718,0,0,1,.484-.207,11.372,11.372,0,0,1,1.379-.387,16.232,16.232,0,0,1,9.318.71,11.366,11.366,0,0,1,1.3.591,1.741,1.741,0,0,1,.447.278" transform="translate(-6.11 -78.187)" fill="#75cdd6"/>
            <path id="Trazado_208373" data-name="Trazado 208373" d="M56.251,329.167a75.295,75.295,0,0,1-2.365-9.326,37.8,37.8,0,0,1,1.332,4.625,37.813,37.813,0,0,1,1.033,4.7" transform="translate(-12.454 -73.931)" fill="#75cdd6"/>
            <path id="Trazado_208374" data-name="Trazado 208374" d="M55.979,330.463a22.4,22.4,0,0,0-1.475-2.769,12.191,12.191,0,0,0-2.173-2.241,2.02,2.02,0,0,1,.839.432,6.757,6.757,0,0,1,1.585,1.633,6.135,6.135,0,0,1,1.224,2.945" transform="translate(-12.096 -75.227)" fill="#75cdd6"/>
            <path id="Trazado_208375" data-name="Trazado 208375" d="M51.136,401.909c-.033.005-.1-.511-.335-1.414a20.115,20.115,0,0,0-1.421-3.682,50.96,50.96,0,0,0-7.539-10.622c-1.684-1.923-3.317-3.737-4.7-5.474a38.439,38.439,0,0,1-3.363-4.85,23.282,23.282,0,0,1-1.7-3.6c-.156-.444-.271-.79-.333-1.029a1.732,1.732,0,0,1-.088-.368c.028-.008.182.487.533,1.353a26.237,26.237,0,0,0,1.773,3.532,40.746,40.746,0,0,0,3.4,4.782c1.392,1.719,3.027,3.523,4.714,5.45a48.288,48.288,0,0,1,7.5,10.729,18.366,18.366,0,0,1,1.342,3.747,10.528,10.528,0,0,1,.188,1.066,1.69,1.69,0,0,1,.031.377" transform="translate(-7.317 -85.727)" fill="#75cdd6"/>
            <path id="Trazado_208376" data-name="Trazado 208376" d="M73.785,386.571a7.83,7.83,0,0,1-.88.494,19.287,19.287,0,0,0-2.283,1.508,26.262,26.262,0,0,0-3,2.735c-1.052,1.111-2.136,2.4-3.242,3.785-2.211,2.776-4.28,5.23-5.519,7.191-.629.972-1.086,1.792-1.385,2.367a7.571,7.571,0,0,1-.484.886.834.834,0,0,1,.081-.25c.065-.158.155-.4.3-.69a22.557,22.557,0,0,1,1.309-2.43,79.379,79.379,0,0,1,5.463-7.267c1.109-1.385,2.206-2.679,3.278-3.789a24.351,24.351,0,0,1,3.072-2.713,16.038,16.038,0,0,1,2.357-1.441c.291-.147.53-.236.687-.3a.851.851,0,0,1,.248-.084" transform="translate(-13.174 -89.356)" fill="#75cdd6"/>
            <path id="Trazado_208377" data-name="Trazado 208377" d="M75.772,394.568a12.777,12.777,0,0,1-1.86.27,24.525,24.525,0,0,0-4.412.87,13.262,13.262,0,0,0-3.95,2.073c-.91.7-1.339,1.286-1.382,1.252a1.385,1.385,0,0,1,.275-.428,6.965,6.965,0,0,1,.97-.992,11.939,11.939,0,0,1,3.993-2.2,19.909,19.909,0,0,1,4.485-.793,10.26,10.26,0,0,1,1.881-.054" transform="translate(-14.832 -91.2)" fill="#75cdd6"/>
            <path id="Trazado_208378" data-name="Trazado 208378" d="M64.873,397.606c-.1-.055.741-1.336,1.392-3.058.61-1.738.753-3.262.863-3.245a2.969,2.969,0,0,1-.032,1,10.694,10.694,0,0,1-.542,2.351,11.385,11.385,0,0,1-1.079,2.157,3.007,3.007,0,0,1-.6.8" transform="translate(-14.994 -90.45)" fill="#75cdd6"/>
            <path id="Trazado_208379" data-name="Trazado 208379" d="M79.225,365.086a1.425,1.425,0,0,1-.3.158l-.874.4c-.383.164-.848.372-1.372.648s-1.139.551-1.777.934l-1.015.577c-.352.2-.7.443-1.07.674-.748.454-1.5,1.013-2.3,1.584a39.406,39.406,0,0,0-8.848,9.155c-.543.819-1.076,1.588-1.5,2.35-.219.378-.447.734-.637,1.093l-.542,1.033c-.361.651-.62,1.274-.873,1.808s-.45,1-.6,1.392l-.367.887a1.348,1.348,0,0,1-.148.3,1.408,1.408,0,0,1,.09-.324l.314-.91c.135-.4.311-.876.555-1.418s.485-1.176.837-1.838l.527-1.049c.186-.364.411-.726.626-1.109.421-.774.95-1.553,1.491-2.383a37.991,37.991,0,0,1,8.912-9.222c.81-.569,1.571-1.123,2.33-1.572.376-.228.73-.465,1.086-.664l1.031-.563c.649-.374,1.272-.641,1.808-.9s1.007-.455,1.4-.6l.9-.344a1.4,1.4,0,0,1,.321-.1" transform="translate(-13.176 -84.39)" fill="#75cdd6"/>
            <path id="Trazado_208380" data-name="Trazado 208380" d="M68.621,376a2.137,2.137,0,0,1,.73-1.088,4.613,4.613,0,0,1,2.945-1.13,8.043,8.043,0,0,1,3.1.606,4.405,4.405,0,0,1,1.172.569,7.218,7.218,0,0,1-1.243-.364,9.358,9.358,0,0,0-3.017-.5,4.79,4.79,0,0,0-2.812.987,8.72,8.72,0,0,0-.873.923" transform="translate(-15.861 -86.4)" fill="#75cdd6"/>
            <path id="Trazado_208381" data-name="Trazado 208381" d="M66.036,377.661a7.866,7.866,0,0,0,.649-5.56,1.816,1.816,0,0,1,.345.792,5.628,5.628,0,0,1-.476,4.076c-.259.47-.489.713-.518.691" transform="translate(-15.263 -86.012)" fill="#75cdd6"/>
            <path id="Trazado_208382" data-name="Trazado 208382" d="M37.891,415.2c.458,8.127,2.907,16.391,6.674,24.747h16.38A71.156,71.156,0,0,0,67.221,415.2Z" transform="translate(-8.759 -95.975)" fill="#75cdd6"/>
            <path id="Trazado_208383" data-name="Trazado 208383" d="M65.345,432.261c0,.085-5.393.154-12.044.154s-12.046-.069-12.046-.154,5.392-.154,12.046-.154,12.044.069,12.044.154" transform="translate(-9.536 -99.882)" fill="#75cdd6"/>
            <path id="Trazado_208384" data-name="Trazado 208384" d="M65.322,436.09c0,.085-5.056.154-11.291.154s-11.291-.068-11.291-.154,5.054-.154,11.291-.154,11.291.069,11.291.154" transform="translate(-9.879 -100.767)" fill="#75cdd6"/>
            <path id="Trazado_208385" data-name="Trazado 208385" d="M46.869,422.143a46.36,46.36,0,0,1,0,7.545,46.359,46.359,0,0,1,0-7.545" transform="translate(-10.798 -97.579)" fill="#75cdd6"/>
            <path id="Trazado_208386" data-name="Trazado 208386" d="M58.284,422.143a49.721,49.721,0,0,1,0,7.815,49.717,49.717,0,0,1,0-7.815" transform="translate(-13.437 -97.579)" fill="#75cdd6"/>
            <path id="Trazado_208387" data-name="Trazado 208387" d="M69,422.057a51.711,51.711,0,0,1,0,7.97,51.711,51.711,0,0,1,0-7.97" transform="translate(-15.914 -97.559)" fill="#75cdd6"/>
            <path id="Trazado_208388" data-name="Trazado 208388" d="M66.869,422.1c0,.085-6.325.154-14.126.154s-14.128-.069-14.128-.154,6.324-.154,14.128-.154,14.126.069,14.126.154" transform="translate(-8.926 -97.533)" fill="#75cdd6"/>
            <path id="Trazado_208389" data-name="Trazado 208389" d="M347.015,448.651c0,.111-77.688.2-173.5.2-95.845,0-173.516-.089-173.516-.2s77.671-.2,173.516-.2c95.811,0,173.5.089,173.5.2" transform="translate(0 -103.66)" fill="#1a2e35"/>
            <path id="Trazado_208390" data-name="Trazado 208390" d="M419.707,318.665c-5.194,2.691-9.178,7.323-12.042,12.425s-4.71,10.7-6.538,16.255L399.527,376c6.044-10.283,10.9-22.37,12.206-34.225l-4.023-.358a9.622,9.622,0,0,0,6.4-4.682,28.527,28.527,0,0,0,2.905-7.619l-4.908.73a18.186,18.186,0,0,0,7.6-11.183" transform="translate(-92.351 -73.66)" fill="#375a64"/>
            <path id="Trazado_208391" data-name="Trazado 208391" d="M419.707,318.665c-5.194,2.691-9.178,7.323-12.042,12.425s-4.71,10.7-6.538,16.255L399.527,376c6.044-10.283,10.9-22.37,12.206-34.225l-4.023-.358a9.622,9.622,0,0,0,6.4-4.682,28.527,28.527,0,0,0,2.905-7.619l-4.908.73a18.186,18.186,0,0,0,7.6-11.183" transform="translate(-92.351 -73.66)" fill="#75cdd6"/>
            <path id="Trazado_208392" data-name="Trazado 208392" d="M394.456,382.005s-13.119-15.7-12.967-30.692h5.3s-5.756-3.785-5.3-5.9.607-10.145.607-10.145l4.845,1.211s-3.634-1.817-4.089-4.694,1.06-16.2,1.06-16.2,5.9,6.208,7.722,12.568,6.586,13.779,5.185,33.16-2.363,20.7-2.363,20.7" transform="translate(-88.175 -72.946)" fill="#75cdd6"/>
            <path id="Trazado_208393" data-name="Trazado 208393" d="M407.011,388.628s14.213-9.468,17.371-21.553l-4.261-1.159s5.456-1.784,5.553-3.588,1.731-8.288,1.731-8.288l-4.16-.087s3.319-.665,4.314-2.879,2.693-13.257,2.693-13.257-6.106,3.7-8.958,8.414-8.31,9.636-11.424,25.524-2.859,16.873-2.859,16.873" transform="translate(-94.08 -78.086)" fill="#75cdd6"/>
            <path id="Trazado_208394" data-name="Trazado 208394" d="M389.309,333.386a.9.9,0,0,1,.047.163l.114.483c.1.441.238,1.066.416,1.864s.393,1.8.622,2.956.506,2.468.772,3.927c.561,2.911,1.154,6.392,1.764,10.264.591,3.876,1.182,8.145,1.707,12.639s.914,8.789,1.222,12.7c.289,3.91.507,7.434.624,10.4.074,1.481.108,2.822.145,4s.061,2.191.068,3.02.015,1.458.021,1.909c0,.208,0,.373,0,.5a.911.911,0,0,1-.008.169.8.8,0,0,1-.016-.169c-.006-.124-.014-.288-.023-.5-.015-.45-.038-1.09-.065-1.908s-.056-1.841-.11-3.017-.1-2.516-.18-4c-.139-2.96-.374-6.481-.675-10.388-.321-3.9-.727-8.194-1.24-12.688s-1.108-8.758-1.687-12.633c-.6-3.872-1.173-7.353-1.713-10.267-.255-1.46-.515-2.775-.736-3.931s-.414-2.151-.582-2.963l-.371-1.872c-.038-.205-.068-.367-.091-.488a.925.925,0,0,1-.023-.168" transform="translate(-89.989 -77.062)" fill="#1a2e35"/>
            <path id="Trazado_208395" data-name="Trazado 208395" d="M387.907,403.468s-12.006-13.622-15.733-21.856l2.814-1.2a7.3,7.3,0,0,1-5.711-1.871,21.6,21.6,0,0,1-3.883-4.808l3.707-.626a13.787,13.787,0,0,1-8.1-6.275,23.044,23.044,0,0,1,11.593,6.125,57.773,57.773,0,0,1,7.026,8.14,27.786,27.786,0,0,1,2.728,4.486c2.017,4.17,5.565,12.884,5.558,17.887" transform="translate(-83.446 -84.793)" fill="#75cdd6"/>
            <path id="Trazado_208396" data-name="Trazado 208396" d="M423.615,348.128a.692.692,0,0,1-.055.138l-.185.4-.731,1.511c-.644,1.308-1.555,3.21-2.659,5.571s-2.38,5.188-3.75,8.35-2.8,6.668-4.24,10.374-2.716,7.275-3.843,10.532-2.076,6.211-2.843,8.7-1.377,4.51-1.78,5.91l-.475,1.61-.13.417a.67.67,0,0,1-.051.14.616.616,0,0,1,.028-.146c.027-.108.062-.248.106-.424l.432-1.622c.376-1.409.956-3.438,1.708-5.935s1.692-5.456,2.8-8.723,2.4-6.832,3.827-10.546,2.892-7.212,4.262-10.376,2.672-5.984,3.8-8.335,2.059-4.244,2.729-5.54l.772-1.491.206-.385a.66.66,0,0,1,.078-.128" transform="translate(-93.124 -80.47)" fill="#1a2e35"/>
            <path id="Trazado_208397" data-name="Trazado 208397" d="M394.678,415.074a1.022,1.022,0,0,1-.057-.251c-.032-.191-.07-.431-.117-.723-.046-.314-.1-.7-.188-1.142s-.158-.952-.279-1.507c-.215-1.116-.524-2.433-.917-3.88s-.9-3.018-1.511-4.64-1.282-3.13-1.933-4.482-1.3-2.539-1.877-3.518c-.276-.5-.554-.929-.787-1.316s-.441-.715-.614-.981l-.39-.62a1,1,0,0,1-.123-.226,1.044,1.044,0,0,1,.162.2l.428.6c.186.259.408.58.65.961s.532.809.819,1.3c.6.971,1.253,2.16,1.929,3.507s1.34,2.869,1.96,4.495,1.1,3.213,1.5,4.667.676,2.784.87,3.907c.111.559.177,1.07.245,1.518s.115.833.147,1.151l.072.73a1.029,1.029,0,0,1,.009.256" transform="translate(-89.198 -90.562)" fill="#1a2e35"/>
            <rect id="Rectángulo_299386" data-name="Rectángulo 299386" width="26.275" height="5.36" transform="translate(295.046 321.308)" fill="#ff735d"/>
            <path id="Trazado_208398" data-name="Trazado 208398" d="M387.006,424.879l2.842,18.029h15.878l2.649-18.029Z" transform="translate(-89.457 -98.211)" fill="#ff735d"/>
            <path id="Trazado_208399" data-name="Trazado 208399" d="M409.153,424.843c0,.066-4.971.12-11.1.12s-11.1-.054-11.1-.12,4.97-.12,11.1-.12,11.1.054,11.1.12" transform="translate(-89.444 -98.175)" fill="#1a2e35"/>
            <path id="Trazado_208400" data-name="Trazado 208400" d="M376,217.194l4.6-.026a14.687,14.687,0,1,0-2.463-4.65l0-.007Z" transform="translate(-86.913 -44.709)" fill="#fff"/>
            <path id="Trazado_208401" data-name="Trazado 208401" d="M376,217.169s.053-.106.148-.309.237-.505.419-.9l1.606-3.459-.08.005,0,.007a.046.046,0,0,0,.063.015.047.047,0,0,0,.018-.053,14.659,14.659,0,0,1-.393-7.213,14.309,14.309,0,0,1,.609-2.177,16.5,16.5,0,0,1,1.026-2.189,14.562,14.562,0,0,1,27.234,6.872,14.834,14.834,0,0,1-1.405,6.553,14.351,14.351,0,0,1-3.889,4.971,14.622,14.622,0,0,1-10.449,3.287l-.623-.062a3.9,3.9,0,0,1-.608-.087l-1.178-.237a20.379,20.379,0,0,1-2.154-.73,14.613,14.613,0,0,1-5.717-4.352.044.044,0,0,0-.035-.016l-3.406.046-.886.015c-.2,0-.307.008-.307.008s.094,0,.288.005l.873,0,3.438.008-.035-.017a14.608,14.608,0,0,0,5.732,4.423,20.423,20.423,0,0,0,2.172.747l1.189.244a4.08,4.08,0,0,0,.614.09l.629.065a14.756,14.756,0,0,0,10.581-3.3,14.522,14.522,0,0,0,3.948-5.031,15.011,15.011,0,0,0,1.431-6.642,14.66,14.66,0,0,0-1.851-6.867,6.563,6.563,0,0,0-.459-.766l-.488-.745-.552-.693a6.187,6.187,0,0,0-.577-.666l-.612-.63c-.2-.215-.437-.384-.654-.577s-.436-.383-.67-.552l-.711-.49a14.537,14.537,0,0,0-6.232-2.347,14.717,14.717,0,0,0-14.77,7.388,16.583,16.583,0,0,0-1.029,2.216,14.336,14.336,0,0,0-.6,2.2,14.658,14.658,0,0,0,.441,7.267l.082-.038,0-.007a.046.046,0,0,0-.062-.015.055.055,0,0,0-.018.02l-1.568,3.513c-.173.389-.3.686-.4.893s-.127.3-.127.3" transform="translate(-86.913 -44.684)" fill="#1a2e35"/>
            <path id="Trazado_208402" data-name="Trazado 208402" d="M387.245,211.463l2.047-2.265,4.345,3.488,6.453-7.411,2.111,2.055-8.663,9.53Z" transform="translate(-89.512 -47.45)" fill="#ff735d"/>
            <rect id="Rectángulo_299387" data-name="Rectángulo 299387" width="84.635" height="71.136" transform="translate(64.587 6.807) rotate(-4.613)" fill="#f40b74"/>
            <g id="Grupo_150602" data-name="Grupo 150602" transform="translate(64.577 4.729)" opacity="0.3">
              <g id="Grupo_150601" data-name="Grupo 150601">
                <g id="Grupo_150600" data-name="Grupo 150600" clip-path="url(#clip-path-3)">
                  <rect id="Rectángulo_299388" data-name="Rectángulo 299388" width="26.153" height="71.136" transform="translate(0 2.104) rotate(-4.614)"/>
                </g>
              </g>
            </g>
            <path id="Trazado_208403" data-name="Trazado 208403" d="M123.639,77.706c-.11.009-1.464-15.375-3.023-34.356s-2.735-34.383-2.625-34.392,1.464,15.372,3.024,34.359,2.734,34.38,2.624,34.389" transform="translate(-27.272 -2.071)" fill="#1a2e35"/>
            <g id="Grupo_150605" data-name="Grupo 150605" transform="translate(105.675 22.292)" opacity="0.3">
              <g id="Grupo_150604" data-name="Grupo 150604">
                <g id="Grupo_150603" data-name="Grupo 150603" clip-path="url(#clip-path-4)">
                  <path id="Trazado_208404" data-name="Trazado 208404" d="M168.06,46.53a7.948,7.948,0,0,1,1.967,4.828,7.463,7.463,0,0,1-2.882,6.819q-3.226,2.579-9.676,3.1L140.05,62.683l-2.6-32.259,16.5-1.332q6.175-.5,9.585,1.523a7.182,7.182,0,0,1,3.721,5.892,7.688,7.688,0,0,1-.8,4.216,7.914,7.914,0,0,1-2.971,3.138,9.08,9.08,0,0,1,4.576,2.668m-21.05-10.243.5,6.22L153.779,42q4.608-.373,4.356-3.507-.249-3.086-4.858-2.714Zm13.718,14.8q-.264-3.271-5.058-2.885l-7.649.617.528,6.544,7.649-.617q4.793-.386,4.529-3.659" transform="translate(-137.446 -28.994)"/>
                </g>
              </g>
            </g>
            <path id="Trazado_208405" data-name="Trazado 208405" d="M171.727,46.235a7.95,7.95,0,0,1,1.967,4.828,7.462,7.462,0,0,1-2.883,6.819q-3.225,2.58-9.675,3.1l-17.419,1.405-2.6-32.259,16.5-1.331q6.175-.5,9.584,1.522a7.184,7.184,0,0,1,3.722,5.892,7.688,7.688,0,0,1-.8,4.216,7.918,7.918,0,0,1-2.97,3.138,9.081,9.081,0,0,1,4.575,2.668m-21.05-10.243.5,6.22,6.268-.505q4.607-.373,4.355-3.506-.248-3.087-4.857-2.715Zm13.719,14.8q-.264-3.271-5.057-2.885l-7.649.617.528,6.544,7.649-.617q4.793-.386,4.529-3.659" transform="translate(-32.619 -6.634)" fill="#fff"/>
            <path id="Trazado_208406" data-name="Trazado 208406" d="M145.14,393.677,145,210.3h-5.454c.352,1.256,0,183.378,0,183.378Z" transform="translate(-32.255 -48.611)" fill="#e1e1e1"/>
            <path id="Trazado_208407" data-name="Trazado 208407" d="M145.08,393.617s-.433.012-1.353.019l-4.245.028h-.047v-.047c0-9.705,0-33.217-.008-65.457.005-16.13.012-34.441.018-54.294,0-9.927-.007-20.239-.011-30.857q-.012-7.963-.024-16.146-.014-4.088-.028-8.225-.014-2.068-.029-4.147l-.017-2.079-.046-2.04c0-.028,0-.055,0-.08l-.005-.254h5.852v.2c.008,50.957.015,96.823.02,129.961-.013,16.542-.023,29.9-.03,39.14-.009,4.6-.016,8.174-.021,10.6-.005,1.2-.009,2.121-.012,2.748s-.014.926-.014.926-.01-.328-.015-.955-.008-1.56-.016-2.775c-.008-2.44-.021-6.029-.037-10.65-.022-9.247-.053-22.625-.091-39.187-.047-33.1-.112-78.913-.185-129.812l.2.2h-5.453l.192-.254c0,.026,0,.055,0,.083l.06,2.135.017,2.084q.014,2.081.029,4.149.013,4.137.026,8.227.009,8.178.019,16.146c0,10.619,0,20.93-.007,30.858-.029,19.852-.057,38.164-.081,54.294-.1,32.24-.181,55.752-.212,65.457l-.046-.047,4.218.028c.924.008,1.38.019,1.38.019" transform="translate(-32.196 -48.55)" fill="#1a2e35"/>
            <path id="Trazado_208408" data-name="Trazado 208408" d="M130.916,160.008,59.054,381.977h6.434l71.864-220.158Z" transform="translate(-13.65 -36.986)" fill="#e1e1e1"/>
            <path id="Trazado_208409" data-name="Trazado 208409" d="M130.832,160.008s.507.131,1.569.421l4.879,1.346.045.013-.015.045C129.855,184.73,100.586,274.6,65.6,382.039l-.045.138H58.7l.085-.262L109.764,224.7,125.171,177.3c1.819-5.576,3.231-9.9,4.189-12.845l1.093-3.329c.247-.748.378-1.122.378-1.122s-.118.4-.359,1.157-.6,1.889-1.074,3.364l-4.148,12.907-15.3,47.474C96.989,265,79.06,320.473,59.162,382.039l-.191-.261H65.4l-.19.138c35.133-107.391,64.523-197.223,72.01-220.109l.031.058-4.84-1.389c-1.062-.308-1.584-.466-1.584-.466" transform="translate(-13.568 -36.986)" fill="#1a2e35"/>
            <rect id="Rectángulo_299391" data-name="Rectángulo 299391" width="53.969" height="5.872" transform="translate(75.077 257.443)" fill="#e1e1e1"/>
            <path id="Trazado_208410" data-name="Trazado 208410" d="M151.557,340.648s-.011-.138-.017-.4c0-.274-.012-.648-.02-1.132-.012-1.006-.028-2.46-.048-4.345l.085.086c-9.422.068-30.058.115-53.966.115h0c.088-.089-.2.2.2-.2v2.987c0,.983,0,1.948,0,2.885l-.2-.2,38.291.085,11.463.059,3.114.028.815.013a2.452,2.452,0,0,1,.286.014,1.7,1.7,0,0,1-.259.014l-.789.013-3.068.028-11.417.059-38.436.085h-.2v-.2c0-.936,0-1.9,0-2.885v-2.987c.4-.4.111-.111.2-.2h0c23.907,0,44.543.047,53.966.115h.086v.085c-.021,1.906-.037,3.377-.048,4.395-.008.474-.015.843-.02,1.113a2.962,2.962,0,0,1-.017.364" transform="translate(-22.511 -77.333)" fill="#1a2e35"/>
            <g id="Grupo_150608" data-name="Grupo 150608" transform="translate(117.3 257.443)" opacity="0.3">
              <g id="Grupo_150607" data-name="Grupo 150607">
                <g id="Grupo_150606" data-name="Grupo 150606" clip-path="url(#clip-path-5)">
                  <rect id="Rectángulo_299392" data-name="Rectángulo 299392" width="11.745" height="5.872"/>
                </g>
              </g>
            </g>
            <rect id="Rectángulo_299394" data-name="Rectángulo 299394" width="53.969" height="5.872" transform="translate(61.835 294.595)" fill="#e1e1e1"/>
            <path id="Trazado_208411" data-name="Trazado 208411" d="M134.334,388.97s-.011-.138-.017-.4c0-.274-.012-.648-.02-1.132-.012-1.006-.028-2.46-.048-4.345l.085.086c-9.422.068-30.058.115-53.966.115h0c.088-.089-.2.2.2-.2v2.987c0,.983,0,1.948,0,2.885l-.2-.2,38.291.085,11.463.059,3.114.028.815.013a2.46,2.46,0,0,1,.286.014,1.7,1.7,0,0,1-.259.014l-.789.013-3.068.028-11.417.059-38.435.085h-.2v-.2c0-.936,0-1.9,0-2.885V383.1c.4-.4.111-.111.2-.2h0c23.907,0,44.543.047,53.966.115h.086v.085c-.021,1.906-.037,3.377-.048,4.395-.008.474-.015.843-.02,1.113a2.955,2.955,0,0,1-.017.364" transform="translate(-18.53 -88.503)" fill="#1a2e35"/>
            <rect id="Rectángulo_299395" data-name="Rectángulo 299395" width="53.969" height="5.872" transform="translate(53.423 326.458)" fill="#e1e1e1"/>
            <path id="Trazado_208412" data-name="Trazado 208412" d="M123.393,430.412s-.011-.139-.017-.4c0-.274-.012-.649-.02-1.132-.012-1.006-.028-2.46-.048-4.345l.085.085c-9.422.068-30.058.115-53.966.115h0c.088-.089-.2.2.2-.2v2.987c0,.983,0,1.948,0,2.885l-.2-.2,38.291.085,11.463.059,3.114.027.815.014a2.443,2.443,0,0,1,.286.014,1.7,1.7,0,0,1-.259.014l-.789.013-3.068.028-11.417.059-38.436.085h-.2v-.2c0-.936,0-1.9,0-2.885V424.54c.4-.4.111-.111.2-.2h0c23.907,0,44.543.047,53.966.115h.086v.085c-.021,1.906-.037,3.377-.048,4.395-.008.474-.015.843-.02,1.113a2.977,2.977,0,0,1-.017.364" transform="translate(-16.001 -98.082)" fill="#1a2e35"/>
            <path id="Trazado_208413" data-name="Trazado 208413" d="M113.289,292.449h64.445v5.872H113.289" transform="translate(-26.187 -67.6)" fill="#e1e1e1"/>
            <path id="Trazado_208414" data-name="Trazado 208414" d="M113.289,298.26a2.077,2.077,0,0,1,.33-.02l.967-.019,3.727-.037,13.743-.062,45.678-.062-.2.2c0-.929,0-1.928,0-2.932s0-2.008,0-2.939l.2.2-45.682-.061-13.741-.063-3.725-.037-.968-.019a1.967,1.967,0,0,1-.329-.02,2.208,2.208,0,0,1,.329-.02l.968-.019,3.725-.037,13.741-.062,45.682-.062h.2v6.272h-.2l-45.678-.062-13.743-.062-3.727-.037-.967-.019a2.093,2.093,0,0,1-.33-.02" transform="translate(-26.187 -67.54)" fill="#1a2e35"/>
            <g id="Grupo_150611" data-name="Grupo 150611" transform="translate(125.024 224.849)" opacity="0.3">
              <g id="Grupo_150610" data-name="Grupo 150610">
                <g id="Grupo_150609" data-name="Grupo 150609" clip-path="url(#clip-path-6)">
                  <rect id="Rectángulo_299396" data-name="Rectángulo 299396" width="26.719" height="5.66" transform="translate(0 -0.001)"/>
                </g>
              </g>
            </g>
            <g id="Grupo_150614" data-name="Grupo 150614" transform="translate(103.083 294.596)" opacity="0.3">
              <g id="Grupo_150613" data-name="Grupo 150613">
                <g id="Grupo_150612" data-name="Grupo 150612" clip-path="url(#clip-path-7)">
                  <rect id="Rectángulo_299398" data-name="Rectángulo 299398" width="12.721" height="5.872" transform="translate(0.001 0)"/>
                </g>
              </g>
            </g>
            <g id="Grupo_150617" data-name="Grupo 150617" transform="translate(90.901 326.458)" opacity="0.3">
              <g id="Grupo_150616" data-name="Grupo 150616">
                <g id="Grupo_150615" data-name="Grupo 150615" clip-path="url(#clip-path-8)">
                  <rect id="Rectángulo_299400" data-name="Rectángulo 299400" width="16.385" height="5.872" transform="translate(0 0)"/>
                </g>
              </g>
            </g>
            <path id="Trazado_208415" data-name="Trazado 208415" d="M151.157,157.212s4.451-8.218,13.029-10.586a49.433,49.433,0,0,1,16.9-1.008c4.013.878,6.146,5.119,3.516,13.1L118.775,377.37h6.686l66.447-220.195c.77-2.532,4.045-16.919-12.182-17.09-9.032-.1-16.323.63-22.31,3.265-6.534,2.875-11.013,7.522-13.1,13.23" transform="translate(-27.455 -32.379)" fill="#e1e1e1"/>
            <path id="Trazado_208416" data-name="Trazado 208416" d="M144.23,156.55s.157-.485.554-1.4a19.922,19.922,0,0,1,2.2-3.821,23.64,23.64,0,0,1,2.094-2.488,25.526,25.526,0,0,1,2.972-2.565,29.019,29.019,0,0,1,8.755-4.316,51.131,51.131,0,0,1,12.1-1.888q3.359-.173,7.011-.114a16.8,16.8,0,0,1,7.375,1.615,9.812,9.812,0,0,1,3.121,2.512,10.3,10.3,0,0,1,1.847,3.707,17.742,17.742,0,0,1-.095,8.612c-1.666,5.7-3.5,11.687-5.39,17.995L127.39,371.369c-.623,2.066-1.245,4.126-1.819,6.029l-.043.142h-7.1l.078-.257L175.369,188.6q2.718-9,5.166-17.11l2.376-7.864q.575-1.906,1.133-3.751c.352-1.237.783-2.425,1.043-3.635a12.561,12.561,0,0,0-.044-7.027,5.569,5.569,0,0,0-1.967-2.628,6.054,6.054,0,0,0-3-1.041,54.684,54.684,0,0,0-11.579.269,30.167,30.167,0,0,0-4.821.991,19.244,19.244,0,0,0-3.957,1.711,24.25,24.25,0,0,0-5.265,4.229,27.129,27.129,0,0,0-2.613,3.241c-.53.776-.769,1.194-.769,1.194a13.1,13.1,0,0,1,.736-1.216,26,26,0,0,1,2.589-3.273,24.165,24.165,0,0,1,5.264-4.276,19.338,19.338,0,0,1,3.976-1.739,30.291,30.291,0,0,1,4.84-1.013,54.646,54.646,0,0,1,11.62-.3,6.233,6.233,0,0,1,3.088,1.066,5.765,5.765,0,0,1,2.044,2.715,12.758,12.758,0,0,1,.068,7.148c-.26,1.222-.69,2.418-1.04,3.654l-1.126,3.754q-1.145,3.814-2.361,7.868l-5.139,17.118L118.885,377.4l-.191-.257h6.686l-.192.142c.575-1.9,1.2-3.963,1.82-6.029,23.229-76.9,44.262-146.526,59.489-196.932,1.894-6.3,3.745-12.3,5.414-17.974a17.518,17.518,0,0,0,.111-8.488,10.059,10.059,0,0,0-1.8-3.624,9.578,9.578,0,0,0-3.043-2.459,16.6,16.6,0,0,0-7.276-1.605c-2.426-.046-4.763-.012-7,.1a51.032,51.032,0,0,0-12.062,1.847,28.949,28.949,0,0,0-8.73,4.262,25.467,25.467,0,0,0-2.971,2.539,23.977,23.977,0,0,0-2.1,2.466,20.414,20.414,0,0,0-2.223,3.79c-.221.445-.339.8-.442,1.032s-.149.348-.149.348" transform="translate(-27.374 -32.349)" fill="#1a2e35"/>
            <path id="Trazado_208417" data-name="Trazado 208417" d="M195.426,392.79,195.281,210.3h-5.455c.353,1.25,0,182.492,0,182.492Z" transform="translate(-43.878 -48.611)" fill="#e1e1e1"/>
            <path id="Trazado_208418" data-name="Trazado 208418" d="M120.589,304.058l-.519,15.179s15.254,5.625,15.431,8.439l-29.466.051-.093-13.666Z" transform="translate(-24.489 -70.283)" fill="#1a2e35"/>
            <path id="Trazado_208419" data-name="Trazado 208419" d="M112.207,322.145a1.2,1.2,0,0,0-.83,1.375,1.157,1.157,0,0,0,1.355.834,1.268,1.268,0,0,0,.87-1.46,1.2,1.2,0,0,0-1.506-.712" transform="translate(-25.739 -74.452)" fill="#e1e1e1"/>
            <path id="Trazado_208420" data-name="Trazado 208420" d="M106.063,334.124l.077-2.388,28.223.844s1.313.569,1.166,1.493Z" transform="translate(-24.517 -76.681)" fill="#375a64"/>
            <path id="Trazado_208421" data-name="Trazado 208421" d="M124.132,323.563c0,.144-.723.211-1.431.674-.72.445-1.083,1.069-1.216,1.013-.133-.028.08-.888.946-1.435s1.731-.384,1.7-.252" transform="translate(-28.073 -74.761)" fill="#fff"/>
            <path id="Trazado_208422" data-name="Trazado 208422" d="M128.375,325.242c.033.139-.59.385-1.077.995-.506.594-.627,1.253-.771,1.246-.135.024-.236-.819.384-1.565s1.461-.813,1.464-.676" transform="translate(-29.223 -75.166)" fill="#fff"/>
            <path id="Trazado_208423" data-name="Trazado 208423" d="M131.2,329.319c-.131.031-.333-.688.035-1.476s1.04-1.1,1.1-.984c.083.118-.354.542-.647,1.194-.308.645-.348,1.252-.49,1.266" transform="translate(-30.287 -75.548)" fill="#fff"/>
            <path id="Trazado_208424" data-name="Trazado 208424" d="M123.672,318.932c-.06.132-.72-.066-1.534-.009-.814.04-1.447.314-1.522.191-.084-.1.534-.637,1.492-.691s1.633.4,1.563.51" transform="translate(-27.879 -73.602)" fill="#fff"/>
            <path id="Trazado_208425" data-name="Trazado 208425" d="M135.783,265.171l-.93,14.536s14.462,5.828,14.552,8.531l-28.249-.792.521-22.709Z" transform="translate(-28.005 -61.194)" fill="#1a2e35"/>
            <path id="Trazado_208426" data-name="Trazado 208426" d="M127.4,282.285a1.154,1.154,0,0,0-.834,1.294,1.109,1.109,0,0,0,1.276.839,1.218,1.218,0,0,0,.876-1.375,1.151,1.151,0,0,0-1.424-.725" transform="translate(-29.251 -65.241)" fill="#e1e1e1"/>
            <path id="Trazado_208427" data-name="Trazado 208427" d="M121.156,293.585l.142-2.287,27.032,1.615s1.242.582,1.075,1.464Z" transform="translate(-28.005 -67.334)" fill="#375a64"/>
            <path id="Trazado_208428" data-name="Trazado 208428" d="M138.785,283.995c-.008.138-.7.181-1.391.606-.7.406-1.069.994-1.195.936-.126-.03.1-.849.949-1.349s1.671-.318,1.637-.193" transform="translate(-31.475 -65.613)" fill="#fff"/>
            <path id="Trazado_208429" data-name="Trazado 208429" d="M142.8,285.721c.028.135-.576.352-1.061.923-.5.556-.637,1.184-.775,1.173-.13.018-.2-.792.414-1.49s1.423-.737,1.422-.606" transform="translate(-32.564 -66.031)" fill="#fff"/>
            <path id="Trazado_208430" data-name="Trazado 208430" d="M145.394,289.706c-.126.025-.3-.669.077-1.414s1.029-1.029,1.084-.912c.075.115-.355.509-.654,1.126s-.369,1.189-.507,1.2" transform="translate(-33.573 -66.422)" fill="#fff"/>
            <path id="Trazado_208431" data-name="Trazado 208431" d="M138.485,279.536c-.062.124-.689-.084-1.47-.052-.782.015-1.4.259-1.465.139-.077-.1.53-.6,1.451-.62s1.555.427,1.484.533" transform="translate(-31.331 -64.492)" fill="#fff"/>
            <path id="Trazado_208432" data-name="Trazado 208432" d="M132.319,181.763c.388.6-.776,52.126-.97,57.3s-10.762,45.506-10.762,45.506l-17.721-1.2s5.4-40.332,5.786-41.923a43.022,43.022,0,0,0,.582-6.167c0-.6-5.37-40.632-5.37-40.632s-6.138-9.58-6.72-12.365.321-18.884.321-18.884l32.914,4.436Z" transform="translate(-22.41 -37.77)" fill="#1a2e35"/>
            <path id="Trazado_208433" data-name="Trazado 208433" d="M151.744,207.676a13.037,13.037,0,0,0-1.335-5.756c-1.967-4-7.712-14.84-9.5-17.379-2.522-3.581-7.489-13.822-7.489-13.822l-16.3,11.738L128.972,211.7l-7.8,40.375,17.375,3.451,12.633-44.051a13.091,13.091,0,0,0,.564-3.8" transform="translate(-27.074 -39.462)" fill="#1a2e35"/>
            <path id="Trazado_208434" data-name="Trazado 208434" d="M141.333,191.788a1.176,1.176,0,0,0-.027.26c-.01.191-.023.444-.039.763-.027.7-.065,1.679-.113,2.935-.086,2.573-.208,6.255-.359,10.8-.151,4.565-.331,9.989-.529,16.01-.111,3.013-.227,6.175-.347,9.452-.149,3.271-.24,6.684-.548,10.12-.628,3.4-1.46,6.707-2.2,9.9-.767,3.189-1.508,6.265-2.214,9.2-1.43,5.852-2.721,11.124-3.806,15.561l-2.565,10.491c-.291,1.222-.521,2.18-.682,2.856-.069.312-.126.558-.168.745a1.45,1.45,0,0,0-.045.258,1.2,1.2,0,0,0,.083-.248c.052-.185.12-.428.205-.736.178-.672.431-1.624.753-2.839.64-2.493,1.554-6.062,2.683-10.462,1.109-4.431,2.425-9.7,3.887-15.542.713-2.931,1.461-6.006,2.237-9.194.744-3.2,1.575-6.483,2.213-9.934.313-3.492.4-6.877.544-10.158.111-3.278.22-6.441.323-9.455.169-6.022.32-11.448.447-16.014.1-4.542.181-8.225.236-10.8.018-1.256.032-2.241.041-2.936,0-.32,0-.572,0-.764a1.475,1.475,0,0,0-.013-.261" transform="translate(-29.516 -44.332)" fill="#375a64"/>
            <path id="Trazado_208435" data-name="Trazado 208435" d="M129.2,117.778c1.663,1.849,15.711,17.6,15.711,17.6l20.442.693.764,7.419s-19.546,4.856-24.592,4.73-8.315-4.721-8.315-4.721l-9.748-13.324Z" transform="translate(-28.538 -27.225)" fill="#ffc09d"/>
            <path id="Trazado_208436" data-name="Trazado 208436" d="M127.636,58.493a3.5,3.5,0,0,0-1.756-1.674c-7.42-3.008-15.893-2.565-23.5-.095-1.977.642-4.087,1.572-4.989,3.461l-.009.125a3.817,3.817,0,0,0,1.226,3.64,8.033,8.033,0,0,0,3.444,1.6c5.886,1.515,12.1.963,18.08-.1a19.489,19.489,0,0,0,4.129-1.082,7.5,7.5,0,0,0,3.358-2.574,3.033,3.033,0,0,0,.019-3.3" transform="translate(-22.484 -12.648)" fill="#375a64"/>
            <g id="Grupo_150620" data-name="Grupo 150620" transform="translate(74.786 42.068)" opacity="0.3">
              <g id="Grupo_150619" data-name="Grupo 150619">
                <g id="Grupo_150618" data-name="Grupo 150618" clip-path="url(#clip-path-9)">
                  <path id="Trazado_208437" data-name="Trazado 208437" d="M127.636,58.493a3.5,3.5,0,0,0-1.756-1.674c-7.42-3.008-15.893-2.565-23.5-.095-1.977.642-4.087,1.572-4.989,3.461l-.009.125a3.817,3.817,0,0,0,1.226,3.64,8.033,8.033,0,0,0,3.444,1.6c5.886,1.515,12.1.963,18.08-.1a19.489,19.489,0,0,0,4.129-1.082,7.5,7.5,0,0,0,3.358-2.574,3.033,3.033,0,0,0,.019-3.3" transform="translate(-97.27 -54.716)"/>
                </g>
              </g>
            </g>
            <path id="Trazado_208438" data-name="Trazado 208438" d="M103.53,70.324a46.877,46.877,0,0,1-2.146-7.8,16.378,16.378,0,0,1,.533-8c.138-.386,1.319-2.976,1.726-2.942.292.025-.424,2.436-.274,2.687a13.888,13.888,0,0,1,1.672,8.077,36.538,36.538,0,0,1-1.512,7.979" transform="translate(-23.376 -11.923)" fill="#1a2e35"/>
            <path id="Trazado_208439" data-name="Trazado 208439" d="M126.1,57.661a12.108,12.108,0,0,0-11.617-11.606l-.627-.025c-6.772.125-10.449,5.946-10.137,12.711l.41,21.859,15.943,5.508-.6-3.984s0-1.737.013-1.738,6.535-.75,6.876-7.24c.164-3.135-.024-9.62-.261-15.485" transform="translate(-23.97 -10.64)" fill="#ffc09d"/>
            <path id="Trazado_208440" data-name="Trazado 208440" d="M121.717,89.864a15.7,15.7,0,0,1-8.355-2.838s1.839,4.9,8.342,4.575Z" transform="translate(-26.204 -20.116)" fill="#ff9b6c"/>
            <path id="Trazado_208441" data-name="Trazado 208441" d="M129.5,68.406a.929.929,0,0,1-.932.9.888.888,0,0,1-.922-.875.927.927,0,0,1,.93-.9.888.888,0,0,1,.923.875" transform="translate(-29.506 -15.61)" fill="#1a2e35"/>
            <path id="Trazado_208442" data-name="Trazado 208442" d="M129.785,64.276c-.12.116-.8-.432-1.8-.469s-1.749.433-1.852.306c-.052-.056.075-.27.4-.489a2.546,2.546,0,0,1,1.489-.4,2.449,2.449,0,0,1,1.426.524c.3.248.392.471.334.523" transform="translate(-29.153 -14.615)" fill="#1a2e35"/>
            <path id="Trazado_208443" data-name="Trazado 208443" d="M118.017,68.307a.928.928,0,0,1-.932.9.886.886,0,0,1-.922-.874.928.928,0,0,1,.93-.9.888.888,0,0,1,.923.875" transform="translate(-26.851 -15.587)" fill="#1a2e35"/>
            <path id="Trazado_208444" data-name="Trazado 208444" d="M117.051,64.293c-.12.116-.8-.431-1.8-.469s-1.749.433-1.853.306c-.051-.056.074-.27.4-.489a2.545,2.545,0,0,1,1.488-.394,2.452,2.452,0,0,1,1.427.524c.3.248.392.471.334.522" transform="translate(-26.209 -14.619)" fill="#1a2e35"/>
            <path id="Trazado_208445" data-name="Trazado 208445" d="M122.368,72.263A6.616,6.616,0,0,1,124,72.035c.256-.016.5-.057.549-.229a1.294,1.294,0,0,0-.14-.763l-.676-1.97a33.325,33.325,0,0,1-1.489-5.144,33.572,33.572,0,0,1,1.9,5.011q.337,1.037.644,1.981a1.479,1.479,0,0,1,.092,1.006.64.64,0,0,1-.434.356,1.771,1.771,0,0,1-.435.043,6.489,6.489,0,0,1-1.643-.064" transform="translate(-28.254 -14.777)" fill="#1a2e35"/>
            <path id="Trazado_208446" data-name="Trazado 208446" d="M118.5,75.513c.163,0,.121,1.08,1.018,1.886s2.054.733,2.057.885c.012.068-.265.2-.753.194A2.7,2.7,0,0,1,119.1,77.8a2.35,2.35,0,0,1-.784-1.578c-.023-.454.108-.718.182-.709" transform="translate(-27.348 -17.455)" fill="#1a2e35"/>
            <path id="Trazado_208447" data-name="Trazado 208447" d="M116.917,59.09c-.109.268-1.1.1-2.277.193-1.178.071-2.136.376-2.281.126-.065-.119.11-.368.5-.615a3.974,3.974,0,0,1,3.473-.243c.423.19.631.412.584.539" transform="translate(-25.969 -13.467)" fill="#1a2e35"/>
            <path id="Trazado_208448" data-name="Trazado 208448" d="M129.5,59.924c-.185.22-.863-.043-1.689-.087-.824-.073-1.532.091-1.684-.152-.066-.118.053-.341.368-.543a2.447,2.447,0,0,1,2.718.193c.283.244.369.481.288.589" transform="translate(-29.151 -13.596)" fill="#1a2e35"/>
            <path id="Trazado_208449" data-name="Trazado 208449" d="M102.826,68.765c-.108-.052-4.409-1.5-4.445,2.947s4.765,3.647,4.774,3.52-.329-6.467-.329-6.467" transform="translate(-22.741 -15.834)" fill="#ffc09d"/>
            <path id="Trazado_208450" data-name="Trazado 208450" d="M101.819,73.885c-.019-.015-.078.054-.209.112a.774.774,0,0,1-.579.008,1.915,1.915,0,0,1-.873-1.727,2.546,2.546,0,0,1,.225-1.106.894.894,0,0,1,.587-.59.393.393,0,0,1,.455.215c.058.125.03.214.053.221s.1-.074.062-.258a.494.494,0,0,0-.173-.28.587.587,0,0,0-.427-.117,1.087,1.087,0,0,0-.814.683,2.63,2.63,0,0,0-.278,1.237,2.011,2.011,0,0,0,1.114,1.929.829.829,0,0,0,.709-.112c.138-.109.163-.208.148-.216" transform="translate(-23.08 -16.264)" fill="#ff9b6c"/>
            <path id="Trazado_208451" data-name="Trazado 208451" d="M122.678,50.065c.719-.4-1.442-2.726-3.211-3.527-2.673-1.21-6.754-1.954-9.217-1.252a10.71,10.71,0,0,0-6.916,5.022,17.482,17.482,0,0,0-1.955,8.929,5.309,5.309,0,0,0,.628,2.716c.621.983,1.814,1.6,1.762,2.956a1.861,1.861,0,0,0,.463,1.356c.814.865,1.808.052,2.265-.764a12.87,12.87,0,0,0,1.168-5.816,13.021,13.021,0,0,0-.284-4.227c-.218-.741-.568-1.441-.745-2.193a2.672,2.672,0,0,1,.313-2.22,2.761,2.761,0,0,1,.361-.365,4.635,4.635,0,0,1,4.6-.88c2.5.884,6.78,2.2,7.9,1.353a6.855,6.855,0,0,0,1.989-2.021Z" transform="translate(-23.432 -10.405)" fill="#1a2e35"/>
            <path id="Trazado_208452" data-name="Trazado 208452" d="M125.432,59.136a15.415,15.415,0,0,0-7.115-1.7c-11,.255-17.158,4.251-17.158,4.251l-.161-3.2s16.054-3.355,16.166-3.361,4.956.778,5.071.817,2.989.479,2.989.479a9.193,9.193,0,0,1,.208,2.709" transform="translate(-23.346 -12.744)" fill="#375a64"/>
            <g id="Grupo_150623" data-name="Grupo 150623" transform="translate(77.651 42.387)" opacity="0.6">
              <g id="Grupo_150622" data-name="Grupo 150622">
                <g id="Grupo_150621" data-name="Grupo 150621" clip-path="url(#clip-path-10)">
                  <path id="Trazado_208453" data-name="Trazado 208453" d="M125.432,59.136a15.415,15.415,0,0,0-7.115-1.7c-11,.255-17.158,4.251-17.158,4.251l-.161-3.2s16.054-3.355,16.166-3.361,4.956.778,5.071.817,2.989.479,2.989.479a9.193,9.193,0,0,1,.208,2.709" transform="translate(-100.997 -55.131)"/>
                </g>
              </g>
            </g>
            <path id="Trazado_208454" data-name="Trazado 208454" d="M128.051,55.523s-2.884-4.784-15.61-2.98c-13.352,1.893-15.06,5.477-15.06,5.477s-.948-3.042,1.217-4.611a16.645,16.645,0,0,1,3.5-10.182,24.648,24.648,0,0,1,4.288-3.494l.061-.9s.913-1.093,5.434-1.286c4.672-.2,5.643,1.239,5.643,1.239l.123.8a15,15,0,0,1,8.074,12.441s2.576,1.636,2.327,3.5" transform="translate(-22.462 -8.675)" fill="#f9860b"/>
            <g id="Grupo_150626" data-name="Grupo 150626" transform="translate(83.928 30.161)" opacity="0.3">
              <g id="Grupo_150625" data-name="Grupo 150625">
                <g id="Grupo_150624" data-name="Grupo 150624" clip-path="url(#clip-path-11)">
                  <path id="Trazado_208455" data-name="Trazado 208455" d="M109.22,39.229c.767.87,2.1,2.37,2.36,3.656a25.852,25.852,0,0,1,.4,3.942c-.883-4.324-1.528-4.931-2.817-6.7Z" transform="translate(-109.16 -39.229)"/>
                </g>
              </g>
            </g>
            <path id="Trazado_208456" data-name="Trazado 208456" d="M99.026,57.143a1.032,1.032,0,0,1,.251-.132l.745-.327c.323-.144.723-.308,1.2-.467s1.008-.374,1.618-.541a46.844,46.844,0,0,1,9.69-1.828,34.179,34.179,0,0,1,9.847.428c.614.158,1.171.3,1.648.461.467.189.88.329,1.2.487l.71.405a.948.948,0,0,1,.235.158,1.055,1.055,0,0,1-.265-.105l-.728-.351c-.321-.139-.734-.262-1.2-.434-.476-.144-1.03-.27-1.639-.414a36.538,36.538,0,0,0-9.778-.336,51.549,51.549,0,0,0-9.655,1.732c-.61.153-1.145.351-1.622.5s-.883.291-1.212.417l-.764.273a1.032,1.032,0,0,1-.274.077" transform="translate(-22.89 -12.409)" fill="#1a2e35"/>
            <path id="Trazado_208457" data-name="Trazado 208457" d="M109.237,39.229a4.927,4.927,0,0,1,.88.829,6.409,6.409,0,0,1,1.6,2.465,8.693,8.693,0,0,1,.409,2.908,3.614,3.614,0,0,1-.148,1.2,7.461,7.461,0,0,1-.065-1.2,10.631,10.631,0,0,0-.481-2.816,7.257,7.257,0,0,0-1.471-2.42,4.766,4.766,0,0,1-.721-.97" transform="translate(-25.25 -9.067)" fill="#1a2e35"/>
            <g id="Grupo_150629" data-name="Grupo 150629" transform="translate(77.282 32.479)" opacity="0.3">
              <g id="Grupo_150628" data-name="Grupo 150628">
                <g id="Grupo_150627" data-name="Grupo 150627" clip-path="url(#clip-path-12)">
                  <path id="Trazado_208458" data-name="Trazado 208458" d="M107.212,42.961a.887.887,0,0,0-.129-.557.5.5,0,0,0-.5-.145,1.388,1.388,0,0,0-.484.261,14.3,14.3,0,0,0-5.58,10.353.236.236,0,0,0,.354.231,16,16,0,0,1,4.709-1.891c.544-.13,1.332-.106,1.553-.681a2.977,2.977,0,0,0,.128-1.093q-.024-3.238-.049-6.477" transform="translate(-100.517 -42.244)" fill="#fff"/>
                </g>
              </g>
            </g>
            <path id="Trazado_208459" data-name="Trazado 208459" d="M123.7,44.962a15.622,15.622,0,0,1-.011-2.619,15.668,15.668,0,0,1,.131-2.616,9.163,9.163,0,0,1,.171,2.623,9.168,9.168,0,0,1-.291,2.612" transform="translate(-28.582 -9.183)" fill="#1a2e35"/>
            <path id="Trazado_208460" data-name="Trazado 208460" d="M130.551,173.988a13.116,13.116,0,0,1-2.081-.034c-1.282-.052-3.051-.106-5.005-.09s-3.723.1-5,.177a13.1,13.1,0,0,1-2.08.07,9.8,9.8,0,0,1,2.057-.341c1.279-.145,3.056-.272,5.022-.291s3.744.081,5.026.2a9.839,9.839,0,0,1,2.063.305" transform="translate(-26.902 -40.1)" fill="#375a64"/>
            <path id="Trazado_208461" data-name="Trazado 208461" d="M101.834,91.264s-6.461,8.257-5.29,26c1.022,15.5.867,18.3.867,18.3l-1.033,31.407,40.771.829-4.81-56.277-6.574-12.5L121.6,97.647l-1.187-1.3a9.994,9.994,0,0,0-5.183-3.432l-12.894-2.692Z" transform="translate(-22.278 -20.856)" fill="#e1e1e1"/>
            <path id="Trazado_208462" data-name="Trazado 208462" d="M133.485,117.585l3.31,45.7-40.2-2.205.541-31.311s-1.218-17.817-.541-24.42A36.5,36.5,0,0,1,102.4,89.979l12.852,2.883a10.043,10.043,0,0,0-10.037,9.276l-.075.978a30.872,30.872,0,0,0,.06,5.723c1.372,12.491,8.076,14.613,12,14.915a8.631,8.631,0,0,0,8.714-5.5l3.584-9.3Z" transform="translate(-22.281 -20.799)" fill="#f9860b"/>
            <path id="Trazado_208463" data-name="Trazado 208463" d="M136.009,169.388l-39.141-1.061-.108,6.3,39.8,1.785Z" transform="translate(-22.366 -38.909)" fill="#fff"/>
            <path id="Trazado_208464" data-name="Trazado 208464" d="M135.4,156.925l-38.32-1.507-.107,6.608,38.835.94Z" transform="translate(-22.416 -35.925)" fill="#fff"/>
            <g id="Grupo_150632" data-name="Grupo 150632" transform="translate(89.773 90.554)" opacity="0.3">
              <g id="Grupo_150631" data-name="Grupo 150631">
                <g id="Grupo_150630" data-name="Grupo 150630" clip-path="url(#clip-path-13)">
                  <path id="Trazado_208465" data-name="Trazado 208465" d="M138.5,128.236l-21.737-10.459,21.431,5.813Z" transform="translate(-116.763 -117.778)"/>
                </g>
              </g>
            </g>
            <path id="Trazado_208466" data-name="Trazado 208466" d="M120.809,96.743a14.451,14.451,0,0,1,5.564,1.054l23.5,9.691,12.07-16.8,7.373,2.007s-8.763,25.209-14.045,28.995c-3.733,2.674-14.536-2.035-21.814-4.585-4.011-1.405-10.249-2.62-14.367-4.527l-4.139-13.02c1.086-1.688,3.235-2.676,5.856-2.819" transform="translate(-26.572 -20.963)" fill="#ffc09d"/>
            <path id="Trazado_208467" data-name="Trazado 208467" d="M174.163,77.262a2.742,2.742,0,0,1,1.572,2.656,1.6,1.6,0,0,0,1.215,1.489,43.549,43.549,0,0,0,3-4.924c.753-1.7,1.912-5.379,2.9-6.064s1.938-.393,1.418.863-1.932,5.5-1.569,5.8,5.024-5.644,5.658-5.449,1.749.832.38,2.068A41.02,41.02,0,0,0,185,78.165s4.951-4.277,5.448-3.375,0,1.309-.8,2.079-3.583,4.349-3.583,4.349,4.385-3.221,4.954-2.377.614,1.044-.3,1.671-8.281,8.063-8.566,8.3l-3,2.45-4.192-4.181-.424-1.8s-1.332-4.38-1.188-5.806-.2-2.573.813-2.209" transform="translate(-40.068 -16.194)" fill="#ffc09d"/>
            <path id="Trazado_208468" data-name="Trazado 208468" d="M138.181,122.41l4.341-17.764S127.6,97.968,124.79,96.882c-3.9-1.508-9.94-.012-11.234,3.205-4.026,10.015,4.29,14.323,4.29,14.323Z" transform="translate(-25.994 -22.258)" fill="#e1e1e1"/>
            <path id="Trazado_208469" data-name="Trazado 208469" d="M117.669,114.359a1.789,1.789,0,0,1-.454-.2,10.735,10.735,0,0,1-1.2-.767,10.88,10.88,0,0,1-3.421-3.952,9.517,9.517,0,0,1-.2-7.652c.306-.674.579-1.373.963-2.059A5.783,5.783,0,0,1,115,97.991a10.762,10.762,0,0,1,4.626-1.794,10.2,10.2,0,0,1,4.946.414c1.467.621,2.859,1.252,4.2,1.839l7.087,3.15,4.763,2.154,1.286.6a2.224,2.224,0,0,1,.437.236,2.38,2.38,0,0,1-.47-.162l-1.316-.535-4.811-2.037-7.113-3.068-4.2-1.813a9.871,9.871,0,0,0-4.751-.387,10.435,10.435,0,0,0-4.455,1.716,5.429,5.429,0,0,0-1.555,1.615c-.364.641-.644,1.341-.945,1.99a9.291,9.291,0,0,0,.114,7.4,11.129,11.129,0,0,0,3.26,3.95c.48.382.88.643,1.15.822a3.345,3.345,0,0,1,.414.274" transform="translate(-25.818 -22.207)" fill="#1a2e35"/>
            <path id="Trazado_208470" data-name="Trazado 208470" d="M132.809,54.008a2.6,2.6,0,0,0-1.845-1.413,3.552,3.552,0,0,0-4.272,2.732,1.511,1.511,0,0,0-1.532.086,1.4,1.4,0,0,0-.59,1.352l-.946.059c.208.83,1.4,1.288,2.214,1.555a2.6,2.6,0,0,0,2.418-.453,2.174,2.174,0,1,0,3.921-1.811,1.694,1.694,0,0,0,.634-2.107" transform="translate(-28.576 -12.137)" fill="#1a2e35"/>
            <path id="Trazado_208471" data-name="Trazado 208471" d="M162.624,118.227a11.493,11.493,0,0,1-1.179-2.779,11.5,11.5,0,0,1-.8-2.911,11.475,11.475,0,0,1,1.18,2.779,11.516,11.516,0,0,1,.8,2.911" transform="translate(-37.128 -26.013)" fill="#ff9b6c"/>
            <path id="Trazado_208472" data-name="Trazado 208472" d="M195.378,139.268s-4.327-2.792-6.76-2.689-10.669,3.842-10.669,3.842l.764,7.419,8.541,1.276a4.031,4.031,0,0,0,3.893-2.08l.9-2.472a42.065,42.065,0,0,0-4.961-.019s1.088-4.206,2.8-4.818a20.582,20.582,0,0,1,5.5-.458" transform="translate(-41.133 -31.57)" fill="#ffc09d"/>
            <path id="Trazado_208473" data-name="Trazado 208473" d="M190.394,144.365c.118.018.05.653-.23,1.336s-.5,1.208-.6,1.193-.049-.653.23-1.336.5-1.208.6-1.193" transform="translate(-43.804 -33.37)" fill="#ff9b6c"/>
            <path id="Trazado_208474" data-name="Trazado 208474" d="M283.617,182.337c-.2-.165-1.191-7.276.48-9.583s8.868-3.837,8.868-3.837a27.043,27.043,0,0,1,3.793-3.617,1.3,1.3,0,0,1,1.654.161s.6-1,1.378-.407c.314.241-.949,4.428-2.007,5.632a50.506,50.506,0,0,1-5.243,4.158l-1.62,1.646.788,6.052Z" transform="translate(-65.449 -38.108)" fill="#ffc09d"/>
            <path id="Trazado_208475" data-name="Trazado 208475" d="M293.36,173.511a7.049,7.049,0,0,0-6.625,2.762c-.042-.022.115-.44.561-1a5.674,5.674,0,0,1,4.961-2.067,2.157,2.157,0,0,1,1.1.3" transform="translate(-66.278 -40.03)" fill="#ff9b6c"/>
            <path id="Trazado_208476" data-name="Trazado 208476" d="M314.773,232.159c-.644-1.229-18.472-19.053-18.472-19.053l-5.144-28.232-9.456,1.459s2.4,29.8,3.341,33.07,23.394,23.2,23.581,23.375,6.151-10.619,6.151-10.619" transform="translate(-65.115 -42.734)" fill="#e1e1e1"/>
            <g id="Grupo_150635" data-name="Grupo 150635" transform="translate(237.688 180.055)" opacity="0.3">
              <g id="Grupo_150634" data-name="Grupo 150634">
                <g id="Grupo_150633" data-name="Grupo 150633" clip-path="url(#clip-path-14)">
                  <path id="Trazado_208477" data-name="Trazado 208477" d="M309.148,249.014l4.174-2.779-4.013-12.047,10.1,10.333-.569,3.3-7.4,3.233Z" transform="translate(-309.148 -234.188)"/>
                </g>
              </g>
            </g>
            <rect id="Rectángulo_299408" data-name="Rectángulo 299408" width="84.903" height="71.361" transform="translate(165.239 60.464)" fill="#07a5b6"/>
            <g id="Grupo_150638" data-name="Grupo 150638" transform="translate(165.24 60.464)" opacity="0.3">
              <g id="Grupo_150637" data-name="Grupo 150637">
                <g id="Grupo_150636" data-name="Grupo 150636" clip-path="url(#clip-path-15)">
                  <rect id="Rectángulo_299409" data-name="Rectángulo 299409" width="26.235" height="71.361" transform="translate(0 0)"/>
                </g>
              </g>
            </g>
            <g id="Grupo_150641" data-name="Grupo 150641" transform="translate(208.906 81.683)" opacity="0.3">
              <g id="Grupo_150640" data-name="Grupo 150640">
                <g id="Grupo_150639" data-name="Grupo 150639" clip-path="url(#clip-path-16)">
                  <path id="Trazado_208478" data-name="Trazado 208478" d="M285.905,130.079H280.9v8.627h-9.183V106.241h14.841a18.512,18.512,0,0,1,7.652,1.461,11.808,11.808,0,0,1,5.125,16.7,11.136,11.136,0,0,1-4.708,4.1l7,10.2h-9.833Zm4.359-15.351A6.334,6.334,0,0,0,286,113.476h-5.1v9.508H286a6.416,6.416,0,0,0,4.267-1.229,4.355,4.355,0,0,0,1.438-3.5,4.427,4.427,0,0,0-1.438-3.525" transform="translate(-271.713 -106.241)"/>
                </g>
              </g>
            </g>
            <path id="Trazado_208479" data-name="Trazado 208479" d="M281.1,130.079h-5.01v8.627h-9.182V106.241h14.841A18.512,18.512,0,0,1,289.4,107.7a11.808,11.808,0,0,1,5.125,16.7,11.136,11.136,0,0,1-4.708,4.1l7,10.2h-9.833Zm4.359-15.351a6.334,6.334,0,0,0-4.267-1.252h-5.1v9.508h5.1a6.416,6.416,0,0,0,4.267-1.229,4.355,4.355,0,0,0,1.438-3.5,4.427,4.427,0,0,0-1.438-3.525" transform="translate(-61.697 -24.558)" fill="#fff"/>
            <path id="Trazado_208480" data-name="Trazado 208480" d="M248.981,140.176c-.111,0-.2-13.566-.2-30.3s.089-30.3.2-30.3.2,13.563.2,30.3-.089,30.3-.2,30.3" transform="translate(-57.506 -18.395)" fill="#1a2e35"/>
            <path id="Trazado_208481" data-name="Trazado 208481" d="M301.342,266.591s-11.956,27.47-12.86,33.621v2.5l5.217,2.892,8.051-23.866Z" transform="translate(-66.683 -61.623)" fill="#f9860b"/>
            <path id="Trazado_208482" data-name="Trazado 208482" d="M277.442,423.326l4.875,10.682.055,1.073s-12.977,5.537-13.079,8.165l25.259-.518-.088-6.9-4.408-12.794Z" transform="translate(-62.247 -97.784)" fill="#1a2e35"/>
            <path id="Trazado_208483" data-name="Trazado 208483" d="M296.068,436.936a1.13,1.13,0,0,1,.736,1.266,1,1,0,0,1-1.147.8,1.193,1.193,0,0,1-.773-1.345c.159-.524.827-.944,1.279-.693" transform="translate(-68.155 -100.988)" fill="#e1e1e1"/>
            <path id="Trazado_208484" data-name="Trazado 208484" d="M294.547,447.983l-.108-2.225-24.177,1.329s-1.115.555-.973,1.414Z" transform="translate(-62.243 -103.037)" fill="#375a64"/>
            <path id="Trazado_208485" data-name="Trazado 208485" d="M285.767,438.494c.006.134.624.182,1.239.6.624.4.947.976,1.059.921.114-.028-.085-.827-.837-1.32s-1.491-.324-1.462-.2" transform="translate(-66.055 -101.328)" fill="#fff"/>
            <path id="Trazado_208486" data-name="Trazado 208486" d="M282.348,440.138c-.026.131.512.348.941.906s.56,1.157.683,1.148c.116.019.188-.768-.358-1.452s-1.266-.73-1.266-.6" transform="translate(-65.265 -101.725)" fill="#fff"/>
            <path id="Trazado_208487" data-name="Trazado 208487" d="M280.16,443.991c.112.026.273-.647-.057-1.375s-.911-1.01-.962-.9c-.068.112.314.5.576,1.1s.32,1.16.443,1.171" transform="translate(-64.522 -102.098)" fill="#fff"/>
            <path id="Trazado_208488" data-name="Trazado 208488" d="M341.548,423.326l4.875,10.682.055,1.073s-12.977,5.537-13.079,8.165l25.259-.518-.088-6.9-4.408-12.794Z" transform="translate(-77.065 -97.784)" fill="#1a2e35"/>
            <path id="Trazado_208489" data-name="Trazado 208489" d="M360.174,436.936a1.129,1.129,0,0,1,.736,1.266,1,1,0,0,1-1.147.8,1.193,1.193,0,0,1-.773-1.345c.159-.524.827-.943,1.279-.693" transform="translate(-82.973 -100.988)" fill="#e1e1e1"/>
            <path id="Trazado_208490" data-name="Trazado 208490" d="M358.653,447.983l-.108-2.225-24.177,1.329s-1.115.555-.973,1.414Z" transform="translate(-77.062 -103.037)" fill="#375a64"/>
            <path id="Trazado_208491" data-name="Trazado 208491" d="M349.873,438.494c.006.135.624.182,1.239.6.624.4.947.976,1.06.921.113-.028-.085-.827-.837-1.32s-1.491-.324-1.462-.2" transform="translate(-80.873 -101.328)" fill="#fff"/>
            <path id="Trazado_208492" data-name="Trazado 208492" d="M346.454,440.138c-.026.131.512.348.941.906s.56,1.157.683,1.148c.116.019.188-.768-.358-1.452s-1.266-.73-1.266-.6" transform="translate(-80.083 -101.725)" fill="#fff"/>
            <path id="Trazado_208493" data-name="Trazado 208493" d="M344.266,443.991c.112.026.273-.647-.057-1.375s-.911-1.01-.962-.9c-.068.112.314.5.576,1.1s.32,1.16.443,1.171" transform="translate(-79.34 -102.098)" fill="#fff"/>
            <path id="Trazado_208494" data-name="Trazado 208494" d="M321.21,305.209c2.424,5.369,9.6,14.461,2.864,25.915l6.568,25.044s6.471,16.5,9.194,22.023,8.024,22.656,8.024,22.656l-14.743,3.175s-16.809-33.28-20.076-39S297.159,339.3,294.7,324.034c-2.563-15.9.834-22.389.834-22.389l25.677-7.2Z" transform="translate(-67.899 -68.061)" fill="#1a2e35"/>
            <path id="Trazado_208495" data-name="Trazado 208495" d="M293.642,341.285l-16.148,19.579,13.556,42.69-16.377,3.48c0-.572-14.887-42.234-16.782-49.4-1.067-4.034,8.284-18.768,12.676-24.22,3.432-4.26,10.52-12.736,11.065-13.308s3.919-5.825,3.919-5.825Z" transform="translate(-59.592 -72.647)" fill="#1a2e35"/>
            <path id="Trazado_208496" data-name="Trazado 208496" d="M293.129,317.338a8.073,8.073,0,0,0,0,1.123c.018.723.082,1.767.191,3.055a72.549,72.549,0,0,0,1.583,9.951,75.445,75.445,0,0,0,2.925,9.587c.456,1.194.847,2.15,1.138,2.8a7.545,7.545,0,0,0,.474,1,7.885,7.885,0,0,0-.367-1.049c-.258-.665-.617-1.633-1.047-2.835a88.645,88.645,0,0,1-2.83-9.581,84.184,84.184,0,0,1-1.664-9.9c-.137-1.28-.232-2.319-.286-3.038a7.96,7.96,0,0,0-.121-1.115" transform="translate(-67.754 -73.353)" fill="#375a64"/>
            <path id="Trazado_208497" data-name="Trazado 208497" d="M274.973,372.919c-.006.1,1.508.213,3.3.751s3.15,1.263,3.191,1.174a8.65,8.65,0,0,0-3.112-1.49,8.273,8.273,0,0,0-3.377-.435" transform="translate(-63.56 -86.19)" fill="#375a64"/>
            <g id="Grupo_150644" data-name="Grupo 150644" transform="translate(227.017 257.232)" opacity="0.3">
              <g id="Grupo_150643" data-name="Grupo 150643">
                <g id="Grupo_150642" data-name="Grupo 150642" clip-path="url(#clip-path-17)">
                  <path id="Trazado_208498" data-name="Trazado 208498" d="M297.895,351.317s-2.987-11.684-2.589-16.75c0,0,2.062,10.348,4.637,14.268Z" transform="translate(-295.269 -334.567)"/>
                </g>
              </g>
            </g>
            <path id="Trazado_208499" data-name="Trazado 208499" d="M344.758,436.048c-.015.006.205-.027.581-.1l1.6-.3,5.278-1.066c2.06-.429,3.922-.831,5.267-1.137.673-.154,1.216-.283,1.59-.379a2.181,2.181,0,0,0,.576-.183,2.145,2.145,0,0,0-.6.058c-.381.058-.93.153-1.608.277-1.355.248-3.225.614-5.284,1.043s-3.92.839-5.263,1.16a8.841,8.841,0,0,0-2.142.627" transform="translate(-79.691 -100.059)" fill="#375a64"/>
            <path id="Trazado_208500" data-name="Trazado 208500" d="M281.671,433.556c-.016.006.205-.027.581-.1l1.6-.3,5.278-1.066c2.06-.429,3.923-.831,5.268-1.137.673-.154,1.215-.283,1.589-.379a2.18,2.18,0,0,0,.576-.183,2.145,2.145,0,0,0-.6.058c-.381.058-.93.152-1.608.277-1.355.248-3.224.614-5.284,1.043s-3.92.839-5.264,1.16a8.769,8.769,0,0,0-2.141.627" transform="translate(-65.108 -99.483)" fill="#375a64"/>
            <path id="Trazado_208501" data-name="Trazado 208501" d="M359.487,235.965c-.629-1.807-2.371-3.364-4.273-3.16l-7.2,2.458a6.228,6.228,0,1,0,11.469.7" transform="translate(-80.305 -53.809)" fill="#1a2e35"/>
            <path id="Trazado_208502" data-name="Trazado 208502" d="M357.335,220.311a3.583,3.583,0,0,0-.913-2.293c-5.683-6.22-13.915-10.013-22.238-11.647-2.163-.425-4.581-.67-6.285.5l-.065.1a3.462,3.462,0,0,0-.474,3.711,8.957,8.957,0,0,0,2.545,3.065c4.9,4.19,11.038,6.777,17.188,8.809a22.778,22.778,0,0,0,4.4,1.109,8.037,8.037,0,0,0,4.34-.545,2.692,2.692,0,0,0,1.5-2.81" transform="translate(-75.596 -47.621)" fill="#ff735d"/>
            <g id="Grupo_150647" data-name="Grupo 150647" transform="translate(251.444 158.397)" opacity="0.3">
              <g id="Grupo_150646" data-name="Grupo 150646">
                <g id="Grupo_150645" data-name="Grupo 150645" clip-path="url(#clip-path-18)">
                  <path id="Trazado_208503" data-name="Trazado 208503" d="M357.335,220.311a3.583,3.583,0,0,0-.913-2.293c-5.683-6.22-13.915-10.013-22.238-11.647-2.163-.425-4.581-.67-6.285.5l-.065.1a3.462,3.462,0,0,0-.474,3.711,8.957,8.957,0,0,0,2.545,3.065c4.9,4.19,11.038,6.777,17.188,8.809a22.778,22.778,0,0,0,4.4,1.109,8.037,8.037,0,0,0,4.34-.545,2.692,2.692,0,0,0,1.5-2.81" transform="translate(-327.04 -206.018)"/>
                </g>
              </g>
            </g>
            <path id="Trazado_208504" data-name="Trazado 208504" d="M355.559,212.238a15.233,15.233,0,0,0-8.024-10.457,16.358,16.358,0,0,0-5.593-1.583,8.461,8.461,0,0,0-5.734.75,14.191,14.191,0,0,0-5.336,4.6,39.765,39.765,0,0,0-3.517,6.4,13.323,13.323,0,0,0-.965,7.159l5.088,3.684a38.941,38.941,0,0,0,9.418,3.989,13.116,13.116,0,0,0,9.911-1.267c4.006-2.555,5.84-8.653,4.751-13.277" transform="translate(-75.41 -46.232)" fill="#1a2e35"/>
            <path id="Trazado_208505" data-name="Trazado 208505" d="M350.514,210.332l-5.973-6.569-2.047-.721c-4.365-2.114-9.718,1.223-11.471,4.739-1.947,3.9-4.171,8.749-4.961,11.944-1.587,6.423,3.136,9.331,3.136,9.331a23.568,23.568,0,0,0-1.12,2.085l2.38,7.6,9.518-3.217L351.5,213.28a2.3,2.3,0,0,0-.987-2.948" transform="translate(-75.294 -46.781)" fill="#ffc09d"/>
            <path id="Trazado_208506" data-name="Trazado 208506" d="M337.47,228.162a1.378,1.378,0,0,0-.055-.972,1.408,1.408,0,0,0-1.491-.837,1.886,1.886,0,0,0-1.421,1.276,1.714,1.714,0,0,0,.79,1.177,1.9,1.9,0,0,0,.2.108,1.539,1.539,0,0,0,1.112.087,1.372,1.372,0,0,0,.861-.838" transform="translate(-77.321 -52.318)" fill="#ff9b6c"/>
            <path id="Trazado_208507" data-name="Trazado 208507" d="M332.546,215.829a.838.838,0,0,0,.415,1.093.8.8,0,0,0,1.09-.36.839.839,0,0,0-.414-1.093.8.8,0,0,0-1.091.36" transform="translate(-76.852 -49.786)" fill="#1a2e35"/>
            <path id="Trazado_208508" data-name="Trazado 208508" d="M333.093,212.69c.053.141.821-.045,1.651.308s1.263,1.026,1.4.962c.063-.026.042-.249-.141-.554a2.3,2.3,0,0,0-1.065-.895,2.212,2.212,0,0,0-1.367-.119c-.338.088-.5.233-.474.3" transform="translate(-76.994 -49.081)" fill="#1a2e35"/>
            <path id="Trazado_208509" data-name="Trazado 208509" d="M335.244,222.321a6,6,0,0,0-1.246-.813c-.2-.111-.386-.238-.361-.4s.2-.365.408-.569l1.309-1.35a30.278,30.278,0,0,0,3.194-3.63,30.134,30.134,0,0,0-3.478,3.364q-.674.718-1.288,1.371a1.335,1.335,0,0,0-.461.787.576.576,0,0,0,.218.457,1.556,1.556,0,0,0,.339.2,5.85,5.85,0,0,0,1.367.58" transform="translate(-77.047 -49.826)" fill="#1a2e35"/>
            <path id="Trazado_208510" data-name="Trazado 208510" d="M330.012,237.061a16.626,16.626,0,0,0,8.97,1.255s-3.91,3.265-9.7.157Z" transform="translate(-76.115 -54.797)" fill="#ff9b6c"/>
            <path id="Trazado_208511" data-name="Trazado 208511" d="M337.611,226.444c-.132-.065-.515.836-1.558,1.15s-1.96-.191-2.02-.068c-.037.052.14.265.54.448a2.439,2.439,0,0,0,1.665.107,2.117,2.117,0,0,0,1.247-.989c.194-.362.188-.628.125-.649" transform="translate(-77.211 -52.342)" fill="#1a2e35"/>
            <path id="Trazado_208512" data-name="Trazado 208512" d="M335.253,209.188c.054.262.747.4,1.465.771.729.352,1.25.831,1.491.717.11-.058.112-.291-.059-.6a2.565,2.565,0,0,0-2.381-1.2c-.351.05-.534.191-.515.314" transform="translate(-77.494 -48.278)" fill="#1a2e35"/>
            <path id="Trazado_208513" data-name="Trazado 208513" d="M343.146,220.945a.838.838,0,0,1-1.09.424.8.8,0,0,1-.463-1.049.839.839,0,0,1,1.09-.425.8.8,0,0,1,.464,1.051" transform="translate(-78.945 -50.814)" fill="#1a2e35"/>
            <path id="Trazado_208514" data-name="Trazado 208514" d="M346.635,218.834c-.141.055-.517-.64-1.335-1.019s-1.608-.25-1.65-.392c-.022-.065.157-.2.507-.266a2.3,2.3,0,0,1,1.378.191,2.216,2.216,0,0,1,1,.934c.161.311.162.529.1.552" transform="translate(-79.435 -50.188)" fill="#1a2e35"/>
            <path id="Trazado_208515" data-name="Trazado 208515" d="M347.628,215.111c-.248.11-.788-.377-1.542-.74-.742-.386-1.458-.529-1.515-.792-.021-.125.168-.263.53-.308a2.591,2.591,0,0,1,1.4.284,2.555,2.555,0,0,1,1.062.95c.178.316.177.548.064.606" transform="translate(-79.648 -49.295)" fill="#1a2e35"/>
            <path id="Trazado_208516" data-name="Trazado 208516" d="M351.16,228.374c.19-.447,1.155-1.286,1.627-1.168,1.26.315,3.351,1.31,2.1,4.321-1.707,4.116-5.487,1.553-5.446,1.432.033-.1,1.059-3.039,1.716-4.585" transform="translate(-80.774 -52.516)" fill="#ffc09d"/>
            <path id="Trazado_208517" data-name="Trazado 208517" d="M351.728,232.453c.023-.005.051.08.149.186a.775.775,0,0,0,.531.233,1.919,1.919,0,0,0,1.481-1.251,2.566,2.566,0,0,0,.225-1.11.9.9,0,0,0-.311-.774.4.4,0,0,0-.5.022c-.1.092-.111.185-.136.183s-.059-.105.044-.261a.493.493,0,0,1,.269-.191.583.583,0,0,1,.441.059,1.091,1.091,0,0,1,.484.949,2.634,2.634,0,0,1-.227,1.25,2.015,2.015,0,0,1-1.783,1.344.831.831,0,0,1-.61-.381c-.085-.154-.069-.255-.052-.257" transform="translate(-81.299 -53.042)" fill="#ff9b6c"/>
            <path id="Trazado_208518" data-name="Trazado 208518" d="M351.853,221.421l-1.53.557c-2.333-6.338-5.766-21.03-5.594-20.171a14.2,14.2,0,0,1,6.6,2.38c2.988,2.148,8.374,6.8,6.4,10.6a22.317,22.317,0,0,1-5.871,6.634" transform="translate(-79.683 -46.64)" fill="#1a2e35"/>
            <path id="Trazado_208519" data-name="Trazado 208519" d="M331.66,207.515a18.742,18.742,0,0,1,8.239,1.593c11.506,5.3,16.423,11.845,16.423,11.845a23.72,23.72,0,0,0,.854-3.1s-15.073-9.912-15.19-9.969-5.516-1.591-5.651-1.609-3.331-.95-3.331-.95Z" transform="translate(-76.663 -47.461)" fill="#375a64"/>
            <path id="Trazado_208520" data-name="Trazado 208520" d="M327.919,204.089s3.064-2.574,15.955,3.748c12.533,6.146,13.469,11,13.469,11a4.449,4.449,0,0,0-.637-4.559,15.4,15.4,0,0,0,.5-10.486,25.562,25.562,0,0,0-2.762-4.862l.279-.822s-.457-1.346-4.682-3.369c-4.366-2.091-5.829-1.212-5.829-1.212l-.416.658a14.49,14.49,0,0,0-12.347,7.748s-3.062.4-3.525,2.154" transform="translate(-75.799 -44.692)" fill="#f9860b"/>
            <g id="Grupo_150650" data-name="Grupo 150650" transform="translate(265.866 148.837)" opacity="0.3">
              <g id="Grupo_150649" data-name="Grupo 150649">
                <g id="Grupo_150648" data-name="Grupo 150648" clip-path="url(#clip-path-19)">
                  <path id="Trazado_208521" data-name="Trazado 208521" d="M347.4,196.782a13.02,13.02,0,0,0,.943-3.2l-.417.657a37.418,37.418,0,0,1-2.127,6.007c.562-1.147,1.128-2.3,1.6-3.466" transform="translate(-345.797 -193.584)"/>
                </g>
              </g>
            </g>
            <g id="Grupo_150653" data-name="Grupo 150653" transform="translate(273.445 153.418)" opacity="0.3">
              <g id="Grupo_150652" data-name="Grupo 150652">
                <g id="Grupo_150651" data-name="Grupo 150651" clip-path="url(#clip-path-20)">
                  <path id="Trazado_208522" data-name="Trazado 208522" d="M361.128,199.542c-1.056.459-2.882,1.249-3.616,2.282a23.178,23.178,0,0,0-1.858,3.341c2.464-3.481,3.3-3.757,5.194-4.8Z" transform="translate(-355.655 -199.542)"/>
                </g>
              </g>
            </g>
            <path id="Trazado_208523" data-name="Trazado 208523" d="M357.758,216.831a1.072,1.072,0,0,1-.233-.18l-.625-.557c-.266-.248-.6-.544-1-.869s-.835-.72-1.358-1.106a57.207,57.207,0,0,0-8.512-5.485,40.55,40.55,0,0,0-9.4-3.707c-.634-.128-1.21-.238-1.718-.311-.511-.04-.952-.1-1.313-.11l-.833.013a1.126,1.126,0,0,1-.294-.015,1.046,1.046,0,0,1,.289-.045l.84-.07c.365-.005.811.035,1.332.06.515.058,1.1.154,1.743.27a37.866,37.866,0,0,1,9.5,3.649,51.737,51.737,0,0,1,8.505,5.585c.516.4.944.807,1.336,1.146s.713.649.967.91l.588.6a1.082,1.082,0,0,1,.19.223" transform="translate(-76.852 -47.245)" fill="#1a2e35"/>
            <path id="Trazado_208524" data-name="Trazado 208524" d="M361.153,199.54a4.531,4.531,0,0,1-1.038.56,7,7,0,0,0-2.3,1.525,9.481,9.481,0,0,0-1.533,2.32,7.386,7.386,0,0,1-.515,1.055,3.369,3.369,0,0,1,.321-1.141,7.874,7.874,0,0,1,1.507-2.439,6.183,6.183,0,0,1,2.435-1.515,4.729,4.729,0,0,1,1.122-.365" transform="translate(-82.234 -46.123)" fill="#1a2e35"/>
            <path id="Trazado_208525" data-name="Trazado 208525" d="M345.989,200.067c-.078-.04.59-1.449,1.249-3.25s1.07-3.305,1.156-3.285a17.458,17.458,0,0,1-2.4,6.534" transform="translate(-79.974 -44.735)" fill="#1a2e35"/>
            <g id="Grupo_150656" data-name="Grupo 150656" transform="translate(256.625 149.888)" opacity="0.3">
              <g id="Grupo_150655" data-name="Grupo 150655">
                <g id="Grupo_150654" data-name="Grupo 150654" clip-path="url(#clip-path-21)">
                  <path id="Trazado_208526" data-name="Trazado 208526" d="M344.254,195.872a.808.808,0,0,0,.118-.541.539.539,0,0,0-.4-.354,1.494,1.494,0,0,0-.561,0,13.576,13.576,0,0,0-9.6,6.409.242.242,0,0,0,.23.361,17.34,17.34,0,0,1,5.18.516c.561.136,1.282.517,1.733.121a2.688,2.688,0,0,0,.584-.887q1.359-2.814,2.716-5.628" transform="translate(-333.778 -194.951)" fill="#fff"/>
                </g>
              </g>
            </g>
            <path id="Trazado_208527" data-name="Trazado 208527" d="M293.159,292.207l8.069-23.23c.074-5.391.887-13.209,6.867-16.895l13.427-7.466,8.2,1.455,2.3.858s4.429,4.31,1.936,12.2-12.943,25.421-12.943,25.421l1.358,4.844c.654,2.335-.749,3.712-3.164,3.927l-25.787,2.894c-2.431.215-2.826-1.634-.264-4.012" transform="translate(-67.36 -56.543)" fill="#e1e1e1"/>
            <g id="Grupo_150659" data-name="Grupo 150659" transform="translate(231.776 187.029)" opacity="0.3">
              <g id="Grupo_150658" data-name="Grupo 150658">
                <g id="Grupo_150657" data-name="Grupo 150657" clip-path="url(#clip-path-22)">
                  <path id="Trazado_208528" data-name="Trazado 208528" d="M325.211,243.26s-11.6,12.323-12.31,13.18c-2.551,3.094-8.651,11.324-10.642,21.394-2.54,12.857,1.779,25.6,1.779,25.6l22.4-3.217a11.446,11.446,0,0,1-1.54-4.292c-.664-4.843-.743-12.162-1.066-13.035-.485-1.317,10.24-18.9,11.117-24.76s-3.253-11.667-3.253-11.667" transform="translate(-301.459 -243.259)"/>
                </g>
              </g>
            </g>
            <g id="Grupo_150662" data-name="Grupo 150662" transform="translate(245.233 196.526)" opacity="0.3">
              <g id="Grupo_150661" data-name="Grupo 150661">
                <g id="Grupo_150660" data-name="Grupo 150660" clip-path="url(#clip-path-23)">
                  <path id="Trazado_208529" data-name="Trazado 208529" d="M318.961,258.4c.012-.014,6.917,4.849,12.2,3.817l-9.94-6.6Z" transform="translate(-318.961 -255.61)"/>
                </g>
              </g>
            </g>
            <path id="Trazado_208530" data-name="Trazado 208530" d="M328.451,241.329s-11.6,12.323-12.31,13.18C313.59,257.6,307.49,265.833,305.5,275.9c-2.54,12.856,1.779,25.6,1.779,25.6l23.188-3.952s-2.91-15.275-3.4-16.593,10.24-18.9,11.117-24.76-3.253-11.667-3.253-11.667" transform="translate(-70.431 -55.783)" fill="#f9860b"/>
            <path id="Trazado_208531" data-name="Trazado 208531" d="M328.657,301.7l-23.434,3.269c.211,1.883.527,3.719.973,5.978l23.514-3.926Z" transform="translate(-70.553 -69.739)" fill="#fff"/>
            <path id="Trazado_208532" data-name="Trazado 208532" d="M327.638,290.426l-22.964,2.94a37.386,37.386,0,0,0,.1,6.042l23.062-3.674-.591-2.974a2.763,2.763,0,0,1,.082-1.389Z" transform="translate(-70.406 -67.132)" fill="#fff"/>
            <path id="Trazado_208533" data-name="Trazado 208533" d="M303.221,179.957a15.007,15.007,0,0,1,3.351-6.874c2.068-1.958,8.313-4.591,8.313-4.591a27.075,27.075,0,0,1,4.395-2.856,1.3,1.3,0,0,1,1.6.464s.778-.876,1.429-.147c.264.3-1.749,4.177-3.011,5.166s-4.971,3.748-4.971,3.748l-3.541,3.938.15,1.207Z" transform="translate(-70.087 -38.262)" fill="#ffc09d"/>
            <path id="Trazado_208534" data-name="Trazado 208534" d="M316.492,172.344a4.733,4.733,0,0,0,1.337-.449,13.619,13.619,0,0,0,5.3-4.193,4.711,4.711,0,0,0,.745-1.2,18.713,18.713,0,0,1-7.385,5.84" transform="translate(-73.157 -38.487)" fill="#ff9b6c"/>
            <path id="Trazado_208535" data-name="Trazado 208535" d="M332.673,242.973c-1.952,2.4-6.832,3.587-12.041.863s-16.1-30.092-17.6-34.341-.939-25.417-.939-25.417l9.069-1.2,4.264,26.331,10.6,17.444c.8.306,7.5,4.6,8.172,9.084a8.652,8.652,0,0,1-1.528,7.24" transform="translate(-69.805 -42.271)" fill="#e1e1e1"/>
            <path id="Trazado_208536" data-name="Trazado 208536" d="M327.026,250.626c.016.012.132-.109.328-.341s.463-.581.771-1.028a19.925,19.925,0,0,0,3.169-7.815c.09-.535.144-.972.162-1.275a1.438,1.438,0,0,0,0-.473,16.947,16.947,0,0,0-.374,1.707,24.453,24.453,0,0,1-3.138,7.74,17.006,17.006,0,0,0-.92,1.485" transform="translate(-75.592 -55.405)" fill="#1a2e35"/>
            <rect id="Rectángulo_299419" data-name="Rectángulo 299419" width="84.903" height="71.361" transform="translate(128.503 131.634)" fill="#206897"/>
            <g id="Grupo_150665" data-name="Grupo 150665" transform="translate(128.503 131.634)" opacity="0.3">
              <g id="Grupo_150664" data-name="Grupo 150664">
                <g id="Grupo_150663" data-name="Grupo 150663" clip-path="url(#clip-path-24)">
                  <rect id="Rectángulo_299420" data-name="Rectángulo 299420" width="26.235" height="71.361"/>
                </g>
              </g>
            </g>
            <g id="Grupo_150668" data-name="Grupo 150668" transform="translate(168.608 152.068)" opacity="0.3">
              <g id="Grupo_150667" data-name="Grupo 150667">
                <g id="Grupo_150666" data-name="Grupo 150666" clip-path="url(#clip-path-25)">
                  <path id="Trazado_208537" data-name="Trazado 208537" d="M244.947,223.944H231.219l-2.552,6.308H219.3l14.331-32.465h9.043l14.378,32.465H247.5Zm-2.691-6.771-4.173-10.389-4.174,10.389Z" transform="translate(-219.299 -197.786)"/>
                </g>
              </g>
            </g>
            <path id="Trazado_208538" data-name="Trazado 208538" d="M240.141,223.944H226.413l-2.551,6.308h-9.369l14.331-32.465h9.043l14.378,32.465h-9.554Zm-2.691-6.771-4.173-10.389L229.1,217.173Z" transform="translate(-49.58 -45.718)" fill="#fff"/>
            <g id="Grupo_150671" data-name="Grupo 150671" transform="translate(165.24 131.634)" opacity="0.3">
              <g id="Grupo_150670" data-name="Grupo 150670">
                <g id="Grupo_150669" data-name="Grupo 150669" clip-path="url(#clip-path-26)">
                  <path id="Trazado_208539" data-name="Trazado 208539" d="M214.918,171.4l48.167,12.608v-12.8Z" transform="translate(-214.918 -171.209)"/>
                </g>
              </g>
            </g>
            <rect id="Rectángulo_299424" data-name="Rectángulo 299424" width="84.903" height="71.361" transform="translate(120.3 202.995)" fill="#f40b74"/>
            <g id="Grupo_150674" data-name="Grupo 150674" transform="translate(120.3 202.995)" opacity="0.3">
              <g id="Grupo_150673" data-name="Grupo 150673">
                <g id="Grupo_150672" data-name="Grupo 150672" clip-path="url(#clip-path-24)">
                  <rect id="Rectángulo_299425" data-name="Rectángulo 299425" width="26.235" height="71.361"/>
                </g>
              </g>
            </g>
            <g id="Grupo_150677" data-name="Grupo 150677" transform="translate(165.712 222.284)" opacity="0.3">
              <g id="Grupo_150676" data-name="Grupo 150676">
                <g id="Grupo_150675" data-name="Grupo 150675" clip-path="url(#clip-path-28)">
                  <path id="Trazado_208540" data-name="Trazado 208540" d="M246.421,289.113v32.465H238.86l-14.331-17.3v17.3h-9V289.113h7.559l14.331,17.3v-17.3Z" transform="translate(-215.532 -289.113)"/>
                </g>
              </g>
            </g>
            <path id="Trazado_208541" data-name="Trazado 208541" d="M241.44,289.113v32.465h-7.561l-14.331-17.3v17.3h-9V289.113h7.559l14.331,17.3v-17.3Z" transform="translate(-48.669 -66.829)" fill="#fff"/>
            <path id="Trazado_208542" data-name="Trazado 208542" d="M190.713,326.783c-.111,0-.2-14.138-.2-31.573s.089-31.576.2-31.576.2,14.135.2,31.576-.089,31.573-.2,31.573" transform="translate(-44.037 -60.939)" fill="#1a2e35"/>
            <g id="Grupo_150680" data-name="Grupo 150680" transform="translate(154.739 202.995)" opacity="0.3">
              <g id="Grupo_150679" data-name="Grupo 150679">
                <g id="Grupo_150678" data-name="Grupo 150678" clip-path="url(#clip-path-29)">
                  <path id="Trazado_208543" data-name="Trazado 208543" d="M201.26,264.025c.743,0,50.465,4.412,50.465,4.412v-4.412Z" transform="translate(-201.26 -264.025)"/>
                </g>
              </g>
            </g>
            <rect id="Rectángulo_299429" data-name="Rectángulo 299429" width="84.127" height="70.71" transform="translate(128.451 274.418)" fill="#07a5b6"/>
            <g id="Grupo_150683" data-name="Grupo 150683" transform="translate(128.451 274.418)" opacity="0.3">
              <g id="Grupo_150682" data-name="Grupo 150682">
                <g id="Grupo_150681" data-name="Grupo 150681" clip-path="url(#clip-path-30)">
                  <rect id="Rectángulo_299430" data-name="Rectángulo 299430" width="25.996" height="70.71" transform="translate(0 0)"/>
                </g>
              </g>
            </g>
            <g id="Grupo_150686" data-name="Grupo 150686" transform="translate(172.145 293.176)" opacity="0.3">
              <g id="Grupo_150685" data-name="Grupo 150685">
                <g id="Grupo_150684" data-name="Grupo 150684" clip-path="url(#clip-path-31)">
                  <path id="Trazado_208544" data-name="Trazado 208544" d="M223.9,381.318h15.212a21.3,21.3,0,0,1,9.373,1.977,14.889,14.889,0,0,1,6.343,5.606,17.179,17.179,0,0,1,0,17,14.885,14.885,0,0,1-6.343,5.606,21.286,21.286,0,0,1-9.373,1.976H223.9Zm14.844,24.908a9.328,9.328,0,0,0,6.641-2.343,9.633,9.633,0,0,0,0-12.959,9.325,9.325,0,0,0-6.641-2.344H233v17.647Z" transform="translate(-223.9 -381.318)"/>
                </g>
              </g>
            </g>
            <path id="Trazado_208545" data-name="Trazado 208545" d="M219.164,381.318h15.212a21.3,21.3,0,0,1,9.373,1.977,14.889,14.889,0,0,1,6.343,5.606,17.178,17.178,0,0,1,0,17,14.885,14.885,0,0,1-6.343,5.606,21.286,21.286,0,0,1-9.373,1.976H219.164Zm14.844,24.908a9.328,9.328,0,0,0,6.641-2.343,9.633,9.633,0,0,0,0-12.959,9.325,9.325,0,0,0-6.641-2.344h-5.746v17.647Z" transform="translate(-50.66 -88.142)" fill="#fff"/>
            <g id="Grupo_150689" data-name="Grupo 150689" transform="translate(128.451 274.418)" opacity="0.3">
              <g id="Grupo_150688" data-name="Grupo 150688">
                <g id="Grupo_150687" data-name="Grupo 150687" clip-path="url(#clip-path-32)">
                  <path id="Trazado_208546" data-name="Trazado 208546" d="M167.069,356.92l26.1,4.047,43.667-3.925Z" transform="translate(-167.069 -356.92)"/>
                </g>
              </g>
            </g>
            <path id="Trazado_208547" data-name="Trazado 208547" d="M200.65,427.666c-.111,0-.2-15.8-.2-35.292s.089-35.3.2-35.3.2,15.8.2,35.3-.089,35.292-.2,35.292" transform="translate(-46.334 -82.539)" fill="#1a2e35"/>
          </g>
        </g>
      </g>
    </g>
  </g>
</svg>
