<svg xmlns="http://www.w3.org/2000/svg" xmlns:xlink="http://www.w3.org/1999/xlink" width="412.171" height="295" viewBox="0 0 412.171 295">
  <defs>
    <filter id="Trazado_157133" x="17.479" y="10.516" width="374.246" height="279.969" filterUnits="userSpaceOnUse">
      <feOffset dy="3" input="SourceAlpha"/>
      <feGaussianBlur stdDeviation="3" result="blur"/>
      <feFlood flood-opacity="0.161"/>
      <feComposite operator="in" in2="blur"/>
      <feComposite in="SourceGraphic"/>
    </filter>
    <radialGradient id="radial-gradient" cx="0.473" cy="0.169" r="1.287" gradientTransform="matrix(0.707, 0.707, -0.707, 0.707, 0.274, -0.091)" gradientUnits="objectBoundingBox">
      <stop offset="0" stop-color="#ffd673"/>
      <stop offset="0.457" stop-color="#ffb600"/>
      <stop offset="0.973" stop-color="#ff6b00"/>
    </radialGradient>
    <clipPath id="clip-path">
      <rect id="Rectángulo_299304" data-name="Rectángulo 299304" width="312.184" height="205.472" fill="none"/>
    </clipPath>
    <clipPath id="clip-path-3">
      <rect id="Rectángulo_299263" data-name="Rectángulo 299263" width="33.308" height="27.882" fill="none"/>
    </clipPath>
    <clipPath id="clip-path-4">
      <rect id="Rectángulo_299264" data-name="Rectángulo 299264" width="21.348" height="16.839" fill="none"/>
    </clipPath>
    <clipPath id="clip-path-5">
      <rect id="Rectángulo_299301" data-name="Rectángulo 299301" width="12.859" height="12.133" fill="none"/>
    </clipPath>
    <clipPath id="clip-path-6">
      <rect id="Rectángulo_299302" data-name="Rectángulo 299302" width="7.054" height="9.002" fill="none"/>
    </clipPath>
  </defs>
  <g id="Grupo_150519" data-name="Grupo 150519" transform="translate(-179.829 -3309.367)">
    <g id="Grupo_150484" data-name="Grupo 150484" transform="translate(179.829 3309.367)">
      <path id="Trazado_104230" data-name="Trazado 104230" d="M371.519-3043.95a26.473,26.473,0,0,1-26.473,26.473H222.021c0-.281-.021-.558-.021-.837a148.593,148.593,0,0,1,148.594-148.592c.311,0,.616.021.925.023Z" transform="translate(29.665 3312.478)" fill="#f9860b"/>
      <path id="Trazado_104231" data-name="Trazado 104231" d="M370.047-3223.527A26.473,26.473,0,0,1,396.52-3250H519.545c0,.282.021.558.021.838a148.592,148.592,0,0,1-148.594,148.592c-.311,0-.616-.021-.925-.023Z" transform="translate(-362.027 3250)" fill="#07a5b6"/>
      <g transform="matrix(1, 0, 0, 1, 0, 0)" filter="url(#Trazado_157133)">
        <path id="Trazado_157133-2" data-name="Trazado 157133" d="M-190,261.969H158.087c4.506,0,8.16-4.088,8.16-9.13V0H-181.841C-186.347,0-190,4.088-190,9.13Z" transform="translate(216.48 16.52)" fill="#fff"/>
      </g>
      <circle id="Elipse_5768" data-name="Elipse 5768" cx="26.478" cy="26.478" r="26.478" transform="translate(0 249.044) rotate(-90)" fill="url(#radial-gradient)"/>
      <circle id="Elipse_5767" data-name="Elipse 5767" cx="26.478" cy="26.478" r="26.478" transform="translate(337.278 82.723) rotate(-45)" fill="url(#radial-gradient)"/>
    </g>
    <g id="Grupo_150518" data-name="Grupo 150518" transform="translate(223.432 3349.367)">
      <g id="Grupo_150517" data-name="Grupo 150517" clip-path="url(#clip-path)">
        <g id="Grupo_150516" data-name="Grupo 150516">
          <g id="Grupo_150515" data-name="Grupo 150515" clip-path="url(#clip-path)">
            <path id="Trazado_207297" data-name="Trazado 207297" d="M574.651,349.6a14.893,14.893,0,0,0-6.371-2.193,4.246,4.246,0,0,0-3.013.554.619.619,0,0,0-.31.55.671.671,0,0,0,.295.377,9.109,9.109,0,0,0,9.4.712" transform="translate(-302.329 -185.884)" fill="#3eb9c6"/>
            <path id="Trazado_207298" data-name="Trazado 207298" d="M577.672,340.289a31.1,31.1,0,0,1-4.115-3.62,10.409,10.409,0,0,1-2.579-4.771,1.923,1.923,0,0,1,.2-1.6c3.28,2.561,5.856,5.874,6.49,9.987" transform="translate(-305.513 -176.758)" fill="#3eb9c6"/>
            <path id="Trazado_207299" data-name="Trazado 207299" d="M585.5,340.77a14.884,14.884,0,0,1,.076-5.4,7.3,7.3,0,0,1,2.878-4.458,6.38,6.38,0,0,1-.076,4.235,20.566,20.566,0,0,1-2.853,6.007" transform="translate(-313.215 -177.084)" fill="#3eb9c6"/>
            <path id="Trazado_207300" data-name="Trazado 207300" d="M583.416,364.513a9.413,9.413,0,0,0-5.109,2.586,9.664,9.664,0,0,0-2.922,5.016,6.891,6.891,0,0,0,4.716-2.982c1.178-1.514,1.994-3.175,3.288-4.59" transform="translate(-307.912 -195.066)" fill="#3eb9c6"/>
            <path id="Trazado_207301" data-name="Trazado 207301" d="M593.152,352.775a12.6,12.6,0,0,1,1.455-11.918,15.173,15.173,0,0,1-1.455,11.918" transform="translate(-316.95 -182.406)" fill="#3eb9c6"/>
            <path id="Trazado_207302" data-name="Trazado 207302" d="M593.12,377.357a9.112,9.112,0,0,0-8.712,5.015c-.108.216-.2.489-.059.683a.649.649,0,0,0,.578.17,7.584,7.584,0,0,0,4.494-2.321,42.934,42.934,0,0,1,3.737-3.552" transform="translate(-312.67 -201.93)" fill="#3eb9c6"/>
            <path id="Trazado_207303" data-name="Trazado 207303" d="M602.17,362.888a16.221,16.221,0,0,1-.162-9.063,4.42,4.42,0,0,1,1.934-2.942.381.381,0,0,1,.3-.052.392.392,0,0,1,.187.217,5.458,5.458,0,0,1,.456,2.6,16.32,16.32,0,0,1-.407,2.632,14,14,0,0,1-1.4,4.725,9.636,9.636,0,0,0-.561,1.038c-.167.353-.168.477-.321.757" transform="translate(-321.856 -187.736)" fill="#3eb9c6"/>
            <path id="Trazado_207304" data-name="Trazado 207304" d="M626.839,368.894a11.686,11.686,0,0,1,2.048-9.609c.147-.191.342-.4.582-.374.368.034.463.524.447.893a17.362,17.362,0,0,1-3.077,9.089" transform="translate(-335.281 -192.067)" fill="#3eb9c6"/>
            <path id="Trazado_207305" data-name="Trazado 207305" d="M629.38,378.055a13.977,13.977,0,0,0,11.469-2.333,9.283,9.283,0,0,0-6.209-.762,8.856,8.856,0,0,0-5.26,3.095" transform="translate(-336.807 -200.535)" fill="#3eb9c6"/>
            <path id="Trazado_207306" data-name="Trazado 207306" d="M631.219,370.411a13.256,13.256,0,0,1,10.409-6.019,6.41,6.41,0,0,1-3.4,3.764,18.884,18.884,0,0,1-5,1.461,3.522,3.522,0,0,0-2.008.794" transform="translate(-337.791 -195.001)" fill="#3eb9c6"/>
            <path id="Trazado_207307" data-name="Trazado 207307" d="M625.938,341.356a30.248,30.248,0,0,0,1.331-6.1,10.152,10.152,0,0,0-1.214-6.03,13.273,13.273,0,0,0-.178,12.335" transform="translate(-334.165 -176.185)" fill="#3eb9c6"/>
            <path id="Trazado_207308" data-name="Trazado 207308" d="M642.247,338.526a16.334,16.334,0,0,1,12.024-8.18,13.4,13.4,0,0,1-12.024,8.18" transform="translate(-343.693 -176.782)" fill="#3eb9c6"/>
            <path id="Trazado_207309" data-name="Trazado 207309" d="M639.06,348.937c3.513.535,6.506,2.778,9.789,4.139a4.386,4.386,0,0,0,2.213.424,1.732,1.732,0,0,0,1.085-3.064,4.735,4.735,0,0,0-1.607-.975,17.865,17.865,0,0,0-11.176-.623" transform="translate(-341.987 -186.355)" fill="#3eb9c6"/>
            <path id="Trazado_207310" data-name="Trazado 207310" d="M634.687,354.85a4.15,4.15,0,0,1,1.7,1.176,18.3,18.3,0,0,0,7.422,3.813c.284.07.656.1.8-.158.123-.224-.033-.495-.192-.694a10.214,10.214,0,0,0-4.482-3.042c-1.713-.638-3.2-1.407-5.242-1.242" transform="translate(-339.647 -189.804)" fill="#3eb9c6"/>
            <path id="Trazado_207311" data-name="Trazado 207311" d="M629.752,322.6a14.047,14.047,0,0,0,10.77,3.664.738.738,0,0,0,.49-.176c.271-.3-.054-.75-.37-1a12.406,12.406,0,0,0-10.89-2.492" transform="translate(-337.006 -172.432)" fill="#3eb9c6"/>
            <path id="Trazado_207312" data-name="Trazado 207312" d="M635.6,317.528a15.009,15.009,0,0,1,13.439-2.217,10.671,10.671,0,0,1-6.4,2.811,20.274,20.274,0,0,1-7.035-.594" transform="translate(-340.137 -168.357)" fill="#3eb9c6"/>
            <path id="Trazado_207313" data-name="Trazado 207313" d="M631.188,295.243c-.311-3.161-.109-5.655-.329-8.83-.018-.253-.072-.559-.309-.65-.331-.127-.606.279-.715.616a10.122,10.122,0,0,0,1.348,8.8" transform="translate(-336.803 -152.911)" fill="#3eb9c6"/>
            <path id="Trazado_207314" data-name="Trazado 207314" d="M632.788,295.5a18.588,18.588,0,0,0,5.235-5.088,6.956,6.956,0,0,0,1.671-4.846,5.01,5.01,0,0,0-3.776,1.875,10.542,10.542,0,0,0-1.925,3.873c-.419,1.39-.713,2.819-1.2,4.186" transform="translate(-338.631 -152.817)" fill="#3eb9c6"/>
            <path id="Trazado_207315" data-name="Trazado 207315" d="M643.775,294.75a42.211,42.211,0,0,0,12.884-7.6,6.576,6.576,0,0,0-4.839.372,15.261,15.261,0,0,0-8.112,7.19" transform="translate(-344.475 -153.497)" fill="#3eb9c6"/>
            <path id="Trazado_207316" data-name="Trazado 207316" d="M635.9,306.366a26.21,26.21,0,0,0,7.154.035,30.372,30.372,0,0,0,6.679-2.219.782.782,0,0,0,.454-.344.521.521,0,0,0-.163-.571,1.374,1.374,0,0,0-.569-.267,12.364,12.364,0,0,0-7.217.431,33.478,33.478,0,0,0-6.337,2.936" transform="translate(-340.296 -161.955)" fill="#3eb9c6"/>
            <path id="Trazado_207317" data-name="Trazado 207317" d="M605.313,311.211a12.655,12.655,0,0,1-.116-10.473,8,8,0,0,1,.927,5.207c-.18,1.789-.725,3.631-.76,5.429" transform="translate(-323.29 -160.937)" fill="#3eb9c6"/>
            <path id="Trazado_207318" data-name="Trazado 207318" d="M580.245,316.232a14.609,14.609,0,0,0-10.855,4.624,10.142,10.142,0,0,0,5.944-1.1,30.254,30.254,0,0,0,5.094-3.409" transform="translate(-304.704 -169.228)" fill="#3eb9c6"/>
            <path id="Trazado_207319" data-name="Trazado 207319" d="M571.611,312.88a15.133,15.133,0,0,0-5.794.178A6.949,6.949,0,0,0,561.4,316.8a10.469,10.469,0,0,0,5.432-1.025,31.253,31.253,0,0,0,4.779-2.9" transform="translate(-300.428 -167.333)" fill="#3eb9c6"/>
            <path id="Trazado_207320" data-name="Trazado 207320" d="M583.871,309.741a18.28,18.28,0,0,0-5.69-2.842,6.2,6.2,0,0,0-5.929,1.438,11.081,11.081,0,0,0,5.668,1.1,19.582,19.582,0,0,1,6.174.626" transform="translate(-306.236 -164.127)" fill="#3eb9c6"/>
            <path id="Trazado_207321" data-name="Trazado 207321" d="M593.286,299.1c-3.048-2.993-4.2-8.37-2.977-12.462a18.988,18.988,0,0,1,2.977,12.462" transform="translate(-315.641 -153.392)" fill="#3eb9c6"/>
            <path id="Trazado_207322" data-name="Trazado 207322" d="M615.3,283.88c.575-1.336.979-2.739,1.495-4.1A11.769,11.769,0,0,1,618.926,276a5.611,5.611,0,0,1,3.775-1.957,15.206,15.206,0,0,1-7.327,9.856" transform="translate(-329.272 -146.653)" fill="#3eb9c6"/>
            <path id="Trazado_207323" data-name="Trazado 207323" d="M602.96,292.82a19.626,19.626,0,0,0-3.34-4.064,5.588,5.588,0,0,0-4.544-1.193,10.586,10.586,0,0,0,7.885,5.258" transform="translate(-318.449 -153.826)" fill="#3eb9c6"/>
            <path id="Trazado_207324" data-name="Trazado 207324" d="M610.832,284.131a22.637,22.637,0,0,1-1.5-4.87,7.6,7.6,0,0,1,.762-4.951c1.673,3.163,2.212,6.558.827,9.857" transform="translate(-326.018 -146.795)" fill="#3eb9c6"/>
            <path id="Trazado_207325" data-name="Trazado 207325" d="M615.333,266.592c.948-3.135,3.819-5.444,6.918-6.5a2.581,2.581,0,0,1,1.213-.182,1.053,1.053,0,0,1,.894.746c.113.534-.327,1.012-.742,1.366a23.551,23.551,0,0,1-8.283,4.573" transform="translate(-329.29 -139.077)" fill="#3eb9c6"/>
            <path id="Trazado_207326" data-name="Trazado 207326" d="M615.349,256.661a22.443,22.443,0,0,1,.9-5.988,7.569,7.569,0,0,1,3.768-4.55c.314,2.042-.587,4.073-1.673,5.83a26.757,26.757,0,0,0-3.048,5.375" transform="translate(-329.272 -131.711)" fill="#3eb9c6"/>
            <path id="Trazado_207327" data-name="Trazado 207327" d="M608.532,259.134c-.783-2.285-.864-5.187-2.233-7.178-.956-1.391-2.488-2.339-3.312-3.813a5.8,5.8,0,0,0,.193,4.329,12.515,12.515,0,0,0,2.531,3.624c1.012,1.081,1.879,1.895,2.821,3.039" transform="translate(-322.504 -132.791)" fill="#3eb9c6"/>
            <path id="Trazado_207328" data-name="Trazado 207328" d="M615.2,338.163c-.061,0-.113-15.243-.118-34.043s.042-34.046.1-34.046.113,15.24.118,34.046-.041,34.043-.1,34.043" transform="translate(-329.154 -144.528)" fill="#3eb9c6"/>
            <path id="Trazado_207329" data-name="Trazado 207329" d="M628.631,318.317a3.247,3.247,0,0,1-.574.215l-1.577.532c-1.33.453-3.157,1.109-5.139,1.922a20.817,20.817,0,0,0-4.87,2.44,3.57,3.57,0,0,0-.978,1.294c-.152.358-.179.577-.2.573a.477.477,0,0,1,.007-.16,2.508,2.508,0,0,1,.112-.444,3.439,3.439,0,0,1,.955-1.38A8.558,8.558,0,0,1,618.481,322c.845-.395,1.782-.806,2.776-1.215,1.989-.815,3.83-1.45,5.175-1.866.672-.21,1.221-.364,1.6-.466a3.273,3.273,0,0,1,.6-.133" transform="translate(-329.267 -170.343)" fill="#3eb9c6"/>
            <path id="Trazado_207330" data-name="Trazado 207330" d="M634.2,295.247a.939.939,0,0,1-.16.172l-.49.459-1.826,1.659-6.078,5.411c-2.373,2.112-4.423,4.13-5.844,5.649-.712.759-1.272,1.388-1.654,1.826l-.442.5a.118.118,0,1,1-.035-.027c.092-.123.227-.305.41-.532.363-.456.906-1.1,1.605-1.877a77.052,77.052,0,0,1,5.812-5.708c2.38-2.107,4.547-4,6.121-5.364l1.872-1.607.516-.429a.944.944,0,0,1,.19-.138" transform="translate(-330.474 -157.999)" fill="#3eb9c6"/>
            <path id="Trazado_207331" data-name="Trazado 207331" d="M629.465,310.359c-.062-.028.433-1.172.927-2.619s.733-2.668.8-2.658a8.927,8.927,0,0,1-.587,2.729,17.8,17.8,0,0,1-.738,1.832,2.842,2.842,0,0,1-.4.717" transform="translate(-336.85 -163.262)" fill="#3eb9c6"/>
            <path id="Trazado_207332" data-name="Trazado 207332" d="M605.192,323.468a2.774,2.774,0,0,1-.366-.424l-.936-1.2c-.787-1.017-1.874-2.421-3.094-3.957s-2.34-2.914-3.152-3.911l-.957-1.185a2.7,2.7,0,0,1-.33-.452,2.75,2.75,0,0,1,.4.4c.245.264.59.654,1.012,1.14.843.972,1.984,2.336,3.205,3.875s2.29,2.959,3.045,4c.378.521.679.946.881,1.244a2.751,2.751,0,0,1,.3.475" transform="translate(-319.135 -167.144)" fill="#3eb9c6"/>
            <path id="Trazado_207333" data-name="Trazado 207333" d="M607.335,322.911a5.37,5.37,0,0,1-1.224-2.291,6.527,6.527,0,0,1-.278-2.309l.1.008c-.044.177-.075.27-.093.267s-.018-.1,0-.283l.1.008a10.5,10.5,0,0,0,.39,2.247,17.038,17.038,0,0,0,1.013,2.354" transform="translate(-324.199 -170.337)" fill="#3eb9c6"/>
            <path id="Trazado_207334" data-name="Trazado 207334" d="M593.373,316.934a3.957,3.957,0,0,0-.854-.5,5.71,5.71,0,0,0-2.372-.188,14.626,14.626,0,0,0-2.388.385,7.2,7.2,0,0,1-.983.236,3.438,3.438,0,0,1,.941-.386,10.914,10.914,0,0,1,2.414-.455,5.175,5.175,0,0,1,2.447.264,1.515,1.515,0,0,1,.8.641" transform="translate(-314.007 -169.103)" fill="#3eb9c6"/>
            <path id="Trazado_207335" data-name="Trazado 207335" d="M588.372,313.927c-.017.034-.5-.2-1.309-.477a13.174,13.174,0,0,0-6.6-.5c-.844.151-1.354.309-1.366.273a1.241,1.241,0,0,1,.347-.148,8.2,8.2,0,0,1,.988-.278,11.64,11.64,0,0,1,6.68.51,8.154,8.154,0,0,1,.935.424,1.24,1.24,0,0,1,.321.2" transform="translate(-309.901 -167.246)" fill="#3eb9c6"/>
            <path id="Trazado_207336" data-name="Trazado 207336" d="M613.34,297.385a54.049,54.049,0,0,1-1.7-6.686,54.108,54.108,0,0,1,1.7,6.686" transform="translate(-327.313 -155.565)" fill="#3eb9c6"/>
            <path id="Trazado_207337" data-name="Trazado 207337" d="M612.419,300.943a15.958,15.958,0,0,0-1.058-1.985,8.742,8.742,0,0,0-1.557-1.607,1.448,1.448,0,0,1,.6.31,4.83,4.83,0,0,1,1.137,1.171,4.4,4.4,0,0,1,.878,2.111" transform="translate(-326.331 -159.123)" fill="#3eb9c6"/>
            <path id="Trazado_207338" data-name="Trazado 207338" d="M599.257,373.454c-.024,0-.069-.366-.24-1.014A14.44,14.44,0,0,0,598,369.8a36.528,36.528,0,0,0-5.4-7.614c-1.206-1.378-2.377-2.679-3.371-3.924a27.474,27.474,0,0,1-2.41-3.476,16.694,16.694,0,0,1-1.217-2.58c-.112-.318-.194-.566-.239-.738a1.234,1.234,0,0,1-.063-.263c.02-.007.131.349.382.97a18.912,18.912,0,0,0,1.271,2.532,29.183,29.183,0,0,0,2.434,3.428c1,1.232,2.17,2.526,3.379,3.907a34.632,34.632,0,0,1,5.379,7.691,13.18,13.18,0,0,1,.961,2.686,7.366,7.366,0,0,1,.135.765,1.267,1.267,0,0,1,.022.27" transform="translate(-313.214 -187.944)" fill="#3eb9c6"/>
            <path id="Trazado_207339" data-name="Trazado 207339" d="M627.368,369.816a5.482,5.482,0,0,1-.631.354,13.785,13.785,0,0,0-1.636,1.082,18.792,18.792,0,0,0-2.149,1.96c-.754.8-1.531,1.722-2.324,2.714-1.586,1.989-3.068,3.75-3.956,5.154-.451.7-.779,1.285-.993,1.7a5.556,5.556,0,0,1-.347.635.594.594,0,0,1,.058-.179c.047-.113.111-.284.212-.494A16.133,16.133,0,0,1,616.54,381a56.837,56.837,0,0,1,3.916-5.209c.795-.993,1.581-1.92,2.35-2.716a17.464,17.464,0,0,1,2.2-1.944,11.549,11.549,0,0,1,1.69-1.033c.209-.1.38-.169.493-.218a.6.6,0,0,1,.178-.06" transform="translate(-329.289 -197.903)" fill="#3eb9c6"/>
            <path id="Trazado_207340" data-name="Trazado 207340" d="M632.157,379.287a9.2,9.2,0,0,1-1.334.194,17.543,17.543,0,0,0-3.162.623,9.508,9.508,0,0,0-2.832,1.486c-.653.5-.96.922-.991.9a1.022,1.022,0,0,1,.2-.307,5.034,5.034,0,0,1,.695-.711,8.589,8.589,0,0,1,2.863-1.575,14.307,14.307,0,0,1,3.214-.568,7.361,7.361,0,0,1,1.349-.039" transform="translate(-333.841 -202.964)" fill="#3eb9c6"/>
            <path id="Trazado_207341" data-name="Trazado 207341" d="M624.671,379.946c-.07-.039.531-.957,1-2.192.437-1.246.54-2.338.618-2.326a2.125,2.125,0,0,1-.022.715,7.694,7.694,0,0,1-.389,1.685,8.155,8.155,0,0,1-.773,1.546,2.16,2.16,0,0,1-.431.571" transform="translate(-334.284 -200.907)" fill="#3eb9c6"/>
            <path id="Trazado_207342" data-name="Trazado 207342" d="M631.272,344.344a1.017,1.017,0,0,1-.213.113l-.627.285c-.275.118-.607.267-.983.465s-.816.394-1.274.669l-.727.414c-.252.145-.5.317-.768.483-.536.325-1.073.726-1.647,1.135a28.254,28.254,0,0,0-6.343,6.563c-.389.587-.771,1.138-1.078,1.685-.157.271-.321.526-.457.783l-.389.741c-.259.467-.444.913-.626,1.3s-.323.72-.431,1l-.263.636a1,1,0,0,1-.106.217,1.018,1.018,0,0,1,.064-.232l.225-.652c.1-.284.223-.628.4-1.017s.348-.843.6-1.317l.378-.752c.133-.261.294-.52.449-.795.3-.555.681-1.113,1.068-1.708a27.225,27.225,0,0,1,6.389-6.611c.581-.407,1.126-.805,1.67-1.126.269-.164.523-.334.779-.476l.739-.4c.465-.268.912-.459,1.3-.644s.722-.327,1-.433l.644-.247a1,1,0,0,1,.23-.072" transform="translate(-329.294 -184.272)" fill="#3eb9c6"/>
            <path id="Trazado_207343" data-name="Trazado 207343" d="M629.117,356.244a1.529,1.529,0,0,1,.524-.78,3.3,3.3,0,0,1,2.11-.81,5.777,5.777,0,0,1,2.221.434,3.187,3.187,0,0,1,.84.408,5.168,5.168,0,0,1-.891-.261,6.7,6.7,0,0,0-2.163-.361,3.438,3.438,0,0,0-2.016.707,6.237,6.237,0,0,0-.625.662" transform="translate(-336.666 -189.789)" fill="#3eb9c6"/>
            <path id="Trazado_207344" data-name="Trazado 207344" d="M626.052,356.648a5.633,5.633,0,0,0,.465-3.985,1.29,1.29,0,0,1,.248.568,4.029,4.029,0,0,1-.341,2.922c-.186.337-.35.511-.371.5" transform="translate(-335.024 -188.724)" fill="#3eb9c6"/>
            <path id="Trazado_207345" data-name="Trazado 207345" d="M592.685,403.764a50.464,50.464,0,0,0,4.784,17.74h11.742a51.016,51.016,0,0,0,4.5-17.74Z" transform="translate(-317.17 -216.071)" fill="#3eb9c6"/>
            <path id="Trazado_207346" data-name="Trazado 207346" d="M613.942,423.915c0,.061-3.866.11-8.634.11s-8.635-.049-8.635-.11,3.865-.11,8.635-.11,8.634.049,8.634.11" transform="translate(-319.304 -226.796)" fill="#3eb9c6"/>
            <path id="Trazado_207347" data-name="Trazado 207347" d="M614.62,428.455c0,.061-3.625.11-8.094.11s-8.095-.049-8.095-.11,3.624-.11,8.095-.11,8.094.049,8.094.11" transform="translate(-320.245 -229.225)" fill="#3eb9c6"/>
            <path id="Trazado_207348" data-name="Trazado 207348" d="M603.257,411.992a33.252,33.252,0,0,1,0,5.409,33.252,33.252,0,0,1,0-5.409" transform="translate(-322.769 -220.474)" fill="#3eb9c6"/>
            <path id="Trazado_207349" data-name="Trazado 207349" d="M616.79,411.992a35.676,35.676,0,0,1,0,5.6,35.676,35.676,0,0,1,0-5.6" transform="translate(-330.011 -220.474)" fill="#3eb9c6"/>
            <path id="Trazado_207350" data-name="Trazado 207350" d="M629.5,411.89a37.089,37.089,0,0,1,0,5.713,37.089,37.089,0,0,1,0-5.713" transform="translate(-336.81 -220.419)" fill="#3eb9c6"/>
            <path id="Trazado_207351" data-name="Trazado 207351" d="M613.8,411.865c0,.061-4.534.11-10.127.11s-10.127-.049-10.127-.11,4.533-.11,10.127-.11,10.127.049,10.127.11" transform="translate(-317.629 -220.347)" fill="#3eb9c6"/>
            <path id="Trazado_207352" data-name="Trazado 207352" d="M109.707,236.2a15.74,15.74,0,0,1,3.841-1.669l.791-3.8,6.423-.113.925,3.771a15.729,15.729,0,0,1,3.9,1.533l3.247-2.128,4.622,4.463-2.012,3.318a15.751,15.751,0,0,1,1.669,3.842l3.8.791.113,6.423-3.771.925a15.729,15.729,0,0,1-1.533,3.9l2.128,3.247-4.462,4.622-3.319-2.012a15.741,15.741,0,0,1-3.842,1.669l-.791,3.8-6.423.113-.925-3.772a15.771,15.771,0,0,1-3.9-1.533l-3.247,2.128-4.622-4.462,2.012-3.319a15.734,15.734,0,0,1-1.669-3.842l-3.8-.791-.113-6.423,3.772-.925a15.773,15.773,0,0,1,1.533-3.9l-2.128-3.247,4.462-4.622Zm3.424,8.557a6.892,6.892,0,1,0,9.745-.172,6.892,6.892,0,0,0-9.745.172" transform="translate(-52.844 -123.413)" fill="#fcbc77"/>
            <path id="Trazado_207353" data-name="Trazado 207353" d="M20.9,51.423a9.974,9.974,0,0,1,2.437-1.059l.5-2.412,4.075-.072.587,2.393a9.989,9.989,0,0,1,2.473.973l2.059-1.35,2.932,2.831-1.277,2.105a9.985,9.985,0,0,1,1.059,2.437l2.412.5.072,4.075-2.393.587a9.993,9.993,0,0,1-.973,2.472l1.35,2.06L33.382,69.9l-2.105-1.277a10,10,0,0,1-2.437,1.058l-.5,2.412-4.075.072-.587-2.393A9.974,9.974,0,0,1,21.2,68.8l-2.06,1.35-2.932-2.831,1.277-2.105a9.967,9.967,0,0,1-1.059-2.437l-2.412-.5L13.946,58.2l2.393-.587a9.985,9.985,0,0,1,.972-2.472l-1.35-2.06,2.831-2.932Zm2.172,5.429a4.372,4.372,0,1,0,6.182-.109,4.372,4.372,0,0,0-6.182.109" transform="translate(-7.463 -25.623)" fill="#fcbc77"/>
            <path id="Trazado_207354" data-name="Trazado 207354" d="M573.25,54.185a13.433,13.433,0,0,1,3.28-1.425l.675-3.246,5.484-.1.789,3.22a13.43,13.43,0,0,1,3.328,1.31l2.772-1.817,3.947,3.81-1.718,2.833a13.458,13.458,0,0,1,1.425,3.281l3.246.675.1,5.485L593.354,69a13.434,13.434,0,0,1-1.309,3.327l1.817,2.772-3.81,3.946-2.834-1.718a13.443,13.443,0,0,1-3.28,1.425L583.262,82l-5.484.1-.789-3.221a13.451,13.451,0,0,1-3.328-1.309l-2.772,1.817-3.946-3.81,1.718-2.834a13.429,13.429,0,0,1-1.425-3.28l-3.246-.675-.1-5.485,3.22-.789a13.455,13.455,0,0,1,1.31-3.328l-1.817-2.772,3.81-3.946Zm2.923,7.307a5.885,5.885,0,1,0,8.321-.146,5.885,5.885,0,0,0-8.321.146" transform="translate(-301.763 -26.445)" fill="#fcbc77"/>
            <path id="Trazado_207355" data-name="Trazado 207355" d="M407.929,242.473a11.619,11.619,0,0,1,2.833-1.231l.584-2.8,4.739-.083.682,2.783a11.618,11.618,0,0,1,2.876,1.131l2.395-1.57,3.41,3.292-1.484,2.448a11.611,11.611,0,0,1,1.231,2.835l2.8.583.083,4.739-2.782.682a11.609,11.609,0,0,1-1.131,2.875l1.57,2.4-3.292,3.41L420,262.472a11.606,11.606,0,0,1-2.834,1.231l-.584,2.8-4.739.083-.682-2.783a11.638,11.638,0,0,1-2.876-1.131l-2.395,1.57-3.41-3.292,1.484-2.448a11.605,11.605,0,0,1-1.231-2.834l-2.8-.584-.083-4.739,2.783-.682a11.627,11.627,0,0,1,1.132-2.875l-1.57-2.395,3.292-3.41Zm2.526,6.313a5.085,5.085,0,1,0,7.189-.126,5.084,5.084,0,0,0-7.189.126" transform="translate(-213.973 -127.553)" fill="#fcbc77"/>
            <path id="Trazado_207356" data-name="Trazado 207356" d="M622.294,18.311a5.3,5.3,0,0,1,1.295-.562l.267-1.282,2.165-.038.311,1.271a5.294,5.294,0,0,1,1.314.516l1.094-.717L630.3,19l-.678,1.118a5.3,5.3,0,0,1,.562,1.3l1.281.266.038,2.165-1.271.312a5.306,5.306,0,0,1-.517,1.313l.717,1.094-1.5,1.558-1.119-.678a5.289,5.289,0,0,1-1.295.562l-.267,1.282-2.165.038-.311-1.271a5.313,5.313,0,0,1-1.314-.517l-1.094.717-1.558-1.5.679-1.118a5.3,5.3,0,0,1-.563-1.3l-1.281-.266L618.6,21.91l1.271-.312a5.3,5.3,0,0,1,.516-1.313l-.717-1.094,1.5-1.558Zm1.154,2.884a2.323,2.323,0,1,0,3.284-.058,2.323,2.323,0,0,0-3.284.058" transform="translate(-331.039 -8.792)" fill="#fcbc77"/>
            <path id="Trazado_207357" data-name="Trazado 207357" d="M616.694,163.47a5.3,5.3,0,0,1,1.295-.562l.267-1.282,2.165-.038.311,1.271a5.294,5.294,0,0,1,1.314.516l1.094-.717,1.558,1.5-.678,1.118a5.3,5.3,0,0,1,.563,1.3l1.281.266.038,2.165-1.271.312a5.3,5.3,0,0,1-.517,1.313l.717,1.094-1.5,1.558-1.119-.678a5.273,5.273,0,0,1-1.295.562l-.267,1.282-2.165.038-.311-1.271a5.294,5.294,0,0,1-1.314-.517l-1.094.717-1.558-1.5.678-1.118a5.312,5.312,0,0,1-.562-1.3l-1.281-.266L613,167.069l1.271-.312a5.3,5.3,0,0,1,.516-1.313l-.717-1.094,1.5-1.558Zm1.154,2.884a2.323,2.323,0,1,0,3.284-.058,2.323,2.323,0,0,0-3.284.058" transform="translate(-328.042 -86.472)" fill="#fcbc77"/>
            <path id="Trazado_207358" data-name="Trazado 207358" d="M141.371,340.1a7.19,7.19,0,0,1,1.756-.763l.362-1.738,2.936-.052.423,1.724a7.183,7.183,0,0,1,1.781.7l1.484-.973,2.112,2.04-.919,1.517a7.19,7.19,0,0,1,.763,1.756l1.738.362.052,2.936-1.724.423a7.2,7.2,0,0,1-.7,1.781l.972,1.484-2.04,2.112-1.517-.919a7.215,7.215,0,0,1-1.756.763l-.362,1.738-2.936.052-.423-1.724a7.2,7.2,0,0,1-1.781-.7l-1.484.973-2.113-2.04.92-1.517a7.2,7.2,0,0,1-.763-1.756l-1.738-.362-.052-2.936,1.724-.423a7.2,7.2,0,0,1,.7-1.781l-.973-1.484,2.04-2.113Zm1.565,3.911a3.15,3.15,0,1,0,4.454-.078,3.15,3.15,0,0,0-4.454.078" transform="translate(-72.973 -180.635)" fill="#fcbc77"/>
            <path id="Trazado_207359" data-name="Trazado 207359" d="M307.192,441.563c0,.067-68.773.121-153.588.121-84.846,0-153.6-.054-153.6-.121s68.758-.121,153.6-.121c84.816,0,153.588.054,153.588.121" transform="translate(0 -236.234)" fill="#1a2e35"/>
            <path id="Trazado_207360" data-name="Trazado 207360" d="M64.681,369.322s-1.964-13.5-1.8-21.36-.01-16.7-.01-16.7h.9s-.612,15.595.054,25,2.423,13.056,2.423,13.056Z" transform="translate(-33.645 -177.274)" fill="#1a2e35"/>
            <path id="Trazado_207361" data-name="Trazado 207361" d="M68.924,296.939a2.387,2.387,0,0,0-.825-1.207,2.3,2.3,0,0,0-1.968.014c-2.735.967-5.159,6.066-6.264,8.748L63.5,316.727c6.553-6.079,7.688-14.055,5.426-19.788" transform="translate(-32.037 -158.141)" fill="#3eb9c6"/>
            <path id="Trazado_207362" data-name="Trazado 207362" d="M72.064,297.049a.705.705,0,0,1-.053.159l-.178.446c-.159.385-.383.945-.649,1.64-.535,1.389-1.216,3.332-1.825,5.519s-1.024,4.205-1.282,5.671c-.13.733-.227,1.328-.289,1.74l-.078.474a.715.715,0,0,1-.037.164.715.715,0,0,1,.007-.168l.049-.477c.045-.415.126-1.012.242-1.749a52.063,52.063,0,0,1,3.112-11.211c.28-.691.519-1.246.695-1.624l.2-.435a.72.72,0,0,1,.08-.147" transform="translate(-36.214 -158.963)" fill="#1a2e35"/>
            <path id="Trazado_207363" data-name="Trazado 207363" d="M57.748,326.882a11.078,11.078,0,0,1-5.6-9.3,20.3,20.3,0,0,1,1.648-7.927,1.022,1.022,0,0,1,.384-.575.977.977,0,0,1,.928.145c2.473,1.408,3.971,4.093,4.768,6.824a13.776,13.776,0,0,1,.56,5.612,9.325,9.325,0,0,1-2.693,5.223" transform="translate(-27.902 -165.363)" fill="#375a64"/>
            <path id="Trazado_207364" data-name="Trazado 207364" d="M61.427,329.177a.68.68,0,0,1-.013-.164c0-.124-.005-.279-.009-.469,0-.408-.018-1-.051-1.725a47.072,47.072,0,0,0-.632-5.651c-.377-2.191-.835-4.153-1.173-5.571l-.4-1.679-.1-.458a.72.72,0,0,1-.027-.162.689.689,0,0,1,.056.155c.035.119.078.268.132.451.112.392.266.962.449,1.668.364,1.413.839,3.374,1.218,5.572a41.338,41.338,0,0,1,.59,5.672c.02.73.02,1.321,0,1.729-.007.191-.014.346-.019.469a.69.69,0,0,1-.017.164" transform="translate(-31.581 -167.658)" fill="#1a2e35"/>
            <path id="Trazado_207365" data-name="Trazado 207365" d="M57.748,326.882a11.078,11.078,0,0,1-5.6-9.3,20.3,20.3,0,0,1,1.648-7.927,1.022,1.022,0,0,1,.384-.575.977.977,0,0,1,.928.145c2.473,1.408,3.971,4.093,4.768,6.824a13.776,13.776,0,0,1,.56,5.612,9.325,9.325,0,0,1-2.693,5.223" transform="translate(-27.902 -165.363)" fill="#3eb9c6"/>
            <path id="Trazado_207366" data-name="Trazado 207366" d="M72.466,391.572c3.349.736,6.107,3.1,9.339,4.247,2.137.76,4.555,1.029,6.262,2.524a5.307,5.307,0,0,0-2.324-2.312,41.671,41.671,0,0,0-8.464-4.041,8.052,8.052,0,0,0-4.718-.531" transform="translate(-38.78 -209.392)" fill="#3eb9c6"/>
            <path id="Trazado_207367" data-name="Trazado 207367" d="M47.33,393.229c-4.194-.067-8.611-3.638-12.786-3.852,4.369-1.411,10.625-.258,12.786,3.852" transform="translate(-18.486 -208.064)" fill="#3eb9c6"/>
            <path id="Trazado_207368" data-name="Trazado 207368" d="M65.574,370.8a13.65,13.65,0,0,1,6.706-.456,40.736,40.736,0,0,1,6.547,1.779c-.215-1.455-1.394-2.55-2.5-3.519a17.513,17.513,0,0,0-2.629-2.02,5.855,5.855,0,0,0-3.153-.889,4.985,4.985,0,0,0-3.479,1.753,5.78,5.78,0,0,0-1.49,3.352" transform="translate(-35.091 -195.695)" fill="#3eb9c6"/>
            <path id="Trazado_207369" data-name="Trazado 207369" d="M35.417,364.413c-2.641-2.254-6.64-2.034-10.111-1.956a82.352,82.352,0,0,1,15.68,9.771c.141-2.454-2.234-4.968-5.569-7.816" transform="translate(-13.542 -193.942)" fill="#375a64"/>
            <path id="Trazado_207370" data-name="Trazado 207370" d="M35.417,364.413c-2.641-2.254-6.64-2.034-10.111-1.956a82.352,82.352,0,0,1,15.68,9.771c.141-2.454-2.234-4.968-5.569-7.816" transform="translate(-13.542 -193.942)" fill="#3eb9c6"/>
            <path id="Trazado_207371" data-name="Trazado 207371" d="M68.113,347.535a29.366,29.366,0,0,1,4.061-2.36c1.39-.632,2.686-1.637,4.029-2.364a43.983,43.983,0,0,0,4.846-3.421,12.584,12.584,0,0,1,5.307-2.533,10.442,10.442,0,0,0-4.83.279,31.212,31.212,0,0,0-4.546,1.769,22.168,22.168,0,0,0-5.839,3.385c-1.684,1.507-3.206,2.993-3.028,5.245" transform="translate(-36.442 -180.175)" fill="#3eb9c6"/>
            <path id="Trazado_207372" data-name="Trazado 207372" d="M77.738,394.681a.518.518,0,0,1-.133-.057l-.366-.19c-.316-.168-.769-.417-1.341-.7-.283-.149-.6-.3-.936-.464s-.7-.332-1.089-.5a15.975,15.975,0,0,0-2.583-.9A5.549,5.549,0,0,0,68.6,391.8a7.69,7.69,0,0,0-1.14.341,5.822,5.822,0,0,0-.92.472,5.89,5.89,0,0,0-1.157.955c-.243.26-.361.42-.372.412a.521.521,0,0,1,.075-.124,3.855,3.855,0,0,1,.253-.327,5.4,5.4,0,0,1,1.143-1.005,5.709,5.709,0,0,1,.93-.5,7.547,7.547,0,0,1,1.156-.36,5.588,5.588,0,0,1,2.757.056,15.309,15.309,0,0,1,2.6.919c.388.172.753.342,1.088.514s.65.326.931.482c.566.3,1.012.563,1.32.747l.352.214a.523.523,0,0,1,.118.084" transform="translate(-34.79 -209.517)" fill="#1a2e35"/>
            <path id="Trazado_207373" data-name="Trazado 207373" d="M55.318,393.85a.961.961,0,0,1,.263.077,5.884,5.884,0,0,1,.683.3,8.3,8.3,0,0,1,3.5,3.367,5.875,5.875,0,0,1,.324.671.946.946,0,0,1,.087.259c-.024.011-.18-.345-.5-.877a9.288,9.288,0,0,0-3.462-3.327c-.545-.3-.906-.443-.9-.468" transform="translate(-29.603 -210.764)" fill="#1a2e35"/>
            <path id="Trazado_207374" data-name="Trazado 207374" d="M35.354,366.262a.879.879,0,0,1,.179.053l.5.179.794.293c.309.115.645.284,1.025.452a24.226,24.226,0,0,1,5.461,3.479,26.646,26.646,0,0,1,2.546,2.507,28.2,28.2,0,0,1,1.807,2.29c.479.679.842,1.243,1.091,1.634l.287.45a.883.883,0,0,1,.093.162.836.836,0,0,1-.118-.145c-.073-.1-.18-.244-.311-.435-.264-.382-.64-.937-1.128-1.605s-1.1-1.44-1.825-2.26a27.877,27.877,0,0,0-2.54-2.485,25.562,25.562,0,0,0-5.409-3.5c-.376-.173-.708-.349-1.012-.47l-.782-.316-.493-.205a.9.9,0,0,1-.169-.081" transform="translate(-18.919 -196.002)" fill="#1a2e35"/>
            <path id="Trazado_207375" data-name="Trazado 207375" d="M71.226,371.26a1.5,1.5,0,0,1-.334-.043l-.385-.071c-.15-.029-.325-.029-.516-.049a5.273,5.273,0,0,0-2.883.569,5.207,5.207,0,0,0-1.312.973,5.955,5.955,0,0,0-.843,1.043,8.634,8.634,0,0,0-.576,1.1,1.215,1.215,0,0,1,.085-.327,4.7,4.7,0,0,1,.4-.829,5.568,5.568,0,0,1,.835-1.084,5.107,5.107,0,0,1,4.3-1.551c.193.027.37.035.52.073l.384.1a1.447,1.447,0,0,1,.322.1" transform="translate(-34.45 -198.516)" fill="#1a2e35"/>
            <path id="Trazado_207376" data-name="Trazado 207376" d="M75.223,343.472a.875.875,0,0,1-.159.1l-.468.254c-.407.219-.992.543-1.7.962s-1.542.946-2.43,1.581a20.271,20.271,0,0,0-2.713,2.273,6.892,6.892,0,0,0-1.11,1.437c-.275.528-.537,1.038-.779,1.527a27.781,27.781,0,0,0-1.165,2.653,16.229,16.229,0,0,0-.567,1.868c-.107.449-.146.7-.161.7a.883.883,0,0,1,.017-.186c.015-.121.04-.3.087-.526a13.916,13.916,0,0,1,.524-1.892,25.6,25.6,0,0,1,1.141-2.678c.239-.493.5-1,.773-1.534a6.939,6.939,0,0,1,1.132-1.474,19.682,19.682,0,0,1,2.741-2.281c.9-.632,1.74-1.146,2.457-1.56s1.315-.719,1.73-.922l.482-.23a.88.88,0,0,1,.172-.071" transform="translate(-34.231 -183.806)" fill="#1a2e35"/>
            <path id="Trazado_207377" data-name="Trazado 207377" d="M59.654,360.752a1.684,1.684,0,0,1-.083-.353c-.049-.259-.111-.583-.184-.969a24.791,24.791,0,0,0-1.991-6.165l-.409-.9a1.687,1.687,0,0,1-.134-.337,1.684,1.684,0,0,1,.187.311c.111.2.268.5.452.879a20.673,20.673,0,0,1,2,6.191c.066.413.113.747.137.979a1.7,1.7,0,0,1,.026.362" transform="translate(-30.424 -188.385)" fill="#1a2e35"/>
            <path id="Trazado_207378" data-name="Trazado 207378" d="M48.993,336.354a11.383,11.383,0,0,0-1.364-4.529A14.949,14.949,0,0,0,37.5,324.27l9.38,13.981,1.211,2.5a7.174,7.174,0,0,0,.9-4.392" transform="translate(-20.066 -173.53)" fill="#3eb9c6"/>
            <rect id="Rectángulo_299259" data-name="Rectángulo 299259" width="21.812" height="3.866" transform="translate(20.57 190.377)" fill="#f40b74"/>
            <path id="Trazado_207379" data-name="Trazado 207379" d="M47.755,416.2l1.858,12h14.48l2.216-12Z" transform="translate(-25.556 -222.728)" fill="#f40b74"/>
            <path id="Trazado_207380" data-name="Trazado 207380" d="M65.848,417.776c0,.042-4.92.077-10.988.077s-10.989-.034-10.989-.077,4.919-.077,10.989-.077,10.988.034,10.988.077" transform="translate(-23.477 -223.528)" fill="#1a2e35"/>
            <path id="Trazado_207381" data-name="Trazado 207381" d="M213.88,379.671a25.47,25.47,0,1,1,17.94-14.858,25.341,25.341,0,0,1-17.94,14.858M203.267,331.59a23.755,23.755,0,1,0,14.468,1.347,23.762,23.762,0,0,0-14.468-1.347" transform="translate(-97.874 -176.231)" fill="#375a64"/>
            <path id="Trazado_207382" data-name="Trazado 207382" d="M213.88,379.671a25.47,25.47,0,1,1,17.94-14.858,25.341,25.341,0,0,1-17.94,14.858M203.267,331.59a23.755,23.755,0,1,0,14.468,1.347,23.762,23.762,0,0,0-14.468-1.347" transform="translate(-97.874 -176.231)" fill="#1a2e35"/>
            <path id="Trazado_207383" data-name="Trazado 207383" d="M212.007,381.965a25.469,25.469,0,1,1,17.94-14.858,25.341,25.341,0,0,1-17.94,14.858m-10.613-48.081a23.755,23.755,0,1,0,14.468,1.347,23.763,23.763,0,0,0-14.468-1.347" transform="translate(-96.872 -177.459)" fill="#375a64"/>
            <path id="Trazado_207384" data-name="Trazado 207384" d="M325.988,415.9l-.41,1.052c-.365.938-2,1.183-3.007.784L284.42,402.878l1.921-4.935,38.095,14.831a2.548,2.548,0,0,1,1.552,3.122" transform="translate(-152.205 -212.956)" fill="#375a64"/>
            <path id="Trazado_207385" data-name="Trazado 207385" d="M235.028,365.646c.042.052-4.8,4.045-10.817,8.918s-10.929,8.783-10.971,8.731,4.8-4.045,10.818-8.919,10.927-8.782,10.97-8.73" transform="translate(-114.113 -195.672)" fill="#1a2e35"/>
            <path id="Trazado_207386" data-name="Trazado 207386" d="M227.3,362.469c.043.052-3.539,3.1-8,6.806s-8.112,6.673-8.155,6.621,3.538-3.1,8-6.807,8.111-6.672,8.154-6.621" transform="translate(-112.995 -193.972)" fill="#1a2e35"/>
            <path id="Trazado_207387" data-name="Trazado 207387" d="M246.173,382.381c.043.052-2.408,2.16-5.475,4.708s-5.587,4.574-5.63,4.523,2.408-2.159,5.475-4.709,5.587-4.574,5.629-4.522" transform="translate(-125.795 -204.627)" fill="#1a2e35"/>
            <path id="Trazado_207388" data-name="Trazado 207388" d="M569.459,202.412a17.5,17.5,0,1,1-17.78-17.3,17.565,17.565,0,0,1,17.78,17.3m-25.867.417a8.368,8.368,0,1,0,8.233-8.541,8.4,8.4,0,0,0-8.233,8.541" transform="translate(-286.01 -99.061)" fill="#f5f5f5"/>
            <path id="Trazado_207389" data-name="Trazado 207389" d="M589.283,202.412a17.565,17.565,0,0,1-17.218,17.863l-.147-9.174a8.407,8.407,0,0,0-.269-16.812l-.146-9.174a17.559,17.559,0,0,1,17.78,17.3" transform="translate(-305.835 -99.061)" fill="#f9860b"/>
            <path id="Trazado_207390" data-name="Trazado 207390" d="M554.1,213.282a.545.545,0,0,1-.007-.136c0-.1,0-.236,0-.4a3.89,3.89,0,0,1,.044-.649,5.912,5.912,0,0,1,.145-.877,7.977,7.977,0,0,1,.871-2.274,8.39,8.39,0,0,1,10.079-3.842,7.925,7.925,0,0,1,2.168,1.124,9.322,9.322,0,0,1,.976.806,9.495,9.495,0,0,1,.848.973,8.483,8.483,0,0,1,.162,10.057,7.831,7.831,0,0,1-1.766,1.837,7.945,7.945,0,0,1-2.13,1.194,8.416,8.416,0,0,1-10.2-3.514,7.975,7.975,0,0,1-.943-2.244,5.972,5.972,0,0,1-.173-.872,3.907,3.907,0,0,1-.064-.648c-.006-.164-.011-.3-.014-.4a.576.576,0,0,1,0-.136,13.083,13.083,0,0,0,.34,2.031,8.053,8.053,0,0,0,.967,2.2,8.345,8.345,0,0,0,2.15,2.323,8.2,8.2,0,0,0,7.852,1.054,7.737,7.737,0,0,0,2.07-1.169,7.651,7.651,0,0,0,1.713-1.791,8.267,8.267,0,0,0-.157-9.777,9.372,9.372,0,0,0-.822-.948,9.211,9.211,0,0,0-.947-.787,7.723,7.723,0,0,0-2.106-1.1,8.2,8.2,0,0,0-7.812,1.308,8.345,8.345,0,0,0-2.075,2.39,8.059,8.059,0,0,0-.9,2.228,13.176,13.176,0,0,0-.275,2.041" transform="translate(-296.518 -109.514)" fill="#1a2e35"/>
            <path id="Trazado_207391" data-name="Trazado 207391" d="M569.322,202.3s-.015-.1-.032-.284-.038-.472-.067-.831q-.021-.275-.046-.612c-.027-.224-.079-.467-.123-.731a12.866,12.866,0,0,0-.393-1.8,16.821,16.821,0,0,0-2.01-4.623,17.47,17.47,0,0,0-4.505-4.894,17.281,17.281,0,0,0-7.382-3.161,16.221,16.221,0,0,0-2.208-.222c-.376-.007-.755-.038-1.137-.025l-1.153.079c-.193.017-.389.018-.581.048l-.58.1c-.387.072-.781.122-1.169.212a18.981,18.981,0,0,0-4.563,1.768c-.362.21-.712.446-1.071.67a9.065,9.065,0,0,0-1.037.746,19.451,19.451,0,0,0-1.942,1.719l-.867.992-.219.249-.194.27-.389.541-.391.543-.339.58-.34.583-.171.292-.142.308-.57,1.238-.45,1.3a17.321,17.321,0,0,0,.175,10.992l.491,1.283.609,1.22.152.3.18.287.359.572.357.569.409.53.405.528.2.264.226.242.9.963a19.359,19.359,0,0,0,2,1.656,9.055,9.055,0,0,0,1.06.712c.367.212.724.437,1.093.635a18.99,18.99,0,0,0,4.619,1.62c.391.077.787.115,1.175.174l.582.081c.194.024.39.019.583.029l1.154.041c.382,0,.76-.043,1.136-.062a16.26,16.26,0,0,0,2.2-.293,17.3,17.3,0,0,0,7.276-3.4,17.473,17.473,0,0,0,4.345-5.036,16.817,16.817,0,0,0,1.86-4.684,12.75,12.75,0,0,0,.335-1.815c.035-.265.079-.509.1-.734s.019-.43.027-.614c.018-.36.031-.636.04-.833s.023-.284.023-.284,0,.1,0,.284-.01.475-.017.835q-.007.277-.015.616c-.016.226-.057.471-.088.738a12.578,12.578,0,0,1-.315,1.827,16.734,16.734,0,0,1-1.835,4.73,17.635,17.635,0,0,1-11.7,8.564,16.327,16.327,0,0,1-2.225.3c-.38.02-.763.065-1.149.066l-1.168-.039c-.2-.01-.394-.005-.59-.028l-.59-.08c-.394-.059-.794-.1-1.19-.174a19.206,19.206,0,0,1-4.681-1.632c-.374-.2-.736-.427-1.108-.641a9.3,9.3,0,0,1-1.075-.72,19.479,19.479,0,0,1-2.025-1.676l-.913-.975-.229-.245-.205-.267-.413-.535-.414-.537-.364-.576-.363-.58-.183-.291-.154-.307-.619-1.237-.5-1.3a17.542,17.542,0,0,1-.177-11.144l.457-1.316.579-1.255.145-.312.173-.3.344-.59.345-.588.4-.55.395-.548.2-.273.222-.252.88-1a19.68,19.68,0,0,1,1.97-1.74,9.332,9.332,0,0,1,1.051-.754c.365-.226.72-.465,1.087-.677a19.194,19.194,0,0,1,4.625-1.782c.394-.091.793-.141,1.184-.212l.587-.1c.2-.03.393-.031.589-.047l1.167-.077c.386-.012.77.02,1.151.028a16.343,16.343,0,0,1,2.233.231,17.625,17.625,0,0,1,11.969,8.181,16.728,16.728,0,0,1,1.985,4.669,12.576,12.576,0,0,1,.373,1.817c.04.266.088.509.112.735s.025.431.035.615c.018.36.033.637.043.834s.007.284.007.284" transform="translate(-285.874 -98.95)" fill="#1a2e35"/>
            <path id="Trazado_207392" data-name="Trazado 207392" d="M552.521,240.659a20,20,0,0,1-20.476-19.92l10.684-.172c.087,5.423,4.213,8.836,9.61,8.749Z" transform="translate(-284.719 -118.035)" fill="#f40b74"/>
            <path id="Trazado_207393" data-name="Trazado 207393" d="M552.378,240.522a1.965,1.965,0,0,1-.013-.211c0-.147-.011-.345-.019-.6-.014-.535-.034-1.3-.059-2.275-.043-1.971-.1-4.794-.18-8.258l.092.088a11.922,11.922,0,0,1-3.215-.393,9.185,9.185,0,0,1-3.185-1.551,8.285,8.285,0,0,1-2.416-2.948,9.308,9.308,0,0,1-.913-3.945l.119.115-8.273.137-2.411.039.119-.123a22.385,22.385,0,0,0,1.088,6.319l.541,1.442c.2.466.44.91.654,1.359a10.478,10.478,0,0,0,.728,1.282,11.832,11.832,0,0,0,.791,1.2l.851,1.117c.3.351.62.675.921,1.007l.455.489.492.436.961.849a20.568,20.568,0,0,0,3.963,2.445l.946.438c.315.122.63.223.932.331l.882.308c.287.091.575.145.849.216l.794.192.375.091c.124.023.247.036.366.054l1.308.185a8.138,8.138,0,0,0,1.042.083l.767.04.478.027a1.5,1.5,0,0,1,.17.014,1.03,1.03,0,0,1-.153,0l-.47,0-.778-.012a7.625,7.625,0,0,1-1.064-.061l-1.318-.165c-.12-.017-.244-.028-.369-.05l-.378-.086-.8-.184c-.276-.068-.567-.119-.857-.209l-.891-.3c-.3-.106-.623-.2-.942-.325l-.957-.434a20.511,20.511,0,0,1-4.015-2.442l-.975-.852-.5-.438-.462-.492c-.306-.334-.632-.66-.935-1.014l-.865-1.125a12.084,12.084,0,0,1-.8-1.213,10.628,10.628,0,0,1-.74-1.294c-.218-.453-.46-.9-.665-1.373l-.55-1.457a22.536,22.536,0,0,1-1.108-6.389l0-.121.122,0,2.411-.039,8.273-.13.118,0v.118a9.1,9.1,0,0,0,.882,3.85,8.08,8.08,0,0,0,2.342,2.877,9.01,9.01,0,0,0,3.108,1.53,11.794,11.794,0,0,0,3.159.4h.091v.088c.036,3.488.065,6.33.085,8.314.006.967.01,1.725.013,2.255,0,.246,0,.439,0,.582a1.4,1.4,0,0,1-.007.192" transform="translate(-284.576 -117.897)" fill="#1a2e35"/>
            <rect id="Rectángulo_299260" data-name="Rectángulo 299260" width="92.622" height="69.238" transform="translate(184.338 2.467)" fill="#fff"/>
            <rect id="Rectángulo_299261" data-name="Rectángulo 299261" width="92.622" height="8.558" transform="translate(184.338 2.467)" fill="#75cdd6"/>
            <path id="Trazado_207394" data-name="Trazado 207394" d="M407.267,13.091a1.234,1.234,0,1,1-1.233-1.233,1.233,1.233,0,0,1,1.233,1.233" transform="translate(-216.625 -6.346)" fill="#fff"/>
            <path id="Trazado_207395" data-name="Trazado 207395" d="M416.213,13.091a1.234,1.234,0,1,1-1.233-1.233,1.233,1.233,0,0,1,1.233,1.233" transform="translate(-221.413 -6.346)" fill="#fff"/>
            <path id="Trazado_207396" data-name="Trazado 207396" d="M425.159,13.091a1.234,1.234,0,1,1-1.233-1.233,1.233,1.233,0,0,1,1.233,1.233" transform="translate(-226.2 -6.346)" fill="#fff"/>
            <path id="Trazado_207397" data-name="Trazado 207397" d="M489.029,74.4s-.007-.434-.011-1.266-.006-2.067-.011-3.677c-.006-3.221-.015-7.949-.026-13.986-.013-12.064-.03-29.362-.052-50.309l.1.1-92.614.022h-.007l.121-.121c0,24.883-.008,48.454-.012,69.238l-.109-.109,66.858.054,18.987.029,5.036.013,1.3.006c.292,0,.443.007.443.007s-.143,0-.431.007l-1.285.006-5.014.013-18.962.029-66.929.054h-.11V74.4c0-20.784-.007-44.354-.012-69.238V5.046h.129l92.614.022h.1v.1c-.021,20.973-.039,38.292-.052,50.372-.011,6.027-.02,10.747-.026,13.963,0,1.6-.008,2.828-.011,3.658s-.011,1.245-.011,1.245" transform="translate(-212.069 -2.7)" fill="#1a2e35"/>
            <path id="Trazado_207398" data-name="Trazado 207398" d="M490.037,94.929c0,.067-18.433.121-41.165.121S407.7,95,407.7,94.929s18.429-.121,41.169-.121,41.165.054,41.165.121" transform="translate(-218.179 -50.736)" fill="#e1e1e1"/>
            <path id="Trazado_207399" data-name="Trazado 207399" d="M490.037,79.639c0,.067-18.433.121-41.165.121s-41.169-.054-41.169-.121,18.429-.121,41.169-.121,41.165.054,41.165.121" transform="translate(-218.179 -42.553)" fill="#e1e1e1"/>
            <path id="Trazado_207400" data-name="Trazado 207400" d="M490.037,64.348c0,.067-18.433.121-41.165.121s-41.169-.054-41.169-.121,18.429-.121,41.169-.121,41.165.054,41.165.121" transform="translate(-218.179 -34.371)" fill="#e1e1e1"/>
            <path id="Trazado_207401" data-name="Trazado 207401" d="M490.037,49.058c0,.067-18.433.121-41.165.121s-41.169-.054-41.169-.121,18.429-.121,41.169-.121,41.165.054,41.165.121" transform="translate(-218.179 -26.188)" fill="#e1e1e1"/>
            <path id="Trazado_207402" data-name="Trazado 207402" d="M484.118,66.089c-1.6-3.872-2.7-8.1-3.935-12.114-1.071-3.491-1.171-5.123-2.09-8.072-1.448-4.645-5.28-5.16-8.066-3.9-2.483,1.122-3.554,4.041-4.378,6.667l-2.956,9.422a16.693,16.693,0,0,1-1.8,4.3,5.515,5.515,0,0,1-3.693,2.574c-2.518.332-4.772-1.776-5.849-4.107s-1.375-4.959-2.337-7.342-2.943-4.667-5.481-4.713c-3.126-.057-5.25,3.133-6.549,6.016a68.76,68.76,0,0,0-3.941,11.268,15.317,15.317,0,0,1-1.309,3.842,4.414,4.414,0,0,1-3.11,2.348c-1.716.211-3.309-1.012-4.308-2.443s-1.612-3.111-2.634-4.525-2.668-2.587-4.372-2.29c-1.53.267-2.625,1.608-3.53,2.887a67.6,67.6,0,0,0-6.323,11.006h85.162c-3.922-1.351-6.894-6.946-8.5-10.819" transform="translate(-218.045 -22.161)" fill="#f40b74"/>
            <rect id="Rectángulo_299262" data-name="Rectángulo 299262" width="4.021" height="4.021" transform="translate(209.314 60.324)" fill="#ff735d"/>
            <path id="Trazado_207403" data-name="Trazado 207403" d="M488.358,133.03H467.385a.462.462,0,1,1,0-.924h20.973a.462.462,0,0,1,0,.924" transform="translate(-249.869 -70.695)" fill="#1a2e35"/>
            <path id="Trazado_207404" data-name="Trazado 207404" d="M488.793,74.933s-.1.008-.306.013l-.9.012-3.458.023-12.717.039-41.956.035-22.131-.008h-.112v-.112c.018-10.911.033-20.212.044-26.793.013-3.281.025-5.883.032-7.674.007-.886.013-1.569.018-2.041,0-.226.007-.4.009-.525s.009-.178.009-.178.007.06.01.178.005.3.009.525c0,.472.01,1.155.018,2.041.007,1.791.018,4.394.032,7.674.011,6.581.026,15.882.044,26.793l-.113-.113,22.131-.008,41.956.035,12.717.039,3.458.022.9.012c.2,0,.306.013.306.013" transform="translate(-217.916 -20.187)" fill="#1a2e35"/>
            <g id="Grupo_150505" data-name="Grupo 150505" transform="translate(230.649 26.865)" opacity="0.3">
              <g id="Grupo_150504" data-name="Grupo 150504">
                <g id="Grupo_150503" data-name="Grupo 150503" clip-path="url(#clip-path-3)">
                  <path id="Trazado_207405" data-name="Trazado 207405" d="M526.4,57.791,496.17,85.673h15.113l18.2-16.845Z" transform="translate(-496.171 -57.791)" fill="#fff"/>
                </g>
              </g>
            </g>
            <g id="Grupo_150508" data-name="Grupo 150508" transform="translate(213.336 37.908)" opacity="0.3">
              <g id="Grupo_150507" data-name="Grupo 150507">
                <g id="Grupo_150506" data-name="Grupo 150506" clip-path="url(#clip-path-4)">
                  <path id="Trazado_207406" data-name="Trazado 207406" d="M479.837,83.911,463.209,98.386h-4.283l19.637-16.839,1.711,2.9" transform="translate(-458.926 -81.547)" fill="#fff"/>
                </g>
              </g>
            </g>
            <path id="Trazado_207407" data-name="Trazado 207407" d="M407.454,76.789a53.67,53.67,0,0,1,2.8-5.56,63.212,63.212,0,0,1,3.955-6.143,7.814,7.814,0,0,1,1.553-1.587A3.525,3.525,0,0,1,418,62.778a4.267,4.267,0,0,1,2.328.907,7.2,7.2,0,0,1,1.765,1.96c.982,1.508,1.609,3.333,2.91,4.777a5.142,5.142,0,0,0,2.44,1.558,3.21,3.21,0,0,0,1.479.018,3.565,3.565,0,0,0,1.361-.658,5.785,5.785,0,0,0,1.812-2.539,26.454,26.454,0,0,0,.921-3.169,68.5,68.5,0,0,1,2.072-6.613q.616-1.669,1.337-3.344a23.828,23.828,0,0,1,1.652-3.3,9.8,9.8,0,0,1,2.5-2.829,5.191,5.191,0,0,1,1.747-.84,4.643,4.643,0,0,1,1.958-.057,5.844,5.844,0,0,1,3.289,2.1,10.453,10.453,0,0,1,1.88,3.511c.427,1.27.722,2.583,1.091,3.876a13.178,13.178,0,0,0,1.559,3.706,6.793,6.793,0,0,0,2.976,2.59,4.1,4.1,0,0,0,3.75-.305,6.871,6.871,0,0,0,2.519-2.9,24.783,24.783,0,0,0,1.338-3.639l2.275-7.242c.378-1.18.719-2.359,1.14-3.5a12.428,12.428,0,0,1,1.654-3.216,6.1,6.1,0,0,1,1.262-1.27,5.877,5.877,0,0,1,1.574-.808A6.941,6.941,0,0,1,472.3,41.2a6.274,6.274,0,0,1,1.716.143,5.257,5.257,0,0,1,2.8,1.791,8.243,8.243,0,0,1,1.449,2.887c.623,2.023.963,4.036,1.465,5.921.243.946.527,1.858.8,2.757l.779,2.639a80.748,80.748,0,0,0,3.1,9.145,31.5,31.5,0,0,0,3.525,6.36,13,13,0,0,0,3.252,3.221,7.58,7.58,0,0,0,1.057.558c.248.107.373.169.373.169s-.131-.046-.382-.146a6.952,6.952,0,0,1-1.073-.539,12.823,12.823,0,0,1-3.3-3.206,31.222,31.222,0,0,1-3.574-6.363,79.862,79.862,0,0,1-3.139-9.15l-.786-2.635c-.272-.9-.56-1.813-.806-2.762-.509-1.894-.853-3.9-1.476-5.91a8.051,8.051,0,0,0-1.416-2.813,5.045,5.045,0,0,0-2.692-1.716,6.037,6.037,0,0,0-1.652-.135,6.744,6.744,0,0,0-1.652.335,5.512,5.512,0,0,0-2.729,2.006,12.223,12.223,0,0,0-1.619,3.16c-.415,1.133-.756,2.314-1.133,3.495l-2.269,7.243a24.95,24.95,0,0,1-1.35,3.675,7.105,7.105,0,0,1-2.609,3,4.324,4.324,0,0,1-3.964.323,7.027,7.027,0,0,1-3.087-2.68,13.388,13.388,0,0,1-1.59-3.774c-.372-1.3-.666-2.611-1.087-3.865a10.206,10.206,0,0,0-1.836-3.434,5.612,5.612,0,0,0-3.15-2.022,4.414,4.414,0,0,0-1.856.053,4.963,4.963,0,0,0-1.669.8,9.589,9.589,0,0,0-2.445,2.761,23.641,23.641,0,0,0-1.64,3.27q-.72,1.667-1.337,3.332a68.465,68.465,0,0,0-2.076,6.589,26.7,26.7,0,0,1-.935,3.193A5.991,5.991,0,0,1,430.4,71.5a3.758,3.758,0,0,1-1.438.691,3.4,3.4,0,0,1-1.569-.022,5.327,5.327,0,0,1-2.531-1.62c-1.332-1.492-1.95-3.322-2.917-4.812a7.037,7.037,0,0,0-1.717-1.922,4.116,4.116,0,0,0-2.238-.884,3.379,3.379,0,0,0-2.15.685,7.7,7.7,0,0,0-1.531,1.552,64.7,64.7,0,0,0-3.981,6.107c-1,1.735-1.7,3.124-2.172,4.068l-.523,1.08c-.118.244-.183.366-.183.366" transform="translate(-218.045 -22.042)" fill="#1a2e35"/>
            <rect id="Rectángulo_299265" data-name="Rectángulo 299265" width="83.317" height="50.081" transform="translate(69.833 97.719)" fill="#fff"/>
            <rect id="Rectángulo_299266" data-name="Rectángulo 299266" width="83.317" height="7.699" transform="translate(69.833 97.719)" fill="#75cdd6"/>
            <path id="Trazado_207408" data-name="Trazado 207408" d="M159.867,217.216a1.11,1.11,0,1,1-1.11-1.11,1.11,1.11,0,0,1,1.11,1.11" transform="translate(-84.364 -115.647)" fill="#fff"/>
            <path id="Trazado_207409" data-name="Trazado 207409" d="M167.914,217.216a1.11,1.11,0,1,1-1.11-1.11,1.11,1.11,0,0,1,1.11,1.11" transform="translate(-88.67 -115.647)" fill="#fff"/>
            <path id="Trazado_207410" data-name="Trazado 207410" d="M175.961,217.216a1.11,1.11,0,1,1-1.11-1.11,1.11,1.11,0,0,1,1.11,1.11" transform="translate(-92.977 -115.647)" fill="#fff"/>
            <path id="Trazado_207411" data-name="Trazado 207411" d="M233.4,260.154s-.007-.31-.01-.9-.006-1.475-.01-2.625c-.006-2.3-.013-5.688-.024-10.031-.012-8.68-.029-21.189-.05-36.522l.094.094-83.311.026h-.006l.121-.121c0,17.741-.006,34.672-.009,50.081l-.112-.112,59.957.054,17.193.031,4.579.013,1.182.007c.266,0,.405.007.405.007s-.13,0-.392.007l-1.17.007-4.557.013-17.167.031-60.031.054h-.112v-.112c0-15.408-.006-32.339-.009-50.081v-.121h.127l83.311.026h.094v.094c-.021,15.358-.038,27.886-.05,36.58-.01,4.334-.018,7.712-.024,10.01,0,1.142-.008,2.015-.01,2.607s-.01.883-.01.883" transform="translate(-80.251 -112.355)" fill="#1a2e35"/>
            <rect id="Rectángulo_299267" data-name="Rectángulo 299267" width="3.541" height="25.93" transform="translate(78.959 113.851)" fill="#206897"/>
            <rect id="Rectángulo_299268" data-name="Rectángulo 299268" width="3.541" height="17.123" transform="translate(85.795 122.658)" fill="#ff735d"/>
            <rect id="Rectángulo_299269" data-name="Rectángulo 299269" width="3.541" height="22.839" transform="translate(92.631 117.074)" fill="#206897"/>
            <rect id="Rectángulo_299270" data-name="Rectángulo 299270" width="3.541" height="24.929" transform="translate(99.467 114.853)" fill="#ff735d"/>
            <rect id="Rectángulo_299271" data-name="Rectángulo 299271" width="3.541" height="16.596" transform="translate(106.303 123.185)" fill="#206897"/>
            <rect id="Rectángulo_299272" data-name="Rectángulo 299272" width="3.541" height="13.341" transform="translate(113.139 126.44)" fill="#ff735d"/>
            <rect id="Rectángulo_299273" data-name="Rectángulo 299273" width="3.541" height="23.268" transform="translate(119.975 116.513)" fill="#206897"/>
            <rect id="Rectángulo_299274" data-name="Rectángulo 299274" width="3.541" height="19.073" transform="translate(126.811 120.708)" fill="#ff735d"/>
            <rect id="Rectángulo_299275" data-name="Rectángulo 299275" width="3.541" height="22.425" transform="translate(133.646 117.356)" fill="#206897"/>
            <rect id="Rectángulo_299276" data-name="Rectángulo 299276" width="3.541" height="15.278" transform="translate(140.482 124.503)" fill="#ff735d"/>
            <rect id="Rectángulo_299277" data-name="Rectángulo 299277" width="3.541" height="17.123" transform="translate(85.795 122.658)" fill="#206897"/>
            <rect id="Rectángulo_299278" data-name="Rectángulo 299278" width="3.541" height="24.929" transform="translate(99.467 114.853)" fill="#206897"/>
            <rect id="Rectángulo_299279" data-name="Rectángulo 299279" width="3.541" height="13.341" transform="translate(113.139 126.44)" fill="#206897"/>
            <rect id="Rectángulo_299280" data-name="Rectángulo 299280" width="3.541" height="19.073" transform="translate(126.811 120.708)" fill="#206897"/>
            <rect id="Rectángulo_299281" data-name="Rectángulo 299281" width="3.541" height="15.278" transform="translate(140.482 124.503)" fill="#206897"/>
            <path id="Trazado_207412" data-name="Trazado 207412" d="M236.024,300.557c0,.067-16.479.121-36.8.121s-36.806-.054-36.806-.121,16.476-.121,36.806-.121,36.8.054,36.8.121" transform="translate(-86.915 -160.776)" fill="#1a2e35"/>
            <rect id="Rectángulo_299282" data-name="Rectángulo 299282" width="44.397" height="44.397" transform="translate(6.223 61.101)" fill="#fff"/>
            <path id="Trazado_207413" data-name="Trazado 207413" d="M63.1,186.63l12.243.169A12.19,12.19,0,0,1,63.1,198.641h-.073Z" transform="translate(-33.727 -99.873)" fill="#f9860b"/>
            <path id="Trazado_207414" data-name="Trazado 207414" d="M44.919,169.056l-.172,12.009a12.014,12.014,0,1,1,12.416-12.009Z" transform="translate(-17.486 -84.041)" fill="#f40b74"/>
            <rect id="Rectángulo_299283" data-name="Rectángulo 299283" width="44.355" height="8.732" transform="translate(6.223 61.101)" fill="#75cdd6"/>
            <path id="Trazado_207415" data-name="Trazado 207415" d="M24.326,139.383a1.259,1.259,0,1,1-1.258-1.258,1.258,1.258,0,0,1,1.258,1.258" transform="translate(-11.671 -73.916)" fill="#fff"/>
            <path id="Trazado_207416" data-name="Trazado 207416" d="M33.454,139.383a1.259,1.259,0,1,1-1.258-1.258,1.259,1.259,0,0,1,1.258,1.258" transform="translate(-16.556 -73.916)" fill="#fff"/>
            <path id="Trazado_207417" data-name="Trazado 207417" d="M42.581,139.383a1.259,1.259,0,1,1-1.258-1.258,1.258,1.258,0,0,1,1.258,1.258" transform="translate(-21.44 -73.916)" fill="#fff"/>
            <path id="Trazado_207418" data-name="Trazado 207418" d="M57.644,175.7s0-.073-.006-.212,0-.348-.006-.615c0-.546-.007-1.346-.012-2.387-.007-2.09-.016-5.146-.027-9.032-.013-7.768-.032-18.853-.053-32.151l.1.1-44.393.016h0l.121-.121c-.006,16.257-.012,31.492-.016,44.4l-.1-.1,32.152.053,9.031.027,2.386.012.615.006c.139,0,.212.006.212.006s-.066,0-.2.006l-.6.006-2.366.013-9.008.027-32.219.053h-.1V175.7c-.005-12.9-.011-28.139-.016-44.4v-.121h.126l44.393.017h.105v.1c-.022,13.326-.04,24.434-.053,32.218-.012,3.876-.021,6.924-.027,9.008-.006,1.032-.01,1.826-.013,2.367,0,.262,0,.463-.006.6s-.006.2-.006.2" transform="translate(-7.024 -70.199)" fill="#1a2e35"/>
            <rect id="Rectángulo_299284" data-name="Rectángulo 299284" width="121.054" height="87.36" transform="translate(38.096 0.121)" fill="#fff"/>
            <path id="Trazado_207419" data-name="Trazado 207419" d="M252.483,63H223.8a8.638,8.638,0,0,1-8.638-8.638V51.5a8.638,8.638,0,0,1,8.638-8.638h28.684a8.638,8.638,0,0,1,8.638,8.638v2.866A8.638,8.638,0,0,1,252.483,63" transform="translate(-115.142 -22.938)" fill="#ececec"/>
            <path id="Trazado_207420" data-name="Trazado 207420" d="M100.608,69.232a18.728,18.728,0,1,1,19.026,18.509,18.8,18.8,0,0,1-19.026-18.509m27.679-.447a8.954,8.954,0,1,0-8.81,9.139,8.983,8.983,0,0,0,8.81-9.139" transform="translate(-53.838 -26.819)" fill="#f5f5f5"/>
            <path id="Trazado_207421" data-name="Trazado 207421" d="M100.608,69.235a18.8,18.8,0,0,1,18.424-19.114l.157,9.817a9,9,0,0,0,.288,17.989l.157,9.817a18.789,18.789,0,0,1-19.026-18.509" transform="translate(-53.838 -26.822)" fill="#f9860b"/>
            <path id="Trazado_207422" data-name="Trazado 207422" d="M139.4,79.982a.659.659,0,0,1,.007.146c0,.11,0,.251,0,.428a4.187,4.187,0,0,1-.047.694,6.313,6.313,0,0,1-.156.938,8.527,8.527,0,0,1-.932,2.431,8.971,8.971,0,0,1-10.778,4.106,9.431,9.431,0,0,1-1.193-.5,9.57,9.57,0,0,1-1.124-.7,10.062,10.062,0,0,1-1.043-.862,10.184,10.184,0,0,1-.906-1.04,8.85,8.85,0,0,1-1.337-2.485,9.033,9.033,0,0,1-.093-5.739,8.863,8.863,0,0,1,1.257-2.527,8.374,8.374,0,0,1,1.887-1.964,8.3,8.3,0,0,1,2.278-1.277,9,9,0,0,1,10.9,3.756,8.549,8.549,0,0,1,1.01,2.4,6.394,6.394,0,0,1,.186.933,4.172,4.172,0,0,1,.07.693c.007.177.012.318.016.428a.641.641,0,0,1,0,.146.651.651,0,0,1-.022-.145c-.011-.109-.024-.249-.04-.425a4.487,4.487,0,0,0-.092-.685,6.589,6.589,0,0,0-.206-.919,8.625,8.625,0,0,0-1.034-2.354,8.929,8.929,0,0,0-2.3-2.487,8.781,8.781,0,0,0-8.407-1.131,8.064,8.064,0,0,0-2.216,1.252,9.8,9.8,0,0,0-.987.874,9.991,9.991,0,0,0-.848,1.044,8.643,8.643,0,0,0-1.221,2.463,9.527,9.527,0,0,0-.41,2.8,8.938,8.938,0,0,0,1.8,5.208,9.975,9.975,0,0,0,.881,1.015,9.827,9.827,0,0,0,1.014.842,8.084,8.084,0,0,0,2.255,1.179,8.782,8.782,0,0,0,8.366-1.4,8.926,8.926,0,0,0,2.221-2.56,8.628,8.628,0,0,0,.959-2.386,6.536,6.536,0,0,0,.176-.926,4.441,4.441,0,0,0,.07-.688c.011-.176.02-.317.027-.425a.676.676,0,0,1,.017-.146" transform="translate(-64.952 -38.015)" fill="#1a2e35"/>
            <path id="Trazado_207423" data-name="Trazado 207423" d="M100.608,69.119s.015.1.033.3.04.5.071.89q.022.294.049.655c.029.24.085.5.131.782s.1.586.159.911a10,10,0,0,0,.26,1.019,18.008,18.008,0,0,0,2.15,4.948,18.7,18.7,0,0,0,4.822,5.238l.816.591c.284.185.587.349.884.528s.593.37.917.516l.976.451.5.229.52.181,1.056.368c.357.116.733.184,1.1.28a9.535,9.535,0,0,0,1.133.24,17.357,17.357,0,0,0,2.363.238c.4.007.809.04,1.217.027L121,87.431c.207-.018.416-.019.622-.052l.621-.106c.414-.077.836-.131,1.251-.227a19.416,19.416,0,0,0,2.473-.776,19.628,19.628,0,0,0,2.412-1.116c.387-.225.762-.478,1.147-.717a9.675,9.675,0,0,0,1.11-.8,20.674,20.674,0,0,0,2.079-1.84l.929-1.061.234-.267.207-.289.417-.579.418-.582.363-.621.364-.624.183-.313.152-.33.61-1.326q.24-.692.482-1.39a18.541,18.541,0,0,0-.187-11.768l-.526-1.374-.652-1.306-.163-.325-.193-.307-.384-.612-.383-.609-.437-.568-.435-.565L133.5,56.7l-.242-.259-.963-1.031a20.8,20.8,0,0,0-2.137-1.773,9.776,9.776,0,0,0-1.135-.762c-.393-.227-.775-.468-1.17-.68a20.324,20.324,0,0,0-4.944-1.733c-.418-.082-.842-.123-1.258-.186l-.623-.086c-.207-.025-.417-.02-.624-.031l-1.236-.045c-.409,0-.814.046-1.216.067a17.316,17.316,0,0,0-2.355.314,9.668,9.668,0,0,0-1.125.277c-.367.108-.74.188-1.094.316l-1.043.4-.515.2-.488.245-.961.483c-.318.156-.6.367-.9.545s-.589.361-.867.556l-.8.616a18.714,18.714,0,0,0-4.65,5.391,18,18,0,0,0-1.99,5.014,9.93,9.93,0,0,0-.228,1.027l-.13.915c-.038.284-.085.545-.106.786s-.02.46-.028.656c-.019.386-.033.682-.043.892s-.023.3-.023.3,0-.1,0-.3.011-.507.019-.894q.008-.3.017-.659c.017-.242.061-.5.095-.79s.077-.593.119-.921a9.952,9.952,0,0,1,.218-1.034,17.912,17.912,0,0,1,1.964-5.06A18.768,18.768,0,0,1,107.7,54l.8-.625c.279-.2.579-.374.873-.565s.586-.395.906-.554l.969-.491.492-.249.519-.2,1.053-.41c.357-.13.734-.212,1.1-.323a9.754,9.754,0,0,1,1.136-.283,17.525,17.525,0,0,1,2.38-.324c.407-.022.816-.069,1.229-.071l1.25.042c.21.011.421.006.631.031l.631.086c.421.063.85.1,1.273.186a20.534,20.534,0,0,1,5.007,1.746c.4.214.787.457,1.185.687a9.915,9.915,0,0,1,1.15.77,20.981,20.981,0,0,1,2.166,1.792l.976,1.043.245.262.22.285.441.572.443.575.389.617.389.62.2.311.165.329.661,1.323.534,1.392a18.758,18.758,0,0,1,.19,11.919l-.489,1.408-.619,1.343-.155.334-.185.317-.369.632-.369.628-.424.589-.422.586-.211.292-.237.27-.941,1.073a20.906,20.906,0,0,1-2.107,1.861,9.958,9.958,0,0,1-1.124.807c-.39.242-.769.5-1.162.724a19.818,19.818,0,0,1-2.443,1.125,19.605,19.605,0,0,1-2.5.781c-.42.1-.847.151-1.266.227l-.628.106c-.209.032-.421.033-.63.051l-1.248.082c-.413.013-.824-.022-1.23-.03a17.56,17.56,0,0,1-2.389-.246,9.652,9.652,0,0,1-1.145-.246c-.374-.1-.753-.168-1.114-.286l-1.065-.375-.525-.185-.5-.233-.984-.459c-.326-.148-.618-.353-.924-.524s-.6-.348-.89-.536l-.821-.6a18.759,18.759,0,0,1-4.835-5.305,17.9,17.9,0,0,1-2.126-4.994,9.963,9.963,0,0,1-.251-1.026q-.08-.49-.149-.917c-.043-.284-.095-.545-.12-.786s-.026-.461-.038-.658c-.02-.387-.036-.683-.047-.893s-.008-.3-.008-.3" transform="translate(-53.838 -26.706)" fill="#1a2e35"/>
            <path id="Trazado_207424" data-name="Trazado 207424" d="M136.629,46.871a21.4,21.4,0,0,1,21.91,21.315l-11.432.184c-.093-5.8-4.508-9.455-10.284-9.362Z" transform="translate(-73.116 -25.081)" fill="#f40b74"/>
            <path id="Trazado_207425" data-name="Trazado 207425" d="M136.622,46.87s.007.079.013.225.012.369.02.64c.014.571.035,1.389.061,2.434.046,2.108.11,5.129.19,8.838l-.092-.089a12.766,12.766,0,0,1,3.438.421A9.825,9.825,0,0,1,143.658,61a8.848,8.848,0,0,1,2.582,3.151,9.944,9.944,0,0,1,.976,4.218l-.119-.115,8.853-.146,2.58-.041-.119.123a23.979,23.979,0,0,0-1.165-6.764l-.579-1.543c-.216-.5-.471-.974-.7-1.455a11.247,11.247,0,0,0-.78-1.372,12.737,12.737,0,0,0-.847-1.287l-.911-1.195c-.32-.376-.663-.723-.986-1.078l-.487-.523-.527-.466L150.4,51.6a22.014,22.014,0,0,0-4.243-2.616l-1.013-.469c-.338-.131-.674-.238-1-.354l-.944-.329c-.308-.1-.616-.155-.909-.231l-.85-.205-.4-.1c-.132-.025-.264-.039-.392-.058l-1.4-.2a8.689,8.689,0,0,0-1.115-.088l-.821-.041-.512-.028a1.752,1.752,0,0,1-.181-.014,1.193,1.193,0,0,1,.165,0l.5.006.832.014a8.1,8.1,0,0,1,1.138.066l1.409.177c.129.018.261.03.4.053l.4.093.857.2c.295.073.606.128.917.223l.953.323c.326.113.666.219,1.007.348l1.024.464a21.98,21.98,0,0,1,4.294,2.613l1.043.912.533.469.494.526c.327.357.676.706,1,1.085l.925,1.2a12.857,12.857,0,0,1,.86,1.3,11.381,11.381,0,0,1,.791,1.384c.233.485.492.965.711,1.468l.588,1.559a24.118,24.118,0,0,1,1.185,6.835l0,.12-.122,0-2.58.042-8.853.139-.118,0,0-.117a9.736,9.736,0,0,0-.945-4.124,8.656,8.656,0,0,0-2.509-3.081A9.656,9.656,0,0,0,140.2,59.53a12.63,12.63,0,0,0-3.382-.432h-.091v-.088c-.04-3.733-.072-6.773-.094-8.9-.007-1.036-.012-1.848-.016-2.414v-.624a1.6,1.6,0,0,1,.006-.206" transform="translate(-73.109 -25.08)" fill="#1a2e35"/>
            <rect id="Rectángulo_299285" data-name="Rectángulo 299285" width="121.054" height="11.668" transform="translate(38.096 0.121)" fill="#75cdd6"/>
            <path id="Trazado_207426" data-name="Trazado 207426" d="M262.4,55.726H228.383a.726.726,0,0,1,0-1.452H262.4a.726.726,0,1,1,0,1.452" transform="translate(-121.829 -29.044)" fill="#1a2e35"/>
            <path id="Trazado_207427" data-name="Trazado 207427" d="M262.4,64.027H228.383a.726.726,0,0,1,0-1.452H262.4a.726.726,0,1,1,0,1.452" transform="translate(-121.829 -33.486)" fill="#1a2e35"/>
            <path id="Trazado_207428" data-name="Trazado 207428" d="M243.844,72.328H228.383a.726.726,0,0,1,0-1.452h15.462a.726.726,0,1,1,0,1.452" transform="translate(-121.829 -37.929)" fill="#1a2e35"/>
            <path id="Trazado_207429" data-name="Trazado 207429" d="M252.483,116.008H223.8a8.638,8.638,0,0,1-8.638-8.638V104.5a8.638,8.638,0,0,1,8.638-8.638h28.684a8.638,8.638,0,0,1,8.638,8.638v2.866a8.638,8.638,0,0,1-8.638,8.638" transform="translate(-115.142 -51.302)" fill="#ececec"/>
            <path id="Trazado_207430" data-name="Trazado 207430" d="M256.1,157.053h-38a3.982,3.982,0,1,1,0-7.963h38a3.982,3.982,0,0,1,0,7.963" transform="translate(-114.586 -79.784)" fill="#ececec"/>
            <path id="Trazado_207431" data-name="Trazado 207431" d="M261.92,109.12H227.9a.726.726,0,0,1,0-1.452H261.92a.726.726,0,1,1,0,1.452" transform="translate(-121.57 -57.618)" fill="#1a2e35"/>
            <path id="Trazado_207432" data-name="Trazado 207432" d="M258.8,157.733H224.783a.726.726,0,0,1,0-1.452H258.8a.726.726,0,1,1,0,1.452" transform="translate(-119.902 -83.632)" fill="#1a2e35"/>
            <path id="Trazado_207433" data-name="Trazado 207433" d="M261.92,117.421H227.9a.726.726,0,0,1,0-1.452H261.92a.726.726,0,1,1,0,1.452" transform="translate(-121.57 -62.06)" fill="#1a2e35"/>
            <path id="Trazado_207434" data-name="Trazado 207434" d="M243.36,125.722H227.9a.726.726,0,0,1,0-1.452H243.36a.726.726,0,1,1,0,1.452" transform="translate(-121.57 -66.502)" fill="#1a2e35"/>
            <path id="Trazado_207435" data-name="Trazado 207435" d="M193.268,51.977a3.221,3.221,0,0,1-.636.047l-1.734.039c-1.465.022-3.488.035-5.722.035l-2.605-.007.081-.033c-1.137,1.125-2.118,2.085-2.819,2.758L179,55.6a1.68,1.68,0,0,1-.315.261,1.679,1.679,0,0,1,.261-.315l.781-.827c.673-.7,1.633-1.683,2.758-2.819l.033-.033h.048l2.605-.007c2.235,0,4.258.013,5.722.035l1.734.039a3.221,3.221,0,0,1,.636.047" transform="translate(-95.624 -27.75)" fill="#1a2e35"/>
            <path id="Trazado_207436" data-name="Trazado 207436" d="M208.828,51.082a.966.966,0,1,1-.966-.966.967.967,0,0,1,.966.966" transform="translate(-110.718 -26.819)" fill="#1a2e35"/>
            <path id="Trazado_207437" data-name="Trazado 207437" d="M208.828,113.6a.966.966,0,1,1-.966-.966.967.967,0,0,1,.966.966" transform="translate(-110.718 -60.275)" fill="#1a2e35"/>
            <path id="Trazado_207438" data-name="Trazado 207438" d="M194.838,114.893a10.909,10.909,0,0,1-1.623.073c-1,.014-2.387.019-3.916.012l-3.916-.039-1.186-.025a3.269,3.269,0,0,1-.436-.022,6.814,6.814,0,0,1,1.621-.125c1-.027,2.388-.039,3.918-.033s2.914.03,3.916.059a10.718,10.718,0,0,1,1.622.1" transform="translate(-98.338 -61.399)" fill="#1a2e35"/>
            <rect id="Rectángulo_299286" data-name="Rectángulo 299286" width="3.168" height="3.168" transform="translate(52.827 74.739)" fill="#375a64"/>
            <rect id="Rectángulo_299287" data-name="Rectángulo 299287" width="3.168" height="3.168" transform="translate(63.458 74.739)" fill="#e1e1e1"/>
            <rect id="Rectángulo_299288" data-name="Rectángulo 299288" width="3.168" height="3.168" transform="translate(74.995 74.739)" fill="#ff735d"/>
            <path id="Trazado_207439" data-name="Trazado 207439" d="M95.962,10.875A1.614,1.614,0,1,1,94.35,9.194a1.648,1.648,0,0,1,1.612,1.681" transform="translate(-49.628 -4.92)" fill="#fff"/>
            <path id="Trazado_207440" data-name="Trazado 207440" d="M107.654,10.875a1.614,1.614,0,1,1-1.612-1.681,1.648,1.648,0,0,1,1.612,1.681" transform="translate(-55.885 -4.92)" fill="#fff"/>
            <path id="Trazado_207441" data-name="Trazado 207441" d="M119.346,10.875a1.614,1.614,0,1,1-1.612-1.681,1.648,1.648,0,0,1,1.612,1.681" transform="translate(-62.142 -4.92)" fill="#fff"/>
            <path id="Trazado_207442" data-name="Trazado 207442" d="M202.865,87.481c0-.811-.039-34.372-.1-87.36l.1.1L81.821.242h-.01l.121-.121c0,31.312-.008,61.009-.011,87.36l-.11-.11,121.054.11-121.054.11H81.7v-.11c0-26.351-.007-56.048-.011-87.36V0h.131L202.865.023h.1v.1c-.06,52.988-.1,86.55-.1,87.36" transform="translate(-43.716)" fill="#1a2e35"/>
            <rect id="Rectángulo_299289" data-name="Rectángulo 299289" width="86.226" height="64.457" transform="translate(122.779 57.688)" fill="#fff"/>
            <rect id="Rectángulo_299290" data-name="Rectángulo 299290" width="86.226" height="7.967" transform="translate(122.507 57.688)" fill="#75cdd6"/>
            <path id="Trazado_207443" data-name="Trazado 207443" d="M273.517,131.346a1.148,1.148,0,1,1-1.148-1.148,1.148,1.148,0,0,1,1.148,1.148" transform="translate(-145.142 -69.674)" fill="#fff"/>
            <path id="Trazado_207444" data-name="Trazado 207444" d="M281.845,131.346A1.148,1.148,0,1,1,280.7,130.2a1.148,1.148,0,0,1,1.148,1.148" transform="translate(-149.598 -69.674)" fill="#fff"/>
            <path id="Trazado_207445" data-name="Trazado 207445" d="M290.173,131.346a1.148,1.148,0,1,1-1.148-1.148,1.148,1.148,0,0,1,1.148,1.148" transform="translate(-154.055 -69.674)" fill="#fff"/>
            <path id="Trazado_207446" data-name="Trazado 207446" d="M349.623,188.416s-.007-.4-.011-1.179-.007-1.925-.012-3.424c-.006-3-.014-7.4-.025-13.021-.013-11.231-.03-27.334-.052-46.833l.1.1-86.219.022H263.4l.121-.121c0,23.165-.008,45.108-.012,64.457l-.109-.109,62.238.054,17.677.029L348,188.4l1.208.006c.272,0,.413.007.413.007s-.133,0-.4.007l-1.2.006-4.667.013-17.652.029-62.31.054h-.11v-.109c0-19.349-.007-41.292-.012-64.457v-.121h.128l86.219.022h.1v.1c-.021,19.525-.039,35.649-.052,46.9-.011,5.611-.02,10-.026,13,0,1.49-.008,2.632-.011,3.4s-.011,1.158-.011,1.158" transform="translate(-140.89 -66.271)" fill="#1a2e35"/>
            <path id="Trazado_207447" data-name="Trazado 207447" d="M350.571,207.523c0,.067-17.16.121-38.322.121s-38.326-.054-38.326-.121,17.156-.121,38.326-.121,38.322.054,38.322.121" transform="translate(-146.588 -110.989)" fill="#e1e1e1"/>
            <path id="Trazado_207448" data-name="Trazado 207448" d="M350.571,193.288c0,.067-17.16.121-38.322.121s-38.326-.054-38.326-.121,17.156-.121,38.326-.121,38.322.054,38.322.121" transform="translate(-146.588 -103.372)" fill="#e1e1e1"/>
            <path id="Trazado_207449" data-name="Trazado 207449" d="M350.571,179.054c0,.067-17.16.121-38.322.121s-38.326-.054-38.326-.121,17.156-.121,38.326-.121,38.322.054,38.322.121" transform="translate(-146.588 -95.754)" fill="#e1e1e1"/>
            <path id="Trazado_207450" data-name="Trazado 207450" d="M350.571,164.819c0,.067-17.16.121-38.322.121s-38.326-.054-38.326-.121,17.156-.121,38.326-.121,38.322.054,38.322.121" transform="translate(-146.588 -88.137)" fill="#e1e1e1"/>
            <rect id="Rectángulo_299291" data-name="Rectángulo 299291" width="6.376" height="12.824" transform="translate(133.822 93.534)" fill="#206897"/>
            <rect id="Rectángulo_299292" data-name="Rectángulo 299292" width="6.376" height="12.824" transform="translate(156.708 93.534)" fill="#206897"/>
            <rect id="Rectángulo_299293" data-name="Rectángulo 299293" width="6.376" height="8.453" transform="translate(191.424 97.906)" fill="#206897"/>
            <rect id="Rectángulo_299294" data-name="Rectángulo 299294" width="6.376" height="18.897" transform="translate(179.595 87.461)" fill="#206897"/>
            <rect id="Rectángulo_299295" data-name="Rectángulo 299295" width="6.376" height="26.254" transform="translate(167.895 80.104)" fill="#206897"/>
            <rect id="Rectángulo_299296" data-name="Rectángulo 299296" width="6.376" height="18.897" transform="translate(144.809 87.461)" fill="#206897"/>
            <path id="Trazado_207451" data-name="Trazado 207451" d="M349.4,188.918s-.1.008-.285.013l-.837.012-3.219.023L333.223,189l-39.059.035-20.6-.008h-.113v-.112c.018-10.157.033-18.815.044-24.943.013-3.053.025-5.476.032-7.144.007-.823.013-1.46.018-1.9,0-.209.007-.371.009-.489s.009-.165.009-.165.007.056.01.165.005.28.009.489c0,.44.01,1.077.018,1.9.007,1.669.018,4.091.032,7.144.011,6.128.026,14.786.044,24.943l-.112-.113,20.6-.008,39.059.035,11.839.039,3.219.022.837.012c.189,0,.285.013.285.013" transform="translate(-146.333 -82.559)" fill="#1a2e35"/>
            <rect id="Rectángulo_299297" data-name="Rectángulo 299297" width="2.802" height="2.802" transform="translate(140.63 112.864)" fill="#ff735d"/>
            <rect id="Rectángulo_299298" data-name="Rectángulo 299298" width="2.802" height="2.802" transform="translate(157.756 112.775)" fill="#e1e1e1"/>
            <rect id="Rectángulo_299299" data-name="Rectángulo 299299" width="2.802" height="2.802" transform="translate(176.283 112.864)" fill="#375a64"/>
            <path id="Trazado_207452" data-name="Trazado 207452" d="M319.728,245.475a60.28,60.28,0,0,1-7.631,0,60.28,60.28,0,0,1,7.631,0" transform="translate(-167.016 -131.299)" fill="#1a2e35"/>
            <path id="Trazado_207453" data-name="Trazado 207453" d="M356.289,245.475a60.279,60.279,0,0,1-7.631,0,60.279,60.279,0,0,1,7.631,0" transform="translate(-186.581 -131.299)" fill="#1a2e35"/>
            <path id="Trazado_207454" data-name="Trazado 207454" d="M395.214,245.475a60.279,60.279,0,0,1-7.631,0,60.279,60.279,0,0,1,7.631,0" transform="translate(-207.412 -131.299)" fill="#1a2e35"/>
            <rect id="Rectángulo_299300" data-name="Rectángulo 299300" width="29.794" height="29.794" transform="translate(167.298 37.546)" fill="#fff"/>
            <path id="Trazado_207455" data-name="Trazado 207455" d="M389.546,110.424s0-.051-.006-.144,0-.237-.006-.415c0-.372-.007-.908-.013-1.605-.006-1.408-.015-3.459-.027-6.065-.013-5.214-.031-12.649-.053-21.565l.1.1-29.791.016h0l.121-.121c-.006,10.909-.012,21.132-.016,29.794l-.105-.1,21.566.053,6.065.027,1.6.013.415.006c.093,0,.144.006.144.006a1.031,1.031,0,0,1-.132.006l-.4.006-1.585.013-6.041.027-21.633.053h-.1v-.105c0-8.661-.01-18.884-.016-29.794v-.121h.124l29.791.016h.105v.105c-.022,8.943-.04,16.4-.053,21.632-.012,2.6-.021,4.639-.027,6.041-.005.688-.009,1.218-.012,1.585,0,.172,0,.305-.006.4a1.176,1.176,0,0,1-.006.132" transform="translate(-192.453 -43.084)" fill="#1a2e35"/>
            <path id="Trazado_207456" data-name="Trazado 207456" d="M384.2,102.25a4.8,4.8,0,0,0,2.862-4.443,4.513,4.513,0,1,0-9.008-.042,4.794,4.794,0,0,0,2.87,4.484c-6.931,1.044-6.616,8.577-6.616,8.577l16.39.075s.374-7.615-6.5-8.652" transform="translate(-200.305 -49.759)" fill="#f40b74"/>
            <path id="Trazado_207457" data-name="Trazado 207457" d="M516.112,74.139a1.163,1.163,0,0,0-.8-.344,4.22,4.22,0,0,0-2.475.479,3.616,3.616,0,0,0,.5-4.329,4.084,4.084,0,0,0-4.038-1.83,4.7,4.7,0,0,0-3.515,2.811,5.547,5.547,0,0,0,.2,4.554l2.583.678a7.236,7.236,0,0,0,4.065,1.25,2.129,2.129,0,0,0,1.6-.526c.39-.427.325-1.265-.227-1.441a2.686,2.686,0,0,0,1.61.022c.5-.212.835-.9.492-1.323" transform="translate(-270.456 -36.427)" fill="#1a2e35"/>
            <path id="Trazado_207458" data-name="Trazado 207458" d="M474.248,72.739a6.308,6.308,0,0,0-4.858.5,3.75,3.75,0,0,0-6.473.99,3.173,3.173,0,0,0-3.186,5.407,4.076,4.076,0,0,0-1.7,6.2c-1.221.592-1.43,2.245-1.25,3.591s.568,2.786-.036,4c-.466.939-1.427,1.52-2.084,2.336s-.887,2.223,0,2.777a2.835,2.835,0,1,0,1.026,5.57,3.476,3.476,0,0,0,.37,3.334,5.6,5.6,0,0,0,2.787,2.032,8.33,8.33,0,0,0,9.1-2.566L477.975,75.9a6.308,6.308,0,0,0-3.727-3.156" transform="translate(-241.996 -38.421)" fill="#1a2e35"/>
            <path id="Trazado_207459" data-name="Trazado 207459" d="M489.782,87.415l.134-1.673-9.948-2.52c-3.083-.515-6.625,2.393-7.009,5.5a55.53,55.53,0,0,0-.556,10.277c.512,5.24,4.451,6.14,4.451,6.14l-.288,5.154,11.471.835Z" transform="translate(-252.759 -44.504)" fill="#c27460"/>
            <path id="Trazado_207460" data-name="Trazado 207460" d="M476.306,104.339a.667.667,0,0,0,.6.71.638.638,0,0,0,.722-.559.667.667,0,0,0-.6-.711.638.638,0,0,0-.723.559" transform="translate(-254.889 -55.534)" fill="#1a2e35"/>
            <path id="Trazado_207461" data-name="Trazado 207461" d="M475.759,99.279c.077.092.6-.251,1.32-.206s1.22.435,1.3.352c.041-.036-.034-.2-.253-.379a1.828,1.828,0,0,0-1.036-.389,1.755,1.755,0,0,0-1.058.272c-.231.156-.314.308-.276.35" transform="translate(-254.594 -52.794)" fill="#1a2e35"/>
            <path id="Trazado_207462" data-name="Trazado 207462" d="M490.295,105.1a.667.667,0,0,0,.6.71.638.638,0,0,0,.722-.559.668.668,0,0,0-.6-.711.638.638,0,0,0-.723.559" transform="translate(-262.376 -55.94)" fill="#1a2e35"/>
            <path id="Trazado_207463" data-name="Trazado 207463" d="M490.888,100.478c.078.092.6-.251,1.32-.206s1.22.435,1.3.352c.04-.037-.033-.2-.253-.378a1.824,1.824,0,0,0-1.036-.389,1.755,1.755,0,0,0-1.058.272c-.23.156-.314.308-.276.35" transform="translate(-262.69 -53.435)" fill="#1a2e35"/>
            <path id="Trazado_207464" data-name="Trazado 207464" d="M482.553,105.44a4.759,4.759,0,0,0-1.151-.28c-.182-.03-.353-.077-.376-.2a.936.936,0,0,1,.155-.535l.625-1.36a23.957,23.957,0,0,0,1.434-3.57,23.956,23.956,0,0,0-1.718,3.446l-.6,1.37a1.061,1.061,0,0,0-.138.712.459.459,0,0,0,.285.285,1.234,1.234,0,0,0,.308.062,4.676,4.676,0,0,0,1.179.073" transform="translate(-257.273 -53.242)" fill="#1a2e35"/>
            <path id="Trazado_207465" data-name="Trazado 207465" d="M481.988,128.806a13.772,13.772,0,0,0,7.241-1.436s-1.972,3.529-7.315,2.73Z" transform="translate(-257.892 -68.161)" fill="#7c4236"/>
            <path id="Trazado_207466" data-name="Trazado 207466" d="M491.25,95.259c.071.2.787.1,1.629.2.844.085,1.523.331,1.634.156.05-.084-.068-.267-.343-.456a2.855,2.855,0,0,0-2.487-.274c-.309.125-.464.278-.434.37" transform="translate(-262.886 -50.689)" fill="#1a2e35"/>
            <path id="Trazado_207467" data-name="Trazado 207467" d="M476.124,95.421c.115.171.62.036,1.213.069.595.012,1.088.185,1.215.023.056-.079-.012-.247-.22-.417a1.761,1.761,0,0,0-1.957-.074c-.221.153-.3.316-.251.4" transform="translate(-254.786 -50.711)" fill="#1a2e35"/>
            <path id="Trazado_207468" data-name="Trazado 207468" d="M471.695,83.335a8.71,8.71,0,0,1,4.739-3.129l8.4,1.057.715-.013c.158-.529,1.051-.807,1.051-.807.79-.606,3.525-.639,5.432,1.354a6.491,6.491,0,0,1,1.192,3.522c.006.377-.4.893-.083,1.1a9.627,9.627,0,0,0,1.147.081c2.137.469,3.473,2.364,3.086,5.2a1.441,1.441,0,0,0-.046.427,1.168,1.168,0,0,0,.375.557,3.71,3.71,0,0,1,.589,4.128,4.392,4.392,0,0,0-.572,1.239c-.13.808.461,1.529.918,2.208,1.371,2.036,1.666,4.994.056,6.847a3.872,3.872,0,0,0-1.042,1.431,3.429,3.429,0,0,0-.046.871c.01,1.479-.769,3.134-2.215,3.445-.8.173-1.777-.053-2.348.537a3.473,3.473,0,0,0-.512.936,3,3,0,0,1-3.456,1.488c-1.3-.4-1.736-5.693-1.547-7.045-1.58-.574-2.749-.675-2.675-2.355a14.783,14.783,0,0,0-.224-4.3c-.468-1.407.47-4.4,1.005-5.858s-.1-4.842-.246-6.188a4.907,4.907,0,0,1,.112-1.152v0c.058-.327.135-.7.225-1.091.033-.368.337-2.333.331-2.677-.02-1.273-1.6-.593-2.808-.187a3.078,3.078,0,0,1-.905.163,3.22,3.22,0,0,1-2.6-1.23,4.638,4.638,0,0,1-4.58,1.252A12.629,12.629,0,0,1,473,87.672a4.255,4.255,0,0,1-3.078,1.058,8.713,8.713,0,0,1,1.771-5.4" transform="translate(-251.475 -42.854)" fill="#1a2e35"/>
            <path id="Trazado_207469" data-name="Trazado 207469" d="M485.661,115.416a1.268,1.268,0,0,1,1.111-.527,1.157,1.157,0,0,1,.82.388.733.733,0,0,1,.1.834.851.851,0,0,1-.909.279,2.666,2.666,0,0,1-.925-.491.781.781,0,0,1-.211-.2.235.235,0,0,1-.012-.261" transform="translate(-259.863 -61.481)" fill="#7c4236"/>
            <path id="Trazado_207470" data-name="Trazado 207470" d="M486.942,113.238c-.114,0-.078.761-.7,1.336s-1.442.531-1.442.638c-.008.048.188.139.532.131a1.9,1.9,0,0,0,1.206-.489,1.656,1.656,0,0,0,.541-1.118c.013-.32-.081-.5-.133-.5" transform="translate(-259.435 -60.598)" fill="#1a2e35"/>
            <path id="Trazado_207471" data-name="Trazado 207471" d="M443.7,406.8l.946,9.85s-10.736,4.011-10.853,6l20.3.055-.012-1.484-.851-5.067-1.255-9.842Z" transform="translate(-232.142 -217.43)" fill="#375a64"/>
            <path id="Trazado_207472" data-name="Trazado 207472" d="M469.12,425.226a.848.848,0,0,1,.589.966.815.815,0,0,1-.953.592.9.9,0,0,1-.618-1.027.846.846,0,0,1,1.059-.506" transform="translate(-250.504 -227.537)" fill="#e1e1e1"/>
            <path id="Trazado_207473" data-name="Trazado 207473" d="M454.084,439.861l-.012-1.484-19.468.373s-.924.4-.818,1.056Z" transform="translate(-232.132 -234.594)" fill="#1a2e35"/>
            <path id="Trazado_207474" data-name="Trazado 207474" d="M456.417,428.22c0,.1.511.146,1.011.471s.767.751.86.71c.093-.02-.059-.626-.671-1.009s-1.222-.265-1.2-.172" transform="translate(-244.248 -229.108)" fill="#1a2e35"/>
            <path id="Trazado_207475" data-name="Trazado 207475" d="M451.735,430.231c-.023.1.417.27.762.7s.446.882.547.877c.1.016.164-.578-.276-1.1s-1.032-.569-1.034-.472" transform="translate(-241.742 -230.212)" fill="#1a2e35"/>
            <path id="Trazado_207476" data-name="Trazado 207476" d="M448.148,433.882c.092.021.232-.486-.03-1.04s-.737-.775-.78-.69.252.381.46.84.249.881.35.891" transform="translate(-239.386 -231.253)" fill="#1a2e35"/>
            <path id="Trazado_207477" data-name="Trazado 207477" d="M454.865,422.812c.043.093.508-.049,1.081-.011s1.021.217,1.073.13-.378-.448-1.054-.483-1.151.284-1.1.364" transform="translate(-243.415 -226.068)" fill="#1a2e35"/>
            <path id="Trazado_207478" data-name="Trazado 207478" d="M497.451,407.463l.87,9.682s-10.571,3.876-10.7,5.825l19.94.177,0-1.458-.806-4.983-1.173-9.677Z" transform="translate(-260.947 -217.818)" fill="#375a64"/>
            <path id="Trazado_207479" data-name="Trazado 207479" d="M522.418,425.6a.833.833,0,0,1,.573.953.8.8,0,0,1-.939.576.879.879,0,0,1-.6-1.012.832.832,0,0,1,1.044-.491" transform="translate(-279.033 -227.738)" fill="#e1e1e1"/>
            <path id="Trazado_207480" data-name="Trazado 207480" d="M507.554,440.023l0-1.458-19.128.249s-.91.392-.809,1.032Z" transform="translate(-260.938 -234.694)" fill="#1a2e35"/>
            <path id="Trazado_207481" data-name="Trazado 207481" d="M509.924,428.462c0,.1.5.146.99.469s.748.742.84.7c.092-.019-.054-.615-.654-.995s-1.2-.268-1.177-.177" transform="translate(-272.881 -229.239)" fill="#1a2e35"/>
            <path id="Trazado_207482" data-name="Trazado 207482" d="M505.313,430.409c-.023.1.408.267.745.69s.433.869.532.865c.093.016.165-.568-.264-1.085s-1.01-.565-1.013-.47" transform="translate(-270.413 -230.308)" fill="#1a2e35"/>
            <path id="Trazado_207483" data-name="Trazado 207483" d="M501.768,433.973c.09.021.231-.476-.023-1.022s-.719-.766-.762-.683.245.376.447.827.239.867.338.878" transform="translate(-268.093 -231.316)" fill="#1a2e35"/>
            <path id="Trazado_207484" data-name="Trazado 207484" d="M508.43,423.144c.041.091.5-.045,1.062,0s1,.22,1.054.134-.369-.442-1.032-.48-1.132.272-1.084.35" transform="translate(-272.08 -226.252)" fill="#1a2e35"/>
            <path id="Trazado_207485" data-name="Trazado 207485" d="M448.333,223.091s-4.811,13.934-4.977,24.3a332.362,332.362,0,0,0,1.825,45.03c2.157,18.182,3.152,25.489,3.152,25.489h10.949a214.4,214.4,0,0,0,1-21.581c-.165-10.2-.963-13.424.016-24.639s2.529-17.951,4.16-21.35A23.4,23.4,0,0,0,469.3,237.6a35.941,35.941,0,0,0-2.276-13.7Z" transform="translate(-237.211 -119.385)" fill="#1a2e35"/>
            <path id="Trazado_207486" data-name="Trazado 207486" d="M475.1,243.369c.182.56,3.431,23.4,5.8,33.48s5.007,12.743,5.47,20.939a151.57,151.57,0,0,0,3.12,20.85h11.659s-1.64-17.425-3.279-31.047-4.008-30.415-3.644-35.452,1.275-11.26,0-18.318-4.032-8.92-4.032-8.92l-9.891-.447Z" transform="translate(-254.243 -120.115)" fill="#1a2e35"/>
            <path id="Trazado_207487" data-name="Trazado 207487" d="M489.426,237.036a2.413,2.413,0,0,1,.181.355,7.032,7.032,0,0,1,.4,1.072,14.2,14.2,0,0,1,.384,4.176,27.544,27.544,0,0,1-.959,6.147,19.758,19.758,0,0,1-1.272,3.459,24.633,24.633,0,0,1-2.107,3.343,20.29,20.29,0,0,0-2.96,6.915,49.27,49.27,0,0,0-1.106,6.1c-.215,1.753-.344,3.179-.441,4.163q-.071.712-.114,1.133a2.411,2.411,0,0,1-.056.394,2.451,2.451,0,0,1,.007-.4q.025-.423.068-1.137c.067-.987.17-2.415.364-4.175a46.887,46.887,0,0,1,1.06-6.131,29.832,29.832,0,0,1,1.1-3.512,17.359,17.359,0,0,1,.814-1.777,18.472,18.472,0,0,1,1.06-1.708,24.743,24.743,0,0,0,2.093-3.311,19.773,19.773,0,0,0,1.27-3.413,28.229,28.229,0,0,0,1-6.094,14.847,14.847,0,0,0-.3-4.145,8.325,8.325,0,0,0-.349-1.077,2.476,2.476,0,0,1-.135-.374" transform="translate(-257.599 -126.848)" fill="#375a64"/>
            <path id="Trazado_207488" data-name="Trazado 207488" d="M394.748,149a33.151,33.151,0,0,0,5.642,2.328l4.071-3.254s-2.912-5.322-3.85-6.83a8.063,8.063,0,0,1-.759-1.61c-.315-1.133-1.146-.651-1.3.242a4.853,4.853,0,0,0,.253,1.436,4.209,4.209,0,0,1,.284,1.726s-.3-.252-1.029-.745c-.8-.536-3.491-2.783-4.629-3.723-1.7-1.405-2.557-.534-2.335.009.276.675,4.5,3.631,4.345,4.136,0,0-.813.462-.927.988a2.669,2.669,0,0,0,.008,1.047s-.761.074-.965.563a1.9,1.9,0,0,0,.058,1.177s-.706.066-.787.45.407,1.156,1.919,2.06" transform="translate(-209.274 -73.749)" fill="#c27460"/>
            <path id="Trazado_207489" data-name="Trazado 207489" d="M411.495,145.7c.061.184,8.729,9.058,8.729,9.058s7.233-8.148,9.435-11.145,5.542-6.673,8.416-7.361,6.87,1.164,6.87,1.164l-5.092,10.47-6.429,8.838s-6.946,8.725-10.249,10.07-6.539-.587-7.945-2.055-9.753-14.154-9.753-14.154Z" transform="translate(-216.987 -72.83)" fill="#f9860b"/>
            <path id="Trazado_207490" data-name="Trazado 207490" d="M485.479,139.881l-19.945-3.456a78.082,78.082,0,0,0-7.61,19.995c-2.072,10.245-4.433,20.48-4.433,20.48l18.423,2.27a21.233,21.233,0,0,0,5.771-.079l1.92-.29-1.578-6.505a131.636,131.636,0,0,0,5.7-16.831c2.476-10.065,1.756-15.583,1.756-15.583" transform="translate(-242.682 -73.007)" fill="#f9860b"/>
            <path id="Trazado_207491" data-name="Trazado 207491" d="M468.265,164.816a2.335,2.335,0,0,1-.324.437l-.935,1.143c-.79.964-1.861,2.313-3.047,3.8s-2.281,2.824-3.106,3.762c-.412.47-.752.843-1,1.094a2.346,2.346,0,0,1-.4.374,2.314,2.314,0,0,1,.324-.436l.935-1.143c.79-.964,1.861-2.313,3.047-3.8s2.281-2.823,3.106-3.761c.412-.47.752-.843,1-1.094a2.331,2.331,0,0,1,.4-.374" transform="translate(-245.877 -88.2)" fill="#1a2e35"/>
            <path id="Trazado_207492" data-name="Trazado 207492" d="M495.506,214.217a5.391,5.391,0,0,1-1.251.36,18.549,18.549,0,0,1-6.259.241,5.418,5.418,0,0,1-1.275-.262,9.624,9.624,0,0,1,1.294.092,25.063,25.063,0,0,0,6.209-.239,9.658,9.658,0,0,1,1.283-.192" transform="translate(-260.465 -114.633)" fill="#1a2e35"/>
            <path id="Trazado_207493" data-name="Trazado 207493" d="M436.678,181.788a26.4,26.4,0,0,1,.072-5.051,26.4,26.4,0,0,1-.072,5.051" transform="translate(-233.636 -94.579)" fill="#1a2e35"/>
            <g id="Grupo_150511" data-name="Grupo 150511" transform="translate(229.549 68.026)" opacity="0.3">
              <g id="Grupo_150510" data-name="Grupo 150510">
                <g id="Grupo_150509" data-name="Grupo 150509" clip-path="url(#clip-path-5)">
                  <path id="Trazado_207494" data-name="Trazado 207494" d="M506.41,147.448l-12.462-1.111a2.079,2.079,0,0,0,1.32,2.716,4.034,4.034,0,0,0,3.2,6.016,3.729,3.729,0,0,1,.993.124c.691.249,1.021,1.007,1.436,1.613a3.773,3.773,0,0,0,2.323,1.612,2.755,2.755,0,0,0,2.622-.87,4.567,4.567,0,0,0,.76-2.73,48.647,48.647,0,0,0-.193-7.369" transform="translate(-493.804 -146.337)"/>
                </g>
              </g>
            </g>
            <g id="Grupo_150514" data-name="Grupo 150514" transform="translate(214.489 77.341)" opacity="0.3">
              <g id="Grupo_150513" data-name="Grupo 150513">
                <g id="Grupo_150512" data-name="Grupo 150512" clip-path="url(#clip-path-6)">
                  <path id="Trazado_207495" data-name="Trazado 207495" d="M461.406,175.378a8.8,8.8,0,0,0,7.046-9c-2.609,2.829-4.809,6.453-7.046,9" transform="translate(-461.406 -166.376)"/>
                </g>
              </g>
            </g>
            <path id="Trazado_207496" data-name="Trazado 207496" d="M509,118.579l-10.635-11.835c.389,3-.743,5.992-2.1,8.7-.774,1.54-1.638,3.372-.825,4.892a10.092,10.092,0,0,0-1.757,2.4,3.409,3.409,0,0,0-.114,2.885,2.087,2.087,0,0,0,2.476,1.123,3.244,3.244,0,0,0,4.474,4.024,5.144,5.144,0,0,0,1.989,3.1,3.413,3.413,0,0,0,3.562.233,2.574,2.574,0,0,0,1.05-3.25c2.34-.517,3.8-3.039,3.871-5.435s-.937-4.68-1.99-6.832" transform="translate(-263.985 -57.123)" fill="#1a2e35"/>
            <path id="Trazado_207497" data-name="Trazado 207497" d="M476.8,82.3c0,.008-.057.032-.176.07a1.481,1.481,0,0,1-.542.038,2.151,2.151,0,0,1-1.61-1.108,2.079,2.079,0,0,1-.223-1.373,2.785,2.785,0,0,1,.731-1.418,3.028,3.028,0,0,1,1.527-.877,4.1,4.1,0,0,1,1.885.019,5.3,5.3,0,0,1,1.036.368l-.164.064a4.356,4.356,0,0,1,2.228-2.3,4.2,4.2,0,0,1,4.146.429,2.835,2.835,0,0,1,.357.3c.075.076.111.118.106.123s-.177-.136-.512-.35a4.389,4.389,0,0,0-1.56-.611,4.024,4.024,0,0,0-2.447.3,4.189,4.189,0,0,0-2.094,2.191l-.048.118-.116-.055a5.1,5.1,0,0,0-.987-.349,3.906,3.906,0,0,0-1.775-.024,2.824,2.824,0,0,0-1.42.8,2.606,2.606,0,0,0-.695,1.3,1.915,1.915,0,0,0,.176,1.257,2.09,2.09,0,0,0,1.471,1.1,2.478,2.478,0,0,0,.705-.014" transform="translate(-253.772 -40.365)" fill="#375a64"/>
            <path id="Trazado_207498" data-name="Trazado 207498" d="M516.248,92.222c-.019-.009.089-.219.2-.627a4.208,4.208,0,0,0,.094-1.776,3.834,3.834,0,0,0-1.245-2.294,4.036,4.036,0,0,0-3.045-.992l-.178.019.05-.173a4.774,4.774,0,0,0,.183-1.092,4.957,4.957,0,0,0-1.155-3.428,4.761,4.761,0,0,0-2.558-1.53,5.127,5.127,0,0,0-2.045-.063c-.481.086-.737.186-.745.164a.625.625,0,0,1,.18-.087,3.563,3.563,0,0,1,.546-.17,4.989,4.989,0,0,1,4.79,1.541,5.126,5.126,0,0,1,1.228,3.585,4.992,4.992,0,0,1-.195,1.15l-.128-.154a4.213,4.213,0,0,1,3.214,1.071A3.948,3.948,0,0,1,516.7,89.8a4.033,4.033,0,0,1-.17,1.825,2.779,2.779,0,0,1-.194.456c-.054.1-.085.149-.092.146" transform="translate(-270.678 -42.84)" fill="#375a64"/>
            <path id="Trazado_207499" data-name="Trazado 207499" d="M491.308,84.114c-.006.01-.123-.032-.3-.171a2.074,2.074,0,0,1-.569-.745,2.438,2.438,0,0,1-.192-1.382,2.594,2.594,0,0,1,.834-1.491,2.947,2.947,0,0,1,1.541-.733,3.385,3.385,0,0,1,2.24.461c.186.116.275.2.267.212a8.9,8.9,0,0,0-1.162-.417,3.413,3.413,0,0,0-1.309-.036,2.834,2.834,0,0,0-1.414.693,2.45,2.45,0,0,0-.777,1.349,2.367,2.367,0,0,0,.129,1.277,2.97,2.97,0,0,0,.708.984" transform="translate(-262.338 -42.573)" fill="#375a64"/>
            <path id="Trazado_207500" data-name="Trazado 207500" d="M504.382,134.944c-.005.007-.056-.025-.148-.091a3.033,3.033,0,0,1-.378-.324,4.363,4.363,0,0,1-1.071-4.257,4.477,4.477,0,0,1,2.09-2.561,4.229,4.229,0,0,1,1.306-.477l-.067.2a3.382,3.382,0,0,1-.812-2.705,3.155,3.155,0,0,1,1.111-1.982,3.2,3.2,0,0,1,1.353-.68,2.141,2.141,0,0,1,.4-.058c.093,0,.141,0,.142.006s-.192.035-.524.134a3.372,3.372,0,0,0-1.271.717,3.038,3.038,0,0,0-1.005,1.891,3.2,3.2,0,0,0,.78,2.516l.144.159-.211.04a4.041,4.041,0,0,0-1.231.453,4.309,4.309,0,0,0-2,2.416,4.209,4.209,0,0,0,.044,2.586,4.568,4.568,0,0,0,.883,1.541c.282.317.472.462.457.48" transform="translate(-268.968 -65.29)" fill="#375a64"/>
            <path id="Trazado_207501" data-name="Trazado 207501" d="M500.883,92.095l-.332-1.5a10.963,10.963,0,0,0-1.068,7.043c.206,1.106.574,2.292.095,3.31-.327.695-1,1.171-1.381,1.836-.486.842-.127,3.059-.252,3.5-.284.995-1.247,1.63-1.474,2.831a2.979,2.979,0,0,0,1.141,3.228c2.032-3.352,4.112-6.835,4.591-10.726a22.548,22.548,0,0,0-1.319-9.518" transform="translate(-265.643 -48.481)" fill="#1a2e35"/>
            <path id="Trazado_207502" data-name="Trazado 207502" d="M514.308,100.854a.457.457,0,0,1-.173.01,3.729,3.729,0,0,1-.494-.052,3.393,3.393,0,0,1-1.665-.749,2.58,2.58,0,0,1-.728-1.057,1.97,1.97,0,0,1,.025-1.478,1.806,1.806,0,0,1,1.255-1.045,1.317,1.317,0,0,1,.9.128.839.839,0,0,1,.434.844.683.683,0,0,1-.273.439.9.9,0,0,1-.468.148,1.74,1.74,0,0,1-.867-.207,4.162,4.162,0,0,1-1.271-1,4.114,4.114,0,0,1-.685-4.3,3.4,3.4,0,0,1,.229-.441c.062-.095.1-.142.106-.138s-.1.215-.247.613a4.313,4.313,0,0,0-.238,1.752,4.074,4.074,0,0,0,2.213,3.308,1.522,1.522,0,0,0,.747.178.494.494,0,0,0,.514-.385.6.6,0,0,0-.315-.6,1.087,1.087,0,0,0-.731-.1,1.589,1.589,0,0,0-1.1.9,1.773,1.773,0,0,0-.039,1.32,2.44,2.44,0,0,0,.653,1,3.5,3.5,0,0,0,1.569.784c.412.1.65.113.648.134" transform="translate(-272.906 -49.205)" fill="#375a64"/>
          </g>
        </g>
      </g>
    </g>
  </g>
</svg>
