<svg xmlns="http://www.w3.org/2000/svg" xmlns:xlink="http://www.w3.org/1999/xlink" width="411.421" height="313.275" viewBox="0 0 411.421 313.275">
  <defs>
    <filter id="Trazado_157133" x="17.479" y="10.516" width="372.496" height="298.244" filterUnits="userSpaceOnUse">
      <feOffset dy="3" input="SourceAlpha"/>
      <feGaussianBlur stdDeviation="3" result="blur"/>
      <feFlood flood-opacity="0.161"/>
      <feComposite operator="in" in2="blur"/>
      <feComposite in="SourceGraphic"/>
    </filter>
    <radialGradient id="radial-gradient" cx="0.473" cy="0.169" r="1.287" gradientTransform="matrix(0.707, 0.707, -0.707, 0.707, 0.274, -0.091)" gradientUnits="objectBoundingBox">
      <stop offset="0" stop-color="#ffd673"/>
      <stop offset="0.457" stop-color="#ffb600"/>
      <stop offset="0.973" stop-color="#ff6b00"/>
    </radialGradient>
    <clipPath id="clip-path">
      <rect id="Rect치ngulo_299258" data-name="Rect치ngulo 299258" width="283.9" height="240.814" fill="none"/>
    </clipPath>
    <clipPath id="clip-path-3">
      <rect id="Rect치ngulo_299256" data-name="Rect치ngulo 299256" width="7.248" height="34.512" fill="none"/>
    </clipPath>
  </defs>
  <g id="Grupo_151335" data-name="Grupo 151335" transform="translate(-180 -1780.367)">
    <g id="Grupo_149813" data-name="Grupo 149813" transform="translate(180 1780.367)">
      <path id="Trazado_104230" data-name="Trazado 104230" d="M371.519-3043.95a26.473,26.473,0,0,1-26.473,26.473H222.021c0-.281-.021-.558-.021-.837a148.593,148.593,0,0,1,148.594-148.592c.311,0,.616.021.925.023Z" transform="translate(27.915 3330.753)" fill="#f9860b"/>
      <path id="Trazado_104231" data-name="Trazado 104231" d="M370.047-3223.527A26.473,26.473,0,0,1,396.52-3250H519.545c0,.282.021.558.021.838a148.592,148.592,0,0,1-148.594,148.592c-.311,0-.616-.021-.925-.023Z" transform="translate(-362.027 3250)" fill="#07a5b6"/>
      <g transform="matrix(1, 0, 0, 1, 0, 0)" filter="url(#Trazado_157133)">
        <path id="Trazado_157133-2" data-name="Trazado 157133" d="M-190,280.244H156.377c4.484,0,8.119-4.373,8.119-9.767V0H-181.881C-186.365,0-190,4.373-190,9.767Z" transform="translate(216.48 16.52)" fill="#fff"/>
      </g>
      <circle id="Elipse_5768" data-name="Elipse 5768" cx="26.478" cy="26.478" r="26.478" transform="translate(0 263.85) rotate(-90)" fill="url(#radial-gradient)"/>
      <circle id="Elipse_5767" data-name="Elipse 5767" cx="26.478" cy="26.478" r="26.478" transform="translate(336.528 82.723) rotate(-45)" fill="url(#radial-gradient)"/>
    </g>
    <g id="Grupo_150501" data-name="Grupo 150501" transform="translate(238.803 1816.367)">
      <g id="Grupo_150500" data-name="Grupo 150500" clip-path="url(#clip-path)">
        <g id="Grupo_150499" data-name="Grupo 150499">
          <g id="Grupo_150498" data-name="Grupo 150498" clip-path="url(#clip-path)">
            <path id="Trazado_207246" data-name="Trazado 207246" d="M18.837,152.8a7.39,7.39,0,0,0-4.021,7.575A24.275,24.275,0,0,1,24,158.409" transform="translate(-4.055 -42.032)" fill="#f9860b"/>
            <path id="Trazado_207247" data-name="Trazado 207247" d="M17.488,153.727c-1.473,1.378,1.7-2.244,3-2.652a7.909,7.909,0,0,1,4.021.167c6.087,1.324,12.335,2.713,17.517,6.171,5.39,3.6,9.151,9.109,12.773,14.481a7.719,7.719,0,0,1,1.509,3.235,2.641,2.641,0,0,1-1.595,2.9,3.858,3.858,0,0,1-1.739-.044l-8.521-1.534c-3.884-.7-7.934-1.469-11.056-3.883-3.581-2.768-5.343-7.223-6.947-11.456-1.228-3.243-4.386-4.938-6.152-7.922,0,0-1.25-.919-2.808.538" transform="translate(-4.706 -41.502)" fill="#f9860b"/>
            <path id="Trazado_207248" data-name="Trazado 207248" d="M72.864,186.488a4.03,4.03,0,0,1-.578-.265l-1.622-.828c-1.4-.729-3.43-1.793-5.893-3.185a92.341,92.341,0,0,1-8.4-5.315c-1.52-1.095-3.073-2.306-4.6-3.656s-3.028-2.831-4.706-4.164a20.363,20.363,0,0,0-2.609-1.786,16.872,16.872,0,0,0-2.806-1.235c-.955-.339-1.912-.652-2.814-1.066a10.6,10.6,0,0,1-2.457-1.558,20.287,20.287,0,0,1-3.463-4.059c-.945-1.372-1.77-2.681-2.631-3.791a12.9,12.9,0,0,0-5.03-4.223,8.992,8.992,0,0,0-2.362-.581,3.913,3.913,0,0,1,.637.013,7.133,7.133,0,0,1,1.778.432,12.73,12.73,0,0,1,5.186,4.194c.886,1.115,1.727,2.42,2.678,3.778a20.243,20.243,0,0,0,3.43,3.971,10.277,10.277,0,0,0,2.383,1.5c.879.4,1.825.707,2.787,1.045a17.246,17.246,0,0,1,2.867,1.256,20.679,20.679,0,0,1,2.66,1.818c1.7,1.351,3.2,2.841,4.716,4.183s3.057,2.555,4.564,3.651a98.269,98.269,0,0,0,8.33,5.366c2.442,1.419,4.449,2.517,5.83,3.287l1.588.889a4.045,4.045,0,0,1,.542.333" transform="translate(-6.296 -41.473)" fill="#1a2e35"/>
            <path id="Trazado_207249" data-name="Trazado 207249" d="M355.056,0H307.442a10.521,10.521,0,0,0-10.521,10.521V31.193a10.521,10.521,0,0,0,10.521,10.521h1.309v8.193l8.192-8.193h38.112a10.521,10.521,0,0,0,10.521-10.521V10.521A10.521,10.521,0,0,0,355.056,0" transform="translate(-81.677)" fill="#ace1e7"/>
            <path id="Trazado_207250" data-name="Trazado 207250" d="M330.853,29.812a2.336,2.336,0,1,1-2.336-2.336,2.336,2.336,0,0,1,2.336,2.336" transform="translate(-89.726 -7.558)" fill="#fff"/>
            <path id="Trazado_207251" data-name="Trazado 207251" d="M328.38,32.374a2.7,2.7,0,1,1,2.7-2.7,2.7,2.7,0,0,1-2.7,2.7m0-4.673a1.974,1.974,0,1,0,1.974,1.974A1.977,1.977,0,0,0,328.38,27.7" transform="translate(-89.588 -7.421)" fill="#fafafa"/>
            <path id="Trazado_207252" data-name="Trazado 207252" d="M345.726,29.667a2.337,2.337,0,1,1-2.337-2.336,2.337,2.337,0,0,1,2.337,2.336" transform="translate(-93.817 -7.518)" fill="#fff"/>
            <path id="Trazado_207253" data-name="Trazado 207253" d="M343.252,32.229a2.7,2.7,0,1,1,2.7-2.7,2.7,2.7,0,0,1-2.7,2.7m0-4.673a1.974,1.974,0,1,0,1.974,1.974,1.977,1.977,0,0,0-1.974-1.974" transform="translate(-93.679 -7.381)" fill="#fafafa"/>
            <path id="Trazado_207254" data-name="Trazado 207254" d="M360.6,29.667a2.336,2.336,0,1,1-2.336-2.336,2.337,2.337,0,0,1,2.336,2.336" transform="translate(-97.908 -7.518)" fill="#fff"/>
            <path id="Trazado_207255" data-name="Trazado 207255" d="M358.124,32.229a2.7,2.7,0,1,1,2.7-2.7,2.7,2.7,0,0,1-2.7,2.7m0-4.673A1.974,1.974,0,1,0,360.1,29.53a1.977,1.977,0,0,0-1.974-1.974" transform="translate(-97.77 -7.381)" fill="#fafafa"/>
            <path id="Trazado_207256" data-name="Trazado 207256" d="M48.285,99.441c2.4,3.016,6.46,4.808,6.015,7.2-.4,2.131-2.3,8.579-2.123,10.739.225,2.81,2.808,4.763,5.186,6.276s5.022,3.3,5.506,6.073c.419,2.4-.955,4.858-.488,7.251.592,3.029,3.777,4.709,6.627,5.892q7.3,3.029,14.829,5.474a15.039,15.039,0,0,0-4.6-14.229c-1.838-1.63-4.124-2.846-5.428-4.927-1.556-2.484-1.377-5.622-1.58-8.545s-1.163-6.233-3.845-7.417c-1.493-.66-3.364-.568-4.537-1.7-1.447-1.4-1.009-3.767-1.447-5.731-.611-2.744-3.084-4.766-5.756-5.639a24.512,24.512,0,0,0-8.357-.717" transform="translate(-13.282 -27.342)" fill="#f9860b"/>
            <path id="Trazado_207257" data-name="Trazado 207257" d="M106.985,160.84c-3.338-5.41-1.944-11.921.842-17.634s7.441-10.271,12.137-14.556c4.782-4.363,10.487-8.841,16.933-8.249-3.7,1.865-5.219,6.3-6,10.372s-1.285,8.474-4.015,11.589c-1.374,1.567-3.324,2.848-3.75,4.888-.385,1.846.633,3.795.145,5.617-.79,2.956-4.9,3.791-6.171,6.573-.616,1.345-.484,3-1.35,4.2-1.1,1.521-3.43,1.651-5.1.8a11.977,11.977,0,0,1-3.93-3.947" transform="translate(-28.893 -33.105)" fill="#f9860b"/>
            <path id="Trazado_207258" data-name="Trazado 207258" d="M93.115,170.4a22.567,22.567,0,0,1-1.683-3.006c-.969-2-2.152-4.988-3.533-8.7-.7-1.857-1.438-3.9-2.289-6.063a63.754,63.754,0,0,0-3.011-6.776,16.433,16.433,0,0,0-2.225-3.282A18.428,18.428,0,0,0,77.119,140c-1.188-.778-2.446-1.51-3.645-2.389a12.991,12.991,0,0,1-3.2-3.19,8.56,8.56,0,0,1-1.366-4.309c-.112-1.486-.025-2.943-.141-4.346a8.257,8.257,0,0,0-1.177-3.888,4.5,4.5,0,0,0-1.4-1.347,9.294,9.294,0,0,0-1.781-.789,9.058,9.058,0,0,1-3.477-1.7,4.66,4.66,0,0,1-1.223-3.424c-.016-1.182.127-2.3.091-3.369a8.692,8.692,0,0,0-.637-2.978,12.674,12.674,0,0,0-3.011-4.311,23.873,23.873,0,0,0-3.149-2.5c-.917-.619-1.648-1.072-2.141-1.385l-.56-.358a.96.96,0,0,1-.183-.133,1.037,1.037,0,0,1,.2.1l.578.326c.506.291,1.25.725,2.183,1.327a23.039,23.039,0,0,1,3.212,2.465,12.767,12.767,0,0,1,3.113,4.363,8.924,8.924,0,0,1,.681,3.069c.044,1.1-.092,2.223-.068,3.372a4.343,4.343,0,0,0,1.142,3.193,8.828,8.828,0,0,0,3.359,1.606,9.6,9.6,0,0,1,1.852.815,4.832,4.832,0,0,1,1.514,1.448,8.588,8.588,0,0,1,1.246,4.059c.121,1.441.035,2.895.147,4.348a8.191,8.191,0,0,0,1.307,4.13,12.643,12.643,0,0,0,3.111,3.1c1.177.865,2.429,1.6,3.625,2.383a18.674,18.674,0,0,1,3.314,2.629,16.716,16.716,0,0,1,2.272,3.367,62.926,62.926,0,0,1,3,6.828c.839,2.177,1.568,4.223,2.247,6.084,1.348,3.726,2.49,6.722,3.416,8.734.476,1,.839,1.778,1.137,2.279l.316.584a1,1,0,0,1,.1.206" transform="translate(-13.786 -27.397)" fill="#1a2e35"/>
            <path id="Trazado_207259" data-name="Trazado 207259" d="M138.451,120.318a4.251,4.251,0,0,1-.571.309c-.38.188-.934.481-1.625.895a24.027,24.027,0,0,0-8.131,7.977,25.824,25.824,0,0,0-1.244,2.3c-.386.813-.76,1.667-1.192,2.526a12.328,12.328,0,0,1-1.6,2.5,8.035,8.035,0,0,1-2.463,1.89,23.335,23.335,0,0,0-2.739,1.532,4.615,4.615,0,0,0-1.785,2.51c-.607,2.065-.278,4.307-.982,6.344-.7,2.022-2.027,3.595-2.922,5.251a13.356,13.356,0,0,0-1.554,5.087,19.477,19.477,0,0,0,.1,4.674,40.376,40.376,0,0,0,1.616,6.615q.358,1.117.566,1.771a4.21,4.21,0,0,1,.177.625.541.541,0,0,1-.072-.149l-.176-.451c-.151-.4-.368-.986-.634-1.749a37.308,37.308,0,0,1-1.741-6.624,19.511,19.511,0,0,1-.144-4.745,13.6,13.6,0,0,1,1.561-5.221c.91-1.7,2.212-3.269,2.877-5.2s.341-4.149.971-6.337a4.994,4.994,0,0,1,1.925-2.7,23.1,23.1,0,0,1,2.786-1.556,7.7,7.7,0,0,0,2.365-1.8,12.032,12.032,0,0,0,1.565-2.419c.431-.845.808-1.694,1.2-2.512a25.852,25.852,0,0,1,1.277-2.319,23.992,23.992,0,0,1,2.92-3.738,23.1,23.1,0,0,1,5.4-4.2,17.371,17.371,0,0,1,1.665-.837,4.265,4.265,0,0,1,.6-.24" transform="translate(-30.601 -33.097)" fill="#1a2e35"/>
            <path id="Trazado_207260" data-name="Trazado 207260" d="M260.216,155.187c6.8-.589,13.713-1.176,20.472-.361s13.466,3.235,17.129,7.468c3.085,3.564,3.688,7.945,4.21,12.146q2.239,17.994,4.479,35.988c.381,3.057.745,6.222-.622,9.125-2.987,6.342-13.987,9.335-22.749,7.354A26.986,26.986,0,0,1,264.9,212.8c-3.125-6.306-3.524-13.133-3.89-19.835q-1-18.232-1.994-36.464l.887-.576" transform="translate(-71.251 -42.48)" fill="#1a2e35"/>
            <path id="Trazado_207261" data-name="Trazado 207261" d="M0,241.259l2.112,7.422,201.441,58.5,69.29-45.727v-6.236Z" transform="translate(0 -66.366)" fill="#07a5b6"/>
            <path id="Trazado_207262" data-name="Trazado 207262" d="M72.264,194.964l200.579,47.518L203.553,287.7,0,228.524Z" transform="translate(0 -53.631)" fill="#3eb9c6"/>
            <path id="Trazado_207263" data-name="Trazado 207263" d="M204.422,243.844l-38.364,18.543L95.725,243.2l34.527-18.862Z" transform="translate(-26.332 -61.712)" fill="#1a2e35"/>
            <path id="Trazado_207264" data-name="Trazado 207264" d="M185.325,247.582l10.186,3.364,9.43-5.127-15.694-5.035-9.167,4.75Z" transform="translate(-49.536 -66.235)" fill="#375a64"/>
            <path id="Trazado_207265" data-name="Trazado 207265" d="M83.376,178.918c.32,1.279,8.951,51.791,8.951,51.791l70.334,19.182-9.271-54.029Z" transform="translate(-22.935 -49.217)" fill="#1a2e35"/>
            <path id="Trazado_207266" data-name="Trazado 207266" d="M185.683,235.673c.1-.017,1.332,6.646,2.745,14.883s2.476,14.93,2.373,14.948-1.332-6.645-2.745-14.884-2.476-14.929-2.373-14.946" transform="translate(-51.076 -64.829)" fill="#375a64"/>
            <path id="Trazado_207267" data-name="Trazado 207267" d="M137.919,224.936c.855,2.21.008,4.6-1.894,5.334s-4.137-.457-4.993-2.666-.007-4.6,1.894-5.334,4.138.457,4.993,2.666" transform="translate(-35.953 -61.082)" fill="#375a64"/>
            <path id="Trazado_207268" data-name="Trazado 207268" d="M179.958,191.553c3.13-3.614,4.951-28.3,4.951-28.3l23.214,2.613s-3.338,36.11-13.942,40.443l-10.6,4.333" transform="translate(-49.503 -44.907)" fill="#ffc09d"/>
            <path id="Trazado_207269" data-name="Trazado 207269" d="M281.83,212.957s10.269,11.5,9.65,21.081l-18.216-4.315,7.022-16.766" transform="translate(-75.17 -58.58)" fill="#f40b74"/>
            <path id="Trazado_207270" data-name="Trazado 207270" d="M272.472,152.8c-.444-20.142-8.405-30-8.732-31.28a31.405,31.405,0,0,0-23.171-10.192l-21.624.351a50.353,50.353,0,0,0-16.014,4.658l-.534.155,0,.111c-6.113,3.2-12.682,8.171-13.721,16.557l-2.613,16.33,15.032.716c-1.528,5.467-3.218,6.17-1.459,11.568l5.729,9.5c0,7.58-.51,2.991-2.836,19.418l58.085,13.761c3.367-3.32.8-12.313-8.188-28.684-1.344-2.447,5.624-27.094,5.624-27.094l13,4.552" transform="translate(-51.184 -30.62)" fill="#f40b74"/>
            <path id="Trazado_207271" data-name="Trazado 207271" d="M209.414,156.4a6.868,6.868,0,0,1-.523,1.027c-.356.649-.883,1.581-1.5,2.751a23.218,23.218,0,0,0-3.012,9.72,12.227,12.227,0,0,0,1,5.472,17.7,17.7,0,0,0,2.458,3.882c.828,1.025,1.556,1.811,2.049,2.362a6.939,6.939,0,0,1,.746.878,6.468,6.468,0,0,1-.852-.776c-.526-.52-1.287-1.28-2.149-2.294a17.027,17.027,0,0,1-2.57-3.909,12.31,12.31,0,0,1-1.057-5.628,18.083,18.083,0,0,1,1.17-5.607,31.117,31.117,0,0,1,1.984-4.227c.646-1.159,1.209-2.073,1.6-2.7a6.632,6.632,0,0,1,.65-.952" transform="translate(-56.115 -43.022)" fill="#1a2e35"/>
            <path id="Trazado_207272" data-name="Trazado 207272" d="M271.173,143.336a.937.937,0,0,1-.166.147c-.116.09-.281.234-.517.4a9.033,9.033,0,0,1-2.255,1.094,15.582,15.582,0,0,1-9.114-.3c-1.872-.552-3.845-1.362-5.975-2.169a25.419,25.419,0,0,0-6.984-1.807,22.636,22.636,0,0,0-7.9.8,80.481,80.481,0,0,0-8.152,2.8A63.67,63.67,0,0,1,221.873,147a21.752,21.752,0,0,1-8.058.468,29.584,29.584,0,0,1-6.969-2.2c-2.1-.893-4.038-1.769-5.875-2.368a19.678,19.678,0,0,0-5.094-.993,12.532,12.532,0,0,0-3.889.392,10.406,10.406,0,0,0-3.016,1.429.946.946,0,0,1,.17-.143c.117-.088.289-.225.526-.386a9.243,9.243,0,0,1,2.28-1.042,12.41,12.41,0,0,1,3.938-.462,19.639,19.639,0,0,1,5.167.95c1.862.589,3.812,1.455,5.914,2.334a29.552,29.552,0,0,0,6.9,2.147,21.519,21.519,0,0,0,7.923-.485,64.128,64.128,0,0,0,8.184-2.687,79.7,79.7,0,0,1,8.192-2.8,22.863,22.863,0,0,1,8.03-.789,25.492,25.492,0,0,1,7.062,1.861c2.132.822,4.091,1.643,5.941,2.206a15.665,15.665,0,0,0,8.993.411,10.226,10.226,0,0,0,2.982-1.5" transform="translate(-51.983 -38.585)" fill="#1a2e35"/>
            <path id="Trazado_207273" data-name="Trazado 207273" d="M259.738,192.468a2.491,2.491,0,0,1-.468.179l-1.364.437a36.517,36.517,0,0,1-5.132,1.229,18.9,18.9,0,0,1-3.652.214,17.568,17.568,0,0,1-4.139-.729c-2.85-.833-5.736-2.347-8.888-3.545a32.662,32.662,0,0,0-4.726-1.356,34.74,34.74,0,0,0-4.546-.574,32.481,32.481,0,0,0-7.734.528,31.861,31.861,0,0,0-5.052,1.395c-.59.194-1.026.4-1.335.511a2.445,2.445,0,0,1-.474.162,2.546,2.546,0,0,1,.444-.231c.3-.132.728-.362,1.312-.579a28.817,28.817,0,0,1,5.053-1.519,31.732,31.732,0,0,1,7.8-.614,34.3,34.3,0,0,1,4.6.56,32.352,32.352,0,0,1,4.787,1.364c3.186,1.212,6.053,2.728,8.856,3.565a17.542,17.542,0,0,0,4.054.75,19.118,19.118,0,0,0,3.6-.166,42.026,42.026,0,0,0,5.129-1.1l1.383-.369a2.521,2.521,0,0,1,.489-.107" transform="translate(-58.38 -51.701)" fill="#1a2e35"/>
            <path id="Trazado_207274" data-name="Trazado 207274" d="M232.487,221.761a4.26,4.26,0,0,1-.967-.1,22.361,22.361,0,0,1-2.579-.611c-2.161-.6-5-1.826-8.248-2.786a16.828,16.828,0,0,0-8.518-.464A12.871,12.871,0,0,0,208.9,219.2c-.008-.01.056-.069.185-.172a5.146,5.146,0,0,1,.586-.423,8.866,8.866,0,0,1,2.436-1.069,16.267,16.267,0,0,1,8.69.359c3.285.973,6.1,2.239,8.223,2.894,1.056.343,1.925.58,2.53.722a5.559,5.559,0,0,1,.937.248" transform="translate(-57.464 -59.721)" fill="#1a2e35"/>
            <g id="Grupo_150497" data-name="Grupo 150497" transform="translate(197.239 117.732)" opacity="0.1">
              <g id="Grupo_150496" data-name="Grupo 150496">
                <g id="Grupo_150495" data-name="Grupo 150495" clip-path="url(#clip-path-3)">
                  <path id="Trazado_207275" data-name="Trazado 207275" d="M276.675,162.407s-9.467,20.867-1.212,34.512l3.87-1.445-3.24-5.654a6.248,6.248,0,0,1-.108-2.621c.478-2.974,1.4-7.82,2.629-12.713Z" transform="translate(-272.084 -162.407)"/>
                </g>
              </g>
            </g>
            <path id="Trazado_207276" data-name="Trazado 207276" d="M256.614,52.9c4.666,4.07,6.748,10.481,6.9,16.67s-.4,13.213-.246,19.674l9.465-.186a188.844,188.844,0,0,0,19.336-.934,5.82,5.82,0,0,0,2.866-.734c1.377-.934,1.686-2.8,1.874-4.452.3-2.6.584-5.29-.165-7.8s-2.818-4.82-5.431-5.006a8.909,8.909,0,0,1-2.742-.221,3.449,3.449,0,0,1-1.844-2.528c-.241-1.057-.2-2.158-.365-3.23a9.048,9.048,0,0,0-5.921-7.073c-1.941-.655-4.284-.746-5.559-2.349-1.551-1.948-.534-4.767-.452-7.256a9.044,9.044,0,0,0-14.647-7.392" transform="translate(-70.59 -10.499)" fill="#1a2e35"/>
            <path id="Trazado_207277" data-name="Trazado 207277" d="M238.295,103.829h0a11.085,11.085,0,0,1-11.076-10.614c-.2-4.766-.37-9.29-.37-9.29s-9.093-.845-9.759-9.842-.382-29.77-.382-29.77A31.353,31.353,0,0,1,248.4,46.325l1.4.945-.415,45.573a11.086,11.086,0,0,1-11.085,10.985" transform="translate(-59.596 -11.264)" fill="#ffc09d"/>
            <path id="Trazado_207278" data-name="Trazado 207278" d="M221.379,68.293a1.31,1.31,0,1,0-1.853.024,1.31,1.31,0,0,0,1.853-.024" transform="translate(-60.279 -18.174)" fill="#1a2e35"/>
            <path id="Trazado_207279" data-name="Trazado 207279" d="M217.805,64.794c.15.147.992-.588,2.231-.67,1.239-.1,2.18.5,2.307.335.062-.075-.1-.347-.507-.622a3.061,3.061,0,0,0-3.623.268c-.366.332-.482.625-.409.689" transform="translate(-59.908 -17.431)" fill="#1a2e35"/>
            <path id="Trazado_207280" data-name="Trazado 207280" d="M237.393,66.307a1.31,1.31,0,1,0,1.825.318,1.311,1.311,0,0,0-1.825-.318" transform="translate(-65.149 -18.174)" fill="#1a2e35"/>
            <path id="Trazado_207281" data-name="Trazado 207281" d="M236.468,65.176c.151.147.993-.588,2.232-.67,1.239-.1,2.18.5,2.307.335.062-.075-.1-.347-.507-.622a3.061,3.061,0,0,0-3.623.267c-.366.332-.482.624-.41.689" transform="translate(-65.042 -17.536)" fill="#1a2e35"/>
            <path id="Trazado_207282" data-name="Trazado 207282" d="M229.163,74.9a6.028,6.028,0,0,0-2.032-.3c-.326-.015-.586-.073-.62-.246a1.768,1.768,0,0,1,.175-.943l.825-2.581c1.133-3.673,1.9-6.7,1.714-6.755s-1.256,2.873-2.39,6.547c-.266.9-.52,1.751-.772,2.6a2.078,2.078,0,0,0-.094,1.359.852.852,0,0,0,.591.484,2.083,2.083,0,0,0,.558.038,6.027,6.027,0,0,0,2.044-.2" transform="translate(-62.136 -17.625)" fill="#1a2e35"/>
            <path id="Trazado_207283" data-name="Trazado 207283" d="M233.815,80.5c1.245-.85-3.441,2.11-5.973,2.142a3.434,3.434,0,0,0,4.128,1.115c2.634-1.153,1.844-3.257,1.844-3.257" transform="translate(-62.675 -22.101)" fill="#fff"/>
            <path id="Trazado_207284" data-name="Trazado 207284" d="M230.689,98.514a20.979,20.979,0,0,0,11.533-4.06s-2.375,6.651-11.41,6.395Z" transform="translate(-63.458 -25.982)" fill="#ff9b6c"/>
            <path id="Trazado_207285" data-name="Trazado 207285" d="M257.153,64.188c-3.26,2.623-7.2-4.165-8.945-8.424s-2.289-8.967-2.542-13.61c-.083-1.522-.1-3.19.787-4.386.933-1.264,1.255.2,2.367-.9,1.92-1.9.095-1.907,2.015-1.674,3.285.4,10.442,6.089,11.044,9.532s.115,6.984-.373,10.447q-.333,2.373-.667,4.745a7.754,7.754,0,0,1-.937,3.206,2.293,2.293,0,0,1-2.748,1.063" transform="translate(-67.568 -9.653)" fill="#1a2e35"/>
            <path id="Trazado_207286" data-name="Trazado 207286" d="M261.668,64.5a1.359,1.359,0,0,1,1.3-1.362c1.68-.047,4.428.62,4.686,5.256.369,6.624-6,4.971-6.024,4.782-.017-.149.021-6.1.038-8.677" transform="translate(-71.968 -17.367)" fill="#ffc09d"/>
            <path id="Trazado_207287" data-name="Trazado 207287" d="M263.642,71.38c.028-.023.12.075.32.153a1.156,1.156,0,0,0,.863-.03A2.86,2.86,0,0,0,266,68.867a3.806,3.806,0,0,0-.415-1.634,1.334,1.334,0,0,0-.917-.837.588.588,0,0,0-.663.354c-.078.191-.029.32-.064.333-.017.017-.148-.1-.11-.38a.74.74,0,0,1,.238-.429.878.878,0,0,1,.629-.2,1.625,1.625,0,0,1,1.263.961,3.911,3.911,0,0,1,.5,1.824,3,3,0,0,1-1.524,2.954,1.239,1.239,0,0,1-1.065-.117c-.214-.152-.257-.3-.235-.312" transform="translate(-72.521 -18.174)" fill="#ff9b6c"/>
            <path id="Trazado_207288" data-name="Trazado 207288" d="M237.511,37.607A21.215,21.215,0,0,1,224.9,51.076a1.636,1.636,0,0,1-1.562.013c-.552-.433-.339-1.345.123-1.875s1.111-.9,1.449-1.517l-3.371,1.909a5.42,5.42,0,0,1-1.741.732,1.839,1.839,0,0,1-1.729-.544,1.129,1.129,0,0,1,.232-1.647,2.657,2.657,0,0,1-3.834.426,3.964,3.964,0,0,1-1.055-4.012,8.152,8.152,0,0,1,2.365-3.622c4.664-4.537,11.436-6.179,17.928-6.626a20.918,20.918,0,0,1,6,.26c1.959.439,4.986.278,8.516,4.145" transform="translate(-58.665 -9.413)" fill="#1a2e35"/>
            <path id="Trazado_207289" data-name="Trazado 207289" d="M222.673,60.372c-.072.206-1.258-.056-2.716-.017-1.459.02-2.633.331-2.713.128-.088-.178,1.079-.855,2.7-.882s2.812.589,2.731.771" transform="translate(-59.758 -16.394)" fill="#1a2e35"/>
            <path id="Trazado_207290" data-name="Trazado 207290" d="M241.01,60.539c-.074.2-1.216-.046-2.623-.112s-2.569.051-2.621-.159c-.059-.191,1.121-.679,2.66-.6s2.662.681,2.584.866" transform="translate(-64.854 -16.412)" fill="#1a2e35"/>
            <path id="Trazado_207291" data-name="Trazado 207291" d="M265.416,51.352a15.828,15.828,0,0,1,.5-1.855,7.7,7.7,0,0,0-2.868-7.972c-.918-.714-1.612-1-1.57-1.108.022-.083.8.02,1.874.669a7.295,7.295,0,0,1,3.079,8.556c-.412,1.183-.948,1.76-1.019,1.71" transform="translate(-71.928 -11.111)" fill="#375a64"/>
            <path id="Trazado_207292" data-name="Trazado 207292" d="M264.605,162.407l5.157,32.133-41.555,15.518,6.722,13.863,43.737-13.662a14.842,14.842,0,0,0,10.183-16.793l-5.584-31.058Z" transform="translate(-62.775 -44.675)" fill="#ffc09d"/>
            <path id="Trazado_207293" data-name="Trazado 207293" d="M217.626,226.706s-7.736-2.465-11.444-3.411c-1.445-.368-7.636,2.9-11.911,5.612,0,0-5.889,3.49-5.412,4.566.524,1.184,2.7.942,6.158-.686,0,0-1.208,3.508,1.163,3.432,0,0-1.177,3.791,1.046,4.184s2.745-4.445,4.707-4.707,6.014-.523,6.014-.523,3.375,5.59,5.99,5.982,10.408-.493,10.408-.493Z" transform="translate(-51.944 -61.416)" fill="#ffc09d"/>
            <path id="Trazado_207294" data-name="Trazado 207294" d="M204.65,230.127a34.25,34.25,0,0,1-6.076,3.832,34.315,34.315,0,0,1,6.076-3.832" transform="translate(-54.624 -63.302)" fill="#ff9b6c"/>
            <path id="Trazado_207295" data-name="Trazado 207295" d="M205.1,233.1a42.818,42.818,0,0,1-7.287,3.364A42.673,42.673,0,0,1,205.1,233.1" transform="translate(-54.416 -64.119)" fill="#ff9b6c"/>
            <path id="Trazado_207296" data-name="Trazado 207296" d="M204.314,240.293a17,17,0,0,1-5.012.686,17.075,17.075,0,0,1,5.012-.686" transform="translate(-54.824 -66.087)" fill="#ff9b6c"/>
          </g>
        </g>
      </g>
    </g>
  </g>
</svg>
