<svg xmlns="http://www.w3.org/2000/svg" xmlns:xlink="http://www.w3.org/1999/xlink" width="822" height="445.918" viewBox="0 0 822 445.918">
  <defs>
    <clipPath id="clip-path">
      <rect id="Rectángulo_299121" data-name="Rectángulo 299121" width="366.103" height="22.529" transform="translate(113.145 84.103)" fill="none"/>
    </clipPath>
    <clipPath id="clip-path-2">
      <rect id="Rectángulo_299122" data-name="Rectángulo 299122" width="109.609" height="22.529" transform="translate(241.392)" fill="none"/>
    </clipPath>
    <clipPath id="clip-path-3">
      <rect id="Rectángulo_299123" data-name="Rectángulo 299123" width="131.436" height="46.529" transform="translate(66.773 290.439)" fill="none"/>
    </clipPath>
    <clipPath id="clip-path-4">
      <rect id="Rectángulo_299124" data-name="Rectángulo 299124" width="132.822" height="46.529" transform="translate(393.49 290.439)" fill="none"/>
    </clipPath>
    <clipPath id="clip-path-5">
      <rect id="Rectángulo_299126" data-name="Rectángulo 299126" width="109.551" height="214.53" transform="translate(671.735 96.781)" fill="none"/>
    </clipPath>
    <clipPath id="clip-path-6">
      <rect id="Rectángulo_299127" data-name="Rectángulo 299127" width="113.903" height="91.15" transform="translate(110.291 159.627)" fill="none"/>
    </clipPath>
    <clipPath id="clip-path-7">
      <rect id="Rectángulo_299128" data-name="Rectángulo 299128" width="83.772" height="91.15" transform="translate(425.575 159.627)" fill="none"/>
    </clipPath>
    <clipPath id="clip-path-8">
      <rect id="Rectángulo_299129" data-name="Rectángulo 299129" width="109.609" height="22.529" transform="translate(458.582 423.389)" fill="none"/>
    </clipPath>
  </defs>
  <g id="Grupo_151390" data-name="Grupo 151390" transform="translate(-389 -2781.357)">
    <path id="Trazado_209562" data-name="Trazado 209562" d="M16.664,0H575.63a16.664,16.664,0,0,1,16.664,16.664V335.957a16.664,16.664,0,0,1-16.664,16.664H16.664A16.664,16.664,0,0,1,0,335.957V16.664A16.664,16.664,0,0,1,16.664,0Z" transform="translate(390 2810.262)" fill="none" stroke="#f40b74" stroke-width="2"/>
    <path id="Trazado_207159" data-name="Trazado 207159" d="M522.63,139.944H69.762a45.275,45.275,0,1,1,0-90.55H522.63a45.275,45.275,0,1,1,0,90.55" transform="translate(389 2781.357)" fill="#fbaed1"/>
    <path id="Trazado_207160" data-name="Trazado 207160" d="M522.63,139.944H69.762a45.275,45.275,0,1,1,0-90.55H522.63a45.275,45.275,0,1,1,0,90.55Z" transform="translate(389 2781.357)" fill="none" stroke="#f40b74" stroke-miterlimit="10" stroke-width="2"/>
    <g id="Grupo_150376" data-name="Grupo 150376" transform="translate(389 2781.357)">
      <g id="Grupo_150375" data-name="Grupo 150375" clip-path="url(#clip-path)">
        <text id="Base_de_datos_corporativa_de_la_empresa" data-name="Base de datos corporativa de la empresa" transform="translate(113.144 101.212)" fill="#12263f" font-size="20" font-family="Roboto-Black, Roboto" font-weight="800"><tspan x="0" y="0">Base de da</tspan><tspan y="0" letter-spacing="-0.014em">t</tspan><tspan y="0">os corpo</tspan><tspan y="0" letter-spacing="-0.016em">r</tspan><tspan y="0">ati</tspan><tspan y="0" letter-spacing="-0.007em">v</tspan><tspan y="0">a de la emp</tspan><tspan y="0" letter-spacing="-0.009em">r</tspan><tspan y="0">esa</tspan></text>
      </g>
    </g>
    <g id="Grupo_150379" data-name="Grupo 150379" transform="translate(389 2781.357)">
      <g id="Grupo_150378" data-name="Grupo 150378" clip-path="url(#clip-path-2)">
        <text id="Información" transform="translate(241.391 17.109)" fill="#12263f" font-size="20" font-family="Roboto-Black, Roboto" font-weight="800"><tspan x="0" y="0">Información</tspan></text>
      </g>
    </g>
    <path id="Trazado_207161" data-name="Trazado 207161" d="M195.22,356.316H69.763a45.275,45.275,0,0,1,0-90.55H195.22a45.275,45.275,0,0,1,0,90.55" transform="translate(389 2781.357)" fill="#fdd7ae"/>
    <path id="Trazado_207162" data-name="Trazado 207162" d="M195.22,356.316H69.763a45.275,45.275,0,0,1,0-90.55H195.22a45.275,45.275,0,0,1,0,90.55Z" transform="translate(389 2781.357)" fill="none" stroke="#f9860b" stroke-miterlimit="10" stroke-width="2"/>
    <g id="Grupo_150382" data-name="Grupo 150382" transform="translate(389 2781.357)">
      <g id="Grupo_150381" data-name="Grupo 150381" clip-path="url(#clip-path-3)">
        <text id="Datos_internos" data-name="Datos internos" transform="translate(66.773 307.548)" fill="#12263f" font-size="20" font-family="Roboto-Black, Roboto" font-weight="800"><tspan x="0" y="0">Da</tspan><tspan y="0" letter-spacing="-0.014em">t</tspan><tspan y="0">os internos</tspan></text>
        <text id="marketing" transform="translate(86.393 331.548)" fill="#12263f" font-size="20" font-family="Roboto-BlackItalic, Roboto" font-weight="800" font-style="italic"><tspan x="0" y="0">mar</tspan><tspan y="0" letter-spacing="-0.009em">k</tspan><tspan y="0">eting</tspan></text>
      </g>
    </g>
    <path id="Trazado_207163" data-name="Trazado 207163" d="M522.63,356.316H397.173a45.275,45.275,0,0,1,0-90.55H522.63a45.275,45.275,0,1,1,0,90.55" transform="translate(389 2781.357)" fill="#fdd7ae"/>
    <path id="Trazado_207164" data-name="Trazado 207164" d="M522.63,356.316H397.173a45.275,45.275,0,0,1,0-90.55H522.63a45.275,45.275,0,1,1,0,90.55Z" transform="translate(389 2781.357)" fill="none" stroke="#f9860b" stroke-miterlimit="10" stroke-width="2"/>
    <g id="Grupo_150385" data-name="Grupo 150385" transform="translate(389 2781.357)">
      <g id="Grupo_150384" data-name="Grupo 150384" clip-path="url(#clip-path-4)">
        <text id="Subsistema_" data-name="Subsistema " transform="translate(404.091 307.548)" fill="#12263f" font-size="20" font-family="Roboto-Black, Roboto" font-weight="800"><tspan x="0" y="0">Subsistema </tspan></text>
        <text id="de_inteligencia" data-name="de inteligencia" transform="translate(393.491 331.548)" fill="#12263f" font-size="20" font-family="Roboto-Black, Roboto" font-weight="800"><tspan x="0" y="0">de inteligencia</tspan></text>
      </g>
    </g>
    <path id="Trazado_207165" data-name="Trazado 207165" d="M803.139,379.187H661.647a17.862,17.862,0,0,1-17.862-17.861V46.766A17.862,17.862,0,0,1,661.647,28.9H803.139A17.861,17.861,0,0,1,821,46.766v314.56a17.861,17.861,0,0,1-17.861,17.861" transform="translate(389 2781.357)" fill="#83abc5"/>
    <path id="Trazado_209567" data-name="Trazado 209567" d="M17.861,0H159.354a17.861,17.861,0,0,1,17.861,17.861v314.56a17.862,17.862,0,0,1-17.862,17.862H17.861A17.861,17.861,0,0,1,0,332.422V17.861A17.861,17.861,0,0,1,17.861,0Z" transform="translate(1032.785 2810.262)" fill="none" stroke="#206897" stroke-width="2"/>
    <g id="Grupo_150388" data-name="Grupo 150388" transform="translate(389 2781.357)">
      <g id="Grupo_150387" data-name="Grupo 150387" clip-path="url(#clip-path-5)">
        <text id="Producto" transform="translate(671.735 113.891)" fill="#12263f" font-size="20" font-family="Roboto-Black, Roboto" font-weight="800"><tspan x="0" y="0">P</tspan><tspan y="0" letter-spacing="-0.017em">r</tspan><tspan y="0">oduc</tspan><tspan y="0" letter-spacing="-0.016em">t</tspan><tspan y="0">o</tspan></text>
        <text id="Promoción" transform="translate(671.735 161.891)" fill="#12263f" font-size="20" font-family="Roboto-Black, Roboto" font-weight="800"><tspan x="0" y="0">P</tspan><tspan y="0" letter-spacing="-0.017em">r</tspan><tspan y="0">omoción</tspan></text>
        <text id="Distribución" transform="translate(671.735 209.891)" fill="#12263f" font-size="20" font-family="Roboto-Black, Roboto" font-weight="800"><tspan x="0" y="0">Distribución</tspan></text>
        <text id="Precio" transform="translate(671.735 257.891)" fill="#12263f" font-size="20" font-family="Roboto-Black, Roboto" font-weight="800"><tspan x="0" y="0">P</tspan><tspan y="0" letter-spacing="-0.009em">r</tspan><tspan y="0">ecio</tspan></text>
        <text id="Mezcla" transform="translate(671.735 305.891)" fill="#12263f" font-size="20" font-family="Roboto-Black, Roboto" font-weight="800"><tspan x="0" y="0">Me</tspan><tspan y="0" letter-spacing="-0.006em">z</tspan><tspan y="0">cla</tspan></text>
      </g>
    </g>
    <g id="Grupo_150391" data-name="Grupo 150391" transform="translate(389 2781.357)">
      <g id="Grupo_150390" data-name="Grupo 150390" clip-path="url(#clip-path-6)">
        <text id="Estrategia" transform="translate(110.291 174.17)" fill="#12263f" font-size="17" font-family="Roboto-Regular, Roboto"><tspan x="0" y="0">Est</tspan><tspan y="0" letter-spacing="-0.019em">r</tspan><tspan y="0">ategia</tspan></text>
        <text id="Necesidades_" data-name="Necesidades " transform="translate(110.291 198.174)" fill="#12263f" font-size="17" font-family="Roboto-Regular, Roboto"><tspan x="0" y="0">Necesidades </tspan></text>
        <text id="de_información" data-name="de información" transform="translate(110.291 222.178)" fill="#12263f" font-size="17" font-family="Roboto-Regular, Roboto"><tspan x="0" y="0">de información</tspan></text>
        <text id="Análisis" transform="translate(110.291 246.182)" fill="#12263f" font-size="17" font-family="Roboto-Regular, Roboto"><tspan x="0" y="0">Análisis</tspan></text>
      </g>
    </g>
    <path id="Trazado_209563" data-name="Trazado 209563" d="M0,0V114.139" transform="translate(469.2 2921.302)" fill="none" stroke="#f40b74" stroke-linecap="round" stroke-width="2"/>
    <path id="Trazado_207166" data-name="Trazado 207166" d="M75.851,250.784l4.349,1.848,4.349-1.848L80.2,261.094Z" transform="translate(389 2781.357)" fill="#f40b74"/>
    <path id="Trazado_207167" data-name="Trazado 207167" d="M101.747,170.582,98.864,172.1l.55-3.211-2.332-2.274,3.223-.468,1.442-2.921,1.442,2.921,3.223.468-2.332,2.274.55,3.211Z" transform="translate(389 2781.357)" fill="#f40b74"/>
    <path id="Trazado_207168" data-name="Trazado 207168" d="M101.747,194.582,98.864,196.1l.55-3.211-2.332-2.274,3.223-.468,1.442-2.921,1.442,2.921,3.223.468-2.332,2.274.55,3.211Z" transform="translate(389 2781.357)" fill="#f40b74"/>
    <path id="Trazado_207169" data-name="Trazado 207169" d="M101.747,243.351l-2.883,1.516.55-3.211-2.332-2.274,3.223-.468,1.442-2.921,1.442,2.921,3.223.468-2.332,2.274.55,3.211Z" transform="translate(389 2781.357)" fill="#f40b74"/>
    <g id="Grupo_150394" data-name="Grupo 150394" transform="translate(389 2781.357)">
      <g id="Grupo_150393" data-name="Grupo 150393" clip-path="url(#clip-path-7)">
        <text id="Informes" transform="translate(425.575 174.17)" fill="#12263f" font-size="17" font-family="Roboto-Regular, Roboto"><tspan x="0" y="0">Informes</tspan></text>
        <text id="Estudio_de_" data-name="Estudio de " transform="translate(425.575 198.174)" fill="#12263f" font-size="17" font-family="Roboto-Regular, Roboto"><tspan x="0" y="0">Estudio de </tspan></text>
        <text id="mercados_" data-name="mercados " transform="translate(425.575 222.178)" fill="#12263f" font-size="17" font-family="Roboto-Regular, Roboto"><tspan x="0" y="0">me</tspan><tspan y="0" letter-spacing="-0.009em">r</tspan><tspan y="0">cados </tspan></text>
        <text id="y_recursos" data-name="y recursos" transform="translate(425.575 246.182)" fill="#12263f" font-size="17" font-family="Roboto-Regular, Roboto"><tspan x="0" y="0">y </tspan><tspan y="0" letter-spacing="-0.009em">r</tspan><tspan y="0">ecursos</tspan></text>
      </g>
    </g>
    <path id="Trazado_209564" data-name="Trazado 209564" d="M0,0V114.139" transform="translate(784.484 2921.302)" fill="none" stroke="#f40b74" stroke-linecap="round" stroke-width="2"/>
    <path id="Trazado_207170" data-name="Trazado 207170" d="M391.135,250.784l4.349,1.848,4.349-1.848-4.349,10.31Z" transform="translate(389 2781.357)" fill="#f40b74"/>
    <path id="Trazado_207171" data-name="Trazado 207171" d="M417.031,170.582l-2.883,1.516.55-3.211-2.332-2.274,3.223-.468,1.442-2.921,1.442,2.921,3.223.468-2.332,2.274.55,3.211Z" transform="translate(389 2781.357)" fill="#f40b74"/>
    <path id="Trazado_207172" data-name="Trazado 207172" d="M417.031,194.582l-2.883,1.516.55-3.211-2.332-2.274,3.223-.468,1.442-2.921,1.442,2.921,3.223.468-2.332,2.274.55,3.211Z" transform="translate(389 2781.357)" fill="#f40b74"/>
    <path id="Trazado_209571" data-name="Trazado 209571" d="M0,0H91.97" transform="translate(638.589 3092.398)" fill="none" stroke="#f40b74" stroke-linecap="round" stroke-width="2"/>
    <path id="Trazado_207173" data-name="Trazado 207173" d="M338.261,315.39l1.848-4.349-1.848-4.349,10.31,4.349Z" transform="translate(389 2781.357)" fill="#f40b74"/>
    <path id="Trazado_207174" data-name="Trazado 207174" d="M254.744,306.692l-1.848,4.349,1.848,4.349-10.31-4.349Z" transform="translate(389 2781.357)" fill="#f40b74"/>
    <path id="Trazado_209565" data-name="Trazado 209565" d="M0,0H36.159" transform="translate(982.295 2890.898)" fill="none" stroke="#f40b74" stroke-linecap="round" stroke-width="2"/>
    <path id="Trazado_207175" data-name="Trazado 207175" d="M626.154,113.89,628,109.541l-1.848-4.349,10.31,4.349Z" transform="translate(389 2781.357)" fill="#f40b74"/>
    <path id="Trazado_209566" data-name="Trazado 209566" d="M0,0H36.159" transform="translate(982.295 2938.259)" fill="none" stroke="#f40b74" stroke-linecap="round" stroke-width="2"/>
    <path id="Trazado_207176" data-name="Trazado 207176" d="M626.154,161.25,628,156.9l-1.848-4.349,10.31,4.349Z" transform="translate(389 2781.357)" fill="#f40b74"/>
    <path id="Trazado_209568" data-name="Trazado 209568" d="M0,0H36.159" transform="translate(982.295 2985.402)" fill="none" stroke="#f40b74" stroke-linecap="round" stroke-width="2"/>
    <path id="Trazado_207177" data-name="Trazado 207177" d="M626.154,208.394,628,204.045l-1.848-4.349,10.31,4.349Z" transform="translate(389 2781.357)" fill="#f40b74"/>
    <path id="Trazado_209569" data-name="Trazado 209569" d="M0,0H36.159" transform="translate(982.295 3032.141)" fill="none" stroke="#f40b74" stroke-linecap="round" stroke-width="2"/>
    <path id="Trazado_207178" data-name="Trazado 207178" d="M626.154,255.133,628,250.784l-1.848-4.349,10.31,4.349Z" transform="translate(389 2781.357)" fill="#f40b74"/>
    <path id="Trazado_209570" data-name="Trazado 209570" d="M0,0H36.159" transform="translate(982.295 3081.535)" fill="none" stroke="#f40b74" stroke-linecap="round" stroke-width="2"/>
    <path id="Trazado_207179" data-name="Trazado 207179" d="M626.154,304.527,628,300.178l-1.848-4.349,10.31,4.349Z" transform="translate(389 2781.357)" fill="#f40b74"/>
    <path id="Trazado_207180" data-name="Trazado 207180" d="M729.626,381.525v33.129H297.147v-21.6" transform="translate(389 2781.357)" fill="none" stroke="#f40b74" stroke-miterlimit="10" stroke-width="2"/>
    <path id="Trazado_207181" data-name="Trazado 207181" d="M301.5,398.09l-4.349-1.848L292.8,398.09l4.349-10.31Z" transform="translate(389 2781.357)" fill="#f40b74"/>
    <g id="Grupo_150397" data-name="Grupo 150397" transform="translate(389 2781.357)">
      <g id="Grupo_150396" data-name="Grupo 150396" clip-path="url(#clip-path-8)">
        <text id="Información-2" data-name="Información" transform="translate(458.582 440.498)" fill="#12263f" font-size="20" font-family="Roboto-Black, Roboto" font-weight="800"><tspan x="0" y="0">Información</tspan></text>
      </g>
    </g>
    <path id="Trazado_209561" data-name="Trazado 209561" d="M0,0H822V445.918H0Z" transform="translate(389 2781.357)" fill="none"/>
  </g>
</svg>
