<svg xmlns="http://www.w3.org/2000/svg" xmlns:xlink="http://www.w3.org/1999/xlink" width="411" height="384" viewBox="0 0 411 384">
  <defs>
    <filter id="Trazado_157133" x="17.479" y="10.516" width="374.076" height="368.969" filterUnits="userSpaceOnUse">
      <feOffset dy="3" input="SourceAlpha"/>
      <feGaussianBlur stdDeviation="3" result="blur"/>
      <feFlood flood-opacity="0.161"/>
      <feComposite operator="in" in2="blur"/>
      <feComposite in="SourceGraphic"/>
    </filter>
    <radialGradient id="radial-gradient" cx="0.473" cy="0.169" r="1.287" gradientTransform="matrix(0.707, 0.707, -0.707, 0.707, 0.274, -0.091)" gradientUnits="objectBoundingBox">
      <stop offset="0" stop-color="#ffd673"/>
      <stop offset="0.457" stop-color="#ffb600"/>
      <stop offset="0.973" stop-color="#ff6b00"/>
    </radialGradient>
    <clipPath id="clip-path">
      <rect id="Rectángulo_299478" data-name="Rectángulo 299478" width="302.792" height="309.22" fill="none"/>
    </clipPath>
    <clipPath id="clip-path-3">
      <rect id="Rectángulo_299461" data-name="Rectángulo 299461" width="65.671" height="81.148" fill="none"/>
    </clipPath>
    <clipPath id="clip-path-4">
      <rect id="Rectángulo_299462" data-name="Rectángulo 299462" width="29.487" height="40.729" fill="none"/>
    </clipPath>
    <clipPath id="clip-path-5">
      <rect id="Rectángulo_299463" data-name="Rectángulo 299463" width="22.602" height="35.862" fill="none"/>
    </clipPath>
    <clipPath id="clip-path-6">
      <rect id="Rectángulo_299464" data-name="Rectángulo 299464" width="10.467" height="22.292" fill="none"/>
    </clipPath>
    <clipPath id="clip-path-7">
      <rect id="Rectángulo_299465" data-name="Rectángulo 299465" width="19.562" height="12.242" fill="none"/>
    </clipPath>
    <clipPath id="clip-path-8">
      <rect id="Rectángulo_299467" data-name="Rectángulo 299467" width="95.141" height="128.272" fill="none"/>
    </clipPath>
    <clipPath id="clip-path-9">
      <rect id="Rectángulo_299468" data-name="Rectángulo 299468" width="41.858" height="48.059" fill="none"/>
    </clipPath>
    <clipPath id="clip-path-10">
      <rect id="Rectángulo_299469" data-name="Rectángulo 299469" width="17.314" height="17.706" fill="none"/>
    </clipPath>
    <clipPath id="clip-path-11">
      <rect id="Rectángulo_299470" data-name="Rectángulo 299470" width="47.673" height="1.419" fill="none"/>
    </clipPath>
    <clipPath id="clip-path-12">
      <rect id="Rectángulo_299471" data-name="Rectángulo 299471" width="51.393" height="1.422" fill="none"/>
    </clipPath>
    <clipPath id="clip-path-13">
      <rect id="Rectángulo_299472" data-name="Rectángulo 299472" width="51.394" height="1.422" fill="none"/>
    </clipPath>
    <clipPath id="clip-path-15">
      <rect id="Rectángulo_299474" data-name="Rectángulo 299474" width="16.329" height="26.624" fill="none"/>
    </clipPath>
    <clipPath id="clip-path-16">
      <rect id="Rectángulo_299475" data-name="Rectángulo 299475" width="3.468" height="4.81" fill="none"/>
    </clipPath>
    <clipPath id="clip-path-17">
      <rect id="Rectángulo_299476" data-name="Rectángulo 299476" width="4.24" height="4.444" fill="none"/>
    </clipPath>
  </defs>
  <g id="Grupo_150773" data-name="Grupo 150773" transform="translate(-180 -6877.369)">
    <g id="Grupo_149813" data-name="Grupo 149813" transform="translate(952.032 17235.369)">
      <path id="Trazado_104230" data-name="Trazado 104230" d="M371.519-3043.95a26.473,26.473,0,0,1-26.473,26.473H222.021c0-.281-.021-.558-.021-.837a148.593,148.593,0,0,1,148.594-148.592c.311,0,.616.021.925.023Z" transform="translate(-742.539 -6956.522)" fill="#f9860b"/>
      <path id="Trazado_104231" data-name="Trazado 104231" d="M370.047-3223.527A26.473,26.473,0,0,1,396.52-3250H519.545c0,.282.021.558.021.838a148.592,148.592,0,0,1-148.594,148.592c-.311,0-.616-.021-.925-.023Z" transform="translate(-1134.059 -7108)" fill="#07a5b6"/>
      <g transform="matrix(1, 0, 0, 1, -772.03, -10358)" filter="url(#Trazado_157133)">
        <path id="Trazado_157133-2" data-name="Trazado 157133" d="M-190,350.969H157.92c4.5,0,8.156-5.477,8.156-12.232V0h-347.92C-186.349,0-190,5.476-190,12.232Z" transform="translate(216.48 16.52)" fill="#fff"/>
      </g>
      <circle id="Elipse_5768" data-name="Elipse 5768" cx="26.478" cy="26.478" r="26.478" transform="translate(-772.032 -10036.854) rotate(-90)" fill="url(#radial-gradient)"/>
      <circle id="Elipse_5767" data-name="Elipse 5767" cx="26.478" cy="26.478" r="26.478" transform="translate(-435.925 -10275.277) rotate(-45)" fill="url(#radial-gradient)"/>
    </g>
    <g id="Grupo_150772" data-name="Grupo 150772" transform="translate(236.559 6918.014)">
      <g id="Grupo_150771" data-name="Grupo 150771" clip-path="url(#clip-path)">
        <g id="Grupo_150770" data-name="Grupo 150770">
          <g id="Grupo_150769" data-name="Grupo 150769" clip-path="url(#clip-path)">
            <path id="Trazado_208799" data-name="Trazado 208799" d="M240.271,315.634a35.122,35.122,0,0,0,1.233,8.535l6.079,23.62-4.528,29.8h44.6l-3.172-16.54,10.456-1.135s5.445-.029,5.861-4.34.791-14.128.791-14.128l6.306.353a1.877,1.877,0,0,0,2.022-1.716h0a1.768,1.768,0,0,0-.152-.814c-1.049-2.381-6.2-17.386-6.2-17.386s3.445-24.076-17.644-32.929a37.563,37.563,0,0,0-25.536-.96c-8.373,2.83-20.387,10.8-20.118,27.644" transform="translate(-74.709 -88.993)" fill="#ececec"/>
            <path id="Trazado_208800" data-name="Trazado 208800" d="M52.768,201.456A22.453,22.453,0,1,1,30.315,179a22.453,22.453,0,0,1,22.453,22.453" transform="translate(-2.445 -55.66)" fill="#f5f5f5"/>
            <path id="Trazado_208801" data-name="Trazado 208801" d="M32.441,221.323a17.741,17.741,0,1,1,17.741-17.74,17.76,17.76,0,0,1-17.741,17.74m0-31.892a14.151,14.151,0,1,0,14.151,14.151,14.167,14.167,0,0,0-14.151-14.151" transform="translate(-4.571 -57.786)" fill="#e1e1e1"/>
            <path id="Trazado_208802" data-name="Trazado 208802" d="M31.348,214.829a9.142,9.142,0,0,1-3.682-3.389,9.8,9.8,0,0,1,0-9.84,9.149,9.149,0,0,1,3.682-3.389,11.384,11.384,0,0,1,5.315-1.221,10.306,10.306,0,0,1,5.109,1.221,7.253,7.253,0,0,1,3.183,3.492l-4.163,2.237a4.552,4.552,0,0,0-4.163-2.546,4.713,4.713,0,0,0-3.475,1.376,5.8,5.8,0,0,0,0,7.5,4.708,4.708,0,0,0,3.475,1.376,4.5,4.5,0,0,0,4.163-2.545l4.163,2.27a7.4,7.4,0,0,1-3.183,3.44,10.189,10.189,0,0,1-5.109,1.239,11.376,11.376,0,0,1-5.315-1.222" transform="translate(-8.191 -61.252)" fill="#e1e1e1"/>
            <path id="Trazado_208803" data-name="Trazado 208803" d="M378.344,169.154a18.309,18.309,0,0,1,4.475-1.945l.921-4.429,7.484-.132,1.077,4.395a18.341,18.341,0,0,1,4.541,1.786l3.782-2.479,5.384,5.2-2.344,3.866a18.331,18.331,0,0,1,1.945,4.476l4.429.922.132,7.483-4.393,1.076a18.329,18.329,0,0,1-1.787,4.54l2.479,3.784-5.2,5.384-3.867-2.344a18.324,18.324,0,0,1-4.475,1.944L392,207.11l-7.483.13-1.077-4.394a18.312,18.312,0,0,1-4.541-1.785l-3.782,2.479-5.384-5.2,2.344-3.866A18.339,18.339,0,0,1,370.137,190l-4.429-.922-.132-7.483,4.394-1.078a18.379,18.379,0,0,1,1.786-4.54l-2.479-3.783,5.2-5.384Zm3.989,9.969a8.029,8.029,0,1,0,11.353-.2,8.029,8.029,0,0,0-11.353.2" transform="translate(-113.673 -50.574)" fill="#f5f5f5"/>
            <path id="Trazado_208804" data-name="Trazado 208804" d="M379.685,274.369a12.722,12.722,0,0,1,3.106-1.351l.64-3.075,5.195-.091.748,3.05a12.729,12.729,0,0,1,3.152,1.24l2.626-1.721,3.737,3.609-1.627,2.684a12.76,12.76,0,0,1,1.35,3.107l3.074.64.092,5.195-3.05.748a12.713,12.713,0,0,1-1.24,3.152l1.721,2.626L395.6,297.92l-2.684-1.628a12.706,12.706,0,0,1-3.107,1.35l-.64,3.075-5.195.091-.748-3.05a12.737,12.737,0,0,1-3.152-1.24l-2.625,1.721-3.738-3.609,1.628-2.685a12.724,12.724,0,0,1-1.351-3.106l-3.075-.64L370.822,283l3.051-.748a12.738,12.738,0,0,1,1.24-3.152l-1.721-2.626L377,272.742Zm2.769,6.92a5.573,5.573,0,1,0,7.881-.139,5.574,5.574,0,0,0-7.881.139" transform="translate(-115.304 -83.909)" fill="#f5f5f5"/>
            <path id="Trazado_208805" data-name="Trazado 208805" d="M188.842,350.2a12.733,12.733,0,0,1,3.106-1.351l.64-3.075,5.195-.091.748,3.05a12.743,12.743,0,0,1,3.152,1.24l2.626-1.721,3.737,3.609-1.627,2.684a12.761,12.761,0,0,1,1.35,3.107l3.075.64.091,5.195-3.05.748a12.71,12.71,0,0,1-1.24,3.152l1.721,2.626-3.609,3.737-2.684-1.628a12.707,12.707,0,0,1-3.107,1.35l-.64,3.075-5.195.091-.748-3.05a12.738,12.738,0,0,1-3.152-1.24l-2.625,1.721-3.738-3.609,1.628-2.684a12.737,12.737,0,0,1-1.351-3.107l-3.075-.64-.091-5.195,3.05-.748a12.737,12.737,0,0,1,1.24-3.152l-1.721-2.626,3.609-3.737Zm2.769,6.92a5.573,5.573,0,1,0,7.881-.138,5.574,5.574,0,0,0-7.881.138" transform="translate(-55.963 -107.488)" fill="#f5f5f5"/>
            <path id="Trazado_208806" data-name="Trazado 208806" d="M29.659,100.247a17.578,17.578,0,0,1,4.291-1.865l.883-4.248,7.177-.125,1.033,4.213A17.6,17.6,0,0,1,47.4,99.935l3.627-2.377,5.163,4.986-2.248,3.707a17.594,17.594,0,0,1,1.865,4.292l4.247.884.126,7.176-4.214,1.034a17.591,17.591,0,0,1-1.713,4.353l2.377,3.627-4.985,5.164-3.708-2.248a17.579,17.579,0,0,1-4.291,1.865l-.884,4.247-7.177.126-1.033-4.214a17.6,17.6,0,0,1-4.354-1.713l-3.627,2.377-5.164-4.985,2.248-3.708a17.58,17.58,0,0,1-1.865-4.291l-4.247-.884-.126-7.176,4.214-1.034a17.578,17.578,0,0,1,1.712-4.353l-2.377-3.627L25.951,98Zm3.826,9.56a7.7,7.7,0,1,0,10.887-.192,7.7,7.7,0,0,0-10.887.192" transform="translate(-5.415 -29.231)" fill="#f5f5f5"/>
            <path id="Trazado_208807" data-name="Trazado 208807" d="M242.836,21.714a17.578,17.578,0,0,1,4.291-1.865l.883-4.248,7.177-.125,1.033,4.213a17.575,17.575,0,0,1,4.354,1.713l3.627-2.377,5.164,4.986-2.248,3.707a17.593,17.593,0,0,1,1.865,4.292l4.247.884.126,7.176L269.142,41.1a17.591,17.591,0,0,1-1.713,4.353l2.377,3.627-4.985,5.164L261.113,52a17.577,17.577,0,0,1-4.291,1.865l-.884,4.247-7.177.126-1.033-4.214a17.58,17.58,0,0,1-4.353-1.713l-3.627,2.377L234.584,49.7,236.832,46a17.58,17.58,0,0,1-1.865-4.291l-4.247-.884-.125-7.177,4.214-1.033a17.594,17.594,0,0,1,1.712-4.354l-2.377-3.627,4.985-5.164Zm3.826,9.56a7.7,7.7,0,1,0,10.887-.192,7.7,7.7,0,0,0-10.887.192" transform="translate(-71.701 -4.812)" fill="#f5f5f5"/>
            <path id="Trazado_208808" data-name="Trazado 208808" d="M181.631,5.2A13.368,13.368,0,0,1,184.9,3.782L185.569.55l5.461-.1.786,3.206a13.415,13.415,0,0,1,3.314,1.3l2.76-1.809,3.929,3.794-1.71,2.821a13.37,13.37,0,0,1,1.419,3.266l3.232.673.1,5.461-3.207.786a13.392,13.392,0,0,1-1.3,3.313l1.809,2.76-3.793,3.93-2.822-1.711a13.359,13.359,0,0,1-3.266,1.419L191.6,32.9l-5.461.1-.786-3.206a13.421,13.421,0,0,1-3.313-1.3l-2.76,1.809-3.93-3.793,1.711-2.822a13.4,13.4,0,0,1-1.419-3.265l-3.232-.673-.1-5.461,3.206-.787a13.421,13.421,0,0,1,1.3-3.313l-1.809-2.76,3.793-3.929Zm2.911,7.274a5.859,5.859,0,1,0,8.285-.145,5.859,5.859,0,0,0-8.285.145" transform="translate(-53.58 -0.141)" fill="#f5f5f5"/>
            <path id="Trazado_208809" data-name="Trazado 208809" d="M301.122,436.914c0,.1-67.414.179-150.554.179C67.4,437.093,0,437.013,0,436.914s67.4-.179,150.568-.179c83.14,0,150.554.08,150.554.179" transform="translate(0 -135.799)" fill="#1a2e35"/>
            <path id="Trazado_208810" data-name="Trazado 208810" d="M113.414,31.933,83.269,19.342,52.1,27.853c-4,1.515-7.488,2.352-7.706,5.832L43.314,51.013a63.7,63.7,0,0,0,7.892,35.133,62.02,62.02,0,0,0,26.582,25.582c12.714-3.085,22.671-12.845,28.917-21.339a63.54,63.54,0,0,0,12.208-33.842l.976-15.582c.31-4.963-2.28-7.563-6.475-9.031" transform="translate(-13.428 -6.014)" fill="#206897"/>
            <g id="Grupo_150726" data-name="Grupo 150726" transform="translate(35.195 17.951)" opacity="0.3">
              <g id="Grupo_150725" data-name="Grupo 150725">
                <g id="Grupo_150724" data-name="Grupo 150724" clip-path="url(#clip-path-3)">
                  <path id="Trazado_208811" data-name="Trazado 208811" d="M80.59,107.2l-.116-.06A53.109,53.109,0,0,1,57.863,84.773a57.08,57.08,0,0,1-6.67-30.751l.943-15.083c.183-2.911,2.706-3.861,5.629-4.96.366-.138.741-.279,1.122-.428l26.547-7.5.112.048,25.494,10.908c4.079,1.464,5.939,4.144,5.685,8.192l-.848,13.564a56.937,56.937,0,0,1-10.45,29.652c-4.091,5.712-12.74,15.744-24.71,18.751Zm4.8-80.418L59.106,34.2c-.351.139-.73.282-1.1.42-2.81,1.057-5.029,1.892-5.184,4.358l-.943,15.083A56.378,56.378,0,0,0,58.47,84.445a52.428,52.428,0,0,0,22.206,22.023c11.691-2.992,20.171-12.836,24.191-18.452A56.252,56.252,0,0,0,115.19,58.722l.848-13.564c.236-3.755-1.43-6.14-5.24-7.5l-.019-.008Z" transform="translate(-51.078 -26.052)" fill="#fff"/>
                </g>
              </g>
            </g>
            <path id="Trazado_208812" data-name="Trazado 208812" d="M99.861,66.085l.225-2.129a7.526,7.526,0,0,0-14.958-1.34L84.9,64.784a4.03,4.03,0,0,0-3.919,3.549L79.838,80.9a4.063,4.063,0,0,0,3.83,4.285l13.96,1.24a4.082,4.082,0,0,0,4.541-3.541l1.141-12.572a4.033,4.033,0,0,0-3.45-4.233M93.2,78.938l-3.651-.325L90.34,76.2a2.056,2.056,0,0,1-.894-1.86,2.24,2.24,0,0,1,4.453.4,2.06,2.06,0,0,1-1.142,1.641c.172.978.442,2.563.442,2.563m5.054-13.014L86.515,64.881l.224-2.111A5.9,5.9,0,0,1,98.476,63.8Z" transform="translate(-24.82 -17.496)" fill="#fff"/>
            <g id="Grupo_150729" data-name="Grupo 150729" transform="translate(39.911 22.179)" opacity="0.1">
              <g id="Grupo_150728" data-name="Grupo 150728">
                <g id="Grupo_150727" data-name="Grupo 150727" clip-path="url(#clip-path-4)">
                  <path id="Trazado_208813" data-name="Trazado 208813" d="M60.314,72.915c-2.084.12-3.682-28.274-.923-31.749s28.016-8.979,28.016-8.979S86.19,58.273,85.516,59.951s-25.2,12.965-25.2,12.965" transform="translate(-57.921 -32.187)" fill="#fff"/>
                </g>
              </g>
            </g>
            <g id="Grupo_150732" data-name="Grupo 150732" transform="translate(44.101 57.017)" opacity="0.1">
              <g id="Grupo_150731" data-name="Grupo 150731">
                <g id="Grupo_150730" data-name="Grupo 150730" clip-path="url(#clip-path-5)">
                  <path id="Trazado_208814" data-name="Trazado 208814" d="M64,92.922,86.6,82.747s-1.876,36.465-2.637,35.854A56.024,56.024,0,0,1,64,92.922" transform="translate(-64.002 -82.747)" fill="#fff"/>
                </g>
              </g>
            </g>
            <path id="Trazado_208815" data-name="Trazado 208815" d="M59.543,76.058a8.225,8.225,0,0,1-.272-1.209c-.156-.782-.345-1.92-.542-3.332a86.526,86.526,0,0,1-.176-22.231c.176-1.415.347-2.556.491-3.341a8.259,8.259,0,0,1,.254-1.212,1.1,1.1,0,0,1-.012.322c-.028.25-.063.551-.1.911-.1.789-.234,1.933-.378,3.347a101.066,101.066,0,0,0,.175,22.171c.165,1.413.315,2.554.429,3.342.047.36.085.66.118.91a1.089,1.089,0,0,1,.017.322" transform="translate(-18.01 -13.909)" fill="#fff"/>
            <path id="Trazado_208816" data-name="Trazado 208816" d="M385.224,122.038l-82.092,19.336a3.019,3.019,0,0,1-3.63-2.246L272.669,25.209a3.018,3.018,0,0,1,2.246-3.63L357.008,2.243a3.018,3.018,0,0,1,3.63,2.246L387.47,118.408a3.019,3.019,0,0,1-2.246,3.63" transform="translate(-84.759 -0.672)" fill="#ececec"/>
            <path id="Trazado_208817" data-name="Trazado 208817" d="M377.511,120.111l-82.092,19.336a3.018,3.018,0,0,1-3.63-2.246L264.956,23.282a3.018,3.018,0,0,1,2.246-3.63L349.3.316a3.018,3.018,0,0,1,3.63,2.246l26.832,113.919a3.019,3.019,0,0,1-2.246,3.63" transform="translate(-82.361 -0.073)" fill="#fff"/>
            <path id="Trazado_208818" data-name="Trazado 208818" d="M377.431,120.038a3.349,3.349,0,0,0,.981-.451,3.017,3.017,0,0,0,.9-.965,2.973,2.973,0,0,0,.4-1.761c-.579-2.734-1.6-6.762-2.811-11.953L366.481,60.936l-7.175-30.369q-1.934-8.188-3.994-16.919-1.029-4.362-2.089-8.848c-.427-1.446-.4-3.214-1.762-4.011a2.843,2.843,0,0,0-2.121-.4l-2.29.535L267.174,19.751a2.843,2.843,0,0,0-2.2,2.8,5.979,5.979,0,0,0,.233,1.294l1.24,5.265q1.235,5.249,2.454,10.425,2.436,10.351,4.8,20.382l9.065,38.532c2.887,12.279,5.629,23.948,8.2,34.868.325,1.357.628,2.736.964,4.043a2.873,2.873,0,0,0,3.045,1.933c2.61-.569,5.213-1.212,7.743-1.8l14.577-3.421,44-10.3,11.965-2.784,3.114-.715c.7-.159,1.064-.232,1.064-.232s-.356.1-1.055.267l-3.106.75L361.32,123.9,317.35,134.319l-14.572,3.444c-2.543.591-5.1,1.229-7.773,1.812a3.16,3.16,0,0,1-3.355-2.124c-.352-1.36-.646-2.7-.976-4.068l-8.228-34.861c-2.895-12.278-5.934-25.166-9.085-38.527l-4.8-20.381q-1.22-5.175-2.456-10.424l-1.24-5.265a6.328,6.328,0,0,1-.243-1.373,3.2,3.2,0,0,1,2.473-3.15L346.974.6l2.3-.536a3.182,3.182,0,0,1,3.734,2.41l.529,2.25q1.055,4.487,2.081,8.85Q357.668,22.3,359.6,30.5c2.564,10.92,4.952,21.092,7.132,30.379l10.3,44c1.2,5.2,2.188,9.219,2.748,11.979a3.028,3.028,0,0,1-1.348,2.762,2.864,2.864,0,0,1-.735.353c-.176.048-.267.068-.267.068" transform="translate(-82.281 0)" fill="#1a2e35"/>
            <path id="Trazado_208819" data-name="Trazado 208819" d="M312.1,46.827a4.733,4.733,0,0,1-.9.283l-2.472.641c-2.091.526-4.985,1.228-8.186,1.982s-6.106,1.417-8.212,1.88l-2.5.53a4.736,4.736,0,0,1-.927.147,4.686,4.686,0,0,1,.894-.283l2.472-.641c2.091-.526,4.985-1.228,8.187-1.982s6.105-1.417,8.211-1.88l2.5-.53a4.738,4.738,0,0,1,.927-.147" transform="translate(-89.834 -14.559)" fill="#1a2e35"/>
            <path id="Trazado_208820" data-name="Trazado 208820" d="M356.464,47.288c.023.1-14.32,3.558-32.032,7.729s-32.094,7.476-32.116,7.38,14.317-3.556,32.034-7.729,32.091-7.476,32.114-7.38" transform="translate(-90.893 -14.703)" fill="#1a2e35"/>
            <path id="Trazado_208821" data-name="Trazado 208821" d="M360.059,62.551c.023.1-14.32,3.557-32.032,7.729s-32.094,7.476-32.116,7.38,14.317-3.556,32.034-7.729,32.091-7.476,32.114-7.38" transform="translate(-92.011 -19.449)" fill="#1a2e35"/>
            <path id="Trazado_208822" data-name="Trazado 208822" d="M363.465,77.01c.023.1-14.32,3.557-32.032,7.728s-32.094,7.477-32.116,7.381,14.317-3.556,32.034-7.729,32.091-7.476,32.114-7.38" transform="translate(-93.07 -23.945)" fill="#1a2e35"/>
            <path id="Trazado_208823" data-name="Trazado 208823" d="M367.06,92.272c.022.1-14.321,3.558-32.032,7.729s-32.094,7.476-32.116,7.38,14.317-3.556,32.034-7.729,32.091-7.476,32.114-7.38" transform="translate(-94.188 -28.691)" fill="#1a2e35"/>
            <path id="Trazado_208824" data-name="Trazado 208824" d="M370.465,106.731c.023.1-14.32,3.557-32.032,7.728s-32.094,7.477-32.116,7.381,14.317-3.556,32.034-7.729,32.091-7.476,32.114-7.38" transform="translate(-95.247 -33.187)" fill="#1a2e35"/>
            <path id="Trazado_208825" data-name="Trazado 208825" d="M374.06,121.993c.023.1-14.32,3.557-32.032,7.728s-32.094,7.477-32.116,7.38,14.317-3.556,32.034-7.729,32.091-7.476,32.114-7.38" transform="translate(-96.365 -37.932)" fill="#1a2e35"/>
            <path id="Trazado_208826" data-name="Trazado 208826" d="M377.466,136.452c.022.1-14.321,3.557-32.032,7.729s-32.094,7.476-32.116,7.38,14.316-3.556,32.034-7.729,32.091-7.476,32.114-7.38" transform="translate(-97.424 -42.428)" fill="#1a2e35"/>
            <path id="Trazado_208827" data-name="Trazado 208827" d="M380.777,150.51c.023.1-14.321,3.557-32.032,7.729s-32.094,7.476-32.116,7.38,14.316-3.556,32.034-7.729,32.091-7.476,32.114-7.38" transform="translate(-98.453 -46.799)" fill="#1a2e35"/>
            <path id="Trazado_208828" data-name="Trazado 208828" d="M366.21,391.659s-2.45-16.841-2.246-26.639-.012-20.821-.012-20.821h1.129s-.764,19.449.068,31.179,3.022,16.282,3.022,16.282Z" transform="translate(-113.168 -107.026)" fill="#1a2e35"/>
            <path id="Trazado_208829" data-name="Trazado 208829" d="M372.721,315.9a2.97,2.97,0,0,0-1.028-1.506,2.865,2.865,0,0,0-2.454.017c-3.411,1.207-6.434,7.565-7.813,10.91l4.528,15.256c8.173-7.582,9.588-17.528,6.767-24.678" transform="translate(-112.382 -97.673)" fill="#375a64"/>
            <path id="Trazado_208830" data-name="Trazado 208830" d="M373.47,315.411a.9.9,0,0,1-.065.2l-.222.556c-.2.48-.477,1.178-.81,2.044-.668,1.732-1.517,4.155-2.276,6.883s-1.277,5.244-1.6,7.073c-.161.914-.283,1.656-.36,2.17l-.1.591a.822.822,0,0,1-.046.2.923.923,0,0,1,.009-.209c.017-.156.037-.353.062-.6.055-.517.157-1.263.3-2.182a64.917,64.917,0,0,1,3.881-13.982c.349-.862.647-1.553.866-2.025l.254-.542a.863.863,0,0,1,.1-.184" transform="translate(-114.424 -98.074)" fill="#1a2e35"/>
            <path id="Trazado_208831" data-name="Trazado 208831" d="M361.92,347.764a13.816,13.816,0,0,1-6.979-11.6c-.163-3.385.877-6.707,2.055-9.885a1.283,1.283,0,0,1,.48-.718,1.217,1.217,0,0,1,1.157.181c3.084,1.756,4.953,5.1,5.947,8.511a17.17,17.17,0,0,1,.7,7,11.63,11.63,0,0,1-3.358,6.514" transform="translate(-110.361 -101.203)" fill="#375a64"/>
            <path id="Trazado_208832" data-name="Trazado 208832" d="M363.719,348.886a.881.881,0,0,1-.017-.2c0-.154-.007-.348-.011-.586,0-.508-.022-1.243-.064-2.151a58.7,58.7,0,0,0-.788-7.048c-.471-2.733-1.042-5.18-1.463-6.948l-.5-2.094-.131-.571a.857.857,0,0,1-.033-.2.883.883,0,0,1,.07.193l.165.562c.139.489.332,1.2.56,2.081.454,1.762,1.047,4.208,1.519,6.948a51.523,51.523,0,0,1,.736,7.075c.025.91.025,1.648,0,2.156-.01.238-.017.431-.023.586a.858.858,0,0,1-.021.2" transform="translate(-112.159 -102.325)" fill="#1a2e35"/>
            <g id="Grupo_150735" data-name="Grupo 150735" transform="translate(244.564 224.269)" opacity="0.3">
              <g id="Grupo_150734" data-name="Grupo 150734">
                <g id="Grupo_150733" data-name="Grupo 150733" clip-path="url(#clip-path-6)">
                  <path id="Trazado_208833" data-name="Trazado 208833" d="M361.92,347.764a13.816,13.816,0,0,1-6.979-11.6c-.163-3.385.877-6.707,2.055-9.885a1.283,1.283,0,0,1,.48-.718,1.217,1.217,0,0,1,1.157.181c3.084,1.756,4.953,5.1,5.947,8.511a17.17,17.17,0,0,1,.7,7,11.63,11.63,0,0,1-3.358,6.514" transform="translate(-354.925 -325.472)"/>
                </g>
              </g>
            </g>
            <path id="Trazado_208834" data-name="Trazado 208834" d="M372.026,395.055c4.177.918,7.616,3.864,11.646,5.3,2.667.948,5.681,1.284,7.81,3.148a6.618,6.618,0,0,0-2.9-2.883,51.994,51.994,0,0,0-10.556-5.04,10.045,10.045,0,0,0-5.885-.662" transform="translate(-115.678 -122.727)" fill="#375a64"/>
            <path id="Trazado_208835" data-name="Trazado 208835" d="M356.065,398.127c-5.231-.084-10.739-4.538-15.945-4.8,5.448-1.76,13.251-.322,15.945,4.8" transform="translate(-105.757 -122.078)" fill="#375a64"/>
            <path id="Trazado_208836" data-name="Trazado 208836" d="M366.228,379.532a17.034,17.034,0,0,1,8.363-.569,50.856,50.856,0,0,1,8.164,2.219c-.268-1.815-1.738-3.18-3.119-4.388a21.758,21.758,0,0,0-3.278-2.52,7.3,7.3,0,0,0-3.932-1.109,6.215,6.215,0,0,0-4.339,2.187,7.2,7.2,0,0,0-1.859,4.18" transform="translate(-113.876 -116.031)" fill="#375a64"/>
            <path id="Trazado_208837" data-name="Trazado 208837" d="M344.957,372.9c-3.293-2.811-8.28-2.536-12.609-2.439A102.75,102.75,0,0,1,351.9,382.647c.176-3.06-2.786-6.2-6.946-9.747" transform="translate(-103.341 -115.174)" fill="#375a64"/>
            <g id="Grupo_150738" data-name="Grupo 150738" transform="translate(229.007 255.23)" opacity="0.3">
              <g id="Grupo_150737" data-name="Grupo 150737">
                <g id="Grupo_150736" data-name="Grupo 150736" clip-path="url(#clip-path-7)">
                  <path id="Trazado_208838" data-name="Trazado 208838" d="M344.957,372.9c-3.293-2.811-8.28-2.536-12.609-2.439A102.75,102.75,0,0,1,351.9,382.647c.176-3.06-2.786-6.2-6.946-9.747" transform="translate(-332.348 -370.405)"/>
                </g>
              </g>
            </g>
            <path id="Trazado_208839" data-name="Trazado 208839" d="M368.369,362.288a36.687,36.687,0,0,1,5.064-2.944c1.734-.787,3.35-2.042,5.025-2.948a54.817,54.817,0,0,0,6.043-4.267,15.707,15.707,0,0,1,6.619-3.159,13.021,13.021,0,0,0-6.024.349,38.885,38.885,0,0,0-5.669,2.206,27.636,27.636,0,0,0-7.282,4.221c-2.1,1.878-4,3.733-3.776,6.541" transform="translate(-114.536 -108.444)" fill="#375a64"/>
            <path id="Trazado_208840" data-name="Trazado 208840" d="M381.626,398.837a.671.671,0,0,1-.166-.072l-.457-.236c-.393-.21-.959-.52-1.671-.878-.353-.187-.743-.381-1.167-.58s-.876-.414-1.359-.623a19.859,19.859,0,0,0-3.221-1.122,6.916,6.916,0,0,0-3.356-.085,9.719,9.719,0,0,0-1.422.424,7.348,7.348,0,0,0-2.589,1.781c-.3.324-.45.523-.464.513a.7.7,0,0,1,.1-.154,4.74,4.74,0,0,1,.315-.408,6.748,6.748,0,0,1,1.426-1.253,7.085,7.085,0,0,1,1.16-.622,9.326,9.326,0,0,1,1.441-.449,6.971,6.971,0,0,1,3.438.07,19.114,19.114,0,0,1,3.247,1.147c.483.214.939.426,1.357.642s.811.407,1.16.6c.706.374,1.264.7,1.647.932l.44.267a.673.673,0,0,1,.147.1" transform="translate(-113.728 -122.788)" fill="#1a2e35"/>
            <path id="Trazado_208841" data-name="Trazado 208841" d="M357.6,396.855a1.221,1.221,0,0,1,.327.1,7.27,7.27,0,0,1,.852.371,10.342,10.342,0,0,1,4.371,4.2,7.3,7.3,0,0,1,.4.836,1.22,1.22,0,0,1,.109.323c-.03.014-.225-.429-.627-1.094a11.58,11.58,0,0,0-4.318-4.149c-.68-.375-1.13-.553-1.118-.583" transform="translate(-111.192 -123.398)" fill="#1a2e35"/>
            <path id="Trazado_208842" data-name="Trazado 208842" d="M340.8,373.644a1.06,1.06,0,0,1,.223.066l.628.223.99.365c.386.143.8.355,1.279.564a30.23,30.23,0,0,1,6.811,4.339,33.234,33.234,0,0,1,3.175,3.128,35.109,35.109,0,0,1,2.255,2.855c.6.846,1.05,1.551,1.36,2.038l.358.561a1.108,1.108,0,0,1,.116.2,1.078,1.078,0,0,1-.147-.181c-.092-.121-.225-.3-.388-.542-.329-.476-.8-1.168-1.407-2s-1.374-1.8-2.275-2.819a34.871,34.871,0,0,0-3.168-3.1,31.9,31.9,0,0,0-6.745-4.362c-.469-.216-.883-.435-1.263-.587l-.976-.393-.615-.256a1.1,1.1,0,0,1-.21-.1" transform="translate(-105.97 -116.181)" fill="#1a2e35"/>
            <path id="Trazado_208843" data-name="Trazado 208843" d="M373.763,377.971a1.858,1.858,0,0,1-.417-.054l-.481-.089c-.187-.036-.405-.037-.642-.061a6.581,6.581,0,0,0-3.6.709,6.493,6.493,0,0,0-1.636,1.214,7.4,7.4,0,0,0-1.051,1.3,10.851,10.851,0,0,0-.719,1.373,1.558,1.558,0,0,1,.107-.408,5.792,5.792,0,0,1,.5-1.034,6.932,6.932,0,0,1,1.042-1.351,6.366,6.366,0,0,1,5.364-1.934c.241.033.462.044.649.09l.479.121a1.825,1.825,0,0,1,.4.125" transform="translate(-113.562 -117.41)" fill="#1a2e35"/>
            <path id="Trazado_208844" data-name="Trazado 208844" d="M378.914,354.47a1.125,1.125,0,0,1-.2.122l-.584.317c-.508.274-1.238.677-2.125,1.2s-1.924,1.18-3.031,1.972a25.277,25.277,0,0,0-3.384,2.834,8.6,8.6,0,0,0-1.384,1.792c-.342.658-.67,1.293-.972,1.9a34.546,34.546,0,0,0-1.453,3.308,20.374,20.374,0,0,0-.707,2.33c-.134.56-.182.876-.2.873a1.142,1.142,0,0,1,.021-.232c.019-.151.051-.373.109-.657a17.337,17.337,0,0,1,.654-2.359,31.873,31.873,0,0,1,1.423-3.339c.3-.615.623-1.253.964-1.914a8.649,8.649,0,0,1,1.412-1.837,24.554,24.554,0,0,1,3.418-2.845c1.118-.788,2.17-1.428,3.064-1.945s1.64-.9,2.158-1.15l.6-.287a1.125,1.125,0,0,1,.215-.088" transform="translate(-113.455 -110.219)" fill="#1a2e35"/>
            <path id="Trazado_208845" data-name="Trazado 208845" d="M362.384,372.547a2.093,2.093,0,0,1-.1-.441c-.061-.322-.138-.727-.229-1.209a30.909,30.909,0,0,0-2.483-7.688l-.511-1.12a2.116,2.116,0,0,1-.167-.421,2.128,2.128,0,0,1,.233.389c.139.256.334.628.564,1.1a25.792,25.792,0,0,1,2.494,7.722c.082.515.141.932.171,1.221a2.148,2.148,0,0,1,.032.452" transform="translate(-111.594 -112.458)" fill="#1a2e35"/>
            <path id="Trazado_208846" data-name="Trazado 208846" d="M356.942,353.383a14.188,14.188,0,0,0-1.7-5.647,18.643,18.643,0,0,0-12.636-9.423l11.7,17.436,1.51,3.112a8.948,8.948,0,0,0,1.128-5.478" transform="translate(-106.53 -105.196)" fill="#375a64"/>
            <rect id="Rectángulo_299466" data-name="Rectángulo 299466" width="27.203" height="4.821" transform="translate(239.99 282.55)" fill="#ff735d"/>
            <path id="Trazado_208847" data-name="Trazado 208847" d="M351.236,415.662l2.317,14.96h18.059l2.764-14.96Z" transform="translate(-109.214 -129.247)" fill="#ff735d"/>
            <path id="Trazado_208848" data-name="Trazado 208848" d="M375.375,417.016c0,.053-6.136.1-13.7.1s-13.7-.043-13.7-.1,6.135-.1,13.7-.1,13.7.043,13.7.1" transform="translate(-108.198 -129.638)" fill="#1a2e35"/>
            <path id="Trazado_208849" data-name="Trazado 208849" d="M268.877,132.751a76.4,76.4,0,1,0-109.134,68.836c-.024,9.053-.051,19.274-.051,19.274l66.961.176s.433-10.817.608-20.472a76.375,76.375,0,0,0,41.616-67.814" transform="translate(-36.093 -17.46)" fill="#f9860b"/>
            <g id="Grupo_150741" data-name="Grupo 150741" transform="translate(137.664 70.472)" opacity="0.1">
              <g id="Grupo_150740" data-name="Grupo 150740">
                <g id="Grupo_150739" data-name="Grupo 150739" clip-path="url(#clip-path-8)">
                  <path id="Trazado_208850" data-name="Trazado 208850" d="M294.927,147.063a76.031,76.031,0,0,0-14.379-44.79c8.955,25.663,5.581,55.43-9.159,78.307-15.654,24.3-39.729,42.349-71.6,42.349,11.935,9.457,27.675,7.766,42.881,6.959,3.4-.181,6.859-.38,10.263-.8.132-3.954.291-9.229.382-14.207a76.375,76.375,0,0,0,41.616-67.814" transform="translate(-199.786 -102.273)"/>
                </g>
              </g>
            </g>
            <g id="Grupo_150744" data-name="Grupo 150744" transform="translate(92.503 56.631)" opacity="0.3">
              <g id="Grupo_150743" data-name="Grupo 150743">
                <g id="Grupo_150742" data-name="Grupo 150742" clip-path="url(#clip-path-9)">
                  <path id="Trazado_208851" data-name="Trazado 208851" d="M175.648,87.513c-.9-2.2-3.33-3.807-6.213-4.677a16.462,16.462,0,0,0-12.383,1.355c-11.219,5.9-17.6,13.02-21.55,25.678-1.338,4.287-2.013,11.373.081,15.584a8.5,8.5,0,0,0,5.12,4.48c5.9,1.727,10.6-4,12.447-9.478,1.716-5.1,2.345-10.873,5.984-14.844,3-3.271,7.476-4.666,11.211-7.061s6.985-6.931,5.3-11.037" transform="translate(-134.246 -82.186)" fill="#fff"/>
                </g>
              </g>
            </g>
            <g id="Grupo_150747" data-name="Grupo 150747" transform="translate(139.494 47.778)" opacity="0.3">
              <g id="Grupo_150746" data-name="Grupo 150746">
                <g id="Grupo_150745" data-name="Grupo 150745" clip-path="url(#clip-path-10)">
                  <path id="Trazado_208852" data-name="Trazado 208852" d="M219.014,73.891c-2.214-3.868-7.8-5.481-11.066-4.019a9.834,9.834,0,0,0-5.341,6.73,9.012,9.012,0,0,0,3.964,9.26,8.519,8.519,0,0,0,9.949-.929c2.622-2.432,4.269-7.939,2.493-11.042" transform="translate(-202.441 -69.338)" fill="#fff"/>
                </g>
              </g>
            </g>
            <path id="Trazado_208853" data-name="Trazado 208853" d="M206.324,358.5a20.847,20.847,0,0,1,4.362,3.887,4.488,4.488,0,0,0,3.552,1.7l13.475.025a4.54,4.54,0,0,0,3.778-1.984c.99-1.468,2.763-3.2,4.613-3.575Z" transform="translate(-64.155 -111.473)" fill="#375a64"/>
            <path id="Trazado_208854" data-name="Trazado 208854" d="M185.255,304.007c0,.271,3.085,21.324,4.267,29.375a9.915,9.915,0,0,0,5.557,7.635,9.186,9.186,0,0,0,3.833.849l29.473.054s7.7.014,9.46-6.093c1.849-6.428,5.376-31.713,5.376-31.713Z" transform="translate(-57.604 -94.528)" fill="#1a2e35"/>
            <path id="Trazado_208855" data-name="Trazado 208855" d="M240.478,344.708l-51.344.085a1.46,1.46,0,0,1-1.463-1.458v-.159a1.461,1.461,0,0,1,1.458-1.464l51.344-.085a1.461,1.461,0,0,1,1.463,1.458v.16a1.46,1.46,0,0,1-1.458,1.463" transform="translate(-58.355 -106.226)" fill="#e1e1e1"/>
            <path id="Trazado_208856" data-name="Trazado 208856" d="M240.367,344.635a1.648,1.648,0,0,0,.99-.46,1.491,1.491,0,0,0,.389-1.228,1.38,1.38,0,0,0-1.072-1.259c-2.788-.041-6.931.048-12,.062l-39.658.138a1.219,1.219,0,0,0-1.014.548,1.2,1.2,0,0,0-.193.559,1.793,1.793,0,0,0,.048.619,1.223,1.223,0,0,0,.806.806,7.206,7.206,0,0,0,1.341.051l5.57,0,10.529,0,17.83.023,12.021.059,3.268.041.85.023a1.226,1.226,0,0,1,.291.025,1.332,1.332,0,0,1-.291.026l-.85.026-3.268.052-12.02.1-17.83.083-10.53.032-5.569.013h-.71a2.529,2.529,0,0,1-.777-.072,1.721,1.721,0,0,1-1.138-1.136,2.284,2.284,0,0,1-.068-.806,1.707,1.707,0,0,1,1.7-1.563l39.659.006c5.085.034,9.164-.008,12.041.1a1.543,1.543,0,0,1,1.176,1.441,1.593,1.593,0,0,1-.466,1.306,1.284,1.284,0,0,1-1.061.389" transform="translate(-58.242 -106.153)" fill="#1a2e35"/>
            <path id="Trazado_208857" data-name="Trazado 208857" d="M241.094,335.087l-53.52.09a1.46,1.46,0,0,1-1.463-1.458v-.16a1.461,1.461,0,0,1,1.458-1.464l53.519-.089a1.46,1.46,0,0,1,1.463,1.458v.16a1.461,1.461,0,0,1-1.458,1.463" transform="translate(-57.87 -103.235)" fill="#e1e1e1"/>
            <path id="Trazado_208858" data-name="Trazado 208858" d="M240.981,335.015a1.617,1.617,0,0,0,1.02-.491,1.541,1.541,0,0,0,.353-1.289,1.384,1.384,0,0,0-1.222-1.195l-12.475.09-41.2.142a1.215,1.215,0,0,0-1.038.588,1.191,1.191,0,0,0-.172.589,1.453,1.453,0,0,0,.083.635,1.21,1.21,0,0,0,.91.75c.4.042.96.01,1.429.02l5.785-.006,10.939,0,18.523.022,12.486.059,3.395.041.883.023a1.42,1.42,0,0,1,.3.025,1.336,1.336,0,0,1-.3.026l-.884.026-3.394.052-12.486.1-18.521.084-10.938.033-5.786.013c-.509-.012-.939.031-1.518-.026a1.707,1.707,0,0,1-1.284-1.056,1.968,1.968,0,0,1-.117-.831,1.7,1.7,0,0,1,.243-.832,1.717,1.717,0,0,1,1.464-.83l41.2,0c5.276.019,9.527.023,12.5.07a1.548,1.548,0,0,1,1.348,1.37,1.646,1.646,0,0,1-.427,1.375,1.287,1.287,0,0,1-1.093.422" transform="translate(-57.757 -103.162)" fill="#1a2e35"/>
            <path id="Trazado_208859" data-name="Trazado 208859" d="M241.491,325.466l-54.906.092a1.46,1.46,0,0,1-1.463-1.458v-.16a1.46,1.46,0,0,1,1.457-1.463l54.907-.092a1.46,1.46,0,0,1,1.463,1.458V324a1.46,1.46,0,0,1-1.458,1.463" transform="translate(-57.562 -100.243)" fill="#e1e1e1"/>
            <path id="Trazado_208860" data-name="Trazado 208860" d="M241.378,325.395a1.6,1.6,0,0,0,1.039-.511,1.562,1.562,0,0,0,.326-1.327,1.379,1.379,0,0,0-1.315-1.142l-12.781.1-42.178.143a1.219,1.219,0,0,0-1.054.614,1.234,1.234,0,0,0-.159.61,1.391,1.391,0,0,0,.108.644,1.219,1.219,0,0,0,.975.708c.451.014.993,0,1.483.006l5.923-.007,11.2,0,18.962.021,12.783.058,3.476.041.9.023a1.473,1.473,0,0,1,.308.025,1.4,1.4,0,0,1-.308.026l-.9.026-3.476.052-12.783.1-18.962.085-11.2.033-5.923.014c-.514,0-.978.012-1.537-.008a1.714,1.714,0,0,1-1.375-1,1.886,1.886,0,0,1-.151-.848,1.71,1.71,0,0,1,1.709-1.722l42.179,0,12.788.061a1.542,1.542,0,0,1,1.454,1.313,1.665,1.665,0,0,1-.4,1.418,1.294,1.294,0,0,1-1.113.444" transform="translate(-57.449 -100.172)" fill="#1a2e35"/>
            <path id="Trazado_208861" data-name="Trazado 208861" d="M242.12,315.844l-57.133.1a1.46,1.46,0,0,1-1.463-1.458v-.16a1.461,1.461,0,0,1,1.458-1.463l57.133-.1a1.461,1.461,0,0,1,1.464,1.458v.16a1.461,1.461,0,0,1-1.458,1.463" transform="translate(-57.065 -97.251)" fill="#e1e1e1"/>
            <path id="Trazado_208862" data-name="Trazado 208862" d="M242.007,315.774a1.5,1.5,0,0,0,1.347-1.932,1.392,1.392,0,0,0-1.468-1.052l-13.262.1-43.752.146a1.221,1.221,0,0,0-1.076.656,1.509,1.509,0,0,0,.012,1.3,1.225,1.225,0,0,0,1.078.631l1.566,0,6.146-.006,11.616,0,19.671.02,13.261.057,3.605.041.938.023a1.47,1.47,0,0,1,.32.025,1.573,1.573,0,0,1-.32.026l-.937.026-3.606.052-13.26.1-19.67.086L192.6,316.1l-6.145.014-1.566,0a1.724,1.724,0,0,1-1.515-.887,2.04,2.04,0,0,1-.019-1.765,1.72,1.72,0,0,1,1.518-.925h43.753l13.262.057a1.56,1.56,0,0,1,1.612,1.213,1.7,1.7,0,0,1-.347,1.486,1.46,1.46,0,0,1-.821.468.946.946,0,0,1-.322.011" transform="translate(-56.952 -97.181)" fill="#1a2e35"/>
            <path id="Trazado_208863" data-name="Trazado 208863" d="M174.525,277.614c0,.546,1.189,13.439,1.8,20.057a7.967,7.967,0,0,0,3.6,5.949l3,1.951,56.986.105,2.967-1.912a7.973,7.973,0,0,0,3.627-6.02l1.73-19.994Z" transform="translate(-54.267 -86.322)" fill="#ff735d"/>
            <g id="Grupo_150750" data-name="Grupo 150750" transform="translate(132.688 238.438)" opacity="0.3">
              <g id="Grupo_150749" data-name="Grupo 150749">
                <g id="Grupo_150748" data-name="Grupo 150748" clip-path="url(#clip-path-11)">
                  <path id="Trazado_208864" data-name="Trazado 208864" d="M192.564,346.036c5.486,1.252,10.958,1.367,16.983,1.352,4.864-.013,9.634.13,14.915.031,3.869-.073,7.431-.261,11.289-.42,1.953-.081,4.093-.572,4.486-.963Z" transform="translate(-192.564 -346.035)"/>
                </g>
              </g>
            </g>
            <g id="Grupo_150753" data-name="Grupo 150753" transform="translate(130.668 231.781)" opacity="0.3">
              <g id="Grupo_150752" data-name="Grupo 150752">
                <g id="Grupo_150751" data-name="Grupo 150751" clip-path="url(#clip-path-12)">
                  <path id="Trazado_208865" data-name="Trazado 208865" d="M189.633,336.374c5.915,1.253,11.813,1.369,18.308,1.354,5.244-.012,10.386.132,16.08.034,4.171-.073,8.01-.26,12.169-.419,2.106-.081,4.412-.571,4.836-.963Z" transform="translate(-189.633 -336.374)"/>
                </g>
              </g>
            </g>
            <g id="Grupo_150756" data-name="Grupo 150756" transform="translate(130.68 225.2)" opacity="0.3">
              <g id="Grupo_150755" data-name="Grupo 150755">
                <g id="Grupo_150754" data-name="Grupo 150754" clip-path="url(#clip-path-13)">
                  <path id="Trazado_208866" data-name="Trazado 208866" d="M189.65,326.823c5.916,1.253,11.814,1.369,18.309,1.354,5.244-.012,10.386.132,16.08.033,4.171-.072,8.01-.26,12.169-.418,2.106-.081,4.412-.571,4.836-.963Z" transform="translate(-189.65 -326.823)"/>
                </g>
              </g>
            </g>
            <g id="Grupo_150759" data-name="Grupo 150759" transform="translate(130.692 218.62)" opacity="0.3">
              <g id="Grupo_150758" data-name="Grupo 150758">
                <g id="Grupo_150757" data-name="Grupo 150757" clip-path="url(#clip-path-12)">
                  <path id="Trazado_208867" data-name="Trazado 208867" d="M189.668,317.273c5.915,1.253,11.814,1.369,18.308,1.355,5.244-.012,10.386.132,16.08.033,4.172-.072,8.01-.26,12.17-.419,2.105-.081,4.412-.571,4.835-.963Z" transform="translate(-189.668 -317.273)"/>
                </g>
              </g>
            </g>
            <path id="Trazado_208868" data-name="Trazado 208868" d="M174.525,277.614c0,.546,1.189,13.439,1.8,20.057a7.967,7.967,0,0,0,3.6,5.949l3,1.951,56.986.105,2.967-1.912a7.973,7.973,0,0,0,3.627-6.02l1.73-19.994Z" transform="translate(-54.267 -86.322)" fill="#3eb9c6"/>
            <path id="Trazado_208869" data-name="Trazado 208869" d="M246.238,310.664c0,.138-15.243.221-34.042.186s-34.044-.175-34.044-.312,15.24-.221,34.045-.186,34.041.175,34.04.312" transform="translate(-55.395 -96.499)" fill="#1a2e35"/>
            <path id="Trazado_208870" data-name="Trazado 208870" d="M247.546,277.169c.006.152-16.546.31-36.965.352s-36.982-.047-36.987-.2,16.543-.309,36.969-.352,36.979.047,36.984.2" transform="translate(-53.978 -86.118)" fill="#1a2e35"/>
            <path id="Trazado_208871" data-name="Trazado 208871" d="M155.605,215.944a1.073,1.073,0,0,1-.192-.125l-.542-.4c-.466-.36-1.187-.851-2.046-1.571a68.275,68.275,0,0,1-6.96-6.445c-1.385-1.45-2.812-3.122-4.284-4.965-1.433-1.871-2.929-3.9-4.327-6.158A70.7,70.7,0,0,1,126.5,163.839c-.225-2.645-.24-5.168-.208-7.525.079-2.357.226-4.55.471-6.54a68.234,68.234,0,0,1,1.732-9.326c.259-1.089.544-1.914.7-2.481l.2-.641a1.025,1.025,0,0,1,.079-.214,1.122,1.122,0,0,1-.044.225c-.042.165-.1.379-.164.65-.136.573-.4,1.4-.637,2.5a73.473,73.473,0,0,0-1.616,9.321c-.227,1.985-.359,4.171-.425,6.518-.019,2.348.007,4.86.24,7.491a71.3,71.3,0,0,0,10.705,32.3c1.385,2.249,2.864,4.28,4.282,6.151,1.455,1.843,2.866,3.518,4.234,4.974a73.531,73.531,0,0,0,6.863,6.511c.844.735,1.55,1.242,2,1.621l.52.423a1.1,1.1,0,0,1,.17.154" transform="translate(-39.266 -42.634)" fill="#1a2e35"/>
            <path id="Trazado_208872" data-name="Trazado 208872" d="M213.188,190.974A38.57,38.57,0,1,1,251.759,152.4a38.612,38.612,0,0,1-38.571,38.569m0-69.334A30.765,30.765,0,1,0,243.953,152.4a30.8,30.8,0,0,0-30.765-30.765" transform="translate(-54.296 -35.396)" fill="#ff735d"/>
            <path id="Trazado_208873" data-name="Trazado 208873" d="M210.815,176.847a19.87,19.87,0,0,1-8-7.367,21.306,21.306,0,0,1,0-21.393,19.881,19.881,0,0,1,8-7.368,24.745,24.745,0,0,1,11.556-2.655,22.4,22.4,0,0,1,11.108,2.655,15.757,15.757,0,0,1,6.919,7.592l-9.051,4.863q-3.141-5.536-9.05-5.536a10.241,10.241,0,0,0-7.555,2.993,12.6,12.6,0,0,0,0,16.306,10.237,10.237,0,0,0,7.555,2.992,9.788,9.788,0,0,0,9.05-5.535l9.051,4.937a16.068,16.068,0,0,1-6.919,7.48,22.149,22.149,0,0,1-11.108,2.693,24.728,24.728,0,0,1-11.556-2.656" transform="translate(-62.167 -42.93)" fill="#ff735d"/>
            <path id="Trazado_208874" data-name="Trazado 208874" d="M213.188,190.974A38.57,38.57,0,1,1,251.759,152.4a38.612,38.612,0,0,1-38.571,38.569m0-69.334A30.765,30.765,0,1,0,243.953,152.4a30.8,30.8,0,0,0-30.765-30.765" transform="translate(-54.296 -35.396)" fill="#f40b74"/>
            <path id="Trazado_208875" data-name="Trazado 208875" d="M210.815,176.847a19.87,19.87,0,0,1-8-7.367,21.306,21.306,0,0,1,0-21.393,19.881,19.881,0,0,1,8-7.368,24.745,24.745,0,0,1,11.556-2.655,22.4,22.4,0,0,1,11.108,2.655,15.757,15.757,0,0,1,6.919,7.592l-9.051,4.863q-3.141-5.536-9.05-5.536a10.241,10.241,0,0,0-7.555,2.993,12.6,12.6,0,0,0,0,16.306,10.237,10.237,0,0,0,7.555,2.992,9.788,9.788,0,0,0,9.05-5.535l9.051,4.937a16.068,16.068,0,0,1-6.919,7.48,22.149,22.149,0,0,1-11.108,2.693,24.728,24.728,0,0,1-11.556-2.656" transform="translate(-62.167 -42.93)" fill="#f40b74"/>
            <path id="Trazado_208876" data-name="Trazado 208876" d="M367.1,216.326l-7.252-.548,3.183-42.11c.147-1.944-2.077-7.373-3.4-8.8-13.3-14.286-29.448-4.977-30.5,8.886l-2.985,39.475-7.252-.548,2.936-38.837c.989-13.078,11.983-23.488,25.088-22.97a24.2,24.2,0,0,1,23.167,25.977Z" transform="translate(-99.157 -46.907)" fill="#e1e1e1"/>
            <path id="Trazado_208877" data-name="Trazado 208877" d="M367.015,216.269s.012-.272.048-.79.09-1.289.16-2.292c.145-2.015.359-4.974.633-8.784s.618-8.464,1.013-13.869q.3-4.052.638-8.65c.167-3.059.682-6.3.271-9.687a23.542,23.542,0,0,0-3.535-9.96c-.252-.389-.493-.788-.758-1.173l-.869-1.112a24.276,24.276,0,0,0-1.91-2.128c-.329-.352-.718-.644-1.077-.972a13.861,13.861,0,0,0-1.125-.936,22.962,22.962,0,0,0-2.465-1.645,24.678,24.678,0,0,0-5.571-2.409l-1.512-.349-.761-.176c-.257-.043-.517-.068-.777-.1l-1.564-.2c-.525-.042-1.056-.034-1.587-.053a23.826,23.826,0,0,0-12.511,3.294,23.968,23.968,0,0,0-11.513,16.639c-.355,2.363-.458,4.81-.661,7.254-.74,9.8-1.506,19.939-2.29,30.328-.1,1.387-.21,2.77-.314,4.141l-.156-.183,7.252.548-.182.157c.595-7.852,1.177-15.533,1.743-23q.425-5.6.837-11.028.206-2.713.409-5.38a18.651,18.651,0,0,1,1.213-5.19,17.165,17.165,0,0,1,6.533-7.876c.364-.218.7-.478,1.085-.658l1.125-.572a18.4,18.4,0,0,1,4.767-1.377c.406-.057.816-.07,1.222-.106l.609-.046.608.014a17.091,17.091,0,0,1,4.733.7,18.115,18.115,0,0,1,4.243,1.939,17.193,17.193,0,0,1,5.976,6.552,16.3,16.3,0,0,1,1.9,8.115q-.013.509-.027,1.013-.038.5-.077.994-.075.989-.15,1.961-.149,1.942-.293,3.811c-.384,4.982-.737,9.56-1.055,13.69-.644,8.252-1.147,14.707-1.482,19l-.046-.053,5.466.442,1.337.112c.3.026.445.043.445.043s-.139,0-.429-.023l-1.328-.089-5.5-.387-.05,0,0-.05c.315-4.295.787-10.752,1.391-19.008.307-4.13.646-8.71,1.016-13.692q.14-1.869.284-3.813.072-.972.146-1.961.036-.5.074-.994.012-.5.024-1a16.037,16.037,0,0,0-1.888-7.988,16.916,16.916,0,0,0-5.891-6.437,17.758,17.758,0,0,0-4.175-1.9,16.781,16.781,0,0,0-4.653-.686l-.6-.014-.6.046c-.4.037-.8.049-1.2.105a18.082,18.082,0,0,0-4.681,1.358l-1.1.563c-.376.177-.707.434-1.065.648a16.861,16.861,0,0,0-6.407,7.738,18.329,18.329,0,0,0-1.186,5.1q-.2,2.667-.4,5.381-.408,5.426-.83,11.028c-.563,7.465-1.142,15.145-1.735,23l-.012.169-.17-.013-7.252-.548-.17-.013.013-.17c.1-1.371.208-2.754.313-4.141.786-10.388,1.555-20.53,2.3-30.327.206-2.45.307-4.874.669-7.284A24.339,24.339,0,0,1,333.6,154a24.121,24.121,0,0,1,12.675-3.323c.537.021,1.074.012,1.606.057l1.814.231,1,.178,1.506.349.693.193a24.012,24.012,0,0,1,5.3,2.335,23.16,23.16,0,0,1,2.492,1.669,13.9,13.9,0,0,1,1.136.949c.362.331.755.628,1.087.984a24.626,24.626,0,0,1,1.928,2.155l.876,1.125c.268.39.51.794.764,1.187a23.774,23.774,0,0,1,3.551,10.073c.408,3.425-.119,6.685-.3,9.752q-.357,4.608-.672,8.678c-.423,5.41-.788,10.071-1.086,13.884-.3,3.8-.533,6.747-.693,8.755-.081.993-.143,1.751-.185,2.269s-.07.764-.07.764" transform="translate(-99.074 -46.85)" fill="#1a2e35"/>
            <path id="Trazado_208878" data-name="Trazado 208878" d="M369.03,262.9,303.2,257.921l4.2-55.558,65.6,4.96a2.58,2.58,0,0,1,2.378,2.767l-3.829,50.649a2.344,2.344,0,0,1-2.514,2.16" transform="translate(-94.277 -62.923)" fill="#375a64"/>
            <path id="Trazado_208879" data-name="Trazado 208879" d="M368.832,262.946l-65.573-4.958,4.2-55.558,65.337,4.94a2.841,2.841,0,0,1,2.619,3.048l-3.79,50.127a2.605,2.605,0,0,1-2.794,2.4" transform="translate(-94.296 -62.944)" fill="#f64193"/>
            <path id="Trazado_208880" data-name="Trazado 208880" d="M358.607,262.2l-56.942-4.305a2.894,2.894,0,0,1-2.668-3.1l3.772-49.88a2.8,2.8,0,0,1,3-2.581l57.66,4.359a2.8,2.8,0,0,1,2.581,3l-3.731,49.35a3.426,3.426,0,0,1-3.674,3.157" transform="translate(-92.968 -62.909)" fill="#f64193"/>
            <g id="Grupo_150762" data-name="Grupo 150762" transform="translate(232.386 156.778)" opacity="0.3">
              <g id="Grupo_150761" data-name="Grupo 150761">
                <g id="Grupo_150760" data-name="Grupo 150760" clip-path="url(#clip-path-15)">
                  <path id="Trazado_208881" data-name="Trazado 208881" d="M353.558,235.891a7.78,7.78,0,0,0-7.409-8.358,7.867,7.867,0,0,0-8.1,7.119,7.757,7.757,0,0,0,5.075,7.921l-5.871,10.319,13.353,1.256-3.25-11.256a7.756,7.756,0,0,0,6.2-7" transform="translate(-337.252 -227.525)"/>
                </g>
              </g>
            </g>
            <path id="Trazado_208882" data-name="Trazado 208882" d="M391.094,262.527c-.094-.007.6-9.685,1.556-21.613s1.8-21.6,1.9-21.588-.6,9.684-1.557,21.615-1.8,21.594-1.9,21.586" transform="translate(-121.605 -68.198)" fill="#1a2e35"/>
            <path id="Trazado_208883" data-name="Trazado 208883" d="M357.989,208.725c-.006.094-8.532-.36-19.041-1.015s-19.027-1.261-19.021-1.355,8.53.36,19.042,1.015,19.025,1.261,19.019,1.355" transform="translate(-99.479 -64.161)" fill="#fff"/>
            <path id="Trazado_208884" data-name="Trazado 208884" d="M337.142,238.544a1.7,1.7,0,0,1-.285-.508,7.571,7.571,0,0,1-.486-1.512,8.711,8.711,0,0,1,3.786-9.175,7.58,7.58,0,0,1,1.41-.728,1.669,1.669,0,0,1,.56-.159c.025.059-.764.325-1.835,1.087a8.966,8.966,0,0,0-3.686,8.932c.222,1.295.595,2.04.535,2.064" transform="translate(-104.531 -70.415)" fill="#fff"/>
            <path id="Trazado_208885" data-name="Trazado 208885" d="M340.816,249.087c-.054.076-.5-.147-.99-.5s-.846-.7-.792-.776.5.147.99.5.846.7.792.776" transform="translate(-105.418 -77.051)" fill="#fff"/>
            <path id="Trazado_208886" data-name="Trazado 208886" d="M347.575,153.535c0,.03-.472.034-1.319.086a21.978,21.978,0,0,0-3.545.525,20.9,20.9,0,0,0-15.851,15.809,22,22,0,0,0-.534,3.544c-.054.846-.06,1.317-.09,1.318a1.327,1.327,0,0,1-.032-.342c0-.224-.032-.556-.01-.983a19.175,19.175,0,0,1,.431-3.591,20.621,20.621,0,0,1,16.034-15.992,19.2,19.2,0,0,1,3.592-.422c.427-.02.759.01.983.013a1.308,1.308,0,0,1,.342.033" transform="translate(-101.425 -47.724)" fill="#fff"/>
            <path id="Trazado_208887" data-name="Trazado 208887" d="M325.163,191.29a12.118,12.118,0,0,1,.345-4.032,12.116,12.116,0,0,1-.345,4.032" transform="translate(-101.085 -58.226)" fill="#fff"/>
            <path id="Trazado_208888" data-name="Trazado 208888" d="M134.435,411.858H88.6a9.17,9.17,0,0,1-9.17-9.17V362.654a9.17,9.17,0,0,1,9.17-9.169h45.838a3.365,3.365,0,0,1,3.365,3.365v51.642a3.366,3.366,0,0,1-3.365,3.365" transform="translate(-24.697 -109.913)" fill="#ff735d"/>
            <path id="Trazado_208889" data-name="Trazado 208889" d="M134.435,411.858H88.6a9.17,9.17,0,0,1-9.17-9.17V362.654a9.17,9.17,0,0,1,9.17-9.169h45.838a3.365,3.365,0,0,1,3.365,3.365v51.642a3.366,3.366,0,0,1-3.365,3.365" transform="translate(-24.697 -109.913)" fill="#f64193"/>
            <path id="Trazado_208890" data-name="Trazado 208890" d="M119.8,411.858H67.008a2.793,2.793,0,0,1-2.793-2.793V356.277a2.793,2.793,0,0,1,2.793-2.792H119.8a2.793,2.793,0,0,1,2.793,2.792v52.788a2.793,2.793,0,0,1-2.793,2.793" transform="translate(-19.967 -109.913)" fill="#f64193"/>
            <path id="Trazado_208891" data-name="Trazado 208891" d="M97.493,406.052,80.256,392.047l4.887-6.015L96.7,395.423l17.224-18.869,5.723,5.225Z" transform="translate(-24.955 -117.086)" fill="#fff"/>
            <path id="Trazado_208892" data-name="Trazado 208892" d="M130.337,145.988a3.905,3.905,0,0,1,3.323-1.009,2.243,2.243,0,0,0,1.435.025c.309-.165.484-.5.72-.753a1.979,1.979,0,0,1,2.847.061,2.352,2.352,0,0,0,.533.579c.921.541,2.049-1.18,2.964-.63a2.242,2.242,0,0,0-1.091.776,1.017,1.017,0,0,0,.055,1.253c.845.819,2.381-.846,3.334-.155.513.372.543,1.278,1.151,1.456a2.125,2.125,0,0,0,.731-.018,1.628,1.628,0,0,1,1.66,1.481c.037.7-.358,1.542.145,2.035a1.522,1.522,0,0,0,1.242.239,4.238,4.238,0,0,1-.549,1.834,2.55,2.55,0,0,1,.688,3.469,5.434,5.434,0,0,1,1.4,1.575,1.9,1.9,0,0,1-.083,2,1.753,1.753,0,0,0-.288.384.955.955,0,0,0-.025.514,8.758,8.758,0,0,1,.307,1.98c-.052.668-.585,1.379-1.249,1.289-.155-.021-.324-.081-.459,0a.44.44,0,0,0-.175.3,4.547,4.547,0,0,0,.026,1.439,1.925,1.925,0,0,1-.283,1.382.823.823,0,0,1-1.246.089l.463,2.263c.092.449.156.988-.182,1.3-.443.405-1.19.032-1.486-.489s-.351-1.156-.661-1.67a3.642,3.642,0,0,1-.376-.63c-.063-.183-.077-.4-.221-.529-.288-.262-.77.134-.748.522a2.063,2.063,0,0,0,.544,1.013.989.989,0,0,1,.192,1.078c-.1.157-.282.254-.381.413-.345.552.461,1.145.527,1.792a1.569,1.569,0,0,1-.674,1.212c-.435.393-1.255.688-1.49.151a5.531,5.531,0,0,1-.1-.6,1.473,1.473,0,0,0-.435-.557,3.048,3.048,0,0,1-.83-1.542c.464.634.945,1.466.56,2.151a3.254,3.254,0,0,1-.684.7c-.469.442-.776,1.033-1.239,1.481a1.5,1.5,0,0,1-1.748.392,1.45,1.45,0,0,1-2.5,1.321,1.256,1.256,0,0,0-.378-.37,1.031,1.031,0,0,0-.566-.013,3.141,3.141,0,0,1-2.973-1.364l.586-.175a7.3,7.3,0,0,1-3.2-1.113,2.5,2.5,0,0,1-.916-3.006c.234-.436.662-.873.5-1.34a1.225,1.225,0,0,0-.777-.614l-3.961-1.614a3.78,3.78,0,0,1-1.723-1.107,1.3,1.3,0,0,1,.192-1.834,3.713,3.713,0,0,0-1.324-1.579c-.65-.435-1.423-.653-2.093-1.058a2.116,2.116,0,0,1-1.176-1.883c.088-.778,1.192-1.329,1.7-.735-.05-1.18-2.14-1.355-2.263-2.53-.1-.954,1.136-1.387,1.795-2.084-.111-.336-.437-.562-.558-.894-.254-.7.486-1.343,1.17-1.629s1.514-.568,1.711-1.283c.2-.73-.391-1.6.033-2.225a.837.837,0,0,1,1.114-.22c.6-1.329,3.1-.185,3.907-1.4a.528.528,0,0,0,.1-.325.558.558,0,0,0-.117-.271,5.893,5.893,0,0,0-1.08-.914,1.148,1.148,0,0,1-.46-1.242c.191-.434,1.028-.378,1,.094a1.042,1.042,0,0,1,1.572.478,1.126,1.126,0,0,1,1.415-.061,3.29,3.29,0,0,1,.95,1.2" transform="translate(-36.569 -44.675)" fill="#1a2e35"/>
            <path id="Trazado_208893" data-name="Trazado 208893" d="M140.858,166.475a8.54,8.54,0,0,0-3.319-4.814,5.087,5.087,0,0,0-2.189-1.161,2.136,2.136,0,0,0-2.2.828l.079,1.395c-.231,2.208,1.43,4.11,2.192,6.194.331.907.593,1.992,1.469,2.4a2.076,2.076,0,0,0,1.484.023c1.9-.6,2.861-2.905,2.49-4.861" transform="translate(-41.4 -49.893)" fill="#375a64"/>
            <path id="Trazado_208894" data-name="Trazado 208894" d="M129.449,175.82a4.451,4.451,0,0,0-.338-5.7,2.98,2.98,0,0,0-.269-3.613,8.718,8.718,0,0,0-3.219-2.172,5.99,5.99,0,0,0-6.937-4.446c-1.526-2.294-4.824-2.685-7.477-1.94a7.063,7.063,0,0,1-1.969.409,11.638,11.638,0,0,1-1.463-.218,6.416,6.416,0,0,0-6.452,3.971,4.993,4.993,0,0,1-.584,1.16,6.764,6.764,0,0,1-1.34,1.049,4.3,4.3,0,0,0-1.679,3.161c-.054,1.045.267,2.157-.183,3.1-.225.474-.628.854-.8,1.347-.513,1.431,1.064,2.915.754,4.4-.063.3-.2.585-.29.883a2.647,2.647,0,0,0,.143,1.856,3.808,3.808,0,0,1,.57,1.339,4.273,4.273,0,0,1-.229,1.085c-.191.888,1.694,4.339,2.459,4.831l22.974.439a4.3,4.3,0,0,0,3.361-3.663,1.574,1.574,0,0,1,.223-.843,1.842,1.842,0,0,1,.631-.4c1.487-.779,1.687-2.808,1.548-4.482a2.026,2.026,0,0,1,.021-.7,2.559,2.559,0,0,1,.551-.856" transform="translate(-30.047 -49.007)" fill="#1a2e35"/>
            <path id="Trazado_208895" data-name="Trazado 208895" d="M123.814,178.426a12.307,12.307,0,0,0-6.412-10.794,15.211,15.211,0,0,0-5.857-1.477,9.31,9.31,0,0,0-5.431,1.082c-1.269.285-5.953,4.486-6.241,9.1-.32,5.12-.508,11.384.1,15.2,1.224,7.682,7.112,8.656,7.112,8.656s-.267,6.087-.267,6.087l4.285,7.947,11.051-11.252Z" transform="translate(-30.962 -51.645)" fill="#ffc09d"/>
            <path id="Trazado_208896" data-name="Trazado 208896" d="M115.257,200.666a1.62,1.62,0,0,0-.5-1.027,1.655,1.655,0,0,0-2-.223,2.217,2.217,0,0,0-.954,2.031,2.014,2.014,0,0,0,1.394.913,2.528,2.528,0,0,0,.27.023,1.812,1.812,0,0,0,1.244-.415,1.612,1.612,0,0,0,.548-1.3" transform="translate(-34.761 -61.933)" fill="#ff9b6c"/>
            <path id="Trazado_208897" data-name="Trazado 208897" d="M103.907,189.276a.985.985,0,0,0,.95.994.943.943,0,0,0,1.016-.889.985.985,0,0,0-.95-.994.943.943,0,0,0-1.016.889" transform="translate(-32.309 -58.577)" fill="#1a2e35"/>
            <path id="Trazado_208898" data-name="Trazado 208898" d="M102.512,184.759c.123.129.868-.424,1.929-.422s1.837.533,1.952.4c.057-.058-.068-.289-.407-.536a2.7,2.7,0,0,0-1.563-.48,2.593,2.593,0,0,0-1.535.5c-.326.25-.436.483-.376.54" transform="translate(-31.87 -57.127)" fill="#1a2e35"/>
            <path id="Trazado_208899" data-name="Trazado 208899" d="M110.309,193.386a7.05,7.05,0,0,0-1.722-.31c-.271-.028-.527-.081-.573-.266a1.375,1.375,0,0,1,.18-.8q.381-.983.8-2.062a35.5,35.5,0,0,0,1.795-5.393,35.468,35.468,0,0,0-2.225,5.235c-.267.724-.523,1.414-.766,2.074a1.566,1.566,0,0,0-.14,1.063.68.68,0,0,0,.445.4,1.873,1.873,0,0,0,.46.063,6.916,6.916,0,0,0,1.745,0" transform="translate(-33.46 -57.385)" fill="#1a2e35"/>
            <path id="Trazado_208900" data-name="Trazado 208900" d="M110.422,214.337a19.538,19.538,0,0,0,10.286-2.75s-2.715,5.52-10.4,4.805Z" transform="translate(-34.298 -65.791)" fill="#ff9b6c"/>
            <path id="Trazado_208901" data-name="Trazado 208901" d="M114.532,198.433c-.172-.01-.174,1.141-1.158,1.958s-2.209.691-2.218.852c-.017.072.273.223.79.237a2.872,2.872,0,0,0,1.852-.646,2.492,2.492,0,0,0,.9-1.642c.044-.481-.085-.766-.163-.759" transform="translate(-34.563 -61.701)" fill="#1a2e35"/>
            <path id="Trazado_208902" data-name="Trazado 208902" d="M103.128,179.048c.178.259.99.085,1.938.164.951.048,1.734.327,1.943.094.092-.114-.011-.366-.34-.626a2.865,2.865,0,0,0-1.537-.542,2.836,2.836,0,0,0-1.59.335c-.358.214-.492.451-.414.576" transform="translate(-32.06 -55.388)" fill="#1a2e35"/>
            <path id="Trazado_208903" data-name="Trazado 208903" d="M120.47,190.062a.985.985,0,0,1-.986.958.943.943,0,0,1-.982-.925.985.985,0,0,1,.985-.958.943.943,0,0,1,.983.925" transform="translate(-36.847 -58.811)" fill="#1a2e35"/>
            <path id="Trazado_208904" data-name="Trazado 208904" d="M121.815,185.32c-.127.124-.852-.455-1.912-.492-1.058-.052-1.855.465-1.965.331-.054-.059.079-.287.426-.52a2.7,2.7,0,0,1,1.579-.424,2.591,2.591,0,0,1,1.516.552c.316.262.418.5.356.553" transform="translate(-36.668 -57.279)" fill="#1a2e35"/>
            <path id="Trazado_208905" data-name="Trazado 208905" d="M122.183,180.131c-.217.233-1.026-.047-2.008-.1-.981-.079-1.821.094-2-.164-.08-.125.06-.361.432-.576a3.034,3.034,0,0,1,1.648-.333,3,3,0,0,1,1.584.542c.338.26.443.513.347.626" transform="translate(-36.738 -55.645)" fill="#1a2e35"/>
            <path id="Trazado_208906" data-name="Trazado 208906" d="M132.914,193.615c0-.572.661-1.921,1.227-2.009,1.508-.236,4.227-.116,4.255,3.715.038,5.238-5.229,4.194-5.239,4.044-.008-.117-.246-3.774-.243-5.75" transform="translate(-41.329 -59.555)" fill="#ffc09d"/>
            <path id="Trazado_208907" data-name="Trazado 208907" d="M135.342,198.235c.023-.017.092.063.246.133a.914.914,0,0,0,.682.009,2.257,2.257,0,0,0,1.03-2.033,3.011,3.011,0,0,0-.265-1.305,1.054,1.054,0,0,0-.691-.7.465.465,0,0,0-.537.254c-.069.147-.035.251-.063.26s-.113-.086-.072-.3a.582.582,0,0,1,.2-.33.688.688,0,0,1,.5-.136,1.282,1.282,0,0,1,.958.806,3.1,3.1,0,0,1,.327,1.457,2.367,2.367,0,0,1-1.315,2.271.979.979,0,0,1-.835-.132c-.163-.128-.192-.245-.174-.255" transform="translate(-42.082 -60.349)" fill="#ff9b6c"/>
            <path id="Trazado_208908" data-name="Trazado 208908" d="M98.271,175.273a3.046,3.046,0,0,0,1.668-2.807c.7.209,1.414-.695,1.823-1.3s.911-.913.88-1.645a.82.82,0,0,1,.052-.425c.106-.2.355-.266.572-.334a3.509,3.509,0,0,0,2.311-2.438,7.421,7.421,0,0,0,3.589.593,2.837,2.837,0,0,0,4.8-.209,2.544,2.544,0,0,0,1.7,1.255,7.562,7.562,0,0,0,2.172.118,3,3,0,0,0,1.977,3.4c.186.057.4.114.487.289a.755.755,0,0,1-.081.584,2.365,2.365,0,0,0,1.583,3.011,1.764,1.764,0,0,0,.158,2.762c.191.115.44.254.41.474a.5.5,0,0,1-.115.223,3.431,3.431,0,0,0-.826,1.731,1.265,1.265,0,0,0,1.038,1.4,1.681,1.681,0,0,0-.666,1.147c-.008.455.453.919.878.755.181-.07,2.789-.582,2.9-.738,1.482-2.011-.381-4.235-.527-6.729a16.245,16.245,0,0,0-2.263-7.076,11.876,11.876,0,0,0-1.86-2.524,15.8,15.8,0,0,0-2.879-2.121,14.455,14.455,0,0,0-4.2-2c-2.827-.667-5.763.359-8.4,1.577a12.288,12.288,0,0,0-2.845,1.677,11.13,11.13,0,0,0-2.4,3.13,13.879,13.879,0,0,0-1.9,5.362" transform="translate(-30.557 -50.515)" fill="#1a2e35"/>
            <path id="Trazado_208909" data-name="Trazado 208909" d="M96.781,171.9a1.99,1.99,0,0,1,.283-.562c.111-.174.268-.377.416-.637a2.437,2.437,0,0,0,.295-.978,7.673,7.673,0,0,0-.021-1.3,5.761,5.761,0,0,1,.043-1.555,4.356,4.356,0,0,1,.69-1.649,4.247,4.247,0,0,1,.645-.741,6.464,6.464,0,0,1,.828-.615,3.218,3.218,0,0,0,.8-.685,4.237,4.237,0,0,0,.5-.985,7.03,7.03,0,0,1,3.306-3.582,6.247,6.247,0,0,1,1.262-.472,5.647,5.647,0,0,1,1.377-.154,6.264,6.264,0,0,1,.706.057c.234.037.465.086.7.128a3.384,3.384,0,0,0,1.4,0c.469-.092.929-.26,1.413-.38a9.176,9.176,0,0,1,3.02-.272,7.975,7.975,0,0,1,1.535.285,5.169,5.169,0,0,1,2.634,1.744l.194.258-.083-.033a6.077,6.077,0,0,1,7.029,4.507l-.041-.052a16.7,16.7,0,0,1,1.834.972,5.521,5.521,0,0,1,1.5,1.344,3.6,3.6,0,0,1,.679,1.809,2.476,2.476,0,0,1-.5,1.77l0-.088a4.338,4.338,0,0,1,1.2,2.691,4.44,4.44,0,0,1-.549,2.6,4.282,4.282,0,0,1-.349.518,5.677,5.677,0,0,0-.362.466,1.127,1.127,0,0,0-.187.513,3.118,3.118,0,0,0,.014.544,8.611,8.611,0,0,1-.059,1.988,4.16,4.16,0,0,1-.518,1.512,2.573,2.573,0,0,1-.817.848c-.271.178-.51.247-.643.343a1.244,1.244,0,0,0-.191.158.611.611,0,0,1,.18-.174c.132-.1.371-.18.633-.36a2.554,2.554,0,0,0,.788-.845,4.135,4.135,0,0,0,.494-1.494,8.622,8.622,0,0,0,.042-1.969,3.262,3.262,0,0,1-.017-.56,1.221,1.221,0,0,1,.2-.557,5.7,5.7,0,0,1,.365-.478,4.156,4.156,0,0,0,.336-.506,4.341,4.341,0,0,0,.523-2.538,4.225,4.225,0,0,0-1.175-2.609l-.042-.041.037-.046a2.339,2.339,0,0,0,.469-1.676,3.455,3.455,0,0,0-.657-1.736,5.376,5.376,0,0,0-1.461-1.3,16.534,16.534,0,0,0-1.82-.96l-.034-.016-.008-.037a5.928,5.928,0,0,0-6.846-4.384l-.05.012-.034-.045-.187-.249a5.008,5.008,0,0,0-2.554-1.69,7.823,7.823,0,0,0-1.5-.28,9.066,9.066,0,0,0-2.968.264c-.475.116-.939.286-1.423.38a3.581,3.581,0,0,1-.733.075,4.29,4.29,0,0,1-.721-.081c-.235-.042-.465-.092-.694-.129a6.382,6.382,0,0,0-.685-.057,5.463,5.463,0,0,0-1.34.147,6.064,6.064,0,0,0-1.233.458,6.908,6.908,0,0,0-3.256,3.5,4.339,4.339,0,0,1-.517,1.009,3.369,3.369,0,0,1-.827.707,6.323,6.323,0,0,0-.819.6,4.164,4.164,0,0,0-.634.719,4.285,4.285,0,0,0-.687,1.608,5.732,5.732,0,0,0-.054,1.534,7.552,7.552,0,0,1,.008,1.306,2.472,2.472,0,0,1-.316.995c-.155.262-.316.46-.431.631a3.023,3.023,0,0,0-.24.4c-.047.094-.065.145-.069.144" transform="translate(-30.093 -48.974)" fill="#375a64"/>
            <path id="Trazado_208910" data-name="Trazado 208910" d="M121.507,158.935c-.008.012-.138-.08-.392-.205a3.532,3.532,0,0,0-1.141-.336,3.311,3.311,0,0,0-1.723.247,3.42,3.42,0,0,0-1.57,1.415,2.93,2.93,0,0,0-.262.592.656.656,0,0,0,.037.552l.127.178-.212-.06a2.164,2.164,0,0,0-1.62.189,2.091,2.091,0,0,0-.89.967,2.3,2.3,0,0,0-.207.862c-.008.21.009.325,0,.327s-.012-.027-.024-.082a1.494,1.494,0,0,1-.026-.245,2.187,2.187,0,0,1,1.085-1.945,2.282,2.282,0,0,1,1.727-.221l-.084.119a.8.8,0,0,1-.063-.683,3.065,3.065,0,0,1,.276-.628,3.508,3.508,0,0,1,1.65-1.47,3.341,3.341,0,0,1,1.794-.224,3.266,3.266,0,0,1,1.155.392,2.234,2.234,0,0,1,.278.182c.06.046.09.073.086.077" transform="translate(-35.323 -49.206)" fill="#375a64"/>
            <path id="Trazado_208911" data-name="Trazado 208911" d="M134.23,168c.006.007-.056.076-.183.187a3.359,3.359,0,0,1-.594.41,2.489,2.489,0,0,1-1.045.311,1.871,1.871,0,0,1-1.3-.4l.116-.017-.154.214c-.056.07-.119.136-.179.206a3.169,3.169,0,0,1-1.311.811,3.245,3.245,0,0,1-1.248.154,2.888,2.888,0,0,1-.825-.19,1.011,1.011,0,0,1-.273-.147,4.5,4.5,0,0,0,1.1.225,3.324,3.324,0,0,0,1.2-.181,3.118,3.118,0,0,0,1.242-.782c.057-.066.116-.129.17-.194l.147-.2.052-.072.064.054a1.767,1.767,0,0,0,1.193.378,2.521,2.521,0,0,0,1-.265c.535-.269.807-.527.824-.5" transform="translate(-39.563 -52.237)" fill="#375a64"/>
            <path id="Trazado_208912" data-name="Trazado 208912" d="M137.733,174.84c.006,0,0,.034-.013.1a.871.871,0,0,1-.117.253,1.4,1.4,0,0,1-.845.559,2.668,2.668,0,0,1-1.5-.166,8.488,8.488,0,0,1-.826-.328,1.43,1.43,0,0,1-.721-.661c-.011-.029-.023-.058-.032-.084l.123.038a6.017,6.017,0,0,1-1.556.929,2.7,2.7,0,0,1-1.471.149,1.953,1.953,0,0,1-.905-.414,1.208,1.208,0,0,1-.189-.194c-.037-.05-.054-.076-.051-.08s.093.091.278.226a2.026,2.026,0,0,0,.887.354,2.665,2.665,0,0,0,1.4-.175,6.152,6.152,0,0,0,1.51-.919l.084-.065.039.1.028.07a1.294,1.294,0,0,0,.646.585c.267.13.546.232.805.329a2.633,2.633,0,0,0,1.422.194,1.393,1.393,0,0,0,.82-.486,2.2,2.2,0,0,0,.181-.314" transform="translate(-40.308 -54.215)" fill="#375a64"/>
            <path id="Trazado_208913" data-name="Trazado 208913" d="M146.9,147.929c0,.01-.09,0-.249.043a1.2,1.2,0,0,0-.585.376,1.632,1.632,0,0,0-.4,1,4.78,4.78,0,0,0,.193,1.428l.021.085-.088,0a2.976,2.976,0,0,0-1.812.55,2.315,2.315,0,0,0-1,1.832,2.15,2.15,0,0,0,.758,1.747l.176.138-.224,0a2.7,2.7,0,0,0-1.988.869,2.6,2.6,0,0,0-.673,1.606,2.818,2.818,0,0,0,.174,1.158c.1.258.181.387.17.393s-.026-.028-.066-.09a1.821,1.821,0,0,1-.151-.285,2.7,2.7,0,0,1-.223-1.182,2.66,2.66,0,0,1,.673-1.69,2.818,2.818,0,0,1,2.086-.933l-.048.136a2.293,2.293,0,0,1-.822-1.871,2.355,2.355,0,0,1,.312-1.128,2.629,2.629,0,0,1,.754-.822,3.09,3.09,0,0,1,1.906-.56l-.068.081a4.762,4.762,0,0,1-.171-1.467,1.694,1.694,0,0,1,.447-1.043,1.174,1.174,0,0,1,.633-.363.747.747,0,0,1,.192-.014c.043,0,.065.006.065.01" transform="translate(-43.822 -45.994)" fill="#375a64"/>
            <path id="Trazado_208914" data-name="Trazado 208914" d="M156.8,163.923a.319.319,0,0,1-.085.05c-.059.027-.144.076-.262.119a3.716,3.716,0,0,1-1.056.238,4.146,4.146,0,0,1-1.645-.2,3.959,3.959,0,0,1-1.764-1.16l.119-.009a3.332,3.332,0,0,1-2.361,1.611,2.528,2.528,0,0,1-2.606-1.391l.136-.006a2.087,2.087,0,0,1-.632.888,2.782,2.782,0,0,1-.86.484,3.843,3.843,0,0,1-1.594.165,7.666,7.666,0,0,1-1.029-.168,2.022,2.022,0,0,1-.358-.1,2.44,2.44,0,0,1,.368.052,9.756,9.756,0,0,0,1.025.126,3.847,3.847,0,0,0,1.547-.191,2.267,2.267,0,0,0,1.4-1.305l.062-.176.074.17a2.39,2.39,0,0,0,2.452,1.294,3.208,3.208,0,0,0,2.255-1.532l.052-.086.067.077a3.883,3.883,0,0,0,1.692,1.137,4.155,4.155,0,0,0,1.6.229,4.889,4.889,0,0,0,1.408-.317" transform="translate(-44.404 -50.62)" fill="#375a64"/>
            <path id="Trazado_208915" data-name="Trazado 208915" d="M151.573,173.425s-.008.041-.061.1a.54.54,0,0,1-.3.132,2.425,2.425,0,0,1-1.157-.194,2.847,2.847,0,0,1-1.331-1.116,2.909,2.909,0,0,1-.382-2.084l0-.017.113.087a3.409,3.409,0,0,1-2.1.285,3.785,3.785,0,0,1-1.59-.69,4.2,4.2,0,0,1-.837-.813,1.558,1.558,0,0,1-.233-.358,6.283,6.283,0,0,0,1.134,1.08,3.786,3.786,0,0,0,1.55.637,3.314,3.314,0,0,0,2-.283l.141-.07-.028.157,0,.015a2.757,2.757,0,0,0,1.6,3.066,2.536,2.536,0,0,0,1.105.236.54.54,0,0,0,.366-.166" transform="translate(-44.683 -52.472)" fill="#375a64"/>
            <path id="Trazado_208916" data-name="Trazado 208916" d="M132.812,148.177a4.467,4.467,0,0,0-.24,1.609,3.59,3.59,0,0,0,3.292,3.378l.1.007-.028.092a4.584,4.584,0,0,0-.2,1.692,4.662,4.662,0,0,0,.3,1.329,3.312,3.312,0,0,0,.213.469.4.4,0,0,0,.277.214.258.258,0,0,0,.21-.065c.037-.037.044-.067.05-.065s.006.034-.03.083a.277.277,0,0,1-.235.1.446.446,0,0,1-.338-.225,3.148,3.148,0,0,1-.24-.473,4.574,4.574,0,0,1-.156-3.1l.068.1a3.666,3.666,0,0,1-1.251-.321,3.711,3.711,0,0,1-1.648-1.467,3.665,3.665,0,0,1-.493-1.738,3.538,3.538,0,0,1,.17-1.206,2.762,2.762,0,0,1,.124-.306c.033-.068.053-.1.058-.1" transform="translate(-41.187 -46.074)" fill="#375a64"/>
            <path id="Trazado_208917" data-name="Trazado 208917" d="M124.529,189.988v-.835l-8.391-2.7h0c-2.989-1.28-7.257-.54-9.761,1l-2.176.058.022-.031c-2.488-1.963-6.683-2.361-9.938-.942l.08.349h0c.008.021.02.073.037.146l.072.312c.438,1.927.956,3.971,1.473,4.517a5.265,5.265,0,0,0,2.473.676c.365.04.7.066.935.082.289.02,2.838.178,3.274-.212.473-.424,1.282-3.539,1.519-4.485l2.231-.048c.265.746.719,4.1,1.79,4.771,1.115.7,5.764.471,6.3-.314a35.7,35.7,0,0,0,1.982-4.879l.047-.091ZM102.377,192.1c-.474.375-5.552.111-6.153-.524-.509-.538-1.135-3.288-1.37-4.323,0-.016-.007-.028-.01-.043,2.9-1.1,6.685-.752,8.849.911a18.59,18.59,0,0,1-1.316,3.979m11.768,0c-.334.491-4.67.89-5.775.194-.766-.482-1.173-2.82-1.519-4.164,2.446-1.464,6.627-2.08,9.284-.762a28.617,28.617,0,0,1-1.99,4.732" transform="translate(-29.318 -57.741)" fill="#1a2e35"/>
            <g id="Grupo_150765" data-name="Grupo 150765" transform="translate(77.98 129.289)" opacity="0.3">
              <g id="Grupo_150764" data-name="Grupo 150764">
                <g id="Grupo_150763" data-name="Grupo 150763" clip-path="url(#clip-path-16)">
                  <path id="Trazado_208918" data-name="Trazado 208918" d="M113.169,189s.456,3.281,1.4,3.433,2.069-4.807,2.069-4.807-2.869.569-3.468,1.374" transform="translate(-113.169 -187.631)" fill="#fff"/>
                </g>
              </g>
            </g>
            <g id="Grupo_150768" data-name="Grupo 150768" transform="translate(65.9 129.047)" opacity="0.3">
              <g id="Grupo_150767" data-name="Grupo 150767">
                <g id="Grupo_150766" data-name="Grupo 150766" clip-path="url(#clip-path-17)">
                  <path id="Trazado_208919" data-name="Trazado 208919" d="M95.637,187.844s.456,3.724,1.4,3.875,2.84-4.388,2.84-4.388-3.641-.292-4.24.513" transform="translate(-95.637 -187.28)" fill="#fff"/>
                </g>
              </g>
            </g>
            <path id="Trazado_208920" data-name="Trazado 208920" d="M168.865,201.681s-1.675-2.374-2.694-2-2.308,1.51-2.364,2.391.283,1.621.676,1.536a6.566,6.566,0,0,0,1.446-1.013l1.6,1.706-.269,2.47-1.3.911-1.034-1.559L165,204.2s-1.062-.677-1.384.906-.558,4.387,1.14,5.49a45.444,45.444,0,0,0,4.815,2.494l6.787-1.528.533-8.313s2.359-3.165,2.378-4.325-.309-4.663-.309-4.663a.833.833,0,0,0-1.25.528,21.273,21.273,0,0,0-.416,3.9L175.3,201.21l-.462-10.035s-1.5-.7-1.761,1.6-.119,7.9-.4,7.934-1.114.15-1.151-1.014-1.629-9.944-1.629-9.944a2.335,2.335,0,0,0-1.545,2.554c.378,1.849,1.108,7.7,1.135,8.144s-.628,1.231-.628,1.231" transform="translate(-50.803 -59.002)" fill="#ffc09d"/>
            <path id="Trazado_208921" data-name="Trazado 208921" d="M173.817,217.752c-.049.021-.189-.252-.487-.627a4.582,4.582,0,0,0-3.19-1.708c-.478-.04-.782,0-.792-.057-.009-.037.287-.157.8-.177a3.953,3.953,0,0,1,3.376,1.807c.267.436.331.75.3.762" transform="translate(-52.657 -66.909)" fill="#ff9b6c"/>
            <path id="Trazado_208922" data-name="Trazado 208922" d="M163.914,222.526l2.3,15.108-9.8-8.962a28.266,28.266,0,0,0-6.928-4.426l-.3.023-.811,17.859c4.284,3.387,8.236,5.1,13.049,8.441a56.588,56.588,0,0,0,7.183,3.919c2.566,1.289,6.647,2.016,9.4-1.1,3.837-4.349,1.118-10.321-1.142-17.394-2.51-7.853-4.267-15.524-4.267-15.524Z" transform="translate(-46.134 -68.552)" fill="#faa141"/>
            <path id="Trazado_208923" data-name="Trazado 208923" d="M176.5,252.009a24.407,24.407,0,0,1-2.122-6.957,29.5,29.5,0,0,1,1.118,3.461,29.636,29.636,0,0,1,1,3.5" transform="translate(-54.218 -76.197)" fill="#1a2e35"/>
            <path id="Trazado_208924" data-name="Trazado 208924" d="M60.34,417.087l2.913,8.52s-12.27,9.3-11.655,11.9l26.711-8.074-4.384-16.863Z" transform="translate(-16.037 -128.285)" fill="#1a2e35"/>
            <path id="Trazado_208925" data-name="Trazado 208925" d="M78.279,436.05l-.571-2.2L52.214,442.45s-1.033.877-.645,1.674Z" transform="translate(-16.008 -134.904)" fill="#375a64"/>
            <path id="Trazado_208926" data-name="Trazado 208926" d="M67.833,431.333c.043.13.713-.009,1.481.216.775.205,1.277.67,1.381.582.112-.061-.318-.782-1.253-1.039s-1.674.13-1.61.241" transform="translate(-21.091 -134.017)" fill="#375a64"/>
            <path id="Trazado_208927" data-name="Trazado 208927" d="M64.276,434.332c.008.135.64.187,1.25.6.622.4.914.963,1.042.918.13-.017-.012-.808-.779-1.313s-1.548-.334-1.512-.209" transform="translate(-19.986 -135.01)" fill="#375a64"/>
            <path id="Trazado_208928" data-name="Trazado 208928" d="M62.666,439.071c.127-.008.112-.715-.44-1.328s-1.247-.713-1.269-.588c-.041.13.471.393.915.9s.659,1.038.793,1.012" transform="translate(-18.954 -135.915)" fill="#375a64"/>
            <path id="Trazado_208929" data-name="Trazado 208929" d="M66.79,426.375c.091.1.635-.258,1.387-.431.748-.188,1.4-.114,1.431-.246.047-.117-.659-.431-1.542-.215s-1.371.809-1.276.892" transform="translate(-20.764 -132.277)" fill="#375a64"/>
            <path id="Trazado_208930" data-name="Trazado 208930" d="M52.55,389.371l-15.8-49.16s.758-8.03,2.346-10.51,47.1-15.442,47.1-15.442,11.551-2.279,19.061.791,15.117,6.79,14.134,12.1a14.266,14.266,0,0,1-.686,2.378,19.45,19.45,0,0,1-18.5,12.436l-5.961.418-30.507,4.521a2.325,2.325,0,0,0-1.911,2.875l8.426,32.98s-10.9,4.768-17.707,6.611" transform="translate(-11.427 -97.463)" fill="#1a2e35"/>
            <path id="Trazado_208931" data-name="Trazado 208931" d="M31.544,386.223,29.653,395.8s-15.077,3.115-15.641,5.725L41.6,405.731l3.3-17.109Z" transform="translate(-4.357 -120.093)" fill="#1a2e35"/>
            <path id="Trazado_208932" data-name="Trazado 208932" d="M41.6,412.08l.265-2.247-26.547-3.192s-1.309.347-1.3,1.233Z" transform="translate(-4.357 -126.442)" fill="#375a64"/>
            <path id="Trazado_208933" data-name="Trazado 208933" d="M36.093,399.785c-.016.136.648.3,1.244.833.611.519.864,1.154,1,1.12.128-.007.05-.843-.684-1.477s-1.567-.6-1.557-.476" transform="translate(-11.223 -124.286)" fill="#375a64"/>
            <path id="Trazado_208934" data-name="Trazado 208934" d="M31.629,400.9c-.051.125.5.444.868,1.083.389.628.411,1.262.546,1.277.123.041.336-.735-.139-1.521s-1.253-.967-1.275-.839" transform="translate(-9.834 -124.644)" fill="#375a64"/>
            <path id="Trazado_208935" data-name="Trazado 208935" d="M28.148,404.458c.118.048.408-.6.174-1.388s-.819-1.18-.892-1.076c-.093.1.256.557.437,1.209.2.647.15,1.221.281,1.255" transform="translate(-8.524 -124.991)" fill="#375a64"/>
            <path id="Trazado_208936" data-name="Trazado 208936" d="M37.164,395.013c.038.132.684.04,1.437.207.757.152,1.311.5,1.4.393.093-.085-.409-.672-1.3-.857s-1.586.141-1.536.256" transform="translate(-11.555 -122.728)" fill="#375a64"/>
            <path id="Trazado_208937" data-name="Trazado 208937" d="M46.464,305.763s-7.588-.925-8.778,7.3-4.591,49.56-4.591,49.56l17.96,3.263,5.127-43.144,28.881-10.895s-33.472-6.933-38.6-6.084" transform="translate(-10.291 -95.052)" fill="#1a2e35"/>
            <path id="Trazado_208938" data-name="Trazado 208938" d="M96.366,296.034s-4.816,9.227-4,10.707,12.455,7.914,12.455,7.914l29.257,12.652a24.942,24.942,0,0,0,3.564-12.192c.309-7.46-9.743-20.424-9.743-20.424Z" transform="translate(-28.693 -91.632)" fill="#1a2e35"/>
            <path id="Trazado_208939" data-name="Trazado 208939" d="M135.251,315.231a4.361,4.361,0,0,1-.826-.263l-2.208-.814a48.86,48.86,0,0,0-7.413-2.2,21.982,21.982,0,0,0-7.673-.219,30.724,30.724,0,0,0-3.11.763,3.707,3.707,0,0,1,.79-.36,13.758,13.758,0,0,1,2.28-.635,20.619,20.619,0,0,1,7.777.125,41.733,41.733,0,0,1,7.434,2.31c.923.372,1.663.688,2.172.914a4.305,4.305,0,0,1,.777.382" transform="translate(-35.454 -96.761)" fill="#375a64"/>
            <path id="Trazado_208940" data-name="Trazado 208940" d="M131.529,306.73a21.812,21.812,0,0,0-2.6-.123c-.8.023-1.761.106-2.827.185s-2.233.176-3.446.355a15.929,15.929,0,0,0-5.916,1.919,18.163,18.163,0,0,0-2.088,1.543,2.292,2.292,0,0,1,.455-.542,8.871,8.871,0,0,1,1.509-1.2,14.926,14.926,0,0,1,5.99-2.048c1.229-.181,2.406-.266,3.474-.331s2.031-.121,2.845-.114a10.748,10.748,0,0,1,1.92.165,2.226,2.226,0,0,1,.681.192" transform="translate(-35.651 -95.264)" fill="#375a64"/>
            <path id="Trazado_208941" data-name="Trazado 208941" d="M56.917,392.877c.1.019-.468,3.375-1.262,7.495s-1.517,7.446-1.614,7.427.468-3.374,1.262-7.5,1.517-7.445,1.614-7.427" transform="translate(-16.8 -122.162)" fill="#375a64"/>
            <path id="Trazado_208942" data-name="Trazado 208942" d="M87.264,314.124a.625.625,0,0,1-.14.069l-.424.175-1.654.655-6.221,2.4L57.23,325.647l.108-.136c-.642,4.535-1.341,9.481-2.069,14.621-1.541,10.745-2.961,20.637-4.074,28.394l-.021.147-.145-.027-13.087-2.441-3.593-.692-.937-.191a1.924,1.924,0,0,1-.318-.079,1.822,1.822,0,0,1,.325.037l.945.151,3.607.617,13.108,2.319-.165.119c1.092-7.759,2.485-17.655,4-28.4.734-5.14,1.44-10.084,2.087-14.618l.014-.1.094-.035,21.639-8.1,6.256-2.31,1.673-.6.434-.148a.647.647,0,0,1,.151-.041" transform="translate(-10.291 -97.674)" fill="#375a64"/>
            <path id="Trazado_208943" data-name="Trazado 208943" d="M123.017,226.543s-1.767-2.873-3.64-3.717l-10.622-2.653-1.569-4.273-11.119,5.122-1.886,5.8.028-5.565L90.891,218.7l-1.742,1.855-5.24,1.291s0,.016-.01.043c-.319.1-7.184,2.228-8.664,7.943-2.394,9.248-9.941,36-9.941,36l-15.75,11.934,7.48,3.81s14.309-4.09,17.909-8.53c2.858-3.524,6.164-12.527,7.239-16.987,0,1.126-.392,3.19-.539,6.583-.221,5.092-2.691,11.011.611,11.142s35.3.171,35.3.171,2.745.267,1.34-8.363c-.69-4.234,4.135-39.052,4.135-39.052" transform="translate(-15.405 -67.132)" fill="#faa141"/>
            <path id="Trazado_208944" data-name="Trazado 208944" d="M106.42,223.539a11.818,11.818,0,0,1,.843,1.758c.494,1.089,1.116,2.647,1.913,4.267l.059.107-.295.016c.737-1.626,1.239-3.178,1.641-4.278a11.836,11.836,0,0,1,.688-1.773,10.036,10.036,0,0,1-.464,1.84,35.856,35.856,0,0,1-1.561,4.344l-.136.3-.16-.285-.067-.121c-.823-1.674-1.4-3.215-1.838-4.336a10.834,10.834,0,0,1-.624-1.841" transform="translate(-33.089 -69.507)" fill="#1a2e35"/>
            <path id="Trazado_208945" data-name="Trazado 208945" d="M128.04,222.187a3.815,3.815,0,0,1-.637.495l-1.809,1.251c-1.535,1.045-3.67,2.47-6.039,4.028l-2.812,1.838-.228.15-.019-.264c-.136-1.954-.241-3.63-.3-4.818-.023-.548-.043-1.009-.059-1.391a1.786,1.786,0,0,1,.014-.5,1.831,1.831,0,0,1,.09.493c.041.379.091.838.15,1.384.116,1.184.264,2.857.422,4.81l-.247-.114,2.8-1.853c2.37-1.557,4.525-2.953,6.095-3.95l1.869-1.167a3.986,3.986,0,0,1,.711-.392" transform="translate(-36.11 -69.087)" fill="#1a2e35"/>
            <path id="Trazado_208946" data-name="Trazado 208946" d="M94.185,278.5a1.231,1.231,0,0,1-.143-.267,4.079,4.079,0,0,1-.242-.835,19.547,19.547,0,0,1-.294-3.215c-.039-1.375,0-3.031.085-4.894s.156-3.941.245-6.162l.043.112a14.083,14.083,0,0,1-2.955-4.571,13.475,13.475,0,0,1-.943-4.123,16.567,16.567,0,0,1,.26-3.92,54.793,54.793,0,0,1,1.752-6.4,40.411,40.411,0,0,0,1.131-4.308c.2-1.031.249-1.612.285-1.608a1.963,1.963,0,0,1-.015.423c-.019.277-.055.685-.141,1.206a34.386,34.386,0,0,1-1.032,4.35,58.9,58.9,0,0,0-1.676,6.388,16.505,16.505,0,0,0-.236,3.851,13.311,13.311,0,0,0,.928,4.029,13.916,13.916,0,0,0,2.88,4.475l.045.048,0,.064c-.1,2.22-.2,4.294-.289,6.162-.108,1.861-.168,3.507-.157,4.878a22.53,22.53,0,0,0,.2,3.2,7.326,7.326,0,0,0,.276,1.12" transform="translate(-27.97 -74.101)" fill="#1a2e35"/>
            <path id="Trazado_208947" data-name="Trazado 208947" d="M109.679,276.325a2.285,2.285,0,0,1-.053-.452c-.022-.329-.051-.761-.088-1.3-.072-1.129-.144-2.765-.2-4.788-.123-4.044-.145-9.637.125-15.807s.788-11.744,1.266-15.763c.238-2.011.453-3.634.625-4.754.083-.535.15-.963.2-1.288a2.284,2.284,0,0,1,.093-.447,2.375,2.375,0,0,1-.026.455l-.139,1.3c-.126,1.16-.3,2.778-.519,4.761-.418,4.023-.893,9.59-1.167,15.753s-.285,11.747-.223,15.789c.041,1.994.074,3.62.1,4.787.01.54.018.973.025,1.3a2.344,2.344,0,0,1-.014.455" transform="translate(-33.97 -72.054)" fill="#1a2e35"/>
            <path id="Trazado_208948" data-name="Trazado 208948" d="M131.289,271.9c.009.021-.151.1-.449.231a10.1,10.1,0,0,1-1.3.451,14.8,14.8,0,0,1-9.008-.351,10.065,10.065,0,0,1-1.26-.552c-.286-.152-.438-.245-.428-.265.026-.05.673.255,1.767.6a16.737,16.737,0,0,0,8.868.345c1.12-.261,1.791-.514,1.812-.463" transform="translate(-36.952 -84.392)" fill="#1a2e35"/>
            <path id="Trazado_208949" data-name="Trazado 208949" d="M145.918,238.887c-.018.013-.163-.145-.389-.459a9,9,0,0,1-.816-1.421,10.682,10.682,0,0,1-.958-5.3A7.575,7.575,0,0,1,146,226.847a3.63,3.63,0,0,1,1.436-.818,1.413,1.413,0,0,1,.6-.082,4.956,4.956,0,0,0-1.863,1.086,7.74,7.74,0,0,0-2.062,4.708,11.349,11.349,0,0,0,.832,5.164c.519,1.256,1.026,1.946.972,1.982" transform="translate(-44.689 -70.254)" fill="#1a2e35"/>
            <path id="Trazado_208950" data-name="Trazado 208950" d="M31.075,263.286l37.771,1.875a2.374,2.374,0,0,1,2.506,1.908l2.986,27.71,19.462.808a1.136,1.136,0,0,1-.094,2.269l-19.122-.794-3.629-.151-39.408-1.635-3.042-29.241a2.482,2.482,0,0,1,2.569-2.749" transform="translate(-8.859 -81.866)" fill="#e1e1e1"/>
            <path id="Trazado_208951" data-name="Trazado 208951" d="M31.056,263.283a2.012,2.012,0,0,0-.6.031,2.5,2.5,0,0,0-2,2.084,7,7,0,0,0,.074,1.56c.112,1.12.24,2.409.386,3.858l2.494,24.47.01.1.1,0,60.3,2.538L93.45,298a1.567,1.567,0,0,0,.865-.127,1.289,1.289,0,0,0,.088-2.251,1.572,1.572,0,0,0-.844-.2l-.8-.033-6.316-.261-12.116-.5.141.132c-1.078-9.924-2.082-19.182-2.984-27.488a2.14,2.14,0,0,0-.639-1.468,2.806,2.806,0,0,0-1.418-.7,12.389,12.389,0,0,0-1.521-.117l-1.483-.072-5.687-.274-10.107-.484-14.389-.67-3.85-.167-.994-.037c-.223-.006-.338,0-.338,0s.114.014.337.03l.993.062,3.848.216,14.385.757,10.105.52,5.686.29,1.483.076a12.28,12.28,0,0,1,1.484.116,2.57,2.57,0,0,1,1.294.636,1.881,1.881,0,0,1,.561,1.315c.889,8.307,1.88,17.565,2.942,27.491l.013.126.127.006,12.116.507,6.316.263.8.034a1.264,1.264,0,0,1,.7.151.984.984,0,0,1-.067,1.719,1.269,1.269,0,0,1-.715.094l-1.623-.067-60.306-2.467.111.1c-1.091-10.287-1.98-18.653-2.6-24.46-.156-1.448-.3-2.736-.417-3.855a7.068,7.068,0,0,1-.09-1.537,2.428,2.428,0,0,1,.487-1.157,2.473,2.473,0,0,1,1.436-.9,4.861,4.861,0,0,1,.591-.065" transform="translate(-8.84 -81.863)" fill="#1a2e35"/>
            <path id="Trazado_208952" data-name="Trazado 208952" d="M59.917,286.1a2.368,2.368,0,1,1-2.268-2.464,2.369,2.369,0,0,1,2.268,2.464" transform="translate(-17.159 -88.194)" fill="#fff"/>
            <path id="Trazado_208953" data-name="Trazado 208953" d="M90.934,297.577c-.054.007-.965-7.056-2.036-15.772s-1.895-15.791-1.841-15.8.965,7.054,2.036,15.773,1.895,15.79,1.841,15.8" transform="translate(-27.069 -82.713)" fill="#1a2e35"/>
          </g>
        </g>
      </g>
    </g>
  </g>
</svg>
