<svg xmlns="http://www.w3.org/2000/svg" width="141" height="140" viewBox="0 0 141 140">
  <g id="Grupo_151340" data-name="Grupo 151340" transform="translate(-887 -8315)">
    <g id="Elipse_6239" data-name="Elipse 6239" transform="translate(887 8315)" fill="#fff" stroke="#f40b74" stroke-width="9">
      <ellipse cx="70.5" cy="70" rx="70.5" ry="70" stroke="none"/>
      <ellipse cx="70.5" cy="70" rx="66" ry="65.5" fill="none"/>
    </g>
    <g id="Grupo_150825" data-name="Grupo 150825" transform="translate(7059.426 11297.272)">
      <path id="Trazado_209277" data-name="Trazado 209277" d="M1010.034,1417.124h-6.691v-28.2a1.621,1.621,0,0,0-1.621-1.621H990.938a1.621,1.621,0,0,0-1.621,1.621v28.2h-7.458v-33.738a1.621,1.621,0,0,0-1.621-1.621H969.453a1.621,1.621,0,0,0-1.621,1.621v33.738h-7.458v-17.9a1.621,1.621,0,0,0-1.621-1.621H947.968a1.621,1.621,0,0,0-1.621,1.621v17.9h-7.64v-24.752h2.21a22.791,22.791,0,0,0,20.292-12.654l1.473-3a10.715,10.715,0,0,1,7.93-5.829v3.99a1.635,1.635,0,0,0,2.767,1.146l7.79-7.79a15.605,15.605,0,1,0,23-17.031,1.621,1.621,0,1,0-1.622,2.807,12.362,12.362,0,1,1-12.223-.071,1.621,1.621,0,1,0-1.59-2.826,15.648,15.648,0,0,0-7.56,10.086l-7.793-7.829a1.635,1.635,0,0,0-2.77,1.144v4.847A22.779,22.779,0,0,0,952,1371.834l-1.53,3.075a10.576,10.576,0,0,1-9.523,5.9h-2.241v-31.545a1.621,1.621,0,1,0-3.242,0v67.861H930.6a1.621,1.621,0,0,0,0,3.242h4.865v5.455a1.621,1.621,0,0,0,3.242,0v-5.455h71.327a1.621,1.621,0,0,0,0-3.242m-69.086-33.073a13.8,13.8,0,0,0,12.425-7.7l1.53-3.075a19.521,19.521,0,0,1,17.329-10.734,1.621,1.621,0,0,0,1.621-1.621v-2.484l6.247,6.275-6.247,6.247v-1.825a1.621,1.621,0,0,0-1.621-1.621,13.967,13.967,0,0,0-12.463,7.771l-1.472,3a19.522,19.522,0,0,1-17.381,10.838h-2.21v-5.079h2.241Zm8.642,16.8h7.542v16.278h-7.542Zm21.485-15.839h7.542v32.117h-7.542Zm21.485,5.534h7.542v26.583h-7.542Z" transform="translate(-7071.405 -4296.456)" fill="#206897"/>
      <path id="Trazado_209278" data-name="Trazado 209278" d="M1307.718,1400.7a1.621,1.621,0,0,0,3.242,0,2.756,2.756,0,1,1,2.756,2.756,1.621,1.621,0,0,0-1.621,1.621v2.241a1.621,1.621,0,0,0,3.242,0v-.845a6.021,6.021,0,0,0,2.729-1.644,5.948,5.948,0,0,0,1.64-4.445,6,6,0,0,0-11.988.317" transform="translate(-7388.746 -4335.89)" fill="#206897"/>
      <path id="Trazado_209279" data-name="Trazado 209279" d="M1338.014,1491.987a1.621,1.621,0,1,0-.448,2.248,1.637,1.637,0,0,0,.448-2.248" transform="translate(-7411.648 -4416.802)" fill="#206897"/>
      <path id="Trazado_209280" data-name="Trazado 209280" d="M1334.854,1358.974a1.62,1.62,0,1,0,.877-2.116,1.635,1.635,0,0,0-.877,2.116" transform="translate(-7411.382 -4304.077)" fill="#206897"/>
    </g>
  </g>
</svg>
