<svg xmlns="http://www.w3.org/2000/svg" xmlns:xlink="http://www.w3.org/1999/xlink" width="412.171" height="344.852" viewBox="0 0 412.171 344.852">
  <defs>
    <filter id="Trazado_157133" x="17.479" y="10.516" width="374.246" height="329.821" filterUnits="userSpaceOnUse">
      <feOffset dy="3" input="SourceAlpha"/>
      <feGaussianBlur stdDeviation="3" result="blur"/>
      <feFlood flood-opacity="0.161"/>
      <feComposite operator="in" in2="blur"/>
      <feComposite in="SourceGraphic"/>
    </filter>
    <radialGradient id="radial-gradient" cx="0.473" cy="0.169" r="1.287" gradientTransform="matrix(0.707, 0.707, -0.707, 0.707, 0.274, -0.091)" gradientUnits="objectBoundingBox">
      <stop offset="0" stop-color="#ffd673"/>
      <stop offset="0.457" stop-color="#ffb600"/>
      <stop offset="0.973" stop-color="#ff6b00"/>
    </radialGradient>
    <clipPath id="clip-path">
      <rect id="Rectángulo_299338" data-name="Rectángulo 299338" width="332.603" height="277.335" fill="none"/>
    </clipPath>
    <clipPath id="clip-path-3">
      <rect id="Rectángulo_299306" data-name="Rectángulo 299306" width="7.098" height="13.069" fill="none"/>
    </clipPath>
    <clipPath id="clip-path-4">
      <rect id="Rectángulo_299307" data-name="Rectángulo 299307" width="20.499" height="4.185" fill="none"/>
    </clipPath>
    <clipPath id="clip-path-5">
      <rect id="Rectángulo_299330" data-name="Rectángulo 299330" width="20.728" height="59.316" fill="none"/>
    </clipPath>
    <clipPath id="clip-path-6">
      <rect id="Rectángulo_299335" data-name="Rectángulo 299335" width="49.51" height="49.51" fill="none"/>
    </clipPath>
    <clipPath id="clip-path-7">
      <rect id="Rectángulo_299336" data-name="Rectángulo 299336" width="62.446" height="4.916" fill="none"/>
    </clipPath>
  </defs>
  <g id="Grupo_150539" data-name="Grupo 150539" transform="translate(-180 -7581.143)">
    <g id="Grupo_150484" data-name="Grupo 150484" transform="translate(180 7581.143)">
      <path id="Trazado_104230" data-name="Trazado 104230" d="M371.519-3043.95a26.473,26.473,0,0,1-26.473,26.473H222.021c0-.281-.021-.558-.021-.837a148.593,148.593,0,0,1,148.594-148.592c.311,0,.616.021.925.023Z" transform="translate(29.665 3362.329)" fill="#f9860b"/>
      <path id="Trazado_104231" data-name="Trazado 104231" d="M370.047-3223.527A26.473,26.473,0,0,1,396.52-3250H519.545c0,.282.021.558.021.838a148.592,148.592,0,0,1-148.594,148.592c-.311,0-.616-.021-.925-.023Z" transform="translate(-362.027 3250)" fill="#07a5b6"/>
      <g transform="matrix(1, 0, 0, 1, 0, 0)" filter="url(#Trazado_157133)">
        <path id="Trazado_157133-2" data-name="Trazado 157133" d="M-190,311.821H158.087c4.506,0,8.16-4.866,8.16-10.868V0H-181.841C-186.347,0-190,4.866-190,10.868Z" transform="translate(216.48 16.52)" fill="#fff"/>
      </g>
      <circle id="Elipse_5768" data-name="Elipse 5768" cx="26.478" cy="26.478" r="26.478" transform="translate(0 289.431) rotate(-90)" fill="url(#radial-gradient)"/>
      <circle id="Elipse_5767" data-name="Elipse 5767" cx="26.478" cy="26.478" r="26.478" transform="translate(337.278 82.723) rotate(-45)" fill="url(#radial-gradient)"/>
    </g>
    <g id="Grupo_150538" data-name="Grupo 150538" transform="translate(227 7617.333)">
      <g id="Grupo_150537" data-name="Grupo 150537" clip-path="url(#clip-path)">
        <g id="Grupo_150536" data-name="Grupo 150536">
          <g id="Grupo_150535" data-name="Grupo 150535" clip-path="url(#clip-path)">
            <path id="Trazado_207503" data-name="Trazado 207503" d="M306.616,418.83h-23.7A7.917,7.917,0,0,1,275,410.912V392.228a7.917,7.917,0,0,1,7.918-7.918h23.7a2.906,2.906,0,0,1,2.906,2.906v28.709a2.906,2.906,0,0,1-2.906,2.906" transform="translate(-111.391 -155.666)" fill="#e1e1e1"/>
            <path id="Trazado_207504" data-name="Trazado 207504" d="M296.693,418.83h-29.7a2.411,2.411,0,0,1-2.411-2.411v-29.7a2.411,2.411,0,0,1,2.411-2.411h29.7a2.411,2.411,0,0,1,2.411,2.411v29.7a2.412,2.412,0,0,1-2.411,2.411" transform="translate(-107.171 -155.666)" fill="#ececec"/>
            <path id="Trazado_207505" data-name="Trazado 207505" d="M288.982,416.114l-10.458-7,2.441-3.649,7.013,4.691,8.726-11.547,3.5,2.647Z" transform="translate(-112.817 -161.46)" fill="#e1e1e1"/>
            <path id="Trazado_207506" data-name="Trazado 207506" d="M81.036,381.673a24.088,24.088,0,1,1-24.471-23.807,24.176,24.176,0,0,1,24.471,23.807m-35.6.575a11.517,11.517,0,1,0,11.331-11.755,11.555,11.555,0,0,0-11.331,11.755" transform="translate(-13.312 -144.954)" fill="#fcbc77"/>
            <path id="Trazado_207507" data-name="Trazado 207507" d="M97.172,381.673a24.175,24.175,0,0,1-23.7,24.584l-.2-12.627a11.571,11.571,0,0,0-.37-23.138l-.2-12.627a24.166,24.166,0,0,1,24.471,23.807" transform="translate(-29.448 -144.954)" fill="#f977b2"/>
            <path id="Trazado_207508" data-name="Trazado 207508" d="M58.45,423.642a27.522,27.522,0,0,1-28.181-27.416l14.7-.237c.12,7.463,5.8,12.162,13.226,12.042Z" transform="translate(-12.261 -160.397)" fill="#f5f5f5"/>
            <path id="Trazado_207509" data-name="Trazado 207509" d="M43.121,23.7l17.716-2.707A17.923,17.923,0,1,1,45.089,5.887Z" transform="translate(-10.208 -2.341)" fill="#fcbc77"/>
            <path id="Trazado_207510" data-name="Trazado 207510" d="M63.52,6.056,61.369,19.789l13.48-2.531s-1.982-7.7-11.33-11.2" transform="translate(-24.858 -2.453)" fill="#f977b2"/>
            <path id="Trazado_207511" data-name="Trazado 207511" d="M446.447,97.442H415.426a8.246,8.246,0,0,0-8.245,8.245v18.744a8.246,8.246,0,0,0,8.245,8.245H426.8l4.135,5.955,4.134-5.955h11.376a8.244,8.244,0,0,0,8.244-8.245V105.687a8.244,8.244,0,0,0-8.244-8.245" transform="translate(-164.93 -39.469)" fill="#fff"/>
            <path id="Trazado_207512" data-name="Trazado 207512" d="M446.344,97.351a7.206,7.206,0,0,1,1.071.05,7.886,7.886,0,0,1,2.953.941,8.919,8.919,0,0,1,1.823,1.352,8.621,8.621,0,0,1,1.6,2.2,8.224,8.224,0,0,1,.854,3.021c.073,1.124.026,2.293.046,3.538.005,2.485.013,5.223.019,8.186q0,2.223.009,4.612,0,1.194,0,2.427a10.6,10.6,0,0,1-.208,2.518,8.375,8.375,0,0,1-7.785,6.521c-3.769.042-7.686.017-11.758.029l.13-.068-4.133,5.957-.132.192-.133-.192-4.137-5.954.134.071H416.408a20.028,20.028,0,0,1-2.037-.058,8.573,8.573,0,0,1-3.787-1.408,8.716,8.716,0,0,1-2.666-2.961,8.574,8.574,0,0,1-.991-3.792V109.74q0-1.768,0-3.49a9.441,9.441,0,0,1,.469-3.392,8.379,8.379,0,0,1,7.3-5.607c1.029-.061,2.008-.014,2.985-.027l5.594.011,16.882.053,4.59.031,1.193.017c.269.005.408.017.408.017s-.139.011-.408.017l-1.193.016-4.59.031-16.882.053-5.594.01c-.969.015-1.976-.027-2.966.036a8.105,8.105,0,0,0-7.039,5.437,9.156,9.156,0,0,0-.447,3.3q0,1.722,0,3.49c.006,4.711.012,9.657.019,14.784a8.241,8.241,0,0,0,.956,3.644,8.393,8.393,0,0,0,2.562,2.845,8.246,8.246,0,0,0,3.639,1.351,19.653,19.653,0,0,0,2,.055h10.378l.049.07c1.421,2.048,2.823,4.068,4.132,5.957H430.7l4.137-5.953.048-.068h.083c4.065-.006,8,.024,11.745-.009a8.094,8.094,0,0,0,7.534-6.284,10.332,10.332,0,0,0,.21-2.458q0-1.233,0-2.427,0-2.387.01-4.612c.007-2.963.013-5.7.018-8.186-.011-1.238.041-2.428-.023-3.523a8.092,8.092,0,0,0-.816-2.966,8.548,8.548,0,0,0-1.551-2.173,8.922,8.922,0,0,0-1.782-1.352,8.048,8.048,0,0,0-2.909-.979,7.451,7.451,0,0,0-.794-.077c-.179-.014-.27-.027-.27-.027" transform="translate(-164.827 -39.378)" fill="#e1e1e1"/>
            <path id="Trazado_207513" data-name="Trazado 207513" d="M432.731,126.043a2.668,2.668,0,1,1-2.668-2.668,2.668,2.668,0,0,1,2.668,2.668" transform="translate(-173.117 -49.973)" fill="#e1e1e1"/>
            <path id="Trazado_207514" data-name="Trazado 207514" d="M447.49,126.043a2.668,2.668,0,1,1-2.668-2.668,2.668,2.668,0,0,1,2.668,2.668" transform="translate(-179.096 -49.973)" fill="#e1e1e1"/>
            <path id="Trazado_207515" data-name="Trazado 207515" d="M462.248,126.043a2.668,2.668,0,1,1-2.668-2.668,2.668,2.668,0,0,1,2.668,2.668" transform="translate(-185.073 -49.973)" fill="#e1e1e1"/>
            <path id="Trazado_207516" data-name="Trazado 207516" d="M424.8,95.626a11.117,11.117,0,0,0,17.1-9.871,7.936,7.936,0,0,0,1.95-2.024,7.8,7.8,0,0,1-2.245.615,3.913,3.913,0,0,0,1.718-2.162,7.833,7.833,0,0,1-2.482.949,3.912,3.912,0,0,0-6.661,3.566,11.1,11.1,0,0,1-8.057-4.085,3.914,3.914,0,0,0,1.21,5.219,3.9,3.9,0,0,1-1.772-.49,3.915,3.915,0,0,0,3.135,3.883,3.918,3.918,0,0,1-1.765.066,3.911,3.911,0,0,0,3.651,2.715,7.857,7.857,0,0,1-5.787,1.618" transform="translate(-172.068 -33.173)" fill="#75cdd6"/>
            <path id="Trazado_207517" data-name="Trazado 207517" d="M332.6,442.309s-.291.007-.859,0l-2.521-.02-9.69-.108-35.64-.326c-15.047-.119-32.964-.178-52.858-.225l-64.725.039-117.6.489-35.638.142-9.689.02-2.52,0c-.568,0-.859-.011-.859-.011s.291-.012.859-.02l2.52-.028,9.689-.078,35.638-.24c30.094-.192,71.671-.458,117.6-.579,22.958-.055,44.831-.058,64.726-.015,19.9.064,37.812.145,52.86.292l20.306.213,15.333.212,9.69.165,2.52.051c.568.013.859.028.859.028" transform="translate(0 -178.758)" fill="#1a2e35"/>
            <path id="Trazado_207518" data-name="Trazado 207518" d="M178.3,352.087h0c-.014,0-.029.892-.043,2.457a10.74,10.74,0,0,0-3.687-2.188h.015s-7.436-4.6-10.829-10.472a31.505,31.505,0,0,1-3.29-9.417c0-.256-.027-2.518-.049-4.369a2.831,2.831,0,0,0-2.747-2.788c-3.188-.114-11.681.187-12.281,6.076-.895,8.788,5.638,16.542,6.173,19.07.1.478.183.864.249,1.179-2.509,0-4.449.032-4.45.073h0l-16.493-.027s-5.532-.368-6.078,5.343,5.879,6.079,5.879,6.079-2.856.531-2.509,5.528,5.88,5.365,5.88,5.365-3.213.53-3.043,4.992c.166,4.343,5.915,5.653,6.221,5.719a10.544,10.544,0,0,0-1.3.055,7.118,7.118,0,0,0,1.011.054c-2.339.866-2.023,3.817-2.023,3.817-.19,6.247,4.629,6.434,4.629,6.434l30.113.055a16.87,16.87,0,0,0,8.54-2.307c.008,1.281.018,2,.031,2l21.033.039c.046,0,.1-9.567.122-21.365s0-21.367-.043-21.367Z" transform="translate(-50.536 -131.761)" fill="#ff735d"/>
            <path id="Trazado_207519" data-name="Trazado 207519" d="M178.3,352.087h0c-.014,0-.029.892-.043,2.457a10.74,10.74,0,0,0-3.687-2.188h.015s-7.436-4.6-10.829-10.472a31.505,31.505,0,0,1-3.29-9.417c0-.256-.027-2.518-.049-4.369a2.831,2.831,0,0,0-2.747-2.788c-3.188-.114-11.681.187-12.281,6.076-.895,8.788,5.638,16.542,6.173,19.07.1.478.183.864.249,1.179-2.509,0-4.449.032-4.45.073h0l-16.493-.027s-5.532-.368-6.078,5.343,5.879,6.079,5.879,6.079-2.856.531-2.509,5.528,5.88,5.365,5.88,5.365-3.213.53-3.043,4.992c.166,4.343,5.915,5.653,6.221,5.719a10.544,10.544,0,0,0-1.3.055,7.118,7.118,0,0,0,1.011.054c-2.339.866-2.023,3.817-2.023,3.817-.19,6.247,4.629,6.434,4.629,6.434l30.113.055a16.87,16.87,0,0,0,8.54-2.307c.008,1.281.018,2,.031,2l21.033.039c.046,0,.1-9.567.122-21.365s0-21.367-.043-21.367Z" transform="translate(-50.536 -131.761)" fill="#3eb9c6"/>
            <path id="Trazado_207520" data-name="Trazado 207520" d="M172.182,376.715l.988,2.5-.052,28.791a16.883,16.883,0,0,1-12.3,5.289l-30.113-.055s-4.819-.187-4.629-6.433c0,0-.351-3.213,2.327-3.922,0,0-6.066-1.261-6.236-5.723s3.043-4.992,3.043-4.992-5.532-.366-5.88-5.365,2.509-5.528,2.509-5.528-6.425-.369-5.879-6.079,6.078-5.343,6.078-5.343l21.417.035,18.775.034a10.723,10.723,0,0,1,9.955,6.788" transform="translate(-46.955 -149.81)" fill="#75cdd6"/>
            <path id="Trazado_207521" data-name="Trazado 207521" d="M182.013,352.575s-7.436-4.6-10.83-10.472a31.5,31.5,0,0,1-3.29-9.417c0-.255-.027-2.517-.05-4.368a2.83,2.83,0,0,0-2.746-2.788,9.255,9.255,0,0,0-8.859,8.522c-.895,8.787,2.216,14.1,2.75,16.625l.535,2.528Z" transform="translate(-63.22 -131.856)" fill="#75cdd6"/>
            <rect id="Rectángulo_299305" data-name="Rectángulo 299305" width="42.733" height="21.033" transform="translate(122.429 263.183) rotate(-89.895)" fill="#07a5b6"/>
            <path id="Trazado_207522" data-name="Trazado 207522" d="M205.746,413.272c-.046,0-.065-9.567-.043-21.365s.076-21.367.122-21.367.065,9.565.043,21.367-.076,21.365-.121,21.365" transform="translate(-83.317 -150.088)" fill="#1a2e35"/>
            <path id="Trazado_207523" data-name="Trazado 207523" d="M241.1,413.337c-.045,0-.065-9.567-.043-21.366s.076-21.367.122-21.367.065,9.565.043,21.367-.076,21.365-.122,21.365" transform="translate(-97.637 -150.114)" fill="#1a2e35"/>
            <path id="Trazado_207524" data-name="Trazado 207524" d="M218.363,384.328a3.936,3.936,0,1,0,3.943-3.928,3.935,3.935,0,0,0-3.943,3.928" transform="translate(-88.449 -154.082)" fill="#fff"/>
            <path id="Trazado_207525" data-name="Trazado 207525" d="M153.911,369.854c0-.046,2.294-.079,5.121-.073s5.122.046,5.122.092-2.293.078-5.122.073-5.121-.046-5.121-.092" transform="translate(-62.342 -149.781)" fill="#1a2e35"/>
            <path id="Trazado_207526" data-name="Trazado 207526" d="M130.809,407.657a32.42,32.42,0,0,1,3.273-.076,32.633,32.633,0,0,1,3.273.088,32.518,32.518,0,0,1-3.273.077,32.722,32.722,0,0,1-3.273-.089" transform="translate(-52.985 -165.092)" fill="#1a2e35"/>
            <path id="Trazado_207527" data-name="Trazado 207527" d="M125.163,388.833c0-.045,2.081-.079,4.647-.074s4.647.045,4.647.091-2.081.079-4.647.074-4.646-.045-4.646-.091" transform="translate(-50.698 -157.468)" fill="#1a2e35"/>
            <path id="Trazado_207528" data-name="Trazado 207528" d="M134.681,425.414c0-.046,2.081-.079,4.647-.074s4.647.045,4.647.091-2.081.079-4.647.074-4.646-.046-4.646-.091" transform="translate(-54.553 -172.286)" fill="#1a2e35"/>
            <g id="Grupo_150522" data-name="Grupo 150522" transform="translate(96.523 195.355)" opacity="0.3">
              <g id="Grupo_150521" data-name="Grupo 150521">
                <g id="Grupo_150520" data-name="Grupo 150520" clip-path="url(#clip-path-3)">
                  <path id="Trazado_207529" data-name="Trazado 207529" d="M167.888,328.724a2.431,2.431,0,0,1,1.007,2.27,15.575,15.575,0,0,1-.558,2.551,8.867,8.867,0,0,0,.6,5.645c.248.534.554,1.147.3,1.677-.363.751-1.473.638-2.232.29a8.373,8.373,0,0,1-4.769-7.584,5.887,5.887,0,0,1,1.263-3.708,3.484,3.484,0,0,1,4.385-1.141" transform="translate(-162.238 -328.357)" fill="#fff"/>
                </g>
              </g>
            </g>
            <g id="Grupo_150525" data-name="Grupo 150525" transform="translate(72.254 220.909)" opacity="0.3">
              <g id="Grupo_150524" data-name="Grupo 150524">
                <g id="Grupo_150523" data-name="Grupo 150523" clip-path="url(#clip-path-4)">
                  <path id="Trazado_207530" data-name="Trazado 207530" d="M122.566,371.586a5.033,5.033,0,0,1,2.16-.271l12.768.27c1.392.03,3.928-.245,4.263,1.091a1.637,1.637,0,0,1-.581,2.095,4.367,4.367,0,0,1-2.286.62c-1.672.115-3.351.109-5.027.1a63.385,63.385,0,0,1-10.075-.626,4.509,4.509,0,0,1-1.433-.42,1.678,1.678,0,0,1-.894-1.141,1.722,1.722,0,0,1,1.1-1.716" transform="translate(-121.447 -371.309)" fill="#fff"/>
                </g>
              </g>
            </g>
            <path id="Trazado_207531" data-name="Trazado 207531" d="M214.247,372.542c0-.046,2.939-.077,6.564-.07s6.564.049,6.564.094-2.938.077-6.565.071-6.563-.049-6.563-.095" transform="translate(-86.782 -150.871)" fill="#fff"/>
            <path id="Trazado_207532" data-name="Trazado 207532" d="M125.142,397.189c-.01.005-.057-.072-.134-.218a3.665,3.665,0,0,1-.258-.646,4.942,4.942,0,0,1-.2-1.016,5.284,5.284,0,0,1,.386-2.489,4.885,4.885,0,0,1,.495-.908,3.618,3.618,0,0,1,.441-.538c.117-.115.185-.175.193-.167s-.231.28-.537.769a5.587,5.587,0,0,0-.452.9,5.636,5.636,0,0,0-.375,2.421,5.55,5.55,0,0,0,.158,1c.143.558.308.882.28.895" transform="translate(-50.444 -158.459)" fill="#fff"/>
            <path id="Trazado_207533" data-name="Trazado 207533" d="M119.54,380.241a1.517,1.517,0,0,1-.5-.449,3.256,3.256,0,0,1-.508-3.1,1.523,1.523,0,0,1,.331-.585c.026.015-.1.236-.22.622a3.525,3.525,0,0,0,.491,3c.233.33.427.5.407.519" transform="translate(-47.935 -152.341)" fill="#fff"/>
            <path id="Trazado_207534" data-name="Trazado 207534" d="M130.664,417.687a1.608,1.608,0,0,1-.66-.405,2.8,2.8,0,0,1-.583-3.466,1.606,1.606,0,0,1,.491-.6c.023.019-.184.233-.387.652a2.869,2.869,0,0,0,.56,3.328c.329.33.594.464.579.49" transform="translate(-52.278 -167.375)" fill="#fff"/>
            <path id="Trazado_207535" data-name="Trazado 207535" d="M138.081,434.864a1.685,1.685,0,0,1-.493-.484,3.691,3.691,0,0,1-.6-3.2,1.683,1.683,0,0,1,.286-.629c.026.013-.083.252-.173.658a4.062,4.062,0,0,0,.578,3.1c.23.347.418.531.4.552" transform="translate(-55.434 -174.397)" fill="#fff"/>
            <path id="Trazado_207536" data-name="Trazado 207536" d="M158.659,347.8a2.75,2.75,0,0,1-.226-.434c-.07-.142-.151-.317-.231-.526s-.184-.443-.268-.713a14.627,14.627,0,0,1-.518-1.913,15.112,15.112,0,0,1-.176-4.836,14.576,14.576,0,0,1,.377-1.945c.065-.275.15-.516.216-.73s.132-.4.192-.541a2.748,2.748,0,0,1,.194-.449,2.771,2.771,0,0,1-.133.471c-.05.149-.108.331-.164.547s-.134.457-.191.731a16.3,16.3,0,0,0-.34,1.935,16.087,16.087,0,0,0,.174,4.79,16.237,16.237,0,0,0,.48,1.905c.076.27.17.505.243.716s.143.388.2.534a2.821,2.821,0,0,1,.167.459" transform="translate(-63.644 -135.983)" fill="#fff"/>
            <path id="Trazado_207537" data-name="Trazado 207537" d="M233.229,203.768H64.848a9.526,9.526,0,0,1-9.526-9.526v-137a9.526,9.526,0,0,1,9.526-9.526H233.229a9.526,9.526,0,0,1,9.526,9.526v137a9.526,9.526,0,0,1-9.526,9.526" transform="translate(-22.408 -19.326)" fill="#fff"/>
            <path id="Trazado_207538" data-name="Trazado 207538" d="M233.027,203.862H64.646a9.834,9.834,0,0,1-9.823-9.823v-137a9.834,9.834,0,0,1,9.823-9.824H233.027a9.835,9.835,0,0,1,9.823,9.824v137a9.834,9.834,0,0,1-9.823,9.823M64.646,47.808a9.239,9.239,0,0,0-9.228,9.229v137a9.239,9.239,0,0,0,9.228,9.228H233.027a9.239,9.239,0,0,0,9.228-9.228v-137a9.239,9.239,0,0,0-9.228-9.229Z" transform="translate(-22.206 -19.124)" fill="#1a2e35"/>
            <rect id="Rectángulo_299308" data-name="Rectángulo 299308" width="3.961" height="27.447" transform="translate(62.581 144.368)" fill="#f40b74"/>
            <rect id="Rectángulo_299309" data-name="Rectángulo 299309" width="3.961" height="6.862" transform="translate(55.073 164.954)" fill="#f40b74"/>
            <rect id="Rectángulo_299310" data-name="Rectángulo 299310" width="3.961" height="13.724" transform="translate(69.436 158.092)" fill="#f40b74"/>
            <rect id="Rectángulo_299311" data-name="Rectángulo 299311" width="3.961" height="21.717" transform="translate(76.176 150.098)" fill="#f40b74"/>
            <rect id="Rectángulo_299312" data-name="Rectángulo 299312" width="3.961" height="5.805" transform="translate(83.946 166.01)" fill="#f40b74"/>
            <path id="Trazado_207539" data-name="Trazado 207539" d="M349.813,276.974a1.117,1.117,0,0,1,0-1.332.73.73,0,0,1,.579-.254.741.741,0,0,1,.582.252,1.114,1.114,0,0,1,0,1.336.741.741,0,0,1-.582.251.731.731,0,0,1-.579-.253m.883-.235a.912.912,0,0,0,0-.862.371.371,0,0,0-.6,0,.87.87,0,0,0,0,.858.372.372,0,0,0,.6,0m1.708-1.317h.469l-2.289,3.352h-.469Zm-.393,3.132a1.117,1.117,0,0,1,0-1.332.791.791,0,0,1,1.161,0,1.1,1.1,0,0,1,0,1.332.792.792,0,0,1-1.161,0m.882-.237a.89.89,0,0,0,0-.857.371.371,0,0,0-.6,0,.9.9,0,0,0,0,.862.371.371,0,0,0,.6,0" transform="translate(-141.604 -111.547)" fill="#f40b74"/>
            <path id="Trazado_207540" data-name="Trazado 207540" d="M316.748,244.469h13.077a.609.609,0,0,0,.435-1.035l-6.538-6.678a.609.609,0,0,0-.87,0l-6.538,6.678a.609.609,0,0,0,.435,1.035" transform="translate(-128.053 -95.825)" fill="#fcbc77"/>
            <rect id="Rectángulo_299313" data-name="Rectángulo 299313" width="8.385" height="13.295" transform="translate(191.223 147.399)" fill="#fcbc77"/>
            <path id="Trazado_207541" data-name="Trazado 207541" d="M324.731,283.46v2.711H316.42v-2.148l3.748-3.466a3.1,3.1,0,0,0,.651-.785,1.423,1.423,0,0,0,.163-.637.737.737,0,0,0-.259-.6,1.145,1.145,0,0,0-.748-.215,1.685,1.685,0,0,0-.889.252,1.651,1.651,0,0,0-.637.712l-2.636-1.318a4.326,4.326,0,0,1,1.733-1.756,6.179,6.179,0,0,1,4.933-.244,3.406,3.406,0,0,1,1.481,1.141,2.839,2.839,0,0,1,.534,1.7,3.644,3.644,0,0,1-.364,1.608,6.024,6.024,0,0,1-1.415,1.7l-1.481,1.348Z" transform="translate(-127.921 -111.618)" fill="#f40b74"/>
            <path id="Trazado_207542" data-name="Trazado 207542" d="M334.256,285.763A4.373,4.373,0,0,1,332.6,283.9a7.358,7.358,0,0,1,0-5.822,4.377,4.377,0,0,1,1.659-1.866,4.929,4.929,0,0,1,4.873,0,4.382,4.382,0,0,1,1.66,1.866,7.372,7.372,0,0,1,0,5.822,4.378,4.378,0,0,1-1.66,1.866,4.929,4.929,0,0,1-4.873,0m3.622-4.777q0-2.622-1.185-2.622t-1.185,2.622q0,2.622,1.185,2.622t1.185-2.622" transform="translate(-134.476 -111.618)" fill="#f40b74"/>
            <path id="Trazado_207543" data-name="Trazado 207543" d="M119.988,151.184a1.117,1.117,0,0,1,0-1.331.73.73,0,0,1,.579-.254.741.741,0,0,1,.582.252,1.114,1.114,0,0,1,0,1.336.741.741,0,0,1-.582.251.731.731,0,0,1-.579-.253m.883-.235a.912.912,0,0,0,0-.862.372.372,0,0,0-.6,0,.874.874,0,0,0,0,.858.354.354,0,0,0,.3.155.35.35,0,0,0,.3-.154m1.708-1.317h.469l-2.289,3.353h-.469Zm-.393,3.132a1.117,1.117,0,0,1,0-1.331.791.791,0,0,1,1.161,0,1.1,1.1,0,0,1,0,1.331.792.792,0,0,1-1.161,0m.882-.237a.89.89,0,0,0,0-.857.372.372,0,0,0-.6,0,.9.9,0,0,0,0,.862.372.372,0,0,0,.6,0" transform="translate(-48.512 -60.595)" fill="#f40b74"/>
            <path id="Trazado_207544" data-name="Trazado 207544" d="M65.707,146H77.672a.557.557,0,0,0,.4-.947l-5.982-6.11a.558.558,0,0,0-.8,0l-5.982,6.11a.557.557,0,0,0,.4.947" transform="translate(-26.389 -56.21)" fill="#fcbc77"/>
            <rect id="Rectángulo_299314" data-name="Rectángulo 299314" width="7.672" height="12.164" transform="translate(41.631 88.646)" fill="#fcbc77"/>
            <path id="Trazado_207545" data-name="Trazado 207545" d="M96.749,150.391V160.76h-3.5v-7.733H91.475v-2.637Z" transform="translate(-37.052 -60.916)" fill="#f40b74"/>
            <path id="Trazado_207546" data-name="Trazado 207546" d="M104.739,160.191a4.376,4.376,0,0,1-1.659-1.866,7.359,7.359,0,0,1,0-5.822,4.376,4.376,0,0,1,1.659-1.866,4.931,4.931,0,0,1,4.874,0,4.377,4.377,0,0,1,1.659,1.866,7.365,7.365,0,0,1,0,5.822,4.377,4.377,0,0,1-1.659,1.866,4.93,4.93,0,0,1-4.874,0m3.622-4.777q0-2.622-1.185-2.622t-1.185,2.622q0,2.622,1.185,2.622t1.185-2.622" transform="translate(-41.51 -60.755)" fill="#f40b74"/>
            <path id="Trazado_207547" data-name="Trazado 207547" d="M126.945,288.908c0,.086-8.067.155-18.017.155s-18.019-.069-18.019-.155,8.066-.155,18.019-.155,18.017.069,18.017.155" transform="translate(-36.823 -116.96)" fill="#1a2e35"/>
            <path id="Trazado_207548" data-name="Trazado 207548" d="M340.342,52.415H260.5a4.841,4.841,0,0,1-4.841-4.841V5.1A4.841,4.841,0,0,1,260.5.26h79.847A4.841,4.841,0,0,1,345.183,5.1V47.574a4.841,4.841,0,0,1-4.841,4.841" transform="translate(-103.554 -0.105)" fill="#fff"/>
            <path id="Trazado_207549" data-name="Trazado 207549" d="M340.235,52.309c0-.015.242,0,.7-.073a4.823,4.823,0,0,0,3.886-3.382,6.694,6.694,0,0,0,.2-2.129q0-1.157-.007-2.462c-.012-6.966-.029-17.033-.049-29.473q0-4.666-.01-9.766a4.755,4.755,0,0,0-2.448-4.16A4.9,4.9,0,0,0,340,.281l-2.72,0L313.919.3,260.394.31a4.7,4.7,0,0,0-4.664,4.173c-.058,2.309-.016,4.664-.03,6.967q0,6.936,0,13.657t0,13.181q0,3.231,0,6.391c.007,1.048-.018,2.111.016,3.131a4.65,4.65,0,0,0,1.132,2.733,4.7,4.7,0,0,0,2.508,1.506,6.242,6.242,0,0,0,1.478.12h1.508l5.93,0,11.34.008,20.353.019,29.472.049,8.012.029,2.084.015c.469.005.71.016.71.016s-.24.011-.71.016l-2.084.015-8.012.029-29.472.049-20.353.019-11.34.008-5.93,0h-1.508a6.52,6.52,0,0,1-1.54-.126,4.981,4.981,0,0,1-3.865-4.494c-.037-1.061-.011-2.094-.02-3.151q0-3.16,0-6.391,0-6.46,0-13.181t0-13.657c.014-2.319-.032-4.625.03-7A5.01,5.01,0,0,1,260.394,0l53.525.012,23.359.014,2.72,0a5.157,5.157,0,0,1,2.631.618A5,5,0,0,1,345.2,5.024q-.005,5.094-.01,9.766c-.021,12.44-.038,22.507-.049,29.473q0,1.3-.007,2.462a6.758,6.758,0,0,1-.216,2.155,4.882,4.882,0,0,1-2.02,2.668,4.764,4.764,0,0,1-1.948.719,3.484,3.484,0,0,1-.53.04c-.119,0-.179,0-.179,0" transform="translate(-103.446 0)" fill="#1a2e35"/>
            <rect id="Rectángulo_299315" data-name="Rectángulo 299315" width="2.567" height="9.323" transform="translate(163.563 33.147)" fill="#faa141"/>
            <rect id="Rectángulo_299316" data-name="Rectángulo 299316" width="2.567" height="16.864" transform="translate(172.711 25.606)" fill="#faa141"/>
            <rect id="Rectángulo_299317" data-name="Rectángulo 299317" width="3.172" height="27.924" transform="translate(167.835 14.546)" fill="#375a64"/>
            <rect id="Rectángulo_299318" data-name="Rectángulo 299318" width="2.567" height="6.38" transform="translate(181.86 36.09)" fill="#faa141"/>
            <rect id="Rectángulo_299319" data-name="Rectángulo 299319" width="2.567" height="6.38" transform="translate(177.286 36.09)" fill="#375a64"/>
            <rect id="Rectángulo_299320" data-name="Rectángulo 299320" width="2.567" height="10.449" transform="translate(191.008 32.021)" fill="#faa141"/>
            <rect id="Rectángulo_299321" data-name="Rectángulo 299321" width="2.567" height="19.52" transform="translate(186.434 22.95)" fill="#375a64"/>
            <rect id="Rectángulo_299322" data-name="Rectángulo 299322" width="2.567" height="19.52" transform="translate(204.729 22.95)" fill="#375a64"/>
            <rect id="Rectángulo_299323" data-name="Rectángulo 299323" width="2.567" height="29.402" transform="translate(195.581 13.069)" fill="#375a64"/>
            <rect id="Rectángulo_299324" data-name="Rectángulo 299324" width="2.567" height="7.282" transform="translate(200.155 35.189)" fill="#faa141"/>
            <rect id="Rectángulo_299325" data-name="Rectángulo 299325" width="2.567" height="5.347" transform="translate(223.026 37.123)" fill="#375a64"/>
            <rect id="Rectángulo_299326" data-name="Rectángulo 299326" width="2.567" height="28.845" transform="translate(213.878 13.625)" fill="#375a64"/>
            <rect id="Rectángulo_299327" data-name="Rectángulo 299327" width="2.567" height="22.945" transform="translate(218.452 19.525)" fill="#faa141"/>
            <rect id="Rectángulo_299328" data-name="Rectángulo 299328" width="2.567" height="23.778" transform="translate(209.304 18.692)" fill="#faa141"/>
            <rect id="Rectángulo_299329" data-name="Rectángulo 299329" width="2.567" height="19.52" transform="translate(227.6 22.95)" fill="#faa141"/>
            <path id="Trazado_207550" data-name="Trazado 207550" d="M280.706,77.094H275.4a.364.364,0,0,1-.364-.363V76.4a.364.364,0,0,1,.364-.363h5.309a.363.363,0,0,1,.362.363v.334a.363.363,0,0,1-.362.363" transform="translate(-111.404 -30.798)" fill="#e1e1e1"/>
            <path id="Trazado_207551" data-name="Trazado 207551" d="M310.094,77.094h-5.308a.363.363,0,0,1-.364-.363V76.4a.363.363,0,0,1,.364-.363h5.308a.363.363,0,0,1,.363.363v.334a.363.363,0,0,1-.363.363" transform="translate(-123.307 -30.798)" fill="#e1e1e1"/>
            <path id="Trazado_207552" data-name="Trazado 207552" d="M336.037,77.094h-5.309a.363.363,0,0,1-.363-.363V76.4a.363.363,0,0,1,.363-.363h5.309a.363.363,0,0,1,.363.363v.334a.363.363,0,0,1-.363.363" transform="translate(-133.816 -30.798)" fill="#e1e1e1"/>
            <path id="Trazado_207553" data-name="Trazado 207553" d="M362.755,77.094h-5.308a.363.363,0,0,1-.364-.363V76.4a.363.363,0,0,1,.364-.363h5.308a.363.363,0,0,1,.363.363v.334a.363.363,0,0,1-.363.363" transform="translate(-144.638 -30.798)" fill="#e1e1e1"/>
            <path id="Trazado_207554" data-name="Trazado 207554" d="M385.4,77.094h-5.309a.363.363,0,0,1-.363-.363V76.4a.363.363,0,0,1,.363-.363H385.4a.363.363,0,0,1,.363.363v.334a.363.363,0,0,1-.363.363" transform="translate(-153.809 -30.798)" fill="#e1e1e1"/>
            <path id="Trazado_207555" data-name="Trazado 207555" d="M342.144,71.28c0,.086-16.524.155-36.9.155s-36.907-.069-36.907-.155,16.52-.155,36.907-.155,36.9.069,36.9.155" transform="translate(-108.69 -28.809)" fill="#1a2e35"/>
            <path id="Trazado_207556" data-name="Trazado 207556" d="M270.472,11.7a1.41,1.41,0,1,1-1.41-1.41,1.41,1.41,0,0,1,1.41,1.41" transform="translate(-108.414 -4.166)" fill="#e1e1e1"/>
            <path id="Trazado_207557" data-name="Trazado 207557" d="M276.913,11.7a1.41,1.41,0,1,1-1.41-1.41,1.41,1.41,0,0,1,1.41,1.41" transform="translate(-111.022 -4.166)" fill="#e1e1e1"/>
            <path id="Trazado_207558" data-name="Trazado 207558" d="M283.29,11.7a1.41,1.41,0,1,1-1.41-1.41,1.41,1.41,0,0,1,1.41,1.41" transform="translate(-113.606 -4.166)" fill="#e1e1e1"/>
            <path id="Trazado_207559" data-name="Trazado 207559" d="M155.1,199.605l8.765,18.275,4.585-1.191,29.3,25.12,8.644-16.326s-17.446-8.028-20.576-14.445-.188-6.232-.188-6.232l-7.248-11.246Z" transform="translate(-62.825 -78.402)" fill="#1a2e35"/>
            <path id="Trazado_207560" data-name="Trazado 207560" d="M174.148,138.33s9.19-2.7,23.891-13.113a135.069,135.069,0,0,0,22.9-21.009,5.007,5.007,0,0,1,7.01-.632c3.233,2.725,7.691,9.569,12.549,26.959,8.563,30.662,2.42,36.492-.156,36.029s-19.53-6.067-30.686-6.544-28.158,2.845-28.158,2.845Z" transform="translate(-70.539 -41.489)" fill="#e1e1e1"/>
            <path id="Trazado_207561" data-name="Trazado 207561" d="M174.147,138.137a3.139,3.139,0,0,0,.1.407l.346,1.227,1.387,4.8L181.3,162.73l.05.171.177-.032c4.836-.882,10.368-1.738,16.482-2.326,3.057-.283,6.262-.507,9.591-.492a59.394,59.394,0,0,1,10.274,1.064c7.048,1.242,14.332,3.374,22.034,5.476l.375.083.44.01a2.987,2.987,0,0,0,.831-.189c.235-.144.483-.277.7-.438l.582-.568a8.273,8.273,0,0,0,1.438-2.807,21.657,21.657,0,0,0,.883-6.213,65.826,65.826,0,0,0-1.222-12.713q-.267-1.413-.533-2.818c-.19-.933-.417-1.855-.623-2.778-.4-1.85-.87-3.669-1.355-5.469-.921-3.614-1.988-7.132-3.135-10.556a87.719,87.719,0,0,0-3.927-9.881,30.58,30.58,0,0,0-5.606-8.518,6.136,6.136,0,0,0-2.1-1.435,5.174,5.174,0,0,0-2.5-.3,5.338,5.338,0,0,0-2.33.866,8.731,8.731,0,0,0-1.731,1.692c-2.056,2.342-4.132,4.545-6.2,6.615a134.353,134.353,0,0,1-12.132,10.807,130.17,130.17,0,0,1-19.759,12.672c-2.471,1.259-4.442,2.126-5.792,2.678-.674.279-1.2.473-1.544.606a5.048,5.048,0,0,0-.528.206,3.194,3.194,0,0,0,.548-.145c.357-.113.886-.288,1.569-.549,1.368-.515,3.36-1.349,5.854-2.577a125.534,125.534,0,0,0,19.919-12.538,132.795,132.795,0,0,0,12.226-10.789c2.081-2.069,4.172-4.272,6.244-6.619a8.251,8.251,0,0,1,1.627-1.591,4.764,4.764,0,0,1,6.231.826,30.114,30.114,0,0,1,5.467,8.361,87.489,87.489,0,0,1,3.884,9.818c1.138,3.408,2.2,6.916,3.114,10.519.483,1.794.952,3.607,1.348,5.448.2.92.43,1.838.619,2.766l.53,2.8a65.453,65.453,0,0,1,1.215,12.584,21.079,21.079,0,0,1-.847,6.034,7.665,7.665,0,0,1-1.315,2.6l-.5.489c-.184.131-.383.235-.571.358a1.884,1.884,0,0,1-1.276.06c-7.631-2.073-14.992-4.211-22.064-5.435a59.62,59.62,0,0,0-10.369-1.039c-3.355,0-6.574.235-9.639.533-6.133.619-11.664,1.507-16.51,2.427l.227.138-5.5-17.978-1.492-4.817c-.168-.53-.3-.944-.4-1.249a4.342,4.342,0,0,0-.151-.433" transform="translate(-70.538 -41.296)" fill="#1a2e35"/>
            <path id="Trazado_207562" data-name="Trazado 207562" d="M132.131,200.394l5.968-.912-3.43-7.923-5.021,2.68Z" transform="translate(-52.515 -77.591)" fill="#f40b74"/>
            <path id="Trazado_207563" data-name="Trazado 207563" d="M136.321,174.724l2.672,6.171,1.458,3.368a9.324,9.324,0,0,0,11.882,5.067l24.24-6.637-9.848-30.718-24.536,9.066a11.014,11.014,0,0,0-5.87,13.684" transform="translate(-54.965 -61.558)" fill="#f40b74"/>
            <g id="Grupo_150528" data-name="Grupo 150528" transform="translate(151.063 62.853)" opacity="0.3">
              <g id="Grupo_150527" data-name="Grupo 150527">
                <g id="Grupo_150526" data-name="Grupo 150526" clip-path="url(#clip-path-5)">
                  <path id="Trazado_207564" data-name="Trazado 207564" d="M270.795,133.485c4.45,16.349,5.137,30.415,1.537,31.42s-10.126-11.434-14.576-27.782-5.137-30.415-1.537-31.42,10.126,11.434,14.576,27.782" transform="translate(-253.911 -105.645)"/>
                </g>
              </g>
            </g>
            <path id="Trazado_207565" data-name="Trazado 207565" d="M256.549,142.021s8.658-3.7,11.306,7.776-5.93,11.936-5.93,11.936a73.485,73.485,0,0,1-5.376-19.712" transform="translate(-103.916 -57.296)" fill="#fff"/>
            <path id="Trazado_207566" data-name="Trazado 207566" d="M166.922,172.052c.052.159-4.109,1.7-9.292,3.436s-9.429,3.021-9.481,2.862,4.108-1.7,9.293-3.436,9.428-3.02,9.48-2.862" transform="translate(-60.008 -69.685)" fill="#1a2e35"/>
            <path id="Trazado_207567" data-name="Trazado 207567" d="M168.723,177.738c.052.159-4.109,1.7-9.292,3.436s-9.429,3.021-9.481,2.862,4.108-1.7,9.293-3.437,9.428-3.02,9.48-2.862" transform="translate(-60.737 -71.988)" fill="#1a2e35"/>
            <path id="Trazado_207568" data-name="Trazado 207568" d="M170.524,183.424c.052.159-4.109,1.7-9.292,3.436s-9.429,3.021-9.481,2.862,4.107-1.7,9.293-3.437,9.428-3.021,9.48-2.862" transform="translate(-61.467 -74.291)" fill="#1a2e35"/>
            <path id="Trazado_207569" data-name="Trazado 207569" d="M172.324,189.109c.052.159-4.109,1.7-9.292,3.436s-9.429,3.021-9.481,2.862,4.108-1.7,9.292-3.436,9.429-3.021,9.48-2.862" transform="translate(-62.196 -76.594)" fill="#1a2e35"/>
            <path id="Trazado_207570" data-name="Trazado 207570" d="M308.2,167.092c-.035.1,4.965,1.947,11.168,4.118s11.262,3.846,11.3,3.743-4.964-1.947-11.168-4.118-11.261-3.846-11.3-3.742" transform="translate(-124.836 -67.679)" fill="#1a2e35"/>
            <path id="Trazado_207571" data-name="Trazado 207571" d="M304.8,143.712c.016.109,8-1,17.823-2.486s17.783-2.77,17.767-2.878-7.995,1-17.825,2.486-17.781,2.77-17.765,2.878" transform="translate(-123.462 -56.035)" fill="#1a2e35"/>
            <path id="Trazado_207572" data-name="Trazado 207572" d="M301.818,119.336c.074.08,2.87-2.415,6.245-5.574s6.052-5.786,5.978-5.867-2.869,2.415-6.245,5.575-6.052,5.786-5.978,5.866" transform="translate(-122.252 -43.702)" fill="#1a2e35"/>
            <path id="Trazado_207573" data-name="Trazado 207573" d="M254.672,108.725a2.166,2.166,0,0,0-.086.592c-.033.463-.075,1.026-.124,1.707-.055.742-.1,1.65-.1,2.706s-.054,2.26.009,3.589a88.886,88.886,0,0,0,.716,9.315,90.711,90.711,0,0,0,5.767,22.086,88.27,88.27,0,0,0,3.924,8.458c.595,1.186,1.222,2.21,1.744,3.124s1,1.683,1.411,2.3l.942,1.421a2.128,2.128,0,0,0,.364.471,2.192,2.192,0,0,0-.258-.54l-.841-1.481c-.377-.635-.83-1.417-1.316-2.348s-1.089-1.961-1.656-3.155c-1.2-2.35-2.494-5.221-3.782-8.467a96.7,96.7,0,0,1-5.731-21.949c-.465-3.466-.744-6.607-.845-9.252-.09-1.321-.076-2.52-.1-3.571s-.019-1.959,0-2.7c0-.681.005-1.245.008-1.708a2.192,2.192,0,0,0-.039-.6" transform="translate(-103.019 -44.039)" fill="#1a2e35"/>
            <path id="Trazado_207574" data-name="Trazado 207574" d="M375.476,207.943h0a21.04,21.04,0,1,1,21.04-21.04,21.04,21.04,0,0,1-21.04,21.04" transform="translate(-143.566 -67.183)" fill="#faa141"/>
            <path id="Trazado_207575" data-name="Trazado 207575" d="M392.944,189.926a7.366,7.366,0,0,0-.466-2.436,5.131,5.131,0,0,0-2.935-2.935,7.366,7.366,0,0,0-2.436-.466c-1.071-.049-1.412-.06-4.137-.06s-3.068.011-4.138.06a7.366,7.366,0,0,0-2.436.466,5.128,5.128,0,0,0-2.934,2.935,7.349,7.349,0,0,0-.467,2.436c-.049,1.07-.06,1.412-.06,4.137s.011,3.068.06,4.138a7.349,7.349,0,0,0,.467,2.436,5.133,5.133,0,0,0,2.934,2.935,7.366,7.366,0,0,0,2.436.466c1.07.049,1.412.06,4.138.06s3.066-.011,4.137-.06a7.367,7.367,0,0,0,2.436-.466,5.136,5.136,0,0,0,2.935-2.935,7.365,7.365,0,0,0,.466-2.436c.049-1.07.06-1.412.06-4.138s-.011-3.067-.06-4.137m-1.806,8.192a5.549,5.549,0,0,1-.346,1.863,3.326,3.326,0,0,1-1.9,1.9,5.551,5.551,0,0,1-1.863.346c-1.058.048-1.375.058-4.055.058s-3-.01-4.055-.058a5.548,5.548,0,0,1-1.863-.346,3.321,3.321,0,0,1-1.9-1.9,5.547,5.547,0,0,1-.346-1.863c-.048-1.058-.058-1.376-.058-4.055s.01-3,.058-4.055a5.547,5.547,0,0,1,.346-1.863,3.321,3.321,0,0,1,1.9-1.9,5.548,5.548,0,0,1,1.863-.346c1.058-.048,1.376-.058,4.055-.058l4.055.058a5.552,5.552,0,0,1,1.863.346,3.326,3.326,0,0,1,1.9,1.9,5.549,5.549,0,0,1,.346,1.863c.048,1.058.058,1.376.058,4.055s-.01,3-.058,4.055" transform="translate(-151.059 -74.542)" fill="#fff"/>
            <path id="Trazado_207576" data-name="Trazado 207576" d="M386.293,192.235a5.153,5.153,0,1,0,5.153,5.153,5.153,5.153,0,0,0-5.153-5.153m0,8.5a3.345,3.345,0,1,1,3.345-3.345,3.345,3.345,0,0,1-3.345,3.345" transform="translate(-154.382 -77.866)" fill="#fff"/>
            <path id="Trazado_207577" data-name="Trazado 207577" d="M397.985,189.868a1.2,1.2,0,1,0,1.2,1.2,1.2,1.2,0,0,0-1.2-1.2" transform="translate(-160.718 -76.907)" fill="#fff"/>
            <rect id="Rectángulo_299331" data-name="Rectángulo 299331" width="0.595" height="27.92" transform="translate(185.453 120.415) rotate(-89.193)" fill="#f40b74"/>
            <path id="Trazado_207578" data-name="Trazado 207578" d="M311.566,199.009a1.952,1.952,0,1,1-2.733.386,1.951,1.951,0,0,1,2.733-.386" transform="translate(-124.935 -80.45)" fill="#f40b74"/>
            <path id="Trazado_207579" data-name="Trazado 207579" d="M260.347,306.227h0a21.04,21.04,0,1,1,21.04-21.04,21.04,21.04,0,0,1-21.04,21.04" transform="translate(-96.932 -106.993)" fill="#07a5b6"/>
            <path id="Trazado_207580" data-name="Trazado 207580" d="M258.66,302.535a11.117,11.117,0,0,0,17.1-9.871,7.939,7.939,0,0,0,1.951-2.024,7.822,7.822,0,0,1-2.245.616,3.916,3.916,0,0,0,1.718-2.163,7.832,7.832,0,0,1-2.482.949,3.911,3.911,0,0,0-6.661,3.566,11.1,11.1,0,0,1-8.057-4.085,3.914,3.914,0,0,0,1.21,5.219,3.9,3.9,0,0,1-1.771-.489,3.914,3.914,0,0,0,3.135,3.883,3.926,3.926,0,0,1-1.765.067,3.911,3.911,0,0,0,3.651,2.715,7.857,7.857,0,0,1-5.787,1.618" transform="translate(-104.771 -116.982)" fill="#fff"/>
            <rect id="Rectángulo_299332" data-name="Rectángulo 299332" width="0.595" height="19.654" transform="matrix(0.959, -0.283, 0.283, 0.959, 155.555, 141.925)" fill="#f40b74"/>
            <path id="Trazado_207581" data-name="Trazado 207581" d="M262.563,236.387a1.952,1.952,0,1,1-1.952-1.952,1.952,1.952,0,0,1,1.952,1.952" transform="translate(-104.771 -94.959)" fill="#f40b74"/>
            <path id="Trazado_207582" data-name="Trazado 207582" d="M172.805,53.254h0A21.553,21.553,0,0,1,151.252,31.7h0a21.553,21.553,0,0,1,43.107,0h0a21.553,21.553,0,0,1-21.554,21.553" transform="translate(-61.265 -4.11)" fill="#206897"/>
            <path id="Trazado_207583" data-name="Trazado 207583" d="M181.287,47.673h4.4V36.647h3.072l.328-3.692h-3.4v-2.1c0-.87.175-1.214,1.016-1.214h2.383V25.806H186.04c-3.276,0-4.754,1.443-4.754,4.205v2.943H179v3.738h2.291Z" transform="translate(-72.503 -10.453)" fill="#fff"/>
            <rect id="Rectángulo_299333" data-name="Rectángulo 299333" width="0.595" height="25.248" transform="translate(111.726 45.252)" fill="#f40b74"/>
            <path id="Trazado_207584" data-name="Trazado 207584" d="M184.9,118.3a1.952,1.952,0,1,1,1.4,2.376,1.952,1.952,0,0,1-1.4-2.376" transform="translate(-74.869 -47.324)" fill="#f40b74"/>
            <path id="Trazado_207585" data-name="Trazado 207585" d="M88.373,112.134h0a21.04,21.04,0,1,1,21.04-21.04,21.04,21.04,0,0,1-21.04,21.04" transform="translate(-27.273 -28.375)" fill="#3eb9c6"/>
            <path id="Trazado_207586" data-name="Trazado 207586" d="M106.509,96.514a11.334,11.334,0,0,0-22.646-.206c-.005.164-.011.329-.011.493a11.158,11.158,0,0,0,1.623,5.808l-1.27,3.749a1.219,1.219,0,0,0,1.524,1.552l3.978-1.264A11.345,11.345,0,0,0,106.514,96.8c0-.1,0-.191,0-.287m-11.326,9.74a9.49,9.49,0,0,1-5.241-1.565l-3.66,1.167,1.188-3.512A9.357,9.357,0,0,1,85.655,96.8a8.881,8.881,0,0,1,.048-.918,9.531,9.531,0,0,1,18.975.18c.021.245.032.488.032.738a9.5,9.5,0,0,1-9.527,9.453" transform="translate(-33.965 -34.654)" fill="#fff" fill-rule="evenodd"/>
            <path id="Trazado_207587" data-name="Trazado 207587" d="M104.328,103.231c-.281-.137-1.644-.806-1.9-.9s-.441-.137-.626.138-.721.9-.881,1.077-.323.207-.6.069a7.5,7.5,0,0,1-2.233-1.369,8.24,8.24,0,0,1-1.544-1.9c-.158-.276-.015-.425.123-.562s.275-.324.419-.483c.037-.048.069-.09.1-.133a3.292,3.292,0,0,0,.175-.329.5.5,0,0,0-.021-.482c-.069-.138-.625-1.5-.86-2.048s-.46-.456-.625-.456-.344-.026-.531-.026a1.027,1.027,0,0,0-.742.344,3.09,3.09,0,0,0-.971,2.3,3.476,3.476,0,0,0,.144.939,6.266,6.266,0,0,0,.992,1.91,11.406,11.406,0,0,0,4.742,4.164c2.828,1.1,2.828.732,3.337.684a2.774,2.774,0,0,0,1.873-1.311,2.281,2.281,0,0,0,.164-1.31c-.07-.111-.255-.18-.53-.318" transform="translate(-37.915 -38.815)" fill="#fff" fill-rule="evenodd"/>
            <rect id="Rectángulo_299334" data-name="Rectángulo 299334" width="0.595" height="19.654" transform="translate(69.886 73.96) rotate(-40.892)" fill="#f40b74"/>
            <path id="Trazado_207588" data-name="Trazado 207588" d="M136.652,149.07a1.952,1.952,0,1,1,2.585.968,1.952,1.952,0,0,1-2.585-.968" transform="translate(-55.28 -59.263)" fill="#f40b74"/>
            <path id="Trazado_207589" data-name="Trazado 207589" d="M473.021,407.373H434.334a7.917,7.917,0,0,1-7.917-7.918V365.78a7.917,7.917,0,0,1,7.917-7.917h38.687a2.906,2.906,0,0,1,2.906,2.906v43.7a2.906,2.906,0,0,1-2.906,2.906" transform="translate(-172.722 -144.954)" fill="#375a64"/>
            <g id="Grupo_150531" data-name="Grupo 150531" transform="translate(253.695 212.909)" opacity="0.3">
              <g id="Grupo_150530" data-name="Grupo 150530">
                <g id="Grupo_150529" data-name="Grupo 150529" clip-path="url(#clip-path-6)">
                  <path id="Trazado_207590" data-name="Trazado 207590" d="M473.021,407.373H434.334a7.917,7.917,0,0,1-7.917-7.918V365.78a7.917,7.917,0,0,1,7.917-7.917h38.687a2.906,2.906,0,0,1,2.906,2.906v43.7a2.906,2.906,0,0,1-2.906,2.906" transform="translate(-426.417 -357.862)"/>
                </g>
              </g>
            </g>
            <path id="Trazado_207591" data-name="Trazado 207591" d="M455.975,407.373H413.886a2.411,2.411,0,0,1-2.411-2.411V360.274a2.411,2.411,0,0,1,2.411-2.411h42.089a2.411,2.411,0,0,1,2.411,2.411v44.688a2.411,2.411,0,0,1-2.411,2.411" transform="translate(-166.669 -144.954)" fill="#375a64"/>
            <path id="Trazado_207592" data-name="Trazado 207592" d="M384.615,252.5s-5.224-4.549-6.625-5.333-3.79-.313-5.906-.637-5.124-1.749-5.886-1.336c-.9.491.04,2.541,3.279,3.815l-.943-.084-2.3.184s-.851-1.255-1.578-1.245c-1.039.013-1.008.867-1.008.867s-1.574-1.854-2.095.15c0,0-1.852-.7-1.978.7,0,0-.411,1.123,3.552,1.43a34.907,34.907,0,0,0,4.194,3.486c.827.322,3.69-.12,3.69-.12s.837,1.2,1.716,1.254c1.674.1,5.965-.195,5.965-.195l1.692,2.017Z" transform="translate(-145.641 -99.288)" fill="#ffc09d"/>
            <path id="Trazado_207593" data-name="Trazado 207593" d="M377.993,255.881a4.872,4.872,0,0,0-.406-.666,4.859,4.859,0,0,1-.791-1.911,3.8,3.8,0,0,1,1.007-2.8c.182-.228.381-.454.59-.681a5,5,0,0,1,.651-.645.541.541,0,0,1,.723,0,.982.982,0,0,1,.278.806,2.948,2.948,0,0,1-1.152,2.173l-.145.108.137.115a6.176,6.176,0,0,1,1.1,1.216l.076.11.109-.074a10.2,10.2,0,0,1,3.646-1.53c.953-.193,1.522-.2,1.521-.236a1.413,1.413,0,0,0-.408-.024,8.208,8.208,0,0,0-1.141.1,9.669,9.669,0,0,0-3.765,1.465l.184.036a6.277,6.277,0,0,0-1.135-1.284l-.007.223a3.206,3.206,0,0,0,1.278-2.392,1.271,1.271,0,0,0-.381-1.039.806.806,0,0,0-.553-.208.978.978,0,0,0-.53.2,5.121,5.121,0,0,0-.694.692c-.209.233-.41.465-.595.7a3.965,3.965,0,0,0-1,3,4.615,4.615,0,0,0,.9,1.947,3.35,3.35,0,0,0,.5.6" transform="translate(-152.523 -100.754)" fill="#ff9b6c"/>
            <path id="Trazado_207594" data-name="Trazado 207594" d="M370.276,251.35a11.738,11.738,0,0,0,1.575,2.1c.238.275.444.542.688.773a1.477,1.477,0,0,0,.8.389,1.351,1.351,0,0,0,.588-.071c.128-.043.2-.079.191-.1s-.08-.023-.212-.015a1.768,1.768,0,0,1-.529-.023,1.386,1.386,0,0,1-.65-.379c-.2-.21-.415-.494-.65-.767a11.742,11.742,0,0,0-1.8-1.912" transform="translate(-149.98 -101.809)" fill="#ff9b6c"/>
            <path id="Trazado_207595" data-name="Trazado 207595" d="M370.2,256.385c.064-.062-.977-1.18-2.063-2.708s-1.815-2.869-1.894-2.829a14.633,14.633,0,0,0,3.957,5.537" transform="translate(-148.346 -101.607)" fill="#ff9b6c"/>
            <path id="Trazado_207596" data-name="Trazado 207596" d="M365.465,254.468a16.273,16.273,0,0,0-1.346-1.671,10.5,10.5,0,0,0-1.439-1.6,6.342,6.342,0,0,0,1.211,1.788,5.258,5.258,0,0,0,1.574,1.48" transform="translate(-146.902 -101.748)" fill="#ff9b6c"/>
            <path id="Trazado_207597" data-name="Trazado 207597" d="M376.345,251.742c.011-.081-.469-.18-1.073-.22s-1.094-.007-1.1.076.478.18,1.072.22,1.086.006,1.1-.076" transform="translate(-151.561 -101.873)" fill="#ff9b6c"/>
            <path id="Trazado_207598" data-name="Trazado 207598" d="M426.4,234.031s-5.567-.414-8.8,6.075c-2.137,4.29-8.637,15.859-8.637,15.859l-12.786-10.739-7.494,8.106s12.8,15.241,17.767,16.4,10.829-2.219,12.664-4.818,7.943-8.946,7.943-8.946Z" transform="translate(-157.436 -94.793)" fill="#f9860b"/>
            <path id="Trazado_207599" data-name="Trazado 207599" d="M454.682,222.833l.888-14.369c.026-11.155-1.121-24.06.243-27.708,2.52-6.737,11.567-8.182,11.567-8.182,12.208-1.245,14.677,8.089,16.171,16.615.253,1.446.948,4.009,1.824,6.969,2,6.159,4.467,12.47,9.12,16.557a11.132,11.132,0,0,1,3.467,6.109c.463,2.318-.691,5.163-3.009,5.623a5.418,5.418,0,0,1-.6,8.534c-1.923,1.289-4.424,1.22-6.732,1.024-2.292-.195-4.7-.512-6.541-1.889s-2.836-3.608-3.6-5.782a52.8,52.8,0,0,1-2.139-8.041Z" transform="translate(-184.171 -69.856)" fill="#1a2e35"/>
            <path id="Trazado_207600" data-name="Trazado 207600" d="M466.959,177.541l.869-.6,7.669,4.56a2.309,2.309,0,0,1,1.814,2.543l-5.049,26.438c-.269,1.809-.012,3.516-1.326,4.787l-8.989,8.443c-3.153,3.053-1.735-4.522-3.22-8.652-.1-.289.677-1.183.662-1.38a5.469,5.469,0,0,1-.03-.615c.088-2.182.361-4.043.361-4.043.218-2.376.319-3.35.315-3.328,0,0-4.92-1.349-5.281-7.988-.18-3.3.627-7.682,1.486-11.982,1.188-5.951,5.9-8.93,10.719-8.179" transform="translate(-184.19 -71.669)" fill="#ffc09d"/>
            <path id="Trazado_207601" data-name="Trazado 207601" d="M472.087,200.676a.842.842,0,0,0,.72.929.806.806,0,0,0,.942-.666.843.843,0,0,0-.719-.929.806.806,0,0,0-.943.666" transform="translate(-191.217 -81.01)" fill="#1a2e35"/>
            <path id="Trazado_207602" data-name="Trazado 207602" d="M458.343,198.508a.841.841,0,0,0,.719.929.806.806,0,0,0,.942-.666.844.844,0,0,0-.72-.929.805.805,0,0,0-.942.666" transform="translate(-185.65 -80.132)" fill="#1a2e35"/>
            <path id="Trazado_207603" data-name="Trazado 207603" d="M458.2,194.831c.092.12.776-.284,1.677-.189s1.515.615,1.624.515c.053-.044-.033-.252-.3-.492a2.317,2.317,0,0,0-1.286-.547,2.222,2.222,0,0,0-1.349.287c-.3.184-.414.372-.368.426" transform="translate(-185.592 -78.624)" fill="#1a2e35"/>
            <path id="Trazado_207604" data-name="Trazado 207604" d="M472.834,196.713c.1.11.744-.362,1.649-.359s1.57.456,1.669.345c.048-.049-.058-.247-.348-.458a2.3,2.3,0,0,0-1.336-.412,2.221,2.221,0,0,0-1.312.423c-.278.214-.373.413-.322.462" transform="translate(-191.518 -79.321)" fill="#1a2e35"/>
            <path id="Trazado_207605" data-name="Trazado 207605" d="M465.031,202.363a6.038,6.038,0,0,0-1.437-.416c-.227-.048-.441-.116-.464-.277a1.174,1.174,0,0,1,.225-.666q.411-.8.862-1.683a30.265,30.265,0,0,0,2-4.426,30.385,30.385,0,0,0-2.355,4.255q-.437.887-.835,1.7a1.336,1.336,0,0,0-.213.891.581.581,0,0,0,.343.376,1.553,1.553,0,0,0,.386.095,5.873,5.873,0,0,0,1.484.156" transform="translate(-187.458 -78.943)" fill="#1a2e35"/>
            <path id="Trazado_207606" data-name="Trazado 207606" d="M463.545,224.3a16.707,16.707,0,0,0,8.989-1.427s-2.668,4.294-9.141,3.006Z" transform="translate(-187.699 -90.274)" fill="#ff9b6c"/>
            <path id="Trazado_207607" data-name="Trazado 207607" d="M473.01,190.692c.082.249.99.158,2.049.318,1.062.138,1.91.474,2.057.257.066-.1-.076-.34-.416-.588a3.6,3.6,0,0,0-3.129-.438c-.394.146-.6.333-.562.452" transform="translate(-191.593 -76.986)" fill="#1a2e35"/>
            <path id="Trazado_207608" data-name="Trazado 207608" d="M459.171,188.859c.133.245.29.174,1.157.38a8.1,8.1,0,0,0,2.4.409c.1-.083.034-.312-.239-.581a2.878,2.878,0,0,0-1.354-.686,2.831,2.831,0,0,0-1.509.05c-.356.129-.508.309-.452.427" transform="translate(-185.984 -76.274)" fill="#1a2e35"/>
            <path id="Trazado_207609" data-name="Trazado 207609" d="M483.3,195.088s-4.024.734-7.731-10.4a31.741,31.741,0,0,1-1.306-8.273l1.521-.212s8.642,3.94,8.775,4.078,1.558,5.025,1.558,5.025Z" transform="translate(-192.104 -71.37)" fill="#1a2e35"/>
            <path id="Trazado_207610" data-name="Trazado 207610" d="M487.463,205.852c.052-.486.732-1.575,1.221-1.6,1.3-.067,3.6.275,3.289,3.535-.432,4.456-4.817,3.1-4.813,2.975,0-.1.125-3.231.3-4.91" transform="translate(-197.326 -82.73)" fill="#ffc09d"/>
            <path id="Trazado_207611" data-name="Trazado 207611" d="M489.719,210.237c.021-.012.073.062.2.135a.78.78,0,0,0,.579.068,1.931,1.931,0,0,0,1.056-1.637,2.573,2.573,0,0,0-.11-1.133.9.9,0,0,0-.526-.652.4.4,0,0,0-.479.168c-.072.119-.052.211-.076.216s-.089-.084-.035-.264a.5.5,0,0,1,.2-.262.588.588,0,0,1,.44-.072,1.1,1.1,0,0,1,.744.77,2.643,2.643,0,0,1,.149,1.268,2.025,2.025,0,0,1-1.319,1.815.836.836,0,0,1-.7-.187c-.127-.123-.141-.225-.125-.232" transform="translate(-198.36 -83.76)" fill="#ff9b6c"/>
            <path id="Trazado_207612" data-name="Trazado 207612" d="M489.466,215.233A1.148,1.148,0,1,1,488.3,214.1a1.148,1.148,0,0,1,1.162,1.134" transform="translate(-197.33 -86.722)" fill="#375a64"/>
            <path id="Trazado_207613" data-name="Trazado 207613" d="M507.69,179.775a5.42,5.42,0,0,0-5.284-1.8,5.705,5.705,0,0,0-4.115,3.736l-.541,11.215a2.039,2.039,0,0,0,2.7-2.663,2.564,2.564,0,0,0,2.621,1.176,2.316,2.316,0,0,0,1.817-2.169,2.151,2.151,0,0,0-1.308-1.928,4.557,4.557,0,0,0,4.532-2.07,4.925,4.925,0,0,0-.418-5.5" transform="translate(-201.615 -72.042)" fill="#1a2e35"/>
            <path id="Trazado_207614" data-name="Trazado 207614" d="M490.471,190.674a.8.8,0,0,1-.2.126,5.355,5.355,0,0,1-.62.3,8.307,8.307,0,0,1-2.458.6,10.05,10.05,0,0,1-3.736-.366,10.786,10.786,0,0,1-4.041-2.185,12.209,12.209,0,0,1-2.8-3.646,13.962,13.962,0,0,1-1.232-3.545,14.2,14.2,0,0,1-.3-2.51c-.015-.3,0-.53,0-.687a.84.84,0,0,1,.023-.239,7.714,7.714,0,0,1,.079.92,16.742,16.742,0,0,0,.377,2.475,14.441,14.441,0,0,0,1.267,3.472,12.27,12.27,0,0,0,2.755,3.556,10.766,10.766,0,0,0,3.933,2.15,10.184,10.184,0,0,0,3.649.414,10.839,10.839,0,0,0,3.3-.833" transform="translate(-192.433 -72.31)" fill="#375a64"/>
            <path id="Trazado_207615" data-name="Trazado 207615" d="M498.272,201.34c.027.017-.092.289-.391.661a4.768,4.768,0,0,1-3.219,1.7,1.586,1.586,0,0,1-.766-.049,6.48,6.48,0,0,0,4.376-2.313" transform="translate(-200.054 -81.552)" fill="#375a64"/>
            <path id="Trazado_207616" data-name="Trazado 207616" d="M501.261,193.834a10.776,10.776,0,0,1-.318-1.515c-.178-.938-.445-2.227-.811-3.635s-.763-2.664-1.065-3.569a10.756,10.756,0,0,1-.461-1.478,7.388,7.388,0,0,1,.641,1.413,33.082,33.082,0,0,1,1.885,7.238,7.413,7.413,0,0,1,.129,1.547" transform="translate(-201.96 -74.383)" fill="#375a64"/>
            <path id="Trazado_207617" data-name="Trazado 207617" d="M468.745,211.425a1.334,1.334,0,0,0-.345-.879,1.366,1.366,0,0,0-1.628-.32,1.831,1.831,0,0,0-.923,1.606,1.664,1.664,0,0,0,1.085.846,2.124,2.124,0,0,0,.22.037,1.493,1.493,0,0,0,1.051-.258,1.329,1.329,0,0,0,.54-1.033" transform="translate(-188.694 -85.095)" fill="#ff9b6c"/>
            <path id="Trazado_207618" data-name="Trazado 207618" d="M468.195,209.512c-.141-.02-.221.926-1.086,1.532s-1.865.418-1.883.55c-.018.058.21.2.635.249a2.364,2.364,0,0,0,1.567-.405,2.059,2.059,0,0,0,.85-1.289c.069-.393-.017-.636-.083-.636" transform="translate(-188.441 -84.863)" fill="#1a2e35"/>
            <path id="Trazado_207619" data-name="Trazado 207619" d="M443.561,233.241s-6.869,9.273-7.436,12.488,1.029,23.994,1.851,27.586l-5.319,11.963,9.094,2.13,30.221-.516L470.7,267l3.06-13.219.313-17.39-10.75-3.575c-2.818,5.695-12.1,3.827-12.6-.729Z" transform="translate(-175.249 -94.008)" fill="#f9860b"/>
            <path id="Trazado_207620" data-name="Trazado 207620" d="M493.029,239.322a11.631,11.631,0,0,1,5.825,5.6c1.712,3.438,6.408,18.332,7.574,22.1,1.286,4.156,1.7,7.684-.649,10.544-.676.823-.789,1.813-5.735,3.877-4.894,2.042-17.878,5.974-17.878,5.974l-2.706-6.718,15.949-9.785L490.8,258.5Z" transform="translate(-194.207 -96.938)" fill="#f9860b"/>
            <path id="Trazado_207621" data-name="Trazado 207621" d="M501.145,260.737c.08.021-.883,4-2.153,8.9s-2.363,8.842-2.443,8.821.883-4,2.153-8.9,2.363-8.841,2.443-8.82" transform="translate(-201.127 -105.612)" fill="#1a2e35"/>
            <path id="Trazado_207622" data-name="Trazado 207622" d="M455.4,308.583l1.3-.612-.485.592a1.679,1.679,0,0,0-.434,1.4c.193.736,1.542.894,1.542.894a2.1,2.1,0,0,0,.387,1.449c.472.629,2.274.169,2.274.169l-.249.538c-.305.574.43,1.286.771,1.373a4.812,4.812,0,0,0,2.257-.677,7.423,7.423,0,0,1,2.787-.216s2.744.875,3.911.457a2.521,2.521,0,0,0,1.5-1.267s-.195-5.134-1.876-5.951c-.856-.416-5.844-2.327-7.329-2.962a2.105,2.105,0,0,0-1.574-.034,34.747,34.747,0,0,0-5.274,2.388s-1.28.8-1.023,1.572a1.231,1.231,0,0,0,1.511.885" transform="translate(-183.836 -122.975)" fill="#ffc09d"/>
            <path id="Trazado_207623" data-name="Trazado 207623" d="M460.981,308.039a21.78,21.78,0,0,1-2.67,1.924,11.009,11.009,0,0,1,1.3-1.013,10.9,10.9,0,0,1,1.371-.911" transform="translate(-185.64 -124.772)" fill="#ff9b6c"/>
            <path id="Trazado_207624" data-name="Trazado 207624" d="M462.858,312.8c.015.035-.733.363-1.6.862s-1.552.951-1.574.919a2.228,2.228,0,0,1,.421-.333c.27-.19.651-.443,1.091-.694a11.166,11.166,0,0,1,1.158-.577,2.081,2.081,0,0,1,.507-.177" transform="translate(-186.195 -126.702)" fill="#ff9b6c"/>
            <path id="Trazado_207625" data-name="Trazado 207625" d="M466.409,316.279a16.9,16.9,0,0,1-2.53,1.409,8.508,8.508,0,0,1,1.235-.759,8.4,8.4,0,0,1,1.3-.65" transform="translate(-187.896 -128.109)" fill="#ff9b6c"/>
            <path id="Trazado_207626" data-name="Trazado 207626" d="M439.965,246.009a1.077,1.077,0,0,1-.012.3c-.026.227-.057.5-.094.84-.093.727-.212,1.782-.34,3.085a93.993,93.993,0,0,0,.192,20.433c.153,1.3.292,2.353.4,3.079l.11.838a1.093,1.093,0,0,1,.018.3,1.047,1.047,0,0,1-.079-.285c-.046-.225-.1-.5-.168-.829-.143-.72-.315-1.77-.5-3.071a81.093,81.093,0,0,1-.192-20.483c.157-1.3.309-2.357.438-3.08l.152-.832a1.059,1.059,0,0,1,.074-.287" transform="translate(-177.715 -99.647)" fill="#1a2e35"/>
            <path id="Trazado_207627" data-name="Trazado 207627" d="M416.425,424.278l6.692,10.206s-7.783,10.214-6.724,12.22l19.6-12.235-9.8-16.329Z" transform="translate(-168.621 -169.37)" fill="#375a64"/>
            <path id="Trazado_207628" data-name="Trazado 207628" d="M436.622,437.756a.956.956,0,0,1,1.126.6.919.919,0,0,1-.552,1.137,1.008,1.008,0,0,1-1.189-.64.946.946,0,0,1,.7-1.116" transform="translate(-176.599 -177.302)" fill="#e1e1e1"/>
            <path id="Trazado_207629" data-name="Trazado 207629" d="M435.935,444.493l-1.05-1.608-18.4,12.332s-.634.937-.151,1.511Z" transform="translate(-168.564 -179.392)" fill="#1a2e35"/>
            <path id="Trazado_207630" data-name="Trazado 207630" d="M427.117,445.407c.063.1.569-.157,1.233-.133.664.006,1.167.283,1.231.189.077-.074-.425-.576-1.229-.591s-1.311.457-1.235.535" transform="translate(-173.002 -180.197)" fill="#fff"/>
            <path id="Trazado_207631" data-name="Trazado 207631" d="M424.561,449.238c.036.109.553.019,1.132.234.585.2.941.6,1.034.535.1-.04-.186-.661-.91-.915s-1.311.049-1.255.145" transform="translate(-171.968 -181.865)" fill="#fff"/>
            <path id="Trazado_207632" data-name="Trazado 207632" d="M423.978,454.02c.1-.033-.067-.61-.641-1s-1.152-.324-1.143-.217.462.224.929.55.754.715.856.665" transform="translate(-171.011 -183.376)" fill="#fff"/>
            <path id="Trazado_207633" data-name="Trazado 207633" d="M424.965,440.727c.095.065.451-.346,1.015-.645s1.093-.387,1.091-.5-.621-.216-1.28.147-.92.953-.826,1" transform="translate(-172.126 -178.012)" fill="#fff"/>
            <path id="Trazado_207634" data-name="Trazado 207634" d="M422.724,324.2s-32.2,10.734-37.489,15.009c-4.262,3.442-3.7,13.317-1.226,17.258,1.007,1.6,23.244,38.909,23.244,38.909l11.041-6.035-14.872-36.427s36.323-7.052,43.043-10.079c8.32-3.746,5.656-12.385,5.656-12.385l-1.456-6.25Z" transform="translate(-154.767 -131.319)" fill="#1a2e35"/>
            <path id="Trazado_207635" data-name="Trazado 207635" d="M430.222,407.258l6.692,10.206s-7.783,10.214-6.724,12.221l19.6-12.235-9.8-16.329Z" transform="translate(-174.21 -162.476)" fill="#375a64"/>
            <path id="Trazado_207636" data-name="Trazado 207636" d="M450.42,420.736a.956.956,0,0,1,1.126.6.919.919,0,0,1-.552,1.137,1.009,1.009,0,0,1-1.189-.64.946.946,0,0,1,.7-1.116" transform="translate(-182.188 -170.408)" fill="#e1e1e1"/>
            <path id="Trazado_207637" data-name="Trazado 207637" d="M449.733,427.474l-1.05-1.608-18.4,12.332s-.634.937-.151,1.511Z" transform="translate(-174.153 -172.499)" fill="#1a2e35"/>
            <path id="Trazado_207638" data-name="Trazado 207638" d="M441.542,428.387c.063.1.569-.157,1.233-.133.664.006,1.167.283,1.231.189.077-.074-.425-.576-1.229-.591s-1.311.457-1.235.535" transform="translate(-178.845 -173.303)" fill="#fff"/>
            <path id="Trazado_207639" data-name="Trazado 207639" d="M438.948,432.313c.036.109.553.019,1.132.234.585.2.941.6,1.034.535.1-.04-.186-.661-.91-.915s-1.311.049-1.255.145" transform="translate(-177.796 -175.01)" fill="#fff"/>
            <path id="Trazado_207640" data-name="Trazado 207640" d="M438.365,437.172c.1-.033-.067-.61-.641-1s-1.152-.324-1.143-.217.462.224.929.55.754.715.856.665" transform="translate(-176.839 -176.552)" fill="#fff"/>
            <path id="Trazado_207641" data-name="Trazado 207641" d="M439.767,424.765c.095.065.451-.346,1.015-.645s1.093-.387,1.091-.5-.621-.216-1.28.147-.92.953-.826,1" transform="translate(-178.122 -171.546)" fill="#fff"/>
            <path id="Trazado_207642" data-name="Trazado 207642" d="M390.077,322.28c-1.849,1.707-4.679,7.3-1.666,13.862,1.91,4.163,28.255,44.894,28.255,44.894L427.355,374s-9.159-19.2-12.214-28.192a196.861,196.861,0,0,0-7.824-18.07l16.6-6.1s-17.745-5.635-24.2-4.254a18.936,18.936,0,0,0-9.639,4.9" transform="translate(-156.792 -128.469)" fill="#1a2e35"/>
            <path id="Trazado_207643" data-name="Trazado 207643" d="M390.039,322.235a5.156,5.156,0,0,1,.447-.458,14.488,14.488,0,0,1,1.456-1.178,20.447,20.447,0,0,1,6.469-3.022l1.162-.287c.4-.075.824-.119,1.252-.182a19.47,19.47,0,0,1,2.7-.014,47.1,47.1,0,0,1,6.055.78,132.206,132.206,0,0,1,14.333,3.605l.336.1-.33.121-16.6,6.115.076-.187q1.925,3.946,3.834,8.2c1.261,2.836,2.52,5.766,3.635,8.831,1.055,3.081,2.267,6.166,3.585,9.28s2.7,6.259,4.132,9.434c1.619,3.58,3.244,7.1,4.863,10.511l.056.117-.109.071-10.691,7.036-.122.08-.079-.123c-5.313-8.233-10.243-15.93-14.637-22.851s-8.263-13.062-11.377-18.232c-.771-1.3-1.512-2.521-2.129-3.734a15.479,15.479,0,0,1-1.166-3.63,14.306,14.306,0,0,1-.171-3.3,13.59,13.59,0,0,1,.5-2.714,11.279,11.279,0,0,1,1.641-3.4,5.435,5.435,0,0,1,.869-.978s-.072.086-.222.246a6.647,6.647,0,0,0-.606.762,11.511,11.511,0,0,0-1.588,3.4,13.61,13.61,0,0,0-.476,2.694,14.237,14.237,0,0,0,.191,3.261,15.4,15.4,0,0,0,1.174,3.586c.613,1.193,1.362,2.417,2.138,3.708,3.132,5.153,7.022,11.28,11.429,18.193s9.351,14.6,14.671,22.828l-.2-.042,10.687-7.042-.052.189c-1.622-3.417-3.248-6.933-4.868-10.516-1.434-3.176-2.821-6.323-4.133-9.441s-2.534-6.219-3.586-9.3c-1.107-3.053-2.362-5.98-3.618-8.814s-2.542-5.568-3.82-8.2l-.066-.136.142-.052,16.609-6.082.005.224a133.651,133.651,0,0,0-14.3-3.644,47.335,47.335,0,0,0-6.03-.8,19.31,19.31,0,0,0-2.683,0c-.421.06-.835.1-1.235.172l-1.157.279a20.723,20.723,0,0,0-6.465,2.949,16.152,16.152,0,0,0-1.472,1.147l-.471.432" transform="translate(-156.754 -128.423)" fill="#375a64"/>
            <path id="Trazado_207644" data-name="Trazado 207644" d="M414.547,328.3a10.487,10.487,0,0,1,3.955,4.144c-.074.049-.815-1-1.906-2.14s-2.1-1.932-2.048-2" transform="translate(-167.913 -132.977)" fill="#375a64"/>
            <path id="Trazado_207645" data-name="Trazado 207645" d="M430.123,407.155a1.112,1.112,0,0,1,.155-.111l.487-.319,1.91-1.232,7.161-4.568.093-.059.058.1,9.832,16.307.076.127-.126.079-8.015,5.008-11.587,7.223-.14.087-.066-.143a1.689,1.689,0,0,1-.05-1.079,6.1,6.1,0,0,1,.294-.966,16.711,16.711,0,0,1,.827-1.764c.6-1.124,1.253-2.174,1.9-3.172,1.3-1.992,2.587-3.781,3.794-5.375l0,.128-4.865-7.529-1.3-2.035-.33-.526a1.256,1.256,0,0,1-.1-.177,1.847,1.847,0,0,1,.134.183l.362.53,1.361,2.026,4.928,7.406.043.065-.048.064c-1.19,1.6-2.465,3.392-3.751,5.382-.638,1-1.281,2.044-1.873,3.16a16.374,16.374,0,0,0-.807,1.736,5.782,5.782,0,0,0-.278.92,1.445,1.445,0,0,0,.024.886l-.206-.055,11.578-7.239,8.019-5-.049.205-9.76-16.352.151.036-7.168,4.432-1.96,1.2-.516.311a1.66,1.66,0,0,1-.186.1" transform="translate(-174.111 -162.372)" fill="#1a2e35"/>
            <g id="Grupo_150534" data-name="Grupo 150534" transform="translate(234.308 191.644)" opacity="0.3">
              <g id="Grupo_150533" data-name="Grupo 150533">
                <g id="Grupo_150532" data-name="Grupo 150532" clip-path="url(#clip-path-7)">
                  <path id="Trazado_207646" data-name="Trazado 207646" d="M393.83,323.358l24.455,1.139,37.991,2.538-.857-3.677h.826l-.079-1.239H395.575Z" transform="translate(-393.83 -322.119)"/>
                </g>
              </g>
            </g>
            <path id="Trazado_207647" data-name="Trazado 207647" d="M493.157,279.741a2.817,2.817,0,0,1,.25.54l.616,1.541c.527,1.378,1.239,3.242,2.069,5.413l.042.109-.1.062-4.135,2.551c-3.038,1.865-5.8,3.537-7.8,4.735l-2.383,1.4a6.287,6.287,0,0,1-.9.479,6.366,6.366,0,0,1,.833-.581l2.332-1.489c1.976-1.245,4.717-2.947,7.756-4.812l4.147-2.531-.059.172-1.963-5.451q-.328-.955-.539-1.57a2.82,2.82,0,0,1-.163-.572" transform="translate(-194.755 -113.31)" fill="#1a2e35"/>
            <path id="Trazado_207648" data-name="Trazado 207648" d="M384.8,274.185l32.43,1.61a2.037,2.037,0,0,1,2.151,1.638l2.564,23.791,16.71.694a.975.975,0,0,1-.081,1.948l-16.418-.681-3.116-.129-33.835-1.4-2.612-25.106a2.13,2.13,0,0,1,2.206-2.36" transform="translate(-154.966 -111.059)" fill="#e1e1e1"/>
            <path id="Trazado_207649" data-name="Trazado 207649" d="M384.775,274.181a1.72,1.72,0,0,0-.513.027A2.147,2.147,0,0,0,382.544,276a6.01,6.01,0,0,0,.064,1.339c.1.961.207,2.069.331,3.313.509,4.987,1.241,12.174,2.142,21.009l.008.086.087,0,51.775,2.179,1.393.058a1.352,1.352,0,0,0,.743-.109,1.106,1.106,0,0,0,.076-1.933,1.349,1.349,0,0,0-.725-.168l-.687-.028-5.422-.224-10.4-.428.121.113c-.925-8.521-1.788-16.47-2.562-23.6a1.833,1.833,0,0,0-.549-1.26,2.417,2.417,0,0,0-1.218-.6,10.713,10.713,0,0,0-1.306-.1l-1.274-.061-4.883-.236-8.677-.415-12.354-.576-3.306-.143-.854-.032c-.192-.005-.29,0-.29,0s.1.013.289.026l.853.054,3.3.184,12.351.65,8.676.446,4.882.249,1.274.065a10.616,10.616,0,0,1,1.274.1,2.208,2.208,0,0,1,1.111.546,1.618,1.618,0,0,1,.481,1.129l2.526,23.6.011.108.109,0,10.4.435,5.422.226.687.029a1.089,1.089,0,0,1,.6.13.844.844,0,0,1-.057,1.475,1.089,1.089,0,0,1-.614.082l-1.394-.058-51.777-2.117.1.09c-.938-8.832-1.7-16.016-2.229-21-.134-1.243-.254-2.349-.358-3.31a6.067,6.067,0,0,1-.078-1.32,2.086,2.086,0,0,1,.418-.994,2.126,2.126,0,0,1,1.233-.777,4.206,4.206,0,0,1,.507-.056" transform="translate(-154.941 -111.055)" fill="#1a2e35"/>
            <path id="Trazado_207650" data-name="Trazado 207650" d="M413.188,296.538a2.033,2.033,0,1,1-1.947-2.115,2.032,2.032,0,0,1,1.947,2.115" transform="translate(-165.717 -119.256)" fill="#fff"/>
            <path id="Trazado_207651" data-name="Trazado 207651" d="M444.147,304c-.046.006-.829-6.058-1.748-13.542s-1.627-13.558-1.581-13.564.829,6.057,1.749,13.543,1.627,13.557,1.581,13.562" transform="translate(-178.554 -112.156)" fill="#1a2e35"/>
          </g>
        </g>
      </g>
    </g>
  </g>
</svg>
