<svg xmlns="http://www.w3.org/2000/svg" width="141" height="140" viewBox="0 0 141 140">
  <g id="Grupo_151338" data-name="Grupo 151338" transform="translate(-257 -8315)">
    <g id="Elipse_6060" data-name="Elipse 6060" transform="translate(257 8315)" fill="#fff" stroke="#f40b74" stroke-width="9">
      <ellipse cx="70.5" cy="70" rx="70.5" ry="70" stroke="none"/>
      <ellipse cx="70.5" cy="70" rx="66" ry="65.5" fill="none"/>
    </g>
    <g id="Grupo_150824" data-name="Grupo 150824" transform="translate(6563.159 11324.329)">
      <path id="Trazado_209276" data-name="Trazado 209276" d="M289.908,1232.325a1.328,1.328,0,0,1,1.3.334l6.305,6.3a41.122,41.122,0,0,0-2.456,5.075,4.571,4.571,0,0,0-5,1.039,4.712,4.712,0,0,0-1.269,4.112,14.5,14.5,0,0,0-9.392,4.31c-5.375,5.483-5.01,11.014-2.669,18.162,1.111,3.39-3.967,5.619-4.021,5.64a1.28,1.28,0,0,0,.187,2.419,38.462,38.462,0,0,0,9.431,1.2c7.261,0,13.775-2.227,17.847-6.36a14.974,14.974,0,0,0,4.223-9.535,4.456,4.456,0,0,0,4.049-1.3,4.741,4.741,0,0,0,1-5.079,39.811,39.811,0,0,0,5.152-2.591l5.578,5.58a1.324,1.324,0,0,1,.334,1.314,14.461,14.461,0,0,0,3.747,13.88,13.866,13.866,0,0,0,9.866,4.109,14.745,14.745,0,0,0,5.417-1.047,1.28,1.28,0,0,0,.435-2.1l-7.411-7.4a1.424,1.424,0,0,1-.4-1.152l.475-3.243a1.354,1.354,0,0,1,1.158-1.152l3.213-.47a1.43,1.43,0,0,1,1.159.384l7.409,7.422a1.28,1.28,0,0,0,2.1-.435,14.032,14.032,0,0,0-3.059-15.28,14.47,14.47,0,0,0-13.891-3.731,1.322,1.322,0,0,1-1.3-.338l-5.2-5.194c8.886-10.382,29.354-35.714,23.306-41.864a4.361,4.361,0,0,0-3.245-1.2c-8.337,0-28.832,16.69-38.158,24.972l-5.693-5.693a1.325,1.325,0,0,1-.324-1.29,14.422,14.422,0,0,0-3.735-13.894,14.007,14.007,0,0,0-15.272-3.058,1.28,1.28,0,0,0-.436,2.095l7.422,7.432a1.3,1.3,0,0,1,.37,1.118l-.459,3.248a1.36,1.36,0,0,1-1.142,1.143l-3.271.463a1.3,1.3,0,0,1-1.11-.384l-7.422-7.409a1.28,1.28,0,0,0-2.092.434,14.008,14.008,0,0,0,3.056,15.272A14.418,14.418,0,0,0,289.908,1232.325Zm12.925,3.461,14.724,14.972a34.049,34.049,0,0,1-9.687,5.759l-10.694-10.877a35.062,35.062,0,0,1,5.654-9.854Zm-4.489,36.983c-4.625,4.7-12.936,6.59-21.755,5.119,1.935-1.606,3.549-4.031,2.568-7.02-2.472-7.55-1.951-11.48,2.065-15.571a11.96,11.96,0,0,1,8.87-3.57l1.246,1.268a14.9,14.9,0,0,0-8.958,6.749,1.28,1.28,0,1,0,2.129,1.418c3.327-4.991,7.133-5.819,9.062-5.9l1.1,1.114-7.008,7.009a1.28,1.28,0,1,0,1.809,1.81l6.994-6.993,1.292,1.315c-.114,3.071-1.456,8.179-8.431,11.282a1.28,1.28,0,0,0,.508,2.442,1.262,1.262,0,0,0,.518-.11c6.731-3,9.012-7.649,9.695-11.279l1.816,1.841a12.426,12.426,0,0,1-3.522,9.072Zm8.283-10.837a2.03,2.03,0,0,1-2.91,0l-11.841-12.041a2.163,2.163,0,0,1,0-3.021,2.031,2.031,0,0,1,2.91,0l11.837,12.038a2.168,2.168,0,0,1,0,3.02Zm20.977-7.72a3.881,3.881,0,0,0,3.778,1,11.889,11.889,0,0,1,11.412,3.071,11.4,11.4,0,0,1,3.081,10.593l-5.915-5.925a4.02,4.02,0,0,0-3.305-1.105l-3.234.472a3.887,3.887,0,0,0-3.327,3.327l-.479,3.247a4.021,4.021,0,0,0,1.121,3.294l5.914,5.9a11.4,11.4,0,0,1-10.593-3.081,11.886,11.886,0,0,1-3.071-11.4,3.9,3.9,0,0,0-.994-3.793l-5.2-5.2a25.92,25.92,0,0,0,3.5-2.943c.055-.055.9-.986,2.248-2.536Zm18.095-47.076c4.186,4.257-17.322,32.248-26.333,41.813l-14.755-15c6.871-6.593,31.473-27.249,39.668-27.249a1.92,1.92,0,0,1,1.42.439m-70.955,9.058,5.907,5.9a3.84,3.84,0,0,0,3.308,1.113l3.253-.461a3.933,3.933,0,0,0,3.312-3.313l.461-3.231a3.82,3.82,0,0,0-1.1-3.318l-5.912-5.917a11.376,11.376,0,0,1,10.587,3.084,11.859,11.859,0,0,1,3.071,11.419,3.877,3.877,0,0,0,1,3.769l5.588,5.588c-1.042.953-1.848,1.719-2.329,2.209a26.393,26.393,0,0,0-2.989,3.7l-5.874-5.875a3.891,3.891,0,0,0-3.776-1,11.866,11.866,0,0,1-11.423-3.071,11.389,11.389,0,0,1-3.081-10.587" transform="translate(-6547.052 -4181.92)" fill="#206897"/>
    </g>
  </g>
</svg>
