<svg xmlns="http://www.w3.org/2000/svg" width="141" height="140" viewBox="0 0 141 140">
  <g id="Grupo_151341" data-name="Grupo 151341" transform="translate(-1202 -8315)">
    <g id="Elipse_6240" data-name="Elipse 6240" transform="translate(1202 8315)" fill="#fff" stroke="#f40b74" stroke-width="9">
      <ellipse cx="70.5" cy="70" rx="70.5" ry="70" stroke="none"/>
      <ellipse cx="70.5" cy="70" rx="66" ry="65.5" fill="none"/>
    </g>
    <g id="Grupo_150822" data-name="Grupo 150822" transform="translate(7560.082 11565.093)">
      <path id="Trazado_209283" data-name="Trazado 209283" d="M127.654,223.993a1.406,1.406,0,0,0,0,2.812h5.625a1.406,1.406,0,0,0,0-2.812Z" transform="translate(-6434.139 -3405.663)" fill="#206897"/>
      <path id="Trazado_209284" data-name="Trazado 209284" d="M127.654,162.805h5.625a1.406,1.406,0,0,0,0-2.812h-5.625a1.406,1.406,0,0,0,0,2.812" transform="translate(-6434.139 -3352.913)" fill="#206897"/>
      <path id="Trazado_209285" data-name="Trazado 209285" d="M141.034,128.194a1.405,1.405,0,0,0-.724-.2H127.654a1.406,1.406,0,0,0,0,2.812H139.92l6.7,4.017a1.405,1.405,0,0,0,.724.2h7.29a4.218,4.218,0,1,0,0-2.812h-6.9Zm17.556,4.017a1.406,1.406,0,1,1-1.406,1.406,1.406,1.406,0,0,1,1.406-1.406" transform="translate(-6434.139 -3326.537)" fill="#206897"/>
      <path id="Trazado_209286" data-name="Trazado 209286" d="M151.3,245.606h5.088L160,251.62v6.641a1.406,1.406,0,0,0,2.812,0v-7.031a1.406,1.406,0,0,0-.2-.724l-4.219-7.031a1.406,1.406,0,0,0-1.205-.682H151.3a4.193,4.193,0,0,0-7.92,0H127.654a1.406,1.406,0,0,0,0,2.812h15.727a4.193,4.193,0,0,0,7.92,0m-3.96,0a1.406,1.406,0,1,1,1.406-1.406,1.406,1.406,0,0,1-1.406,1.406" transform="translate(-6434.139 -3418.839)" fill="#206897"/>
      <path id="Trazado_209287" data-name="Trazado 209287" d="M140.051,181.606h6.9l6.7,4.017a1.405,1.405,0,0,0,.724.2h8.7a4.218,4.218,0,1,0,0-2.812h-8.306l-6.7-4.017a1.405,1.405,0,0,0-.724-.2h-7.29a4.193,4.193,0,0,0-7.92,0h-4.477a1.406,1.406,0,0,0,0,2.812h4.477a4.193,4.193,0,0,0,7.92,0Zm26.976,1.406a1.406,1.406,0,1,1-1.406,1.406,1.406,1.406,0,0,1,1.406-1.406M134.685,180.2a1.406,1.406,0,1,1,1.406,1.406,1.406,1.406,0,0,1-1.406-1.406" transform="translate(-6434.139 -3366.089)" fill="#206897"/>
      <path id="Trazado_209288" data-name="Trazado 209288" d="M40.845,52.025A1.406,1.406,0,0,0,39.319,53.3L37.84,69.782A3.656,3.656,0,0,1,33.873,73.1L6.142,70.61a3.656,3.656,0,0,1-3.316-3.961L8.254,6.139a3.656,3.656,0,0,1,3.968-3.314L39.953,5.312a1.406,1.406,0,1,0,.252-2.8L12.474.023A6.468,6.468,0,0,0,5.457,5.887L.025,66.392a6.478,6.478,0,0,0,5.865,7.02L33.621,75.9q.292.025.582.025a6.479,6.479,0,0,0,6.439-5.892L42.12,53.558a1.406,1.406,0,0,0-1.268-1.532h-.008" transform="translate(-6330.082 -3221.04)" fill="#206897"/>
      <path id="Trazado_209289" data-name="Trazado 209289" d="M37.09,373.611a1.406,1.406,0,1,0-.252,2.8l2.521.226h.127a1.408,1.408,0,1,0,.125-2.812Z" transform="translate(-6359.317 -3528.969)" fill="#206897"/>
      <path id="Trazado_209290" data-name="Trazado 209290" d="M102.048,379.454a1.406,1.406,0,0,0-.252,2.8l2.521.226h.127a1.408,1.408,0,1,0,.125-2.812Z" transform="translate(-6412.929 -3533.794)" fill="#206897"/>
      <path id="Trazado_209291" data-name="Trazado 209291" d="M166.584,385.238a1.406,1.406,0,0,0-.252,2.8l2.521.226h.128a1.408,1.408,0,1,0,.124-2.812Z" transform="translate(-6466.122 -3538.562)" fill="#206897"/>
      <path id="Trazado_209292" data-name="Trazado 209292" d="M40.647,47.439a1.109,1.109,0,0,1,.823-.256l22.061,1.978a1.406,1.406,0,0,0,.273-2.8l-.022,0L41.72,44.382a3.937,3.937,0,0,0-4.273,3.57v0L33.263,94.591a3.937,3.937,0,0,0,3.57,4.269L59.522,100.9h.127a1.408,1.408,0,0,0,.125-2.812L37.079,96.063a1.125,1.125,0,0,1-1.021-1.22v0L40.243,48.2A1.117,1.117,0,0,1,40.647,47.439Z" transform="translate(-6357.485 -3257.61)" fill="#206897"/>
      <path id="Trazado_209293" data-name="Trazado 209293" d="M135.821,31.037h.127a1.408,1.408,0,1,0,.124-2.812L133.55,28a1.409,1.409,0,0,0-.25,2.807Z" transform="translate(-6438.893 -3244.115)" fill="#206897"/>
      <path id="Trazado_209294" data-name="Trazado 209294" d="M271.578,25.567A6.318,6.318,0,0,0,266.96,24l-27.247,1.8a6.37,6.37,0,0,0-5.938,6.774h0l.735,11.148a1.426,1.426,0,0,0,1.5,1.312,1.406,1.406,0,0,0,1.311-1.5h0l-.735-11.147a3.558,3.558,0,0,1,3.312-3.785l27.253-1.8a3.558,3.558,0,0,1,3.785,3.314h0l3.92,59.45a3.556,3.556,0,0,1-3.312,3.785h-.008l-27.243,1.8a3.553,3.553,0,0,1-3.786-3.3s0-.008,0-.011l-.863-13.1a1.409,1.409,0,1,0-2.812.183l.863,13.106a6.383,6.383,0,0,0,6.356,5.952c.141,0,.281,0,.422-.014l27.253-1.8a6.373,6.373,0,0,0,5.938-6.776l-3.92-59.45A6.328,6.328,0,0,0,271.578,25.567Z" transform="translate(-6522.754 -3240.812)" fill="#206897"/>
      <path id="Trazado_209295" data-name="Trazado 209295" d="M421.765,390.93l-2.476.163a1.407,1.407,0,1,0,.091,2.812h.094l2.476-.163a1.409,1.409,0,0,0-.186-2.812" transform="translate(-6674.549 -3543.255)" fill="#206897"/>
      <path id="Trazado_209296" data-name="Trazado 209296" d="M355.865,395.277a1.407,1.407,0,1,0,.091,2.812h.094l2.478-.163a1.409,1.409,0,0,0-.186-2.812Z" transform="translate(-6622.274 -3546.704)" fill="#206897"/>
      <path id="Trazado_209297" data-name="Trazado 209297" d="M292.457,399.453a1.407,1.407,0,0,0,.091,2.812h.094l2.476-.163a1.409,1.409,0,0,0-.186-2.812Z" transform="translate(-6570.011 -3550.146)" fill="#206897"/>
      <path id="Trazado_209298" data-name="Trazado 209298" d="M263.849,72.851l.326,4.955a1.409,1.409,0,0,0,2.812-.184l-.333-4.958a1.077,1.077,0,0,1,1-1.146l22.293-1.469a1.088,1.088,0,0,1,1.145,1l3.022,45.827a1.076,1.076,0,0,1-1,1.145h0l-22.292,1.469a1.407,1.407,0,0,0,.091,2.812h.094L293.3,120.83a3.9,3.9,0,0,0,3.625-4.137L293.9,70.864a3.894,3.894,0,0,0-4.137-3.622l-22.293,1.469A3.9,3.9,0,0,0,263.849,72.851Z" transform="translate(-6547.547 -3276.458)" fill="#206897"/>
      <path id="Trazado_209299" data-name="Trazado 209299" d="M333.283,52.788l2.476-.165a1.409,1.409,0,1,0-.184-2.812l-2.478.165a1.407,1.407,0,1,0,.091,2.812Z" transform="translate(-6603.508 -3262.095)" fill="#206897"/>
    </g>
  </g>
</svg>
