<svg id="Grupo_150453" data-name="Grupo 150453" xmlns="http://www.w3.org/2000/svg" xmlns:xlink="http://www.w3.org/1999/xlink" width="825.199" height="304.003" viewBox="0 0 825.199 304.003">
  <defs>
    <clipPath id="clip-path">
      <rect id="Rectángulo_299223" data-name="Rectángulo 299223" width="825.199" height="304.003" fill="none"/>
    </clipPath>
    <clipPath id="clip-path-2">
      <rect id="Rectángulo_299204" data-name="Rectángulo 299204" width="409.619" height="22.529" transform="translate(206.191 35.709)" fill="none"/>
    </clipPath>
    <clipPath id="clip-path-3">
      <rect id="Rectángulo_299208" data-name="Rectángulo 299208" width="72.715" height="22.53" transform="translate(95.813 144.106)" fill="none"/>
    </clipPath>
    <clipPath id="clip-path-4">
      <rect id="Rectángulo_299209" data-name="Rectángulo 299209" width="109.727" height="22.53" transform="translate(355.916 144.106)" fill="none"/>
    </clipPath>
    <clipPath id="clip-path-5">
      <rect id="Rectángulo_299210" data-name="Rectángulo 299210" width="101.162" height="22.53" transform="translate(637.646 144.106)" fill="none"/>
    </clipPath>
    <clipPath id="clip-path-6">
      <rect id="Rectángulo_299212" data-name="Rectángulo 299212" width="67.852" height="22.529" transform="translate(30.007 249.833)" fill="none"/>
    </clipPath>
    <clipPath id="clip-path-7">
      <rect id="Rectángulo_299214" data-name="Rectángulo 299214" width="80.498" height="22.529" transform="translate(164.017 249.833)" fill="none"/>
    </clipPath>
    <clipPath id="clip-path-8">
      <rect id="Rectángulo_299216" data-name="Rectángulo 299216" width="60.713" height="22.529" transform="translate(310.584 249.833)" fill="none"/>
    </clipPath>
    <clipPath id="clip-path-9">
      <rect id="Rectángulo_299218" data-name="Rectángulo 299218" width="109.746" height="22.529" transform="translate(426.4 249.833)" fill="none"/>
    </clipPath>
    <clipPath id="clip-path-10">
      <rect id="Rectángulo_299220" data-name="Rectángulo 299220" width="101.836" height="46.529" transform="translate(570.67 235.612)" fill="none"/>
    </clipPath>
    <clipPath id="clip-path-11">
      <rect id="Rectángulo_299222" data-name="Rectángulo 299222" width="95.127" height="46.529" transform="translate(714.357 235.612)" fill="none"/>
    </clipPath>
  </defs>
  <g id="Grupo_150483" data-name="Grupo 150483" clip-path="url(#clip-path)">
    <path id="Trazado_207229" data-name="Trazado 207229" d="M809.854,91.55H12.147A11.147,11.147,0,0,1,1,80.4V12.147A11.147,11.147,0,0,1,12.147,1H809.854A11.147,11.147,0,0,1,821,12.147V80.4A11.146,11.146,0,0,1,809.854,91.55" fill="#fbaed1"/>
    <path id="Rectángulo_299203" data-name="Rectángulo 299203" d="M11.146,0H808.853A11.147,11.147,0,0,1,820,11.147V79.4A11.147,11.147,0,0,1,808.853,90.55H11.146A11.146,11.146,0,0,1,0,79.4V11.146A11.146,11.146,0,0,1,11.146,0Z" transform="translate(1 1)" fill="none" stroke="#f40b74" stroke-miterlimit="10" stroke-width="2"/>
    <g id="Grupo_150455" data-name="Grupo 150455" style="isolation: isolate">
      <g id="Grupo_150454" data-name="Grupo 150454">
        <g id="Grupo_150453-2" data-name="Grupo 150453" clip-path="url(#clip-path-2)">
          <text id="Pilares_de_la_medición_en_los_medios_sociales" data-name="Pilares de la medición en los medios sociales" transform="translate(206.19 52.818)" fill="#12263f" font-size="20" font-family="Roboto-Black, Roboto" font-weight="800"><tspan x="0" y="0">Pila</tspan><tspan y="0" letter-spacing="-0.009em">r</tspan><tspan y="0">es de la medición en los medios sociales</tspan></text>
        </g>
      </g>
    </g>
    <path id="Trazado_207230" data-name="Trazado 207230" d="M254.038,197.277H13.508A12.508,12.508,0,0,1,1,184.77V119.234a12.508,12.508,0,0,1,12.508-12.507h240.53a12.507,12.507,0,0,1,12.507,12.507V184.77a12.507,12.507,0,0,1-12.507,12.507" fill="#fdd7ae"/>
    <path id="Rectángulo_299205" data-name="Rectángulo 299205" d="M12.507,0h240.53a12.508,12.508,0,0,1,12.508,12.508V78.043A12.507,12.507,0,0,1,253.038,90.55H12.507A12.507,12.507,0,0,1,0,78.043V12.507A12.507,12.507,0,0,1,12.507,0Z" transform="translate(1 106.727)" fill="none" stroke="#f9860b" stroke-miterlimit="10" stroke-width="2"/>
    <path id="Trazado_207231" data-name="Trazado 207231" d="M531.044,197.277H290.514a12.508,12.508,0,0,1-12.508-12.507V119.234a12.508,12.508,0,0,1,12.508-12.507h240.53a12.507,12.507,0,0,1,12.507,12.507V184.77a12.507,12.507,0,0,1-12.507,12.507" fill="#fdd7ae"/>
    <rect id="Rectángulo_299206" data-name="Rectángulo 299206" width="265.545" height="90.55" rx="12.507" transform="translate(278.006 106.727)" fill="none" stroke="#f9860b" stroke-miterlimit="10" stroke-width="2"/>
    <path id="Trazado_207232" data-name="Trazado 207232" d="M808.493,197.277H567.963a12.508,12.508,0,0,1-12.508-12.507V119.234a12.508,12.508,0,0,1,12.508-12.507h240.53A12.507,12.507,0,0,1,821,119.234V184.77a12.507,12.507,0,0,1-12.507,12.507" fill="#fdd7ae"/>
    <rect id="Rectángulo_299207" data-name="Rectángulo 299207" width="265.545" height="90.55" rx="12.507" transform="translate(555.455 106.727)" fill="none" stroke="#f9860b" stroke-miterlimit="10" stroke-width="2"/>
    <g id="Grupo_150458" data-name="Grupo 150458" style="isolation: isolate">
      <g id="Grupo_150457" data-name="Grupo 150457">
        <g id="Grupo_150456" data-name="Grupo 150456" clip-path="url(#clip-path-3)">
          <text id="Alcance" transform="translate(95.842 161.216)" fill="#12263f" font-size="20" font-family="Roboto-Black, Roboto" font-weight="800"><tspan x="0" y="0">Alcance</tspan></text>
        </g>
      </g>
    </g>
    <g id="Grupo_150461" data-name="Grupo 150461" style="isolation: isolate">
      <g id="Grupo_150460" data-name="Grupo 150460">
        <g id="Grupo_150459" data-name="Grupo 150459" clip-path="url(#clip-path-4)">
          <text id="Discusiones" transform="translate(355.916 161.216)" fill="#12263f" font-size="20" font-family="Roboto-Black, Roboto" font-weight="800"><tspan x="0" y="0">Discusiones</tspan></text>
        </g>
      </g>
    </g>
    <g id="Grupo_150464" data-name="Grupo 150464" style="isolation: isolate">
      <g id="Grupo_150463" data-name="Grupo 150463">
        <g id="Grupo_150462" data-name="Grupo 150462" clip-path="url(#clip-path-5)">
          <text id="Resultados" transform="translate(637.646 161.216)" fill="#12263f" font-size="20" font-family="Roboto-Black, Roboto" font-weight="800"><tspan x="0" y="0">Resultados</tspan></text>
        </g>
      </g>
    </g>
    <path id="Trazado_207233" data-name="Trazado 207233" d="M113.841,303H14.026A13.026,13.026,0,0,1,1,289.977v-64.5a13.026,13.026,0,0,1,13.026-13.026h99.815a13.026,13.026,0,0,1,13.026,13.026v64.5A13.026,13.026,0,0,1,113.841,303" fill="#83abc5"/>
    <rect id="Rectángulo_299211" data-name="Rectángulo 299211" width="125.867" height="90.55" rx="13.026" transform="translate(1 212.453)" fill="none" stroke="#206897" stroke-miterlimit="10" stroke-width="2"/>
    <g id="Grupo_150467" data-name="Grupo 150467" style="isolation: isolate">
      <g id="Grupo_150466" data-name="Grupo 150466">
        <g id="Grupo_150465" data-name="Grupo 150465" clip-path="url(#clip-path-6)">
          <text id="Calidad" transform="translate(30.007 266.942)" fill="#12263f" font-size="20" font-family="Roboto-Black, Roboto" font-weight="800"><tspan x="0" y="0">Calidad</tspan></text>
        </g>
      </g>
    </g>
    <path id="Trazado_207234" data-name="Trazado 207234" d="M253.519,303H153.7a13.026,13.026,0,0,1-13.026-13.026v-64.5A13.026,13.026,0,0,1,153.7,212.453h99.815a13.026,13.026,0,0,1,13.026,13.026v64.5A13.026,13.026,0,0,1,253.519,303" fill="#83abc5"/>
    <rect id="Rectángulo_299213" data-name="Rectángulo 299213" width="125.867" height="90.55" rx="13.026" transform="translate(140.678 212.453)" fill="none" stroke="#206897" stroke-miterlimit="10" stroke-width="2"/>
    <g id="Grupo_150470" data-name="Grupo 150470" style="isolation: isolate">
      <g id="Grupo_150469" data-name="Grupo 150469">
        <g id="Grupo_150468" data-name="Grupo 150468" clip-path="url(#clip-path-7)">
          <text id="Cantidad" transform="translate(164.017 266.942)" fill="#12263f" font-size="20" font-family="Roboto-Black, Roboto" font-weight="800"><tspan x="0" y="0">Cantidad</tspan></text>
        </g>
      </g>
    </g>
    <path id="Trazado_207235" data-name="Trazado 207235" d="M390.848,303H291.033a13.026,13.026,0,0,1-13.026-13.026v-64.5a13.026,13.026,0,0,1,13.026-13.026h99.815a13.026,13.026,0,0,1,13.026,13.026v64.5A13.026,13.026,0,0,1,390.848,303" fill="#83abc5"/>
    <rect id="Rectángulo_299215" data-name="Rectángulo 299215" width="125.867" height="90.55" rx="13.026" transform="translate(278.007 212.453)" fill="none" stroke="#206897" stroke-miterlimit="10" stroke-width="2"/>
    <g id="Grupo_150473" data-name="Grupo 150473" style="isolation: isolate">
      <g id="Grupo_150472" data-name="Grupo 150472">
        <g id="Grupo_150471" data-name="Grupo 150471" clip-path="url(#clip-path-8)">
          <text id="Temas" transform="translate(310.583 266.942)" fill="#12263f" font-size="20" font-family="Roboto-Black, Roboto" font-weight="800"><tspan x="0" y="0" letter-spacing="-0.043em">T</tspan><tspan y="0">emas</tspan></text>
        </g>
      </g>
    </g>
    <path id="Trazado_207236" data-name="Trazado 207236" d="M530.526,303H430.711a13.026,13.026,0,0,1-13.026-13.026v-64.5a13.026,13.026,0,0,1,13.026-13.026h99.815a13.026,13.026,0,0,1,13.026,13.026v64.5A13.026,13.026,0,0,1,530.526,303" fill="#83abc5"/>
    <rect id="Rectángulo_299217" data-name="Rectángulo 299217" width="125.867" height="90.55" rx="13.026" transform="translate(417.685 212.453)" fill="none" stroke="#206897" stroke-miterlimit="10" stroke-width="2"/>
    <g id="Grupo_150476" data-name="Grupo 150476" style="isolation: isolate">
      <g id="Grupo_150475" data-name="Grupo 150475">
        <g id="Grupo_150474" data-name="Grupo 150474" clip-path="url(#clip-path-9)">
          <text id="Sentimiento" transform="translate(426.4 266.942)" fill="#12263f" font-size="20" font-family="Roboto-Black, Roboto" font-weight="800"><tspan x="0" y="0">Sentimien</tspan><tspan y="0" letter-spacing="-0.013em">t</tspan><tspan y="0">o</tspan></text>
        </g>
      </g>
    </g>
    <path id="Trazado_207237" data-name="Trazado 207237" d="M671.495,303H571.68a13.026,13.026,0,0,1-13.026-13.026v-64.5a13.026,13.026,0,0,1,13.026-13.026h99.815a13.026,13.026,0,0,1,13.026,13.026v64.5A13.026,13.026,0,0,1,671.495,303" fill="#83abc5"/>
    <rect id="Rectángulo_299219" data-name="Rectángulo 299219" width="125.867" height="90.55" rx="13.026" transform="translate(558.654 212.453)" fill="none" stroke="#206897" stroke-miterlimit="10" stroke-width="2"/>
    <g id="Grupo_150479" data-name="Grupo 150479" style="isolation: isolate">
      <g id="Grupo_150478" data-name="Grupo 150478">
        <g id="Grupo_150477" data-name="Grupo 150477" clip-path="url(#clip-path-10)">
          <text id="Tráfico_del_" data-name="Tráfico del " transform="translate(570.669 252.722)" fill="#12263f" font-size="20" font-family="Roboto-Black, Roboto" font-weight="800"><tspan x="0" y="0" letter-spacing="-0.031em">T</tspan><tspan y="0" letter-spacing="-0.014em">r</tspan><tspan y="0">áfico del </tspan></text>
          <text id="sitio_web" data-name="sitio web" transform="translate(581.09 276.722)" fill="#12263f" font-size="20" font-family="Roboto-Black, Roboto" font-weight="800"><tspan x="0" y="0">sitio </tspan><tspan y="0" font-family="Roboto-BlackItalic, Roboto" font-style="italic">web</tspan></text>
        </g>
      </g>
    </g>
    <path id="Trazado_207238" data-name="Trazado 207238" d="M811.173,303H711.358a13.026,13.026,0,0,1-13.026-13.026v-64.5a13.026,13.026,0,0,1,13.026-13.026h99.815A13.026,13.026,0,0,1,824.2,225.479v64.5A13.026,13.026,0,0,1,811.173,303" fill="#83abc5"/>
    <rect id="Rectángulo_299221" data-name="Rectángulo 299221" width="125.867" height="90.55" rx="13.026" transform="translate(698.332 212.453)" fill="none" stroke="#206897" stroke-miterlimit="10" stroke-width="2"/>
    <g id="Grupo_150482" data-name="Grupo 150482" style="isolation: isolate">
      <g id="Grupo_150481" data-name="Grupo 150481">
        <g id="Grupo_150480" data-name="Grupo 150480" clip-path="url(#clip-path-11)">
          <text id="Intención_" data-name="Intención " transform="translate(717.057 252.722)" fill="#12263f" font-size="20" font-family="Roboto-Black, Roboto" font-weight="800"><tspan x="0" y="0">Intención </tspan></text>
          <text id="de_compra" data-name="de compra" transform="translate(714.357 276.722)" fill="#12263f" font-size="20" font-family="Roboto-Black, Roboto" font-weight="800"><tspan x="0" y="0">de comp</tspan><tspan y="0" letter-spacing="-0.015em">r</tspan><tspan y="0">a</tspan></text>
        </g>
      </g>
    </g>
  </g>
</svg>
